<?xml version="1.0" encoding="UTF-8"?>
<svg version="1.1" xmlns="http://www.w3.org/2000/svg" width="512" height="512">
<path d="M0 0 C168.96 0 337.92 0 512 0 C512 168.96 512 337.92 512 512 C343.04 512 174.08 512 0 512 C0 343.04 0 174.08 0 0 Z " fill="#655BC9" transform="translate(0,0)"/>
<path d="M0 0 C0 3.3 0 6.6 0 10 C-2.97 10 -5.94 10 -9 10 C-8.34 11.32 -7.68 12.64 -7 14 C-6.20029673 20.20029676 -6.7925339 25.54730762 -10 31 C-14.90964335 36.02122615 -19.28454591 37.91206026 -26.30078125 38.078125 C-28.63565904 38.06791788 -30.97058812 38.03380008 -33.3046875 37.97265625 C-35.91802816 37.68472909 -35.91802816 37.68472909 -37 39 C-37.16666667 41.5 -37.16666667 41.5 -37 44 C-35.39805327 45.60194673 -33.65817247 45.1652828 -31.44140625 45.2109375 C-30.49716797 45.23929688 -29.55292969 45.26765625 -28.58007812 45.296875 C-26.60368217 45.34804383 -24.62710032 45.39256619 -22.65039062 45.4296875 C-15.29268403 45.66783309 -6.39736835 46.06131597 -0.875 51.5625 C1.66957663 56.22755715 1.97224578 59.80129735 1 65 C-1.17640089 70.9877058 -4.90487009 74.07355424 -10.42578125 76.9921875 C-16.98682178 79.5608498 -23.02299412 80.34226538 -30 80.3125 C-31.13308594 80.33666992 -31.13308594 80.33666992 -32.2890625 80.36132812 C-38.08000875 80.36630316 -44.12741939 79.66346212 -48.56616211 75.54785156 C-51.12583268 72.54205006 -52.86595038 70.17963661 -53.3125 66.25 C-52.91993628 62.16733731 -51.53100884 60.18183968 -49 57 C-48.01 56.34 -47.02 55.68 -46 55 C-47.20381448 52.50638429 -48.45428722 50.31856917 -50 48 C-50.49584053 43.62007531 -50.25480396 41.46714059 -48.125 37.5625 C-47.42375 36.716875 -46.7225 35.87125 -46 35 C-45.34 35 -44.68 35 -44 35 C-44.78375 33.96875 -45.5675 32.9375 -46.375 31.875 C-50.53848944 25.97770618 -52.00043268 20.16559904 -51 13 C-48.87394182 6.94798211 -44.54251799 3.22760957 -39.2109375 -0.125 C-28.5967442 -4.32567014 -11.29470104 -0.57657544 0 0 Z " fill="#FBFBFD" transform="translate(272,172)"/>
<path d="M0 0 C4.95 0 9.9 0 15 0 C15.33 8.91 15.66 17.82 16 27 C18.31 25.68 20.62 24.36 23 23 C29.51328827 21.93404669 36.49841638 22.09736787 42.28515625 25.53515625 C48.31211642 30.68347075 51.67771736 37.96100325 52.30078125 45.76953125 C52.3199537 47.11705678 52.3234002 48.46488217 52.3125 49.8125 C52.30621582 50.87198853 52.30621582 50.87198853 52.29980469 51.95288086 C52.18021818 57.49011776 51.38522183 62.02304364 49 67 C48.73316406 67.62132812 48.46632813 68.24265625 48.19140625 68.8828125 C45.43167684 74.54945688 40.57403615 78.21298193 35 81 C27.42652084 81.70103525 22.25252069 81.39006772 16 77 C15.01 76.67 14.02 76.34 13 76 C12.67 77.32 12.34 78.64 12 80 C8.04 80 4.08 80 0 80 C0 53.6 0 27.2 0 0 Z " fill="#FCFBFD" transform="translate(290,288)"/>
<path d="M0 0 C5.52531678 3.9314754 7.96106777 7.69489031 9.25 14.3125 C9.50172861 17.53422517 9.48404956 20.73494784 9.4453125 23.96484375 C9.4424826 24.86497696 9.43965271 25.76511017 9.43673706 26.69252014 C9.42561278 29.5451532 9.40052283 32.39746311 9.375 35.25 C9.36496017 37.19335482 9.35583608 39.13671459 9.34765625 41.08007812 C9.32569888 45.82434176 9.29122301 50.56836624 9.25 55.3125 C5.29 55.3125 1.33 55.3125 -2.75 55.3125 C-3.08 53.6625 -3.41 52.0125 -3.75 50.3125 C-4.47703125 50.745625 -5.2040625 51.17875 -5.953125 51.625 C-13.13469613 55.60248555 -19.50017101 58.26457221 -27.75 56.3125 C-31.9095111 53.93563651 -34.70662051 50.96451753 -37.25 46.9375 C-38.39379701 40.93256568 -38.77541962 35.29823999 -35.27734375 29.9453125 C-27.43288761 21.55916757 -16.6025752 20.05824658 -5.75 19.3125 C-6.08 17.0025 -6.41 14.6925 -6.75 12.3125 C-14.83784456 9.61655181 -22.96252623 11.4745486 -30.75 14.3125 C-31.58878455 13.02436658 -32.42086783 11.73186744 -33.25 10.4375 C-33.7140625 9.71820313 -34.178125 8.99890625 -34.65625 8.2578125 C-35.75 6.3125 -35.75 6.3125 -35.75 4.3125 C-34.56679424 3.67940809 -33.37812152 3.05653282 -32.1875 2.4375 C-31.52621094 2.08945313 -30.86492187 1.74140625 -30.18359375 1.3828125 C-21.52380592 -2.42582613 -8.9118216 -4.14542361 0 0 Z " fill="#FBFBFD" transform="translate(358.75,172.6875)"/>
<path d="M0 0 C1.27746094 -0.02578125 2.55492187 -0.0515625 3.87109375 -0.078125 C10.32803259 0.49582512 14.44795722 3.3570302 18.5625 8.25 C21.6258403 14.00462802 21.96865466 18.66957042 21.85546875 25.12109375 C21.85122391 26.043423 21.84697906 26.96575226 21.84260559 27.91603088 C21.82591364 30.84016035 21.78827938 33.76358149 21.75 36.6875 C21.73494089 38.67902645 21.72125464 40.67056379 21.70898438 42.66210938 C21.67604122 47.52500938 21.62432499 52.3873849 21.5625 57.25 C17.6025 57.25 13.6425 57.25 9.5625 57.25 C9.2325 55.6 8.9025 53.95 8.5625 52.25 C7.82386719 52.683125 7.08523438 53.11625 6.32421875 53.5625 C-0.66471296 57.39886404 -6.42001976 59.77033256 -14.4375 58.25 C-18.88896251 56.06473658 -21.62635145 53.3105479 -24.4375 49.25 C-26.1796488 44.02355359 -26.44097147 38.52899996 -23.9375 33.5 C-19.07096003 26.17475516 -10.63493646 23.90569691 -2.4375 22.25 C0.56908442 21.80248816 3.53024196 21.49854574 6.5625 21.25 C6.2325 18.94 5.9025 16.63 5.5625 14.25 C1.3070768 12.1222884 -2.75680784 11.52411726 -7.4375 12.25 C-9.86912807 13.19191104 -12.14940405 14.25962036 -14.45703125 15.47265625 C-16.4375 16.25 -16.4375 16.25 -19.4375 15.25 C-22.51709479 10.30065123 -22.51709479 10.30065123 -22.28125 7.1875 C-21.11968313 4.5201983 -19.8481469 4.14173591 -17.1875 3.0625 C-16.41921875 2.73894531 -15.6509375 2.41539062 -14.859375 2.08203125 C-9.88957126 0.37466319 -5.24746927 0.06341353 0 0 Z " fill="#FCFCFD" transform="translate(252.4375,310.75)"/>
<path d="M0 0 C5.20041555 3.20804855 7.9017437 7.80219988 10.3125 13.3125 C11.3125 18.3125 11.3125 18.3125 11.3125 31.3125 C-0.2375 31.3125 -11.7875 31.3125 -23.6875 31.3125 C-20.43065637 40.12901696 -20.43065637 40.12901696 -13.6875 44.3125 C-7.76672232 44.982941 -3.1807391 44.59754122 2.3125 42.3125 C3.3025 42.3125 4.2925 42.3125 5.3125 42.3125 C9.3125 49.0625 9.3125 49.0625 9.3125 51.3125 C7.89771865 51.96245297 6.48058513 52.60728722 5.0625 53.25 C4.27359375 53.60964844 3.4846875 53.96929687 2.671875 54.33984375 C-4.48797431 57.29150348 -14.44477994 58.05724268 -21.6875 55.0625 C-23.1725 54.19625 -23.1725 54.19625 -24.6875 53.3125 C-25.71875 52.755625 -26.75 52.19875 -27.8125 51.625 C-33.1168058 47.35849316 -35.91373284 41.82933618 -37.6875 35.3125 C-38.78430622 23.62862738 -38.05421639 14.8395875 -30.375 5.5 C-29.488125 4.778125 -28.60125 4.05625 -27.6875 3.3125 C-27.17058594 2.8484375 -26.65367187 2.384375 -26.12109375 1.90625 C-19.01175091 -3.62153277 -8.05671764 -3.68825348 0 0 Z " fill="#FBFCFD" transform="translate(200.6875,172.6875)"/>
<path d="M0 0 C18.81 0 37.62 0 57 0 C57 3.96 57 7.92 57 12 C50.07 12 43.14 12 36 12 C36 32.46 36 52.92 36 74 C31.05 74 26.1 74 21 74 C21 53.54 21 33.08 21 12 C14.07 12 7.14 12 0 12 C0 8.04 0 4.08 0 0 Z " fill="#FCFDFE" transform="translate(107,154)"/>
<path d="M0 0 C4.95 0 9.9 0 15 0 C15 20.46 15 40.92 15 62 C24.9 62 34.8 62 45 62 C45 65.96 45 69.92 45 74 C30.15 74 15.3 74 0 74 C0 49.58 0 25.16 0 0 Z " fill="#FDFDFE" transform="translate(174,294)"/>
<path d="M0 0 C4.95 0 9.9 0 15 0 C15.33 22.44 15.66 44.88 16 68 C17.32 68.33 18.64 68.66 20 69 C21.28317892 72.84953676 21.06643637 75.94738135 21 80 C16.75275383 82.12362308 11.58681484 81.75350544 7 81 C3.66223605 78.61677415 1.81008357 75.62016714 0 72 C-0.09208458 69.72273826 -0.11749598 67.44269353 -0.11352539 65.16357422 C-0.11374443 64.10975052 -0.11374443 64.10975052 -0.1139679 63.03463745 C-0.11327014 60.70795627 -0.10548419 58.38135473 -0.09765625 56.0546875 C-0.09579158 54.44328861 -0.09436791 52.83188916 -0.09336853 51.2204895 C-0.0895472 46.97571248 -0.07972018 42.73096958 -0.06866455 38.48620605 C-0.05844218 34.15617332 -0.05386914 29.82613507 -0.04882812 25.49609375 C-0.03809758 16.99737842 -0.02050387 8.49869738 0 0 Z " fill="#FCFAFD" transform="translate(383,148)"/>
<path d="M0 0 C1.07765625 0.01804688 2.1553125 0.03609375 3.265625 0.0546875 C4.49539063 0.08949219 4.49539063 0.08949219 5.75 0.125 C5.22973634 4.51007941 4.65136124 8.79998095 3.75 13.125 C3.01394531 13.15078125 2.27789062 13.1765625 1.51953125 13.203125 C-6.19677735 13.59697057 -6.19677735 13.59697057 -12.25 18.125 C-14.75442112 21.88163168 -14.59885437 24.93508125 -14.6640625 29.29296875 C-14.68342865 30.08778152 -14.7027948 30.8825943 -14.7227478 31.70149231 C-14.78249442 34.23838595 -14.82890883 36.77532509 -14.875 39.3125 C-14.91318435 41.03322284 -14.95223635 42.75392665 -14.9921875 44.47460938 C-15.08819179 48.69125165 -15.17224076 52.9079834 -15.25 57.125 C-20.2 57.125 -25.15 57.125 -30.25 57.125 C-30.25 38.645 -30.25 20.165 -30.25 1.125 C-26.29 1.125 -22.33 1.125 -18.25 1.125 C-17.59 3.765 -16.93 6.405 -16.25 9.125 C-15.86328125 8.64289063 -15.4765625 8.16078125 -15.078125 7.6640625 C-14.29695313 6.71660156 -14.29695313 6.71660156 -13.5 5.75 C-12.98953125 5.12351563 -12.4790625 4.49703125 -11.953125 3.8515625 C-8.26305856 0.11071533 -5.15080089 -0.11197393 0 0 Z " fill="#FBFBFD" transform="translate(313.25,170.875)"/>
<path d="M0 0 C4.12134125 2.36757902 5.57089471 4.55666825 7 9 C7.80131723 16.79886656 8.10518405 24.62270452 3 31 C-0.44980679 34.06649492 -3.4997747 34.34475534 -7.9375 34.3984375 C-10.85765113 33.83431739 -12.63174695 32.8024678 -15 31 C-16.05483917 26.78608263 -15.74132984 22.45479117 -15.6875 18.125 C-15.71521484 16.94035156 -15.74292969 15.75570313 -15.77148438 14.53515625 C-15.74790763 6.17012558 -15.74790763 6.17012558 -13.77612305 3.08520508 C-9.53095699 -0.70726939 -5.34336179 -1.06472892 0 0 Z " fill="#7F61D0" transform="translate(320,323)"/>
<path d="M0 0 C0.87462891 0.04576172 1.74925781 0.09152344 2.65039062 0.13867188 C3.56111328 0.20248047 4.47183594 0.26628906 5.41015625 0.33203125 C6.31701172 0.37650391 7.22386719 0.42097656 8.15820312 0.46679688 C12.46886145 0.72372353 15.66057385 0.98603967 19.47265625 3.14453125 C19.41015625 6.39453125 19.41015625 6.39453125 18.47265625 10.14453125 C13.45706943 14.49137316 8.79854396 14.69242985 2.29296875 14.48046875 C-1.54396228 14.02343818 -4.75430417 12.91757083 -7.52734375 10.14453125 C-7.99735233 3.79941545 -7.99735233 3.79941545 -6.29467773 1.42700195 C-4.01209245 -0.22936225 -2.794296 -0.15738931 0 0 Z " fill="#645EC9" transform="translate(239.52734375,228.85546875)"/>
<path d="M0 0 C2.78508306 2.15843937 3.81776903 3.68700248 4.3046875 7.1953125 C4.42789198 11.34319671 4.25667073 14.41810317 2 18 C-1.76499581 20.5099972 -3.54293606 20.61476744 -8 20 C-11.17546049 17.36504343 -12.61527733 15.78286116 -13.48046875 11.7734375 C-13.73910164 7.59337086 -13.3246685 5.49714863 -11 1.9375 C-6.81895862 -0.76275589 -4.91883328 -0.78076719 0 0 Z " fill="#645EC9" transform="translate(248,181)"/>
<path d="M0 0 C1.8871875 0.0309375 1.8871875 0.0309375 3.8125 0.0625 C4.10031667 3.77213707 4.25509883 7.36173389 3.8125 11.0625 C0.68915757 14.51461532 -1.9586345 15.94871616 -6.5625 16.375 C-10.1875 16.0625 -10.1875 16.0625 -12.6875 14.5 C-14.1875 12.0625 -14.1875 12.0625 -14.3125 8.5625 C-12.88915994 4.13433094 -11.24515662 3.17248144 -7.1875 1.0625 C-4.43671116 0.14557039 -2.82801087 -0.04636083 0 0 Z " fill="#6960CA" transform="translate(255.1875,341.9375)"/>
<path d="M0 0 C1.8871875 0.0309375 1.8871875 0.0309375 3.8125 0.0625 C4.10031667 3.77213707 4.25509883 7.36173389 3.8125 11.0625 C0.69459977 14.50860025 -1.97808666 15.92812074 -6.5625 16.4375 C-10.1875 16.0625 -10.1875 16.0625 -12.6875 13.9375 C-14.1875 11.0625 -14.1875 11.0625 -14.3125 8 C-12.80811741 4.0718899 -10.83149852 3.0302592 -7.1875 1.0625 C-4.43671116 0.14557039 -2.82801087 -0.04636083 0 0 Z " fill="#8C66D4" transform="translate(349.1875,201.9375)"/>
<path d="M0 0 C2.81556994 0.53005669 4.69860307 1.59153773 6.9296875 3.36328125 C8.9296875 6.36328125 8.9296875 6.36328125 8.9296875 12.36328125 C1.6696875 12.36328125 -5.5903125 12.36328125 -13.0703125 12.36328125 C-10.79000955 4.38222093 -8.76487859 -0.57881274 0 0 Z " fill="#4D59C2" transform="translate(190.0703125,181.63671875)"/>
</svg>
