<?xml version="1.0" standalone="no"?>
<!DOCTYPE svg PUBLIC "-//W3C//DTD SVG 20010904//EN"
 "http://www.w3.org/TR/2001/REC-SVG-20010904/DTD/svg10.dtd">
<svg version="1.0" xmlns="http://www.w3.org/2000/svg"
 width="1024.000000pt" height="1024.000000pt" viewBox="0 0 1024.000000 1024.000000"
 preserveAspectRatio="xMidYMid meet">

<g transform="translate(0.000000,1024.000000) scale(0.100000,-0.100000)"
fill="#000000" stroke="none">
<path d="M3905 9710 c-2855 -5 -3043 -6 -3090 -22 -149 -52 -241 -153 -274
-300 -12 -50 -23 -962 -14 -1085 l6 -82 4588 0 4587 1 7 91 c4 51 5 313 3 582
-4 436 -6 496 -22 544 -47 143 -155 231 -322 262 -67 12 -1735 15 -5469 9z
m-1140 -274 c28 -7 67 -20 88 -29 l37 -16 0 -95 c0 -84 -2 -97 -19 -106 -38
-20 -57 -11 -89 40 -39 63 -82 90 -145 90 -84 0 -127 -37 -127 -111 0 -45 52
-91 168 -150 198 -99 247 -157 247 -294 0 -64 -5 -89 -24 -128 -49 -100 -166
-152 -336 -152 -107 1 -183 18 -244 56 l-34 20 7 92 c6 96 13 110 57 121 24 5
29 1 53 -49 47 -95 122 -138 205 -115 54 14 101 59 101 95 0 74 -44 117 -198
194 -95 48 -164 107 -195 166 -31 61 -30 164 4 230 29 58 99 115 168 138 58
20 209 21 276 3z m1675 -1 c37 -19 50 -43 50 -92 0 -120 -172 -157 -224 -48
-11 22 -15 47 -11 64 6 28 47 74 75 84 29 11 81 7 110 -8z m1302 4 c29 -6 72
-20 96 -31 l42 -20 0 -93 c0 -100 -5 -111 -53 -117 -25 -3 -31 3 -55 46 -40
73 -70 91 -149 91 -60 0 -67 -2 -94 -33 -67 -75 -25 -144 135 -224 198 -99
251 -159 251 -283 0 -91 -24 -152 -79 -203 -109 -100 -338 -120 -511 -43 l-45
20 1 78 c2 123 7 137 50 141 35 3 38 0 59 -42 42 -87 125 -134 203 -117 78 18
114 64 102 128 -10 53 -46 85 -174 152 -67 35 -139 81 -160 103 -151 151 -78
386 138 444 59 16 175 17 243 3z m-2482 -229 l0 -90 83 0 c46 0 86 -2 88 -4 3
-3 2 -29 -1 -58 l-5 -53 -83 -5 -83 -5 -1 -168 c0 -145 2 -171 17 -187 22 -25
51 -29 103 -14 41 12 43 11 62 -16 l20 -29 -45 -31 c-69 -48 -108 -60 -187
-60 -90 0 -130 21 -158 83 -17 37 -20 66 -20 234 l0 192 -47 3 c-46 3 -48 5
-51 34 -3 28 3 36 48 68 29 21 66 60 86 94 20 31 43 67 50 80 12 18 23 22 69
22 l55 0 0 -90z m4370 0 l0 -90 90 0 90 0 0 -29 c0 -16 -3 -43 -6 -60 l-6 -31
-84 0 -84 0 0 -170 c0 -160 1 -171 21 -191 19 -19 29 -21 89 -15 65 6 67 5 79
-21 11 -24 10 -29 -11 -45 -62 -49 -120 -68 -201 -68 -91 0 -129 17 -162 72
-18 30 -20 54 -23 235 l-3 202 -47 3 c-45 3 -47 5 -50 34 -3 28 2 35 48 65 31
20 60 50 77 78 73 126 68 121 128 121 l55 0 0 -90z m-3658 -87 c59 -27 133
-95 161 -148 29 -57 35 -184 12 -258 -61 -195 -304 -291 -502 -198 -114 54
-177 158 -177 291 0 157 84 279 226 325 64 21 220 14 280 -12z m516 -251 l2
-273 35 -20 c34 -20 43 -42 27 -65 -4 -6 -68 -11 -169 -13 l-162 -2 -7 27 c-6
21 -3 30 11 38 55 32 55 31 55 246 l0 200 -35 17 c-36 17 -48 54 -24 69 15 9
230 53 249 51 13 -2 15 -41 18 -275z m622 259 c62 -20 85 -45 84 -89 -1 -22
-10 -57 -20 -78 -16 -34 -24 -39 -57 -42 -31 -3 -41 2 -60 24 -82 101 -108
112 -168 71 -113 -75 -99 -310 22 -372 36 -19 151 -19 204 0 55 20 60 19 74
-12 12 -26 11 -30 -24 -60 -74 -63 -118 -78 -240 -78 -100 0 -115 2 -160 27
-62 32 -119 90 -140 142 -60 143 -5 343 116 423 75 49 134 64 239 59 52 -2
111 -9 130 -15z m1392 -13 c123 -57 179 -141 186 -278 3 -69 0 -95 -17 -141
-41 -107 -125 -178 -243 -203 -251 -54 -445 104 -425 346 12 141 105 258 237
295 70 20 197 11 262 -19z m510 -45 l3 -55 32 45 c53 73 149 107 218 75 23
-10 25 -16 25 -74 0 -104 -29 -140 -89 -110 -35 18 -90 21 -124 5 -46 -21 -52
-43 -49 -199 3 -155 8 -171 60 -191 18 -7 23 -15 20 -37 l-3 -27 -175 0 -175
0 -3 27 c-2 18 3 30 17 37 50 27 51 30 51 237 l0 195 -35 20 c-26 16 -35 28
-35 48 0 26 3 28 68 40 38 7 91 18 118 25 31 8 53 10 61 4 7 -5 13 -35 15 -65z"/>
<path d="M3749 9025 c-43 -23 -64 -86 -63 -190 2 -104 29 -192 71 -225 54 -42
139 -15 168 54 46 109 14 311 -57 360 -28 20 -84 20 -119 1z"/>
<path d="M6278 9020 c-37 -29 -59 -92 -59 -170 -1 -121 21 -191 71 -234 67
-56 147 -19 176 81 29 101 -5 277 -63 323 -33 26 -92 26 -125 0z"/>
<path d="M527 6848 c2 -717 4 -2327 5 -3578 l3 -2275 28 -80 c62 -177 171
-262 377 -295 43 -6 756 -10 2092 -10 l2028 0 2 3738 3 3737 55 0 55 0 3
-3737 2 -3738 2058 0 c2228 0 2125 -2 2247 54 99 45 174 138 205 256 10 35 13
856 14 3637 l1 3593 -4590 0 -4590 0 2 -1302z m4403 1182 c0 -5 -5 -10 -11
-10 -5 0 -7 5 -4 10 3 6 8 10 11 10 2 0 4 -4 4 -10z m-1988 -175 c39 -14 91
-25 119 -25 29 0 65 -8 87 -19 31 -16 49 -18 98 -12 72 8 95 3 154 -34 24 -15
60 -29 81 -30 58 -5 116 -39 130 -79 11 -31 17 -35 61 -41 60 -9 95 -36 104
-80 4 -24 18 -45 45 -66 44 -35 70 -99 52 -128 -8 -13 -6 -22 8 -40 24 -29 24
-54 2 -92 -20 -33 -26 -35 -43 -13 -7 8 -23 14 -34 13 -28 -2 -85 12 -92 22
-3 5 17 9 44 9 40 0 53 5 75 28 33 34 35 47 5 28 -43 -27 -148 1 -148 39 0 8
-6 18 -13 22 -8 4 -18 16 -24 27 -9 16 -11 11 -17 -28 -7 -42 -12 -49 -42 -62
-19 -8 -48 -12 -64 -9 -17 3 -30 1 -30 -4 0 -24 -36 -15 -47 11 -8 19 -17 26
-27 22 -10 -4 -16 -1 -16 7 0 7 -9 4 -24 -10 -17 -16 -31 -20 -54 -16 -28 5
-30 3 -28 -27 1 -25 -5 -35 -26 -47 -24 -14 -28 -14 -46 2 -10 9 -26 17 -36
17 -9 0 -15 4 -12 9 3 4 -13 14 -35 21 -31 11 -39 18 -36 32 3 10 1 21 -4 24
-10 6 -12 -53 -3 -108 5 -28 13 -39 35 -48 30 -13 38 -33 18 -46 -25 -15 -117
-16 -145 -1 -33 17 -73 57 -57 57 6 0 13 -6 16 -14 3 -8 24 -20 46 -27 35 -10
44 -10 68 7 l28 18 -30 8 c-16 4 -43 10 -58 13 -38 8 -80 51 -74 75 7 27 -17
45 -33 25 -15 -18 -51 -20 -68 -3 -19 19 -26 1 -28 -73 -2 -75 8 -88 29 -36
16 37 42 61 56 53 5 -3 12 -34 16 -68 6 -49 13 -68 35 -90 16 -15 38 -28 49
-28 28 0 27 -16 -2 -35 -21 -14 -27 -13 -65 5 -23 11 -62 20 -87 20 -50 0 -99
20 -109 45 -5 13 0 12 20 -4 29 -23 74 -27 105 -11 28 16 24 32 -6 18 -30 -14
-81 5 -91 34 -3 11 -12 17 -20 14 -25 -10 -15 13 16 36 40 29 38 38 -7 34 -32
-2 -43 3 -77 36 -35 33 -42 36 -56 23 -8 -7 -30 -17 -48 -20 -30 -5 -33 -3
-27 14 9 31 -24 36 -35 5 -6 -14 -10 -30 -10 -35 0 -6 -4 -8 -8 -5 -5 3 -26
-10 -47 -29 -34 -32 -43 -35 -100 -35 -34 0 -65 3 -69 7 -3 4 -14 8 -22 9 -31
5 -43 13 -46 36 -4 21 -5 21 -13 4 -13 -30 7 -70 45 -87 31 -15 38 -15 78 -2
29 10 50 12 64 6 19 -8 19 -9 1 -32 -17 -20 -25 -23 -61 -16 -23 4 -44 11 -48
16 -3 5 -9 7 -14 4 -36 -22 -128 95 -104 132 8 13 4 22 -20 44 -39 33 -70 43
-93 30 -15 -9 -14 -10 11 -11 30 0 76 -34 76 -55 0 -6 -9 -18 -20 -28 -15 -12
-25 -14 -42 -7 l-23 9 23 7 c40 12 4 22 -58 17 -54 -5 -58 -4 -78 25 -25 35
-29 94 -7 112 8 7 15 20 15 30 0 19 36 59 89 99 41 30 32 40 -10 11 -36 -26
-111 -37 -103 -15 3 8 13 11 22 8 14 -4 14 -3 3 5 -10 7 -21 7 -33 1 -14 -8
-16 -6 -11 7 4 11 1 15 -13 12 -16 -2 -18 2 -16 26 3 26 1 28 -12 17 -9 -8
-16 -17 -16 -22 0 -4 -11 -25 -25 -45 -26 -39 -32 -83 -14 -101 11 -11 50 -3
103 23 16 8 30 13 32 11 2 -1 -8 -25 -22 -52 -18 -36 -24 -60 -20 -85 l5 -35
-15 34 c-15 33 -15 33 -36 15 -24 -23 -48 -67 -48 -90 0 -19 32 -51 83 -83 40
-25 51 -48 39 -80 -7 -21 -8 -21 -31 -4 -12 10 -40 35 -61 56 -21 20 -43 37
-48 37 -16 0 -32 50 -32 100 0 28 5 50 10 50 6 0 10 7 10 16 0 8 7 22 15 30 8
9 15 20 15 27 0 6 -15 -3 -33 -21 -18 -18 -38 -32 -44 -32 -18 0 -23 29 -6 38
11 7 12 11 4 16 -7 4 -23 0 -36 -8 -34 -22 -32 -2 3 23 48 36 63 54 53 64 -7
7 -6 17 0 29 23 42 0 26 -31 -22 -34 -53 -52 -62 -27 -13 24 44 108 120 157
142 25 11 56 31 70 45 13 15 28 26 33 26 5 0 22 11 38 24 50 42 109 59 170 49
42 -7 61 -6 87 6 17 8 32 18 32 23 0 12 -7 10 -38 -9 -24 -15 -24 -13 7 20 19
20 55 45 80 54 56 22 178 22 236 1 39 -14 43 -13 115 18 97 41 165 44 262 9z
m1898 -79 c0 -3 -4 -8 -10 -11 -5 -3 -10 -1 -10 4 0 6 5 11 10 11 6 0 10 -2
10 -4z m-5 -65 c3 -5 1 -12 -5 -16 -5 -3 -10 1 -10 9 0 18 6 21 15 7z m2393
-47 c98 -20 218 -76 306 -143 l69 -53 61 18 c79 23 259 24 332 2 174 -54 306
-178 375 -353 l24 -60 105 -1 c224 -2 389 -80 522 -246 63 -78 92 -136 112
-225 25 -114 17 -207 -27 -301 -28 -60 -106 -143 -165 -175 -103 -56 -73 -55
-1512 -56 -950 -1 -1342 2 -1385 10 -83 16 -187 72 -237 128 -22 25 -55 75
-72 111 -25 54 -31 80 -34 156 -8 180 47 313 188 454 126 127 245 180 403 180
53 0 79 4 81 13 46 150 107 251 216 359 129 127 295 195 478 197 46 1 118 -6
160 -15z m-2308 -4 c0 -5 -5 -10 -11 -10 -5 0 -7 5 -4 10 3 6 8 10 11 10 2 0
4 -4 4 -10z m-320 -70 c0 -5 -2 -10 -4 -10 -3 0 -8 5 -11 10 -3 6 -1 10 4 10
6 0 11 -4 11 -10z m105 -18 c-3 -3 -11 0 -18 7 -9 10 -8 11 6 5 10 -3 15 -9
12 -12z m-35 -16 c0 -3 -4 -8 -10 -11 -5 -3 -10 -1 -10 4 0 6 5 11 10 11 6 0
10 -2 10 -4z m-3030 -246 c-6 -44 -4 -50 12 -50 23 0 23 -12 -2 -60 -11 -22
-20 -46 -20 -55 0 -8 -5 -15 -11 -15 -5 0 -7 5 -4 10 4 6 1 17 -5 25 -12 14
-21 56 -21 97 0 11 -6 15 -17 11 -12 -5 -10 2 8 23 19 22 60 62 66 64 0 0 -2
-22 -6 -50z m1965 -66 c-9 -14 -19 -23 -22 -20 -4 3 -13 0 -21 -7 -12 -9 -16
-9 -19 1 -3 6 -10 12 -17 12 -7 0 -21 7 -32 15 -18 14 -17 14 9 5 22 -8 37 -6
63 6 19 9 37 21 41 27 5 8 8 7 11 -1 2 -7 -4 -24 -13 -38z m405 30 c0 -8 -5
-12 -10 -9 -6 4 -8 11 -5 16 9 14 15 11 15 -7z m-2153 -9 c0 -8 -4 -15 -9 -15
-10 0 -11 14 -1 23 9 10 10 9 10 -8z m110 -54 c12 -6 36 -11 54 -11 18 0 29
-3 25 -7 -4 -4 -23 -6 -44 -5 -36 3 -92 43 -92 66 0 6 8 1 18 -10 9 -12 27
-27 39 -33z m1379 -22 c28 -31 94 -64 79 -39 -9 15 2 12 19 -6 12 -12 16 -12
16 -2 0 10 2 10 9 -1 11 -18 48 -6 77 26 25 27 44 24 44 -7 0 -27 78 -121 98
-118 12 2 20 -10 30 -52 7 -30 19 -76 28 -102 8 -26 19 -84 25 -129 5 -46 12
-86 15 -91 3 -4 -10 -14 -28 -21 -62 -26 -73 -60 -41 -128 12 -25 37 -90 56
-145 19 -54 49 -130 66 -167 32 -70 31 -83 -2 -125 -8 -11 -12 -11 -18 0 -6
10 -43 13 -136 14 -155 0 -179 8 -185 61 -3 21 0 45 5 53 6 8 0 5 -13 -7 -18
-17 -25 -35 -27 -74 -4 -72 18 -106 74 -115 23 -3 50 -4 58 0 19 7 65 -35 65
-59 0 -8 0 -17 1 -20 0 -2 13 -18 29 -35 37 -40 43 -61 29 -96 -10 -23 -13
-25 -16 -11 -3 9 -9 17 -15 17 -6 0 -8 10 -4 24 5 21 3 23 -21 18 -25 -5 -26
-3 -20 26 l6 31 -52 -23 c-29 -13 -73 -26 -99 -30 -43 -6 -47 -5 -41 10 15 39
-55 -26 -77 -71 -21 -44 -43 -57 -53 -32 -4 9 -8 9 -14 0 -4 -6 -19 -14 -33
-18 -29 -7 -90 -59 -90 -76 0 -7 11 0 25 15 29 32 44 28 37 -10 -3 -15 -1 -25
4 -23 95 44 146 73 174 99 44 42 101 49 180 23 53 -17 55 -19 58 -56 3 -38 3
-39 -25 -33 -15 4 -51 10 -80 15 l-52 8 22 -28 c12 -15 27 -28 33 -28 6 -1 24
-8 41 -16 45 -22 133 -201 133 -270 1 -28 7 -58 15 -69 23 -30 18 -66 -15
-116 -16 -25 -30 -55 -30 -67 0 -24 -53 -73 -78 -72 -15 0 -15 2 1 12 51 33
53 37 17 27 -19 -6 -44 -10 -55 -10 -32 1 34 50 67 50 21 0 33 9 53 43 14 24
25 52 25 63 -1 13 -5 10 -14 -12 -9 -20 -23 -33 -40 -36 -22 -5 -24 -3 -15 14
15 29 4 33 -21 8 -12 -12 -25 -19 -28 -15 -17 17 -9 77 17 127 l28 53 -22 35
c-12 20 -30 42 -40 50 -14 12 -13 8 4 -20 27 -45 27 -95 -2 -149 -21 -38 -22
-49 -14 -87 9 -40 8 -47 -13 -69 -29 -31 -57 -40 -75 -25 -8 6 -19 9 -25 5 -5
-3 -17 1 -26 9 -9 9 -19 14 -23 11 -5 -2 -16 4 -25 14 -17 18 -17 20 5 32 13
6 38 14 56 16 25 4 33 1 33 -11 0 -20 33 -21 50 -1 19 23 8 50 -19 47 -17 -2
-22 2 -17 13 3 9 2 13 -4 10 -6 -3 -29 14 -52 39 -22 25 -47 46 -55 46 -16 0
-16 3 2 47 14 34 14 38 -2 55 -13 12 -22 15 -33 8 -13 -8 -13 -10 2 -10 29 0
30 -18 2 -60 -25 -37 -26 -45 -16 -74 16 -44 18 -40 -33 -82 -37 -30 -48 -34
-60 -24 -8 7 -15 9 -15 4 0 -10 -20 17 -20 27 0 12 37 17 53 8 11 -7 20 -3 30
11 7 11 17 17 20 13 4 -3 7 1 7 9 0 21 -39 70 -50 63 -5 -3 -28 13 -52 35 -37
37 -41 44 -29 62 21 34 3 33 -29 -2 -36 -38 -36 -39 -9 -91 20 -41 18 -67 -4
-39 -7 8 -24 23 -39 33 -16 10 -28 22 -28 28 0 6 14 1 30 -11 17 -12 30 -17
30 -11 0 6 -4 11 -10 11 -5 0 -10 8 -10 17 0 9 -3 14 -6 10 -4 -3 -13 1 -22 9
-13 14 -12 17 7 30 11 8 21 22 21 30 0 18 21 55 38 69 21 17 5 62 -24 69 -13
4 -24 13 -24 22 0 22 -58 74 -82 74 -13 0 -18 5 -15 14 4 11 1 13 -10 9 -13
-5 -15 -3 -8 13 4 10 8 27 9 36 0 9 4 14 8 12 4 -3 8 0 8 6 0 6 5 8 10 5 6 -3
10 -2 10 3 0 5 10 8 23 5 12 -2 33 6 47 17 l25 21 -25 -6 c-22 -5 -27 -1 -39
30 l-13 36 -19 -38 c-17 -35 -79 -84 -79 -63 0 6 4 10 9 10 5 0 11 6 14 14 8
21 -91 -34 -108 -60 -13 -20 -13 -28 0 -65 26 -73 0 -96 -35 -31 -29 53 -44
76 -54 83 -23 17 39 78 114 110 8 4 23 16 33 27 17 18 17 25 6 56 -17 46 -32
47 -23 1 5 -27 2 -41 -12 -57 -28 -31 -116 -65 -99 -38 3 6 -9 9 -32 7 -36 -2
-38 0 -47 35 -8 33 -7 41 15 64 13 14 38 32 55 40 26 12 30 19 26 41 l-5 26
-12 -23 c-11 -21 -13 -21 -54 29 -26 30 -41 57 -37 66 3 8 1 15 -4 15 -24 0
-21 -49 4 -86 l26 -38 -32 -33 c-26 -27 -28 -31 -9 -26 20 5 21 4 6 -31 -20
-47 -19 -71 4 -115 57 -111 62 -157 19 -185 -27 -16 -50 10 -25 29 15 11 16
17 6 39 -16 33 -22 33 -53 -5 -26 -30 -26 -30 -26 -6 0 14 7 30 15 37 14 11
13 14 -7 24 -13 6 -25 20 -27 31 -3 17 -1 18 13 6 26 -22 45 2 23 27 -9 10
-17 23 -17 29 0 5 -9 20 -20 33 -27 31 -26 35 15 66 19 15 38 37 41 50 3 13
13 24 22 24 13 0 12 4 -5 23 -19 20 -57 98 -51 102 2 0 25 12 51 26 26 13 55
32 64 42 13 14 4 12 -42 -9 -43 -18 -68 -24 -92 -19 -37 7 -41 0 -16 -27 16
-18 15 -20 -9 -45 -25 -24 -27 -25 -44 -9 -9 9 -23 15 -30 12 -7 -3 -16 -1
-19 4 -8 13 21 13 45 0 26 -14 31 0 15 46 -8 21 -14 35 -15 30 0 -5 -3 -7 -6
-4 -10 11 14 44 52 73 l37 28 -7 -26 c-7 -30 0 -33 39 -15 28 13 35 39 8 32
-13 -4 -24 7 -40 38 -23 43 -23 77 0 106 15 18 -13 15 -35 -5 -22 -20 -23 -33
-1 -79 17 -34 17 -37 0 -49 -15 -11 -26 -9 -70 13 -44 22 -48 27 -29 30 l24 4
-22 23 c-12 13 -20 30 -17 37 3 8 8 4 15 -12 5 -14 19 -33 30 -43 20 -18 20
-18 19 20 -1 21 3 46 7 56 6 13 5 16 -8 11 -24 -9 -20 5 9 32 14 13 25 29 25
37 0 8 10 34 23 58 28 53 82 79 105 50 12 -14 13 -14 8 3 -6 17 1 27 83 121
10 11 21 32 24 47 4 14 18 39 31 55 13 15 31 45 39 66 11 25 22 37 36 37 12 0
40 20 63 45 24 25 66 57 93 70 58 27 79 45 119 98 16 20 33 37 40 37 6 1 20
12 31 25 25 30 36 31 61 4z m-683 -49 c21 -23 27 -40 27 -74 0 -27 -6 -48 -15
-56 -10 -9 -15 -9 -15 -1 0 17 -42 61 -73 77 -25 13 -32 13 -59 -1 -39 -19
-111 -21 -88 -2 18 15 43 57 33 57 -3 0 -15 -7 -25 -17 -30 -27 -20 1 11 31
15 15 41 31 57 35 42 12 114 -12 147 -49z m-543 20 c0 -5 -4 -10 -10 -10 -5 0
-10 5 -10 10 0 6 5 10 10 10 6 0 10 -4 10 -10z m-46 -35 c21 -21 31 -58 17
-63 -12 -4 -16 -64 -4 -75 3 -4 12 -2 19 4 21 17 57 6 74 -23 14 -26 13 -31
-15 -83 -17 -30 -36 -55 -43 -55 -7 0 -10 5 -7 10 3 6 1 10 -4 10 -6 0 -11 -4
-11 -10 0 -12 -20 -13 -39 -1 -13 8 -13 12 0 27 12 16 12 17 -1 12 -11 -4 -15
2 -16 24 -1 32 -23 53 -38 38 -12 -12 -26 -13 -25 -2 3 19 -3 22 -22 11 -13
-6 -19 -7 -15 -1 3 6 -7 13 -23 17 -20 4 -34 17 -45 40 -32 67 -10 92 23 26
28 -54 63 -65 117 -36 24 12 26 15 8 15 -11 0 -32 12 -46 28 -32 34 -24 61 24
85 41 21 53 21 72 2z m1784 -22 c-2 -31 -7 -39 -25 -41 -27 -4 -28 -2 -6 43
22 46 35 45 31 -2z m-2063 9 c-3 -3 -11 0 -18 7 -9 10 -8 11 6 5 10 -3 15 -9
12 -12z m-285 -57 c-13 -14 -26 -23 -28 -20 -3 3 5 16 18 30 13 14 26 23 28
20 3 -3 -5 -16 -18 -30z m167 -1 c3 -8 11 -13 18 -10 7 2 20 -3 29 -13 18 -20
49 -91 43 -98 -3 -2 -23 15 -45 39 -23 24 -44 39 -49 34 -4 -5 -2 -11 5 -13
20 -7 42 -33 42 -49 0 -22 -20 -17 -42 11 -11 14 -24 23 -29 20 -13 -9 -11 19
3 33 8 8 8 15 -1 26 -13 16 -7 36 10 36 5 0 12 -7 16 -16z m909 -9 c10 -8 26
-15 35 -15 9 0 19 -9 22 -20 5 -18 1 -19 -38 -13 -34 4 -48 2 -61 -12 -12 -11
-19 -14 -22 -6 -5 14 -32 15 -32 1 0 -5 6 -10 13 -10 9 0 8 -3 -2 -9 -8 -6
-20 -3 -31 7 -17 14 -15 17 27 53 49 43 60 46 89 24z m1244 -17 c0 -11 -12
-10 -30 2 -12 7 -10 9 8 7 12 0 22 -5 22 -9z m-2297 -12 c7 -17 -18 -40 -33
-31 -7 4 -7 12 0 26 13 23 26 25 33 5z m657 -6 c0 -5 -7 -7 -15 -4 -8 4 -15 8
-15 10 0 2 7 4 15 4 8 0 15 -4 15 -10z m1600 -15 c-7 -8 -17 -15 -23 -15 -6 0
-2 7 9 15 25 19 30 19 14 0z m-1452 -9 c15 -8 34 -27 41 -43 7 -15 18 -36 23
-47 14 -27 12 -101 -4 -136 -19 -43 -28 -37 -12 8 18 52 17 73 -3 44 -15 -21
-17 -22 -34 -6 -12 11 -19 13 -19 5 0 -7 -4 -9 -10 -6 -6 3 -7 -1 -4 -9 3 -9
16 -16 28 -17 11 0 15 -3 8 -6 -7 -3 -26 0 -42 7 l-29 12 19 39 c24 45 25 77
5 103 -15 20 -15 20 -17 0 0 -10 -2 -23 -3 -29 -2 -5 -3 -18 -4 -27 -1 -15 -5
-16 -27 -6 -24 11 -26 16 -21 61 6 67 43 85 105 53z m382 -5 c0 -6 -4 -13 -10
-16 -5 -3 -10 -22 -10 -41 0 -19 5 -34 10 -34 9 0 14 14 11 33 -1 4 4 17 10
28 15 29 55 22 52 -9 -2 -19 1 -21 22 -16 33 8 33 -9 0 -52 -35 -46 -86 -55
-122 -23 -25 23 -25 23 -14 2 13 -25 49 -53 69 -53 7 0 35 21 62 46 28 26 50
43 50 39 0 -4 -7 -31 -15 -60 -28 -96 -81 -114 -175 -61 -60 33 -92 64 -85 83
2 6 -2 14 -10 17 -9 3 -12 0 -8 -10 3 -7 0 -14 -6 -14 -6 0 -11 -7 -11 -15 0
-9 -7 -27 -16 -40 -11 -18 -14 -35 -10 -60 8 -41 27 -52 61 -37 31 14 42 -1
25 -33 -11 -21 -15 -22 -53 -12 -52 12 -87 43 -88 76 0 29 -17 75 -18 52 -1
-11 -4 -12 -12 -4 -17 17 5 47 50 68 25 11 41 25 41 35 0 37 89 53 123 23 19
-17 20 -17 8 5 -13 24 -2 56 28 79 19 15 41 17 41 4z m165 -93 c-4 -18 -11
-37 -17 -43 -9 -9 -5 22 8 63 8 26 15 10 9 -20z m-1108 -10 c-3 -8 -6 -5 -6 6
-1 11 2 17 5 13 3 -3 4 -12 1 -19z m433 -33 c7 -8 23 -15 36 -15 30 0 31 -14
2 -34 -27 -19 -48 -21 -48 -4 0 6 -7 19 -16 29 -9 10 -13 23 -9 28 9 15 20 14
35 -4z m-363 -16 c2 -8 -6 -25 -18 -38 -27 -33 -42 -15 -22 27 16 33 36 38 40
11z m123 5 c0 -8 -5 -24 -10 -34 -11 -20 -2 -43 28 -81 11 -14 10 -17 -1 -22
-14 -5 -47 31 -60 67 -6 15 -10 16 -22 6 -23 -19 -27 -7 -10 33 13 32 20 37
68 46 4 0 7 -6 7 -15z m-360 -43 c0 -5 -7 -14 -15 -21 -16 -14 -18 -10 -9 14
6 17 24 22 24 7z m958 -9 c2 -7 -5 -12 -17 -12 -14 0 -19 5 -14 15 6 17 25 15
31 -3z m-718 -6 c0 -3 -4 -8 -10 -11 -5 -3 -10 -1 -10 4 0 6 5 11 10 11 6 0
10 -2 10 -4z m2575 -35 c-3 -6 -11 -11 -16 -11 -5 0 -4 6 3 14 14 16 24 13 13
-3z m-2244 -80 c7 11 9 11 9 0 0 -9 7 -11 21 -8 15 4 34 -4 60 -25 22 -17 37
-33 36 -35 -2 -2 -25 8 -50 22 -42 24 -49 25 -86 14 -22 -6 -53 -25 -68 -41
-26 -27 -28 -35 -29 -121 -1 -51 0 -77 3 -59 3 24 9 32 25 32 18 0 20 4 15 34
-4 24 -1 39 9 47 8 6 14 17 14 24 0 16 23 25 39 16 6 -4 14 -21 17 -37 7 -44
13 -56 24 -49 6 3 20 3 31 0 20 -7 19 -9 -14 -36 -51 -42 -63 -77 -41 -125 16
-37 18 -37 22 -14 6 36 22 49 22 18 0 -15 3 -34 6 -42 5 -12 2 -15 -12 -10
-18 5 -18 5 0 -10 11 -9 36 -16 57 -16 22 0 47 -8 63 -21 54 -42 86 5 37 55
-30 31 -32 36 -24 81 5 27 14 50 21 53 15 5 43 -58 42 -96 -1 -15 2 -77 6
-139 l6 -111 -32 -17 c-42 -22 -83 -12 -134 34 -23 20 -53 43 -67 50 -54 27
-129 120 -159 196 -13 33 -27 64 -32 70 -4 5 -8 23 -8 40 0 23 3 26 10 15 13
-20 13 -8 0 26 -7 18 -7 30 0 39 5 6 7 15 3 18 -17 18 58 117 88 117 10 0 21
5 24 10 5 8 12 7 22 -1 12 -10 16 -10 24 2z m-334 -36 c19 -22 39 -36 57 -37
27 -2 27 -3 7 -19 -30 -25 -99 -19 -123 10 -10 13 -18 28 -18 35 0 6 4 4 10
-4 11 -19 19 -10 22 23 3 35 11 34 45 -8z m813 7 c0 -9 -36 -44 -59 -57 -8 -5
-1 8 15 28 28 36 44 46 44 29z m1771 -55 c-10 -9 -11 -8 -5 6 3 10 9 15 12 12
3 -3 0 -11 -7 -18z m-1841 -52 c-7 -8 -16 -30 -19 -48 -9 -42 -45 -50 -62 -13
-6 13 -9 33 -5 43 7 16 9 16 26 -7 16 -20 20 -22 20 -7 0 19 38 62 47 53 3 -3
0 -12 -7 -21z m-950 -4 c-11 -21 -30 -37 -30 -25 0 8 30 44 37 44 2 0 -1 -9
-7 -19z m253 -19 c13 7 23 6 33 -3 15 -12 15 -31 1 -29 -4 0 -14 -6 -22 -14
-26 -26 -84 6 -71 39 4 12 10 13 24 6 11 -6 24 -6 35 1z m3062 -42 c3 -5 2
-10 -4 -10 -5 0 -13 5 -16 10 -3 6 -2 10 4 10 5 0 13 -4 16 -10z m-43 -82 c-7
-7 -12 -8 -12 -2 0 14 12 26 19 19 2 -3 -1 -11 -7 -17z m-2984 -21 c15 -15 18
-27 12 -37 -7 -12 -12 -12 -22 -2 -6 6 -20 12 -30 12 -11 0 -18 7 -18 18 0 38
27 42 58 9z m2922 -51 c0 -2 -7 -7 -16 -10 -8 -3 -12 -2 -9 4 6 10 25 14 25 6z
m135 -14 c-3 -3 -11 0 -18 7 -9 10 -8 11 6 5 10 -3 15 -9 12 -12z m-45 -42 c0
-5 -4 -10 -10 -10 -5 0 -10 5 -10 10 0 6 5 10 10 10 6 0 10 -4 10 -10z m-3090
-15 c9 -11 10 -19 2 -27 -14 -14 -32 -1 -32 23 0 23 13 25 30 4z m130 -19 c0
-11 -19 -15 -25 -6 -3 5 1 10 9 10 9 0 16 -2 16 -4z m-94 -51 c-2 -7 1 -18 7
-24 6 -6 7 -11 3 -11 -12 0 -35 32 -36 47 0 7 7 10 16 6 8 -3 13 -11 10 -18z
m97 -25 c-5 -20 -21 -36 -27 -29 -2 2 0 14 5 27 10 27 29 29 22 2z m2987 -20
c0 -5 -5 -10 -11 -10 -5 0 -7 5 -4 10 3 6 8 10 11 10 2 0 4 -4 4 -10z m-2503
-42 c-3 -8 -6 -5 -6 6 -1 11 2 17 5 13 3 -3 4 -12 1 -19z m188 -28 c19 -37 19
-69 0 -90 -12 -13 -25 -15 -61 -10 -41 6 -85 33 -73 44 3 3 22 0 42 -6 32 -10
40 -9 53 4 12 12 14 21 6 34 -7 12 -7 25 -1 36 13 24 16 23 34 -12z m2175 -60
c0 -5 -4 -10 -9 -10 -6 0 -13 5 -16 10 -3 6 1 10 9 10 9 0 16 -4 16 -10z
m2399 -26 c61 4 72 2 67 -10 -3 -9 -1 -12 4 -9 24 15 50 13 50 -2 0 -15 1 -15
13 1 12 16 14 15 37 -6 15 -14 22 -17 18 -7 -5 12 1 16 22 16 19 0 26 -5 23
-14 -3 -7 0 -13 6 -13 6 0 11 5 11 10 0 6 12 10 26 10 14 0 23 -4 19 -10 -8
-13 1 -13 27 1 14 8 23 8 31 0 8 -8 16 -6 31 7 11 9 -13 -45 -53 -121 -40 -76
-71 -140 -69 -142 2 -2 88 -5 191 -6 103 -1 187 -5 185 -10 -2 -4 -189 -195
-417 -424 -227 -228 -411 -409 -408 -402 3 8 21 68 41 133 20 65 65 207 101
314 36 107 65 196 65 198 0 2 -19 0 -42 -3 -94 -14 -338 -20 -338 -9 0 12 198
414 237 482 22 37 27 41 37 27 10 -13 25 -15 85 -11z m-4707 -31 c10 -9 31
-16 47 -16 l29 0 -16 -34 c-13 -28 -14 -39 -4 -66 7 -19 12 -40 12 -49 0 -23
-28 -30 -38 -10 -10 22 -9 111 2 135 6 13 5 16 -6 12 -12 -5 -58 27 -58 40 0
10 14 5 32 -12z m1218 -44 c0 -26 -11 -23 -33 7 -11 15 -16 32 -12 42 6 15 9
14 26 -7 10 -13 19 -32 19 -42z m-1506 4 c42 -4 61 -2 80 11 14 9 28 16 30 16
13 0 30 -50 33 -100 1 -30 6 -66 9 -80 3 -14 7 -45 9 -70 2 -24 8 -46 14 -48
6 -2 8 -8 5 -13 -3 -6 0 -16 6 -25 7 -8 14 -32 16 -54 4 -44 19 -80 34 -80 6
0 10 -6 10 -14 0 -7 7 -19 15 -26 8 -7 15 -21 15 -31 0 -11 4 -19 8 -19 12 0
44 -59 37 -70 -3 -6 -1 -10 4 -10 6 0 11 -8 11 -18 0 -10 9 -35 20 -57 21 -41
26 -70 11 -61 -5 3 -12 -1 -15 -9 -4 -13 -2 -13 14 -5 20 11 37 13 27 4 -3 -3
10 -27 29 -52 49 -66 57 -75 78 -92 18 -13 19 -13 12 0 -4 8 1 4 12 -9 10 -13
24 -21 30 -17 20 12 31 -26 15 -51 -9 -13 -11 -23 -5 -23 6 0 14 5 18 11 11
18 24 -12 17 -40 -4 -17 -2 -22 6 -17 6 4 11 2 11 -3 0 -6 -6 -11 -12 -11 -9
0 -8 -4 2 -10 13 -9 12 -12 -4 -25 -18 -14 -19 -15 -2 -15 16 0 16 -2 -4 -18
l-22 -18 36 -17 c20 -9 36 -12 36 -7 0 6 7 10 15 10 8 0 15 -4 15 -10 0 -5 -5
-10 -11 -10 -5 0 -7 -5 -3 -11 5 -8 8 -8 14 0 3 7 14 9 23 5 19 -7 23 -24 7
-24 -6 0 -22 -12 -35 -26 -21 -23 -25 -37 -25 -90 0 -98 -25 -103 -170 -33
-33 16 -63 29 -66 29 -3 0 -47 21 -97 46 -88 44 -223 142 -233 169 -3 7 -36
33 -74 59 -37 26 -93 77 -124 115 -54 64 -155 156 -241 219 -22 16 -60 48 -84
71 -39 39 -42 44 -28 58 9 9 29 16 46 17 18 1 26 5 21 10 -6 6 -5 15 2 24 9
10 9 15 -1 22 -9 5 -10 10 -2 14 6 4 11 2 11 -4 0 -7 7 -10 15 -6 8 3 14 2 12
-2 -1 -4 3 -7 8 -7 6 0 8 5 6 10 -7 19 -11 50 -5 37 5 -10 12 -8 31 10 19 18
26 20 32 9 12 -18 32 -5 24 17 -3 11 3 8 18 -9 13 -14 32 -32 42 -39 16 -12
18 -12 17 1 -4 26 0 37 16 43 12 5 15 2 10 -10 -5 -14 -4 -15 9 -4 8 7 13 15
11 19 -1 3 -6 14 -10 25 -5 14 -9 16 -19 7 -10 -8 -14 -7 -14 4 0 8 4 12 8 9
19 -11 16 15 -4 36 -15 17 -17 22 -5 18 20 -8 28 9 18 37 -4 12 -1 29 8 43 8
13 10 22 4 22 -6 0 -15 -8 -21 -17 -7 -14 -13 -15 -33 -6 -16 8 -18 12 -7 12
17 1 46 37 46 56 0 6 -8 9 -19 7 -10 -2 -18 2 -18 8 0 6 4 9 9 5 19 -11 23 17
5 30 -18 14 -18 14 -1 15 11 0 31 9 45 21 l26 20 -26 -3 c-15 -2 -30 -7 -34
-11 -4 -3 -11 -4 -15 -1 -13 7 22 41 54 53 22 9 27 16 22 30 -7 24 42 56 62
39 6 -5 37 -12 67 -15z m6023 -217 c-20 -139 -26 -161 -46 -177 -30 -25 -76
-24 -101 1 -38 38 -27 71 71 210 51 72 93 129 95 128 1 -2 -7 -75 -19 -162z
m409 117 c-2 -10 -12 -56 -21 -103 -10 -47 -24 -93 -33 -102 -21 -24 -59 -23
-72 2 -12 23 -11 27 65 143 48 73 72 96 61 60z m-2152 -110 c-14 -85 -23 -113
-41 -131 -28 -28 -49 -26 -75 9 -16 20 -17 30 -8 53 10 28 132 187 138 181 2
-2 -4 -52 -14 -112z m-2087 75 c-3 -8 -6 -5 -6 6 -1 11 2 17 5 13 3 -3 4 -12
1 -19z m-1439 -4 c17 -5 21 -11 16 -23 -4 -9 -8 -45 -8 -79 -1 -51 -5 -67 -20
-78 -27 -19 -50 -18 -42 2 4 9 1 23 -5 30 -6 7 -9 19 -7 26 3 7 -2 29 -10 48
-14 33 -13 35 13 57 29 25 30 25 63 17z m-374 -49 c15 -22 15 -28 2 -53 -15
-29 -7 -58 21 -75 14 -9 18 -47 5 -47 -18 0 -62 58 -68 89 -5 26 -3 36 9 43
21 11 22 28 2 28 -15 0 -21 21 -8 33 11 12 20 8 37 -18z m-609 -35 c-3 -5 -15
-10 -26 -10 -10 0 -19 5 -19 10 0 6 12 10 26 10 14 0 23 -4 19 -10z m1065 -42
c0 -4 14 -22 30 -40 50 -54 52 -97 6 -153 -28 -34 -39 -29 -42 21 -2 23 2 37
11 41 22 8 19 18 -16 57 -28 33 -53 89 -43 99 6 6 54 -16 54 -25z m-1103 -25
c-3 -3 -10 -2 -16 2 -7 4 -7 10 2 20 10 11 13 11 15 -2 2 -8 1 -17 -1 -20z
m916 -28 c10 -20 16 -43 13 -51 -6 -17 -36 -7 -36 11 0 8 -9 17 -21 20 -11 4
-18 12 -16 19 3 7 1 19 -3 26 -13 21 -2 30 23 21 12 -4 30 -25 40 -46z m3232
-17 c-10 -103 -22 -146 -49 -163 -40 -27 -86 2 -86 55 0 9 25 45 55 79 30 33
59 70 65 81 18 34 21 23 15 -52z m551 -75 c-21 -217 -28 -277 -36 -298 -38
-99 -180 -82 -180 22 0 43 7 54 106 185 39 51 79 105 88 121 10 15 20 27 23
27 2 0 2 -26 -1 -57z m-4652 16 c-3 -5 0 -17 8 -26 9 -12 9 -15 1 -9 -8 4 -13
2 -13 -5 0 -7 -7 -4 -15 7 -12 16 -12 20 0 30 8 6 11 15 7 19 -4 5 -1 5 6 1 7
-4 10 -12 6 -17z m-49 -10 c-10 -15 -25 -10 -19 6 4 8 10 12 15 9 5 -3 7 -10
4 -15z m861 -5 c13 -18 14 -28 6 -36 -8 -8 -14 -3 -23 18 -6 16 -13 24 -16 17
-2 -7 0 -21 6 -32 15 -28 14 -30 -15 -26 -34 3 -49 19 -39 42 5 10 7 24 6 31
-1 7 10 12 28 12 22 0 35 -7 47 -26z m157 -13 c44 -27 48 -57 13 -90 l-23 -22
-6 23 c-4 12 -4 24 -2 27 3 2 5 -1 5 -8 0 -7 4 -10 10 -6 13 8 1 35 -16 35 -8
0 -14 -4 -14 -10 0 -16 -17 -12 -24 6 -3 8 -2 12 4 9 13 -8 13 1 0 26 -11 19
-5 43 8 37 4 -2 24 -14 45 -27z m4973 -76 c-3 -8 -12 -83 -21 -166 -22 -208
-37 -239 -118 -239 -27 0 -41 7 -61 31 -49 58 -38 88 102 269 90 115 111 138
98 105z m-6315 -58 c313 -246 375 -300 469 -406 36 -41 90 -90 120 -111 30
-21 66 -49 80 -62 70 -68 152 -122 296 -195 88 -43 178 -87 201 -96 41 -16 42
-17 37 -54 -8 -57 -13 -66 -29 -59 -19 7 -19 -8 0 -38 22 -33 25 -197 5 -222
-9 -11 -10 -15 -2 -10 15 9 15 5 2 -30 -8 -20 -8 -29 2 -35 7 -4 10 -11 6 -14
-3 -3 -21 3 -39 15 -19 11 -46 25 -61 31 -16 6 -28 15 -28 20 0 4 -7 6 -16 2
-10 -4 -17 2 -21 16 -4 15 -11 20 -23 16 -9 -3 -23 1 -30 10 -15 18 1 20 18 3
9 -9 12 -9 12 0 0 7 -5 12 -11 12 -5 0 -7 5 -3 11 4 7 0 9 -12 5 -16 -5 -32
16 -92 122 -153 264 -257 441 -266 449 -11 10 8 -27 49 -97 95 -160 265 -465
265 -475 0 -3 -35 13 -77 34 -43 22 -121 53 -173 69 -125 40 -149 49 -250 88
-47 19 -91 34 -98 34 -7 0 -11 4 -8 9 3 4 -3 18 -13 29 -14 17 -20 19 -30 9
-10 -9 -11 -8 -6 5 6 16 2 25 -32 63 -7 7 -13 18 -13 23 0 6 -7 13 -16 16 -8
3 -13 10 -10 15 3 5 -1 14 -9 21 -8 7 -15 23 -15 36 0 13 -4 24 -8 24 -4 0
-13 12 -20 28 -14 32 -73 135 -81 142 -3 3 -12 17 -20 33 -8 15 -18 27 -23 27
-4 0 -8 9 -8 20 0 11 -6 20 -14 20 -16 0 -29 27 -20 41 3 5 0 8 -8 7 -7 -2
-12 5 -12 15 1 9 -2 17 -7 17 -5 0 -8 3 -8 8 3 19 -2 33 -10 27 -5 -3 -13 0
-17 6 -4 8 -3 9 4 5 14 -8 15 3 3 23 -5 8 -14 10 -22 6 -9 -6 -11 -3 -6 9 7
17 -23 56 -43 56 -5 0 -7 6 -4 14 3 8 -3 16 -16 19 -12 3 -20 10 -16 15 3 4
-24 38 -58 75 -35 36 -61 69 -58 73 4 4 -3 4 -15 1 -33 -8 -28 7 11 37 36 27
52 32 58 18 2 -4 25 -23 53 -42 27 -19 58 -44 68 -55 16 -17 18 -17 13 -2 -3
9 -1 17 4 17 6 0 10 -6 10 -13 0 -7 20 -35 45 -62 41 -44 44 -46 30 -17 -14
29 -14 33 0 38 16 6 22 36 6 32 -5 -2 -9 2 -9 7 0 6 4 9 9 8 17 -5 9 8 -31 49
-37 39 -51 68 -32 68 4 0 37 -24 73 -53z m1417 27 c1 -14 6 -33 11 -43 11 -19
8 -57 -3 -54 -10 3 -56 60 -56 69 0 6 40 54 45 54 0 0 2 -11 3 -26z m-1544
-43 c-19 -18 -34 -19 -34 0 0 6 4 8 8 5 4 -2 14 -1 22 5 24 14 25 11 4 -10z
m1467 -8 c13 -16 12 -17 -3 -4 -10 7 -18 15 -18 17 0 8 8 3 21 -13z m-1238
-10 c-4 -10 -9 -11 -19 -2 -19 15 -18 18 5 16 11 -1 17 -6 14 -14z m1415 -23
c27 -25 27 -32 3 -54 -23 -21 -35 -7 -27 32 3 15 3 21 0 14 -8 -17 -24 -5 -17
13 7 20 15 19 41 -5z m-153 -19 c-8 -13 -37 -11 -47 4 -9 12 33 25 46 14 4 -4
5 -12 1 -18z m385 -35 c0 -13 -9 -35 -20 -49 -11 -14 -20 -30 -20 -36 0 -15
-11 -13 -34 4 -17 13 -17 16 20 59 44 52 54 56 54 22z m-2081 -40 c19 -1 37
-10 43 -19 5 -10 13 -15 17 -13 9 6 81 -68 81 -83 0 -6 5 -11 10 -11 6 0 10
-7 10 -15 0 -8 4 -15 9 -15 5 0 27 -36 50 -80 23 -43 46 -82 52 -85 5 -4 17
-24 25 -45 10 -24 21 -37 29 -34 18 7 29 -14 15 -30 -8 -11 -4 -19 18 -35 25
-17 29 -26 27 -60 -1 -26 2 -38 8 -34 6 4 8 0 4 -10 -7 -20 4 -22 21 -5 9 9
12 9 12 0 0 -7 -5 -12 -11 -12 -6 0 -9 -6 -6 -14 3 -8 1 -17 -6 -20 -7 -4 1
-4 17 -1 l29 6 -27 -31 c-26 -32 -34 -60 -16 -60 6 0 10 -9 10 -20 0 -27 -26
-25 -53 4 -36 40 -73 91 -59 83 30 -19 5 6 -90 89 -113 100 -141 121 -248 185
-135 82 -281 142 -395 163 l-60 11 55 38 c56 39 190 125 252 162 49 29 109 35
128 12 9 -10 31 -20 49 -21z m1808 18 c14 -13 14 -17 2 -25 -17 -11 -21 -11
-37 -1 -14 9 -6 42 10 42 5 0 17 -7 25 -16z m-199 -181 c5 -18 -10 -16 -34 2
-18 15 -18 15 5 13 14 -2 26 -9 29 -15z m7 -73 c-3 -5 -10 -10 -16 -10 -5 0
-9 5 -9 10 0 6 7 10 16 10 8 0 12 -4 9 -10z m-1 -52 c-4 -13 -8 -31 -8 -40 0
-9 -4 -15 -7 -12 -4 2 -6 17 -5 32 2 15 -2 30 -8 34 -6 5 -1 8 12 8 20 0 22
-3 16 -22z m6143 -64 c14 -44 -483 -630 -517 -609 -9 6 -10 42 -5 156 4 82 4
149 1 149 -4 0 -30 -24 -59 -53 -29 -29 -67 -60 -84 -68 -20 -8 -33 -21 -33
-32 0 -14 -34 -37 -55 -37 -2 0 -9 16 -15 35 -7 20 -29 56 -51 81 -22 25 -37
50 -33 55 13 22 64 40 84 29 22 -12 102 15 153 52 25 18 28 25 23 56 -7 44
-23 63 -36 42 -5 -8 -7 -25 -3 -37 7 -31 -16 -30 -107 3 -63 24 -92 45 -78 59
3 3 141 27 309 55 167 27 340 56 384 64 91 16 117 16 122 0z m-3196 -14 c46
-6 125 -15 174 -21 162 -19 490 -80 504 -94 25 -24 6 -45 -41 -45 -24 0 -66
-3 -95 -6 -45 -6 -52 -4 -55 12 -4 15 -8 12 -21 -16 -8 -19 -13 -38 -10 -43 2
-4 36 -23 75 -43 50 -25 78 -34 96 -29 31 8 82 -12 82 -32 0 -8 -11 -29 -24
-46 -13 -18 -33 -51 -45 -74 -12 -24 -27 -43 -35 -43 -22 0 -62 58 -58 85 1 6
-37 29 -84 52 l-86 41 7 -66 c16 -147 20 -223 14 -234 -13 -21 -70 33 -226
216 -164 191 -293 355 -293 374 0 9 14 19 31 21 3 1 44 -4 90 -9z m-2977 -14
c-6 -15 -34 -31 -34 -19 0 5 30 32 37 33 1 0 0 -6 -3 -14z m1010 -7 c15 -12
34 -39 43 -60 14 -36 33 -52 33 -29 0 6 29 10 68 10 97 0 100 -5 103 -160 l2
-125 -356 -1 c-344 -2 -357 -1 -357 17 0 22 9 22 425 21 149 0 205 3 175 8
-50 10 -576 13 -591 4 -5 -3 -9 42 -9 104 0 82 4 112 14 121 9 7 42 11 88 9
69 -3 73 -4 70 -25 -4 -27 16 -31 25 -5 35 104 70 131 174 132 53 0 72 -4 93
-21z m-570 -167 c7 -12 -80 -102 -99 -102 -15 0 -15 3 -5 15 7 9 10 18 6 22
-3 4 -12 -1 -19 -10 -14 -19 -97 -30 -97 -13 0 7 -3 7 -8 -1 -4 -6 -20 -13
-37 -15 -21 -2 -35 -13 -49 -37 -11 -19 -15 -31 -8 -27 18 11 15 -1 -9 -34
l-22 -29 -17 22 -17 21 -11 -21 c-10 -18 -9 -20 7 -16 31 8 31 -10 0 -45 l-29
-32 0 139 c0 130 1 141 21 154 16 12 61 15 204 16 101 0 186 -3 189 -7z m76 0
c0 -5 -13 -9 -30 -9 -16 0 -27 4 -24 9 7 11 54 11 54 0z m1255 -5 c16 -13 18
-29 17 -168 0 -85 -1 -219 -1 -298 -1 -144 -1 -144 -21 -126 -11 10 -23 15
-27 12 -3 -4 -1 -7 5 -7 7 0 5 -8 -5 -19 -9 -11 -20 -18 -25 -15 -15 10 -8 46
10 51 10 2 24 13 30 24 12 19 12 19 -18 4 l-30 -16 -1 48 c-1 27 0 52 1 58 1
5 1 17 1 25 -1 18 -1 53 0 78 0 9 0 49 -1 87 -1 39 0 77 2 85 2 8 -3 14 -9 13
-7 -2 -13 3 -13 11 0 8 -13 25 -29 39 -26 21 -37 24 -88 21 -32 -3 -91 -1
-131 2 -72 6 -73 7 -93 45 -11 22 -25 39 -32 39 -8 0 -7 4 3 10 25 16 432 13
455 -3z m-141 -167 c0 -30 -6 -173 -13 -318 -14 -280 -9 -891 8 -992 5 -30 6
-58 2 -63 -14 -15 -399 -22 -856 -15 -259 4 -479 9 -490 12 -11 2 -39 5 -62 5
-45 1 -62 21 -18 21 17 0 25 5 25 18 0 9 19 72 42 140 34 102 39 125 27 132
-8 4 -31 21 -51 36 l-37 29 -1 135 c-1 214 -9 499 -22 703 -6 103 -8 190 -5
193 3 3 71 8 151 11 l146 6 0 -55 c0 -33 5 -60 13 -66 15 -13 812 -21 824 -8
4 4 10 32 13 62 l5 55 129 4 c71 2 131 7 134 10 3 3 13 4 22 3 11 -3 15 -16
14 -58z m2102 -9 c5 -5 177 -93 382 -197 l372 -188 -35 -14 c-31 -12 -36 -12
-51 3 -9 9 -20 12 -23 7 -7 -11 -44 -12 -51 -1 -4 5 -16 1 -29 -7 -18 -13 -20
-18 -10 -25 39 -25 -17 -3 -91 35 -77 40 -85 46 -82 70 2 15 -2 26 -8 26 -7 0
-10 -7 -7 -15 4 -8 2 -17 -3 -20 -11 -7 -407 188 -430 211 -13 13 -13 14 1 9
10 -4 19 0 23 11 4 12 2 15 -9 11 -8 -4 -17 -1 -21 5 -5 7 -2 8 6 3 9 -5 10
-2 5 14 -12 40 33 87 61 62z m1608 -13 c8 -14 6 -21 -9 -32 -19 -15 -19 -15 4
-11 22 4 22 3 7 -14 -18 -20 -12 -31 18 -31 20 0 20 0 1 -14 -44 -30 -626
-316 -634 -311 -5 3 -11 1 -13 -4 -4 -11 -228 -124 -228 -115 0 12 43 44 52
38 4 -3 8 -2 7 3 -3 20 2 27 11 13 8 -12 10 -11 10 7 0 12 5 25 10 28 6 3 10
10 10 15 0 16 -49 -15 -54 -35 -5 -17 -8 -18 -15 -5 -7 9 -6 19 1 28 9 11 7
11 -16 0 -16 -7 -23 -14 -17 -16 6 -2 11 -16 11 -30 0 -21 -2 -24 -10 -12 -8
12 -10 12 -10 1 0 -11 -3 -11 -15 -1 -8 7 -15 18 -15 24 0 6 5 4 10 -4 8 -13
10 -12 10 3 0 21 -1 21 -44 1 -19 -10 -32 -22 -29 -29 6 -17 -17 -31 -27 -16
-5 9 -19 6 -52 -10 -38 -18 -44 -25 -40 -45 2 -14 13 -31 24 -38 19 -14 19
-15 -12 -31 -17 -9 -34 -14 -37 -12 -2 3 5 8 16 12 40 12 16 49 -34 52 -40 3
-124 -35 -104 -47 8 -6 16 -5 20 2 4 7 11 3 18 -11 13 -23 9 -26 -19 -11 -13
7 -21 6 -29 -4 -8 -10 -5 -16 15 -25 21 -9 24 -14 14 -26 -7 -8 -18 -15 -24
-15 -6 0 -2 7 8 15 18 14 12 20 -16 16 -4 0 -13 9 -19 22 -6 12 -13 23 -14 25
-5 5 -155 -72 -155 -80 0 -4 6 -5 14 -2 17 7 30 -26 16 -40 -8 -8 -16 -5 -29
10 l-17 21 -165 -81 c-90 -44 -261 -127 -379 -184 -118 -57 -223 -107 -232
-112 -25 -14 -228 75 -228 99 0 7 202 111 214 111 4 0 66 29 139 63 341 164
398 189 420 184 12 -2 57 -15 100 -28 l78 -23 675 339 c372 187 697 352 723
367 51 30 69 31 85 6z m-5200 -33 c-4 -8 -11 -12 -16 -9 -6 4 -5 10 3 15 19
12 19 11 13 -6z m-38 -30 c-3 -8 -1 -14 3 -12 9 2 11 -3 11 -24 0 -8 -5 -8
-15 1 -17 14 -20 50 -4 50 6 0 9 -7 5 -15z m-16 -67 c0 -9 3 -8 10 2 5 8 12
11 17 7 4 -4 2 -17 -5 -27 -15 -24 -15 -33 -2 -25 14 8 12 -59 -2 -97 -10 -26
-38 -40 -38 -18 0 6 4 10 8 10 5 0 14 11 20 24 8 19 7 29 -5 46 -15 22 -17 22
-30 5 -18 -25 -17 -38 3 -31 10 4 14 1 11 -6 -2 -7 -11 -12 -21 -10 -20 4 -22
-38 -4 -56 8 -8 9 -15 3 -20 -14 -10 -17 -32 -5 -32 6 0 10 6 11 13 0 9 2 9 6
-1 3 -7 -3 -19 -13 -27 -15 -11 -16 -15 -5 -28 9 -12 10 -21 2 -36 -6 -11 -7
-21 -2 -23 5 -2 3 -9 -5 -16 -12 -11 -14 14 -14 173 l0 185 30 0 c17 0 30 -5
30 -12z m-1330 -63 l31 -55 53 0 53 0 36 55 37 54 42 -13 c57 -18 116 -44 121
-53 2 -5 -1 -33 -7 -64 l-12 -56 41 -44 40 -44 60 12 c32 6 62 10 66 7 9 -5
59 -131 59 -148 0 -8 -22 -28 -50 -46 l-50 -32 0 -57 c0 -55 1 -57 41 -81 57
-35 64 -52 40 -99 -15 -28 -28 -40 -51 -45 -21 -4 -34 -13 -37 -27 -5 -18 -11
-20 -47 -15 -37 5 -45 2 -83 -32 -40 -37 -41 -39 -32 -82 17 -93 18 -92 -71
-124 -45 -16 -84 -25 -88 -22 -3 4 -18 28 -32 54 -24 46 -26 47 -85 55 -59 7
-60 7 -85 -25 -14 -17 -35 -43 -46 -57 l-22 -25 -76 37 c-42 21 -76 42 -76 46
0 4 8 32 19 62 l18 54 -38 43 -38 44 -63 -10 c-35 -6 -66 -7 -70 -4 -4 4 -20
38 -37 77 -34 80 -32 84 39 120 46 24 47 24 47 75 0 51 -1 52 -54 91 -29 22
-53 42 -53 44 0 3 14 37 32 76 31 70 32 71 65 65 104 -18 96 -20 134 21 36 38
36 39 30 101 -8 72 -9 70 84 103 74 27 80 25 115 -36z m1348 -168 c-5 -10 -6
-32 -3 -48 4 -19 2 -36 -6 -45 -10 -12 -10 -20 -2 -33 7 -11 8 -23 2 -32 -10
-16 -10 -15 -15 26 -2 16 1 34 5 40 5 5 7 37 6 70 -3 65 4 90 15 59 4 -10 3
-27 -2 -37z m1657 -67 c3 -5 1 -10 -4 -10 -6 0 -11 5 -11 10 0 6 2 10 4 10 3
0 8 -4 11 -10z m14 -51 c-19 -11 -20 -6 -6 24 11 25 12 25 15 6 2 -12 -2 -25
-9 -30z m-39 16 c0 -2 -10 -9 -22 -15 -22 -11 -22 -10 -4 4 21 17 26 19 26 11z
m2699 -39 c-4 -34 2 -44 24 -39 19 4 17 2 -8 -16 -16 -11 -34 -21 -40 -21 -5
1 -2 5 7 11 16 9 17 13 3 39 -19 36 -19 37 0 37 8 0 15 -5 14 -11z m-4379 -38
c0 -4 -7 -5 -15 -2 -8 4 -15 16 -15 27 0 20 0 20 15 1 8 -10 15 -22 15 -26z
m1677 36 c-3 -3 -12 -4 -19 -1 -8 3 -5 6 6 6 11 1 17 -2 13 -5z m53 -36 c0
-42 -5 -49 -12 -13 -1 11 -7 23 -12 26 -10 8 1 29 15 29 5 0 9 -19 9 -42z
m2614 -5 c3 -7 -1 -10 -8 -7 -7 3 -13 -2 -13 -11 0 -8 5 -15 11 -15 6 0 -4
-10 -22 -21 -38 -25 -55 -18 -24 10 32 27 27 48 -10 42 -5 0 -8 3 -8 9 0 14
69 8 74 -7z m587 -78 c105 -52 194 -93 199 -90 5 3 45 18 90 34 l81 29 52 -23
c29 -12 140 -65 247 -117 107 -51 257 -123 332 -158 76 -36 136 -69 135 -75
-2 -5 -51 -32 -109 -59 l-105 -48 -359 177 c-197 97 -399 197 -449 222 -118
59 -166 77 -159 58 6 -15 -12 -29 -26 -20 -8 5 -7 11 0 20 16 19 8 29 -46 54
-43 21 -76 21 -44 1 8 -5 11 -12 7 -16 -4 -5 -17 2 -29 14 -16 16 -18 22 -8
22 8 0 -3 12 -24 26 -29 20 -35 28 -25 35 27 17 52 8 240 -86z m-651 50 c0 -7
-6 -18 -13 -24 -11 -8 -16 -5 -25 15 -15 31 -15 37 -2 29 6 -3 10 -1 10 6 0 8
4 8 15 -1 8 -7 15 -18 15 -25z m-4292 -20 c0 -14 -4 -28 -9 -31 -5 -3 -9 11
-9 31 0 20 4 34 9 31 5 -3 9 -17 9 -31z m4718 4 c10 -17 -14 -35 -28 -21 -9 9
-9 12 1 12 7 0 9 5 6 10 -3 6 -2 10 4 10 5 0 13 -5 17 -11z m-2976 -25 c0 -14
-4 -23 -9 -20 -5 3 -7 15 -4 26 7 28 13 25 13 -6z m2420 -22 c0 -15 -2 -15
-10 -2 -13 20 -13 33 0 25 6 -3 10 -14 10 -23z m570 -20 c8 -8 -4 -5 -27 7
-24 12 -43 23 -43 26 0 8 54 -18 70 -33z m120 -2 c0 -5 -4 -10 -10 -10 -5 0
-10 5 -10 10 0 6 5 10 10 10 6 0 10 -4 10 -10z m-825 -18 c-2 -3 0 -13 6 -23
7 -15 6 -17 -6 -13 -8 4 -15 10 -15 15 0 4 -8 5 -17 2 -15 -6 -16 -5 -3 8 8 9
20 16 27 16 7 0 11 -2 8 -5z m140 -2 c-3 -5 -12 -10 -18 -10 -7 0 -6 4 3 10
19 12 23 12 15 0z m-204 -29 c-7 -5 -12 -11 -12 -15 3 -22 -1 -26 -14 -12 -16
16 -20 31 -6 22 5 -3 14 1 21 9 7 9 15 13 19 10 3 -3 0 -10 -8 -14z m879 -1
c8 -5 11 -10 5 -10 -5 0 -17 5 -25 10 -8 5 -10 10 -5 10 6 0 17 -5 25 -10z
m149 -21 c-16 -10 -23 -4 -14 10 3 6 11 8 17 5 6 -4 5 -9 -3 -15z m-99 1 c0
-4 14 -13 30 -20 17 -7 29 -15 26 -17 -4 -4 -86 34 -86 41 0 1 7 3 15 3 8 0
15 -4 15 -7z m-888 -35 c-68 -36 -118 -53 -92 -32 8 7 21 19 29 27 8 8 11 9 7
3 -4 -7 -2 -13 3 -13 6 0 11 5 11 10 0 6 7 10 15 10 9 0 18 6 20 13 3 7 19 13
37 14 28 1 25 -2 -30 -32z m1029 18 c13 -16 12 -17 -3 -4 -10 7 -18 15 -18 17
0 8 8 3 21 -13z m-5450 -53 c21 -37 26 -40 68 -40 38 0 51 5 82 36 l38 37 56
-28 c56 -27 57 -28 50 -62 -3 -19 -9 -41 -11 -48 -3 -7 9 -30 28 -50 l33 -36
49 12 c55 14 56 13 82 -65 18 -55 20 -52 -45 -88 -26 -15 -31 -23 -31 -56 0
-33 6 -44 41 -75 36 -32 39 -39 29 -59 -48 -98 -46 -96 -109 -78 -30 8 -38 6
-67 -18 -32 -26 -34 -30 -29 -79 l5 -51 -43 -16 c-85 -30 -84 -30 -111 13 -22
34 -32 41 -72 47 -45 6 -47 6 -83 -35 l-36 -42 -62 30 -62 29 14 46 c14 46 14
47 -17 82 -30 34 -33 35 -82 29 l-52 -7 -22 54 c-12 29 -22 58 -22 64 0 5 20
20 45 32 43 21 45 24 45 66 0 40 -3 46 -40 70 -22 14 -40 29 -40 31 0 3 12 29
26 57 l26 51 50 -6 c45 -6 54 -3 88 24 36 29 37 33 28 65 -14 54 -7 66 47 85
71 26 81 24 106 -21z m2150 -3 c-13 -13 -15 1 -4 30 7 17 8 17 11 -1 2 -10 -1
-23 -7 -29z m2159 -34 c0 -21 -33 -181 -41 -194 -5 -10 -53 -40 -108 -68 -55
-28 -168 -89 -252 -136 -83 -46 -156 -82 -160 -79 -5 3 -9 0 -9 -6 0 -6 -8
-14 -17 -17 -10 -4 -58 -30 -106 -60 -83 -50 -107 -61 -107 -47 0 32 26 160
41 199 l19 50 359 183 c198 100 364 182 370 182 6 0 11 -3 11 -7z m1443 -129
c283 -142 433 -220 454 -237 32 -25 73 -247 45 -247 -4 0 -41 21 -82 46 -41
25 -122 71 -180 101 -58 31 -134 72 -170 93 -36 20 -122 67 -191 104 l-126 66
-17 83 c-9 45 -19 92 -22 105 -4 14 -2 22 6 22 6 0 134 -61 283 -136z m-5139
-65 c-9 -15 -26 -10 -20 6 3 8 1 15 -4 15 -6 0 -10 5 -10 12 0 6 8 3 20 -7 11
-10 17 -22 14 -26z m-258 -961 c4 -6 7 -90 6 -187 -2 -144 1 -179 14 -199 26
-40 12 -53 -53 -50 -52 3 -58 5 -54 23 3 11 6 95 8 186 3 140 2 168 -12 179
-32 26 -9 44 77 59 4 0 10 -4 14 -11z m812 -91 c1 -53 6 -97 10 -97 4 0 16 7
26 15 25 19 76 19 101 1 16 -11 20 -30 23 -112 2 -55 9 -105 14 -111 20 -25 1
-43 -46 -43 -54 0 -56 5 -56 116 0 69 -3 86 -16 91 -9 3 -24 2 -33 -4 -13 -9
-16 -28 -14 -107 l2 -97 -52 3 c-48 3 -52 5 -50 28 0 14 3 98 6 188 3 128 1
164 -9 173 -25 20 -15 36 29 46 23 6 47 10 52 8 6 -1 11 -44 13 -98z m4630 0
c1 -53 6 -97 10 -97 4 0 16 7 26 15 29 22 79 19 101 -5 15 -17 19 -38 20 -108
0 -58 6 -95 15 -110 13 -20 13 -24 0 -32 -25 -16 -87 -12 -94 6 -3 9 -6 56 -6
104 0 49 -4 91 -9 94 -5 4 -21 2 -36 -4 l-27 -10 4 -98 3 -97 -49 0 -49 0 2
191 c2 128 -1 194 -8 199 -23 14 -9 33 32 42 23 6 47 10 52 8 6 -1 11 -44 13
-98z m-6902 58 c35 -14 36 -16 29 -52 -10 -57 -21 -62 -54 -23 -24 29 -35 35
-71 35 -35 0 -47 -6 -71 -33 -26 -29 -29 -39 -29 -102 0 -86 18 -133 62 -160
38 -23 86 -19 128 10 29 20 50 16 50 -9 0 -37 -80 -81 -148 -81 -54 0 -103 23
-140 64 -91 104 -56 299 63 352 40 18 137 17 181 -1z m4762 3 c5 -7 33 -85 61
-173 28 -88 58 -170 67 -183 27 -39 12 -53 -53 -50 -57 3 -58 4 -59 33 0 17
-4 42 -7 58 -7 26 -10 27 -67 27 -56 0 -61 -2 -70 -26 -6 -14 -9 -39 -7 -57 2
-31 1 -32 -45 -35 -53 -3 -61 9 -34 51 18 29 96 260 105 312 6 37 9 40 46 46
22 3 43 7 46 8 4 0 11 -5 17 -11z m-3006 -58 c4 -30 18 -97 31 -148 l23 -93
29 100 c25 88 27 103 15 131 -16 39 -6 51 53 57 l44 5 7 -48 c6 -43 39 -183
53 -224 7 -23 63 200 61 240 -3 34 -2 35 40 38 45 3 51 -5 33 -50 -5 -13 -29
-94 -52 -181 -46 -170 -53 -181 -112 -175 l-32 3 -21 103 c-12 57 -24 105 -27
108 -2 3 -15 -37 -27 -88 -31 -126 -32 -128 -85 -128 -33 0 -45 4 -48 18 -3 9
-22 82 -42 162 -20 80 -45 157 -56 172 -34 48 -23 58 56 55 l50 -2 7 -55z
m4630 0 c4 -30 18 -95 31 -144 l23 -88 27 96 c25 86 27 100 15 132 -15 43 -4
54 60 54 37 0 42 -2 42 -24 0 -21 43 -208 57 -246 7 -20 63 209 60 246 -2 27
0 29 42 32 38 3 43 1 38 -15 -3 -10 -28 -98 -55 -196 -28 -98 -53 -181 -56
-184 -3 -4 -25 -7 -48 -7 l-43 -1 -20 102 c-11 56 -23 104 -26 108 -4 3 -19
-41 -34 -99 -23 -85 -31 -105 -49 -110 -26 -7 -76 -8 -76 -1 0 33 -85 327
-101 348 -32 44 -19 59 48 55 l58 -3 7 -55z m-5612 -40 c0 -39 1 -40 35 -40
19 0 35 -4 35 -10 0 -5 19 -3 41 5 55 20 68 19 77 -6 l8 -20 18 20 c19 20 70
29 80 13 2 -4 1 -23 -3 -42 -7 -33 -9 -35 -42 -32 -50 4 -62 -14 -56 -85 3
-32 8 -70 12 -85 l7 -28 -62 0 -62 0 7 28 c4 15 9 61 12 102 4 68 2 78 -17 95
-20 18 -22 18 -31 2 -6 -9 -21 -17 -35 -17 -24 0 -25 -1 -22 -72 l3 -73 32 1
c41 2 49 -20 16 -46 -17 -13 -41 -20 -69 -20 -61 0 -74 22 -74 127 0 67 -3 83
-15 83 -22 0 -18 34 5 55 12 10 30 34 41 52 12 19 29 33 40 33 16 0 19 -7 19
-40z m2072 3 c3 -35 6 -38 36 -41 26 -3 32 -7 32 -28 0 -21 -5 -24 -35 -24
l-36 0 3 -77 3 -78 30 0 c39 -1 44 -27 10 -49 -17 -11 -41 -16 -68 -14 -55 4
-67 28 -67 136 0 66 -3 82 -15 82 -22 0 -18 24 9 49 14 13 30 36 36 52 9 20
19 29 36 29 19 0 23 -6 26 -37z m3210 0 c3 -35 6 -38 33 -38 25 0 30 -4 33
-27 3 -26 1 -28 -33 -28 l-36 0 3 -77 3 -78 32 1 c43 2 49 -20 14 -46 -35 -24
-93 -26 -115 -4 -18 18 -20 32 -16 127 2 62 0 69 -19 74 -27 7 -27 25 -1 48
12 10 30 34 41 52 29 46 57 44 61 -4z m1413 -3 c0 -33 2 -35 36 -38 32 -3 36
-6 31 -27 -3 -18 -12 -25 -36 -27 l-31 -3 0 -75 0 -75 33 1 c25 2 32 -2 32
-16 0 -42 -95 -67 -132 -33 -15 13 -18 32 -18 103 0 79 -2 89 -22 102 l-22 15
23 19 c12 10 31 36 42 57 15 29 25 38 42 35 18 -2 22 -10 22 -38z m-7203 -47
c80 -40 87 -167 13 -232 -31 -26 -44 -31 -90 -31 -43 0 -59 5 -84 26 -59 50
-63 148 -9 210 46 53 103 62 170 27z m1016 0 c80 -50 81 -187 1 -246 -56 -40
-157 -18 -193 43 -29 51 -15 154 27 189 27 21 90 40 117 34 14 -3 35 -12 48
-20z m4577 13 c42 -18 65 -61 65 -121 0 -90 -56 -155 -135 -155 -34 0 -35 -1
-35 -38 0 -21 5 -43 11 -49 20 -20 -1 -33 -56 -33 -52 0 -75 15 -55 36 4 5 10
71 12 147 4 125 3 141 -14 163 l-19 24 28 11 c54 20 80 22 86 5 6 -14 10 -14
39 4 39 24 31 23 73 6z m-5405 -11 c0 -18 8 -18 40 0 37 21 84 19 106 -6 16
-17 19 -37 20 -110 0 -72 4 -92 19 -109 16 -18 17 -23 5 -30 -8 -6 -34 -10
-57 -10 -50 0 -52 3 -55 125 l-3 80 -30 0 -30 0 0 -100 0 -100 -49 -3 c-53 -3
-71 10 -55 39 5 10 9 53 9 97 0 62 -3 81 -15 86 -26 10 -16 35 18 45 50 14 77
13 77 -4z m2215 -10 c23 -22 25 -32 25 -110 0 -67 3 -87 15 -91 21 -8 19 -31
-4 -44 -26 -13 -57 -13 -81 2 -15 10 -22 10 -32 0 -6 -6 -29 -12 -49 -12 -69
0 -101 78 -53 131 9 10 40 23 70 29 30 6 54 15 54 20 0 43 -40 53 -77 19 -18
-18 -25 -20 -38 -9 -43 36 15 90 98 90 38 0 53 -5 72 -25z m2448 11 c23 -17
19 -64 -5 -80 -13 -8 -22 -5 -42 17 -29 32 -33 32 -58 10 -26 -23 -24 -92 3
-127 22 -28 66 -35 86 -15 6 6 16 8 22 5 38 -24 -25 -76 -92 -76 -131 0 -170
190 -54 260 38 23 113 26 140 6z m241 1 c22 -16 18 -65 -6 -81 -13 -8 -21 -5
-38 17 -25 31 -36 33 -62 10 -27 -25 -24 -95 6 -130 23 -27 26 -27 67 -16 33
9 46 9 51 0 17 -27 -51 -67 -113 -67 -35 0 -47 6 -75 36 -30 31 -34 42 -34 90
0 66 20 108 63 134 37 23 114 27 141 7z m237 -16 c21 -21 29 -39 29 -65 0 -19
-4 -37 -9 -40 -5 -4 -37 -9 -70 -13 -34 -3 -64 -10 -67 -14 -3 -5 7 -21 21
-35 20 -20 33 -25 53 -21 60 12 66 12 70 -4 8 -42 -114 -78 -167 -50 -55 30
-80 136 -46 201 39 75 131 95 186 41z m1697 9 c19 -18 22 -31 22 -110 0 -82 2
-90 22 -101 l22 -12 -23 -18 c-26 -21 -71 -25 -88 -8 -8 8 -17 8 -31 0 -23
-13 -72 -14 -88 -3 -37 25 -44 90 -11 119 21 20 32 24 90 37 22 5 28 12 25 29
-4 31 -35 33 -65 5 l-25 -23 -19 24 c-10 13 -19 26 -19 30 0 4 19 17 43 29 54
28 116 29 145 2z m-5623 -462 c14 -6 25 -16 26 -22 3 -30 -4 -63 -17 -76 -12
-13 -18 -10 -45 23 -24 29 -38 37 -63 37 -43 0 -81 -31 -97 -77 -15 -46 -6
-143 17 -182 33 -56 116 -70 164 -26 28 25 52 19 48 -12 -6 -58 -140 -93 -221
-59 -126 52 -151 264 -44 364 53 50 159 63 232 30z m4549 8 c43 -18 49 -29 42
-72 -8 -42 -24 -43 -58 -4 -32 36 -82 41 -121 10 -47 -37 -58 -159 -21 -232
30 -59 107 -77 158 -37 32 25 59 18 54 -13 -5 -39 -62 -68 -133 -68 -111 0
-183 68 -193 185 -6 73 13 130 60 181 57 61 139 81 212 50z m720 -18 c29 -41
14 -98 -37 -147 -35 -32 -51 -19 -30 24 13 28 14 39 5 60 -17 37 -15 62 6 74
26 16 39 13 56 -11z m-6478 -5 c3 -10 20 -49 38 -88 l33 -70 22 35 c11 19 29
55 38 80 20 52 28 60 66 60 30 0 37 -23 13 -49 -8 -9 -35 -55 -60 -102 -39
-73 -46 -94 -46 -142 0 -32 5 -66 12 -77 7 -10 10 -21 8 -24 -3 -2 -32 -6 -65
-7 -51 -2 -60 0 -63 15 -2 10 1 23 7 29 6 6 11 33 11 61 0 40 -8 64 -46 130
-26 45 -58 93 -72 109 -35 37 -16 53 66 56 23 1 34 -4 38 -16z m4580 0 c3 -10
21 -51 40 -92 l35 -74 34 74 c18 41 36 82 39 92 4 12 16 17 41 17 28 0 35 -4
35 -19 0 -11 -4 -22 -9 -25 -5 -4 -32 -49 -60 -100 -43 -79 -51 -103 -51 -147
0 -34 6 -59 16 -70 25 -28 8 -39 -62 -39 -57 0 -64 2 -64 20 0 11 5 20 10 20
6 0 10 26 10 58 0 50 -6 67 -46 137 -26 44 -57 91 -70 105 -27 30 -21 46 21
53 62 9 76 7 81 -10z m2036 -45 c1 -7 2 -24 2 -38 1 -20 7 -26 31 -28 38 -4
49 -15 41 -40 -5 -14 -17 -22 -39 -24 -32 -3 -32 -3 -35 -66 -3 -72 8 -95 47
-90 37 4 38 -23 2 -45 -43 -25 -86 -22 -110 9 -17 22 -21 41 -21 110 0 68 -3
84 -15 84 -20 0 -19 32 3 51 9 9 30 33 45 53 29 37 46 45 49 24z m-6226 -74
c43 -21 67 -65 68 -124 1 -87 -58 -150 -141 -150 -35 0 -50 6 -80 34 -33 30
-37 39 -40 92 -5 73 17 122 67 146 44 22 82 23 126 2z m1047 5 c36 -16 47 -50
47 -139 0 -64 3 -81 17 -89 14 -7 15 -12 4 -24 -18 -22 -69 -31 -87 -16 -11 9
-20 9 -40 0 -61 -27 -114 5 -114 70 0 45 31 74 90 84 44 7 53 15 44 39 -8 21
-52 21 -76 0 -14 -14 -20 -14 -33 -4 -55 45 73 113 148 79z m189 -8 c11 -18
12 -18 44 1 24 14 42 18 64 13 45 -10 60 -48 60 -149 0 -47 5 -88 10 -91 23
-14 8 -33 -32 -38 -60 -9 -70 7 -67 111 3 95 -5 112 -47 93 l-27 -12 5 -93 5
-94 -41 -4 c-59 -7 -67 -2 -61 41 15 112 14 150 -7 176 -23 30 -20 36 30 51
51 16 50 16 64 -5z m3344 3 c19 -9 42 -30 50 -47 21 -39 22 -114 4 -152 -40
-80 -155 -100 -211 -37 -66 74 -42 200 45 238 42 18 71 17 112 -2z m1062 -20
c19 -22 22 -36 22 -109 0 -69 3 -86 17 -94 14 -7 15 -12 4 -24 -19 -24 -69
-32 -89 -14 -15 13 -20 14 -36 1 -28 -20 -59 -17 -90 7 -20 16 -26 29 -26 59
0 46 32 77 92 86 43 7 51 15 42 38 -8 21 -42 20 -65 0 -33 -30 -78 11 -47 42
23 24 90 44 123 39 17 -3 40 -16 53 -31z m169 17 c4 -18 6 -18 43 3 36 20 40
20 73 4 40 -19 47 -42 47 -154 0 -40 5 -76 10 -79 23 -14 8 -33 -31 -39 -62
-10 -69 1 -69 111 0 101 -8 116 -50 93 -21 -11 -22 -17 -18 -106 4 -102 8 -95
-54 -99 -43 -3 -48 5 -36 59 12 57 2 150 -18 167 -23 19 -17 27 34 42 63 20
63 20 69 -2z m-5617 -90 c0 -59 4 -102 11 -106 5 -4 21 -4 35 -1 23 6 24 10
24 76 0 39 -5 79 -12 90 -16 25 -8 31 47 37 l45 6 0 -103 c0 -84 3 -107 17
-123 17 -18 17 -19 -2 -33 -23 -17 -82 -19 -87 -3 -3 8 -14 7 -35 -5 -42 -21
-75 -20 -104 3 -22 17 -24 28 -26 112 -1 51 -7 97 -13 103 -5 5 -10 14 -10 18
0 13 40 27 78 27 l32 1 0 -99z m4575 4 c0 -49 4 -96 8 -102 10 -16 43 -17 53
-2 9 16 10 105 1 150 -7 33 -5 37 15 43 13 3 35 6 51 6 l27 0 0 -109 c0 -63 4
-112 10 -116 21 -13 8 -35 -27 -44 -29 -8 -40 -7 -53 4 -15 14 -20 14 -46 0
-83 -43 -124 2 -124 134 0 44 -4 83 -10 86 -29 18 13 46 65 42 l30 -2 0 -90z"/>
<path d="M2985 7789 c10 -31 22 -39 63 -39 47 0 38 29 -13 42 -11 3 -28 9 -39
13 -16 7 -17 5 -11 -16z"/>
<path d="M2321 7769 c-25 -21 -24 -33 2 -23 14 5 31 33 25 40 -2 1 -14 -6 -27
-17z"/>
<path d="M2760 7784 c0 -18 28 -37 42 -28 7 4 28 11 48 15 l35 7 -33 1 c-18 0
-42 -4 -52 -9 -15 -8 -21 -6 -29 7 -6 10 -11 13 -11 7z"/>
<path d="M3267 7730 c-3 -13 0 -20 8 -20 8 0 18 -7 22 -15 7 -11 16 -12 38 -6
l30 9 -32 1 c-26 1 -34 6 -39 26 -7 30 -20 32 -27 5z"/>
<path d="M2520 7715 c0 -17 38 -45 62 -45 30 0 30 -19 -1 -57 -37 -45 -38 -53
-8 -53 17 0 23 6 25 26 4 52 62 88 116 73 40 -12 53 -12 41 0 -6 5 -39 15 -75
21 -36 7 -86 21 -112 31 -39 14 -48 15 -48 4z"/>
<path d="M2186 7692 c-4 -13 -5 -26 -2 -29 10 -11 18 4 14 29 l-4 23 -8 -23z"/>
<path d="M3082 7662 c-21 -48 -44 -74 -96 -106 -19 -12 -25 -21 -18 -28 7 -7
30 11 72 52 71 72 94 105 85 120 -12 19 -23 10 -43 -38z"/>
<path d="M2090 7679 c0 -5 5 -7 10 -4 6 3 10 8 10 11 0 2 -4 4 -10 4 -5 0 -10
-5 -10 -11z"/>
<path d="M3338 7664 c-16 -8 -28 -19 -28 -24 0 -16 13 -12 45 15 33 27 25 32
-17 9z"/>
<path d="M2785 7649 c-4 -5 0 -18 8 -27 7 -9 17 -25 20 -35 5 -13 13 -16 34
-11 32 8 37 8 78 0 21 -5 40 -1 64 14 40 25 36 34 -8 19 -46 -16 -105 -5 -142
25 -33 28 -44 32 -54 15z"/>
<path d="M1947 7614 c-12 -24 -14 -35 -5 -32 11 4 31 58 24 65 -1 1 -10 -13
-19 -33z"/>
<path d="M3540 7633 c0 -5 9 -19 20 -33 l20 -25 -12 33 c-11 28 -28 44 -28 25z"/>
<path d="M2121 7601 c-12 -16 -21 -43 -21 -59 0 -24 5 -31 26 -36 17 -5 32 -2
43 9 10 8 32 15 50 15 65 0 196 58 176 78 -3 3 -15 -4 -28 -16 -16 -15 -43
-24 -97 -30 -81 -10 -100 -7 -100 14 0 8 -9 14 -20 14 -18 0 -19 3 -10 20 16
30 4 24 -19 -9z"/>
<path d="M2441 7589 c-15 -33 -17 -48 -9 -71 11 -30 71 -78 98 -78 9 0 21 -5
27 -11 8 -8 19 -6 42 5 87 45 171 26 192 -44 10 -32 16 -39 31 -34 11 3 18 0
18 -8 0 -8 3 -9 8 -3 15 21 72 55 92 55 13 0 20 7 20 19 0 11 8 22 18 25 10 3
18 14 18 23 1 10 5 26 9 36 5 13 4 16 -9 11 -9 -3 -14 -9 -11 -13 2 -4 -5 -15
-16 -24 -10 -9 -19 -24 -19 -32 0 -18 -62 -45 -105 -45 -26 0 -34 5 -39 23 -6
26 -57 57 -92 57 -25 0 -25 4 -8 88 3 17 1 23 -8 19 -7 -2 -12 -14 -11 -26 5
-44 -22 -86 -63 -100 -22 -7 -45 -15 -51 -17 -7 -3 -13 -1 -13 5 0 6 9 11 20
11 11 0 20 5 20 10 0 11 -13 14 -43 10 -10 -1 -36 10 -58 24 -34 23 -39 31
-39 64 0 21 5 43 12 50 9 9 9 12 0 12 -7 0 -21 -19 -31 -41z"/>
<path d="M3205 7585 c-24 -7 -45 -9 -51 -4 -7 6 -28 5 -50 0 l-39 -9 38 -1
c21 -1 51 -8 67 -16 22 -11 39 -13 67 -6 36 9 37 9 8 10 l-30 2 28 15 c49 26
31 31 -38 9z"/>
<path d="M2830 7535 c7 -8 17 -15 22 -15 6 0 5 7 -2 15 -7 8 -17 15 -22 15 -6
0 -5 -7 2 -15z"/>
<path d="M3426 7525 c-6 -25 -29 -34 -41 -15 -3 6 -13 10 -22 10 -14 0 -13 -4
5 -22 11 -13 25 -35 31 -50 10 -25 15 -28 60 -28 47 0 50 -2 53 -27 2 -16 10
-29 19 -31 22 -4 33 37 13 45 -8 3 -13 11 -10 18 2 7 -5 21 -16 32 -11 10 -31
35 -44 56 -28 43 -39 46 -48 12z m34 -35 c0 -5 -7 -10 -15 -10 -8 0 -15 5 -15
10 0 6 7 10 15 10 8 0 15 -4 15 -10z"/>
<path d="M2720 7510 c0 -5 5 -10 10 -10 6 0 10 5 10 10 0 6 -4 10 -10 10 -5 0
-10 -4 -10 -10z"/>
<path d="M2880 7498 c0 -9 5 -20 10 -23 13 -8 13 5 0 25 -8 13 -10 13 -10 -2z"/>
<path d="M2770 7490 c0 -5 5 -10 11 -10 5 0 7 5 4 10 -3 6 -8 10 -11 10 -2 0
-4 -4 -4 -10z"/>
<path d="M2285 7485 c-5 -2 -23 -6 -39 -10 -20 -4 -26 -9 -19 -16 7 -7 20 -6
41 5 28 14 36 15 74 2 l43 -15 -24 20 c-21 17 -50 23 -76 14z"/>
<path d="M3123 7483 c-27 -10 -12 -24 18 -18 24 5 30 4 24 -5 -8 -13 9 -12 60
5 30 9 69 -47 67 -97 -2 -46 14 -43 21 4 5 35 -15 84 -42 105 -16 12 -123 17
-148 6z"/>
<path d="M3610 7469 c6 -11 19 -23 28 -26 9 -4 28 -15 41 -25 30 -23 87 -24
95 -2 10 27 7 29 -48 29 -41 0 -62 6 -85 23 -37 27 -45 28 -31 1z"/>
<path d="M2105 7450 c-26 -49 -20 -77 19 -90 49 -16 72 -44 59 -73 -10 -22 -9
-23 13 -19 18 3 24 11 24 32 0 28 23 50 66 64 21 6 22 3 23 -61 0 -40 6 -72
14 -80 15 -15 53 -19 84 -9 12 4 24 2 28 -4 8 -13 22 -5 36 23 12 21 11 21 -8
5 -24 -22 -37 -23 -30 -4 5 11 -1 12 -30 3 -33 -10 -37 -9 -59 16 -25 29 -30
62 -14 87 8 12 10 11 10 -6 0 -26 30 -54 56 -54 10 1 30 7 44 15 25 14 25 14
-10 9 -19 -3 -40 -1 -45 3 -24 19 -43 61 -38 86 7 33 1 34 -54 1 -43 -25 -62
-27 -48 -5 3 6 13 11 21 11 8 0 14 5 14 10 0 7 -6 7 -19 1 -31 -17 -92 -17
-105 0 -6 9 -17 14 -23 12 -16 -6 -17 11 -3 38 7 13 7 19 1 19 -6 0 -17 -13
-26 -30z"/>
<path d="M2836 7467 c3 -10 9 -15 12 -12 3 3 0 11 -7 18 -10 9 -11 8 -5 -6z"/>
<path d="M3118 7400 c-11 -34 -150 -53 -167 -23 -9 16 -11 16 -31 -2 l-22 -20
21 -16 c12 -10 30 -14 45 -12 15 3 37 -2 51 -11 24 -16 27 -16 61 11 33 24 61
69 50 80 -2 2 -6 -1 -8 -7z"/>
<path d="M3780 7385 c0 -8 5 -15 10 -15 6 0 10 7 10 15 0 8 -4 15 -10 15 -5 0
-10 -7 -10 -15z"/>
<path d="M1877 7366 c-4 -10 -5 -21 -2 -24 9 -9 17 6 13 25 -3 17 -4 17 -11
-1z"/>
<path d="M2583 7343 c-24 -15 -43 -33 -43 -40 0 -8 14 -3 36 12 20 14 42 25
48 25 23 -1 97 -40 102 -55 11 -28 23 -15 13 14 -24 69 -90 88 -156 44z"/>
<path d="M2980 7262 c6 -13 14 -21 18 -18 3 4 -2 14 -12 24 -18 16 -18 16 -6
-6z"/>
<path d="M2575 7260 c4 -6 11 -8 16 -5 14 9 11 15 -7 15 -8 0 -12 -5 -9 -10z"/>
<path d="M2730 7220 c0 -5 5 -10 11 -10 5 0 7 5 4 10 -3 6 -8 10 -11 10 -2 0
-4 -4 -4 -10z"/>
<path d="M3391 6748 c9 -7 15 -24 14 -37 -1 -21 -9 -27 -53 -36 -29 -7 -75
-24 -103 -39 -28 -14 -66 -26 -85 -26 -20 0 -34 -5 -34 -12 0 -8 -3 -9 -8 -3
-9 13 -72 17 -72 5 0 -12 17 -22 22 -13 1 5 14 -3 28 -16 21 -20 22 -23 5 -16
-35 13 -97 26 -103 21 -13 -14 98 -48 158 -48 43 -1 84 -9 122 -25 65 -26 98
-29 116 -11 10 10 15 10 22 -2 8 -12 10 -10 10 8 0 24 10 28 27 11 9 -9 21 -7
50 6 54 25 83 54 83 85 0 14 7 36 16 49 19 27 17 29 -60 71 -39 21 -79 33
-115 37 -47 4 -54 2 -40 -9z m37 -100 c7 -7 12 -19 12 -28 0 -12 -8 -15 -32
-13 -18 2 -71 -7 -118 -21 -46 -14 -86 -23 -88 -21 -5 5 83 64 121 80 40 18
89 19 105 3z m-18 -82 c0 -47 -18 -76 -46 -76 -32 0 -106 40 -101 54 4 12 93
45 125 46 17 0 22 -6 22 -24z"/>
<path d="M3095 6691 c-16 -3 -25 -9 -20 -13 13 -8 65 2 65 13 0 10 -1 10 -45
0z"/>
<path d="M2667 6531 c-27 -46 -20 -58 13 -21 32 39 36 50 17 50 -7 0 -20 -13
-30 -29z"/>
<path d="M3330 6440 c0 -6 7 -10 15 -10 8 0 15 2 15 4 0 2 -7 6 -15 10 -8 3
-15 1 -15 -4z"/>
<path d="M2691 6362 c-5 -10 -7 -30 -3 -43 5 -21 7 -19 13 16 8 46 5 55 -10
27z"/>
<path d="M2726 6313 c-6 -14 -5 -15 5 -6 7 7 10 15 7 18 -3 3 -9 -2 -12 -12z"/>
<path d="M2758 6314 c-5 -4 -8 -16 -8 -28 0 -14 3 -17 11 -9 6 6 9 19 7 28 -1
9 -6 13 -10 9z"/>
<path d="M3422 6117 c-30 -43 -71 -83 -122 -120 -21 -15 -19 -14 15 2 53 26
158 142 142 157 -3 3 -19 -14 -35 -39z"/>
<path d="M2910 5779 c0 -5 5 -7 10 -4 6 3 10 8 10 11 0 2 -4 4 -10 4 -5 0 -10
-5 -10 -11z"/>
<path d="M3120 5693 c0 -13 5 -23 10 -23 13 0 13 11 0 30 -8 12 -10 11 -10 -7z"/>
<path d="M3230 5565 c0 -18 49 -84 72 -96 l21 -11 -21 28 c-42 56 -72 89 -72
79z"/>
<path d="M3512 5375 c21 -32 48 -47 48 -27 0 10 -53 62 -63 62 -4 0 3 -16 15
-35z"/>
<path d="M2080 6352 c0 -26 51 -102 90 -135 18 -15 51 -37 73 -48 34 -18 42
-19 54 -7 12 13 11 18 -6 39 -16 19 -22 22 -32 12 -7 -7 -22 -13 -33 -13 -27
0 -98 74 -90 94 4 10 1 16 -9 16 -10 0 -13 7 -10 19 3 13 -2 23 -16 30 -18 10
-21 9 -21 -7z"/>
<path d="M2072 5538 c5 -15 28 -23 28 -10 0 5 -7 13 -16 16 -10 4 -14 1 -12
-6z"/>
<path d="M2105 5509 c-4 -6 -5 -12 -2 -15 2 -3 7 2 10 11 7 17 1 20 -8 4z"/>
<path d="M2102 5434 c-7 -8 -8 -14 -3 -14 10 0 25 19 20 25 -2 1 -10 -3 -17
-11z"/>
<path d="M1977 5403 c-4 -3 -7 -11 -7 -17 0 -6 5 -5 12 2 6 6 9 14 7 17 -3 3
-9 2 -12 -2z"/>
<path d="M2070 5397 c0 -8 7 -14 15 -14 11 0 12 4 4 14 -6 7 -13 13 -15 13 -2
0 -4 -6 -4 -13z"/>
<path d="M2035 5360 c-3 -5 -1 -10 4 -10 6 0 11 5 11 10 0 6 -2 10 -4 10 -3 0
-8 -4 -11 -10z"/>
<path d="M2610 5095 c0 -3 7 -14 16 -23 15 -14 16 -14 13 3 -4 17 -29 35 -29
20z"/>
<path d="M2605 5041 c-9 -16 9 -20 23 -5 10 12 10 14 -2 14 -8 0 -17 -4 -21
-9z"/>
<path d="M2811 4411 c-7 -5 -10 -14 -7 -20 11 -17 22 -13 23 9 2 23 2 23 -16
11z"/>
<path d="M2725 4391 c-3 -6 4 -15 15 -21 20 -11 21 -10 10 9 -12 23 -16 25
-25 12z"/>
<path d="M1106 5137 c-20 -20 -25 -21 -33 -8 -8 13 -10 12 -15 -6 -9 -34 39
-21 71 20 20 25 4 21 -23 -6z"/>
<path d="M1153 5128 c1 -15 3 -25 6 -23 2 3 12 -5 23 -17 10 -12 21 -18 25
-15 3 4 -1 15 -10 25 -10 10 -17 24 -17 31 0 7 -4 10 -9 7 -5 -4 -12 0 -14 6
-3 7 -5 1 -4 -14z"/>
<path d="M1346 5117 c3 -10 9 -15 12 -12 3 3 0 11 -7 18 -10 9 -11 8 -5 -6z"/>
<path d="M8320 4390 c-12 -8 -11 -10 8 -10 12 0 22 5 22 10 0 13 -11 13 -30 0z"/>
<path d="M6477 4397 c-3 -8 0 -14 7 -14 7 0 13 6 13 14 0 7 -4 13 -8 13 -4 0
-9 -6 -12 -13z"/>
<path d="M3756 4751 c-10 -11 -16 -30 -14 -43 3 -21 8 -23 63 -23 54 0 60 2
63 21 4 26 -40 64 -73 64 -12 0 -30 -9 -39 -19z"/>
<path d="M3170 4605 c0 -18 19 -40 26 -32 4 4 0 15 -9 24 -9 10 -17 13 -17 8z"/>
<path d="M2955 4590 c-3 -5 -1 -10 4 -10 6 0 11 5 11 10 0 6 -2 10 -4 10 -3 0
-8 -4 -11 -10z"/>
<path d="M3137 4580 c-9 -11 -13 -20 -7 -20 5 0 14 9 20 20 6 11 9 20 8 20 -2
0 -11 -9 -21 -20z"/>
<path d="M2940 4522 c0 -10 27 -42 36 -42 8 0 4 7 -16 30 -11 13 -20 18 -20
12z"/>
<path d="M2991 4454 c0 -11 3 -14 6 -6 3 7 2 16 -1 19 -3 4 -6 -2 -5 -13z"/>
<path d="M4610 4301 c0 -5 7 -12 16 -15 27 -10 36 -7 20 9 -16 17 -36 20 -36
6z"/>
<path d="M4644 4246 c-11 -23 -10 -24 7 -13 11 7 19 17 19 24 0 21 -14 15 -26
-11z"/>
<path d="M4630 4195 c0 -8 4 -15 10 -15 5 0 7 7 4 15 -4 8 -8 15 -10 15 -2 0
-4 -7 -4 -15z"/>
<path d="M4656 4161 c-4 -7 -5 -15 -2 -18 9 -9 19 4 14 18 -4 11 -6 11 -12 0z"/>
<path d="M4610 4116 c0 -2 7 -6 15 -10 8 -3 15 -1 15 4 0 6 -7 10 -15 10 -8 0
-15 -2 -15 -4z"/>
<path d="M3592 4138 c-12 -18 -40 -58 -64 -88 -24 -31 -50 -67 -60 -80 l-16
-25 -39 38 c-46 44 -64 46 -92 11 l-21 -26 73 -79 c39 -43 77 -79 84 -79 7 0
45 45 85 100 57 80 74 97 80 83 5 -14 7 -12 7 9 1 14 12 39 25 55 12 15 28 38
35 50 10 21 8 25 -21 43 -44 27 -53 25 -76 -12z m-231 -158 c6 0 7 5 3 12 -4
7 -3 8 5 4 17 -11 2 -28 -20 -21 -11 4 -19 2 -19 -4 0 -6 5 -11 10 -11 6 0 10
-5 10 -12 0 -8 -6 -6 -17 4 -14 15 -14 19 -3 34 9 10 16 12 18 5 2 -6 8 -11
13 -11z"/>
<path d="M3769 4088 c0 -22 -1 -22 -10 -3 l-9 20 3 -20 c2 -19 11 -20 175 -23
112 -2 172 1 172 8 0 5 -7 10 -16 10 -10 0 -14 6 -10 15 5 13 -16 15 -149 15
-154 0 -155 0 -156 -22z m141 1 c0 -5 -4 -7 -10 -4 -5 3 -10 1 -10 -4 0 -6 -5
-11 -11 -11 -8 0 -8 5 1 15 14 17 30 20 30 4z m85 -9 c3 -5 1 -10 -4 -10 -6 0
-11 5 -11 10 0 6 2 10 4 10 3 0 8 -4 11 -10z"/>
<path d="M4102 4085 c14 -30 33 -32 48 -5 12 23 32 18 24 -5 -5 -12 7 -14 63
-12 61 2 68 4 68 22 0 19 -8 20 -107 23 l-108 3 12 -26z m118 5 c0 -5 -5 -10
-11 -10 -5 0 -7 5 -4 10 3 6 8 10 11 10 2 0 4 -4 4 -10z"/>
<path d="M3263 3955 c0 -22 2 -30 4 -17 2 12 2 30 0 40 -3 9 -5 -1 -4 -23z"/>
<path d="M3743 3853 c-3 -7 -3 -20 1 -28 5 -13 45 -15 281 -15 241 0 276 2
282 16 3 8 1 20 -4 25 -15 15 -554 17 -560 2z m520 -17 c4 -10 1 -13 -8 -9 -8
3 -12 9 -9 14 7 12 11 11 17 -5z"/>
<path d="M3262 3810 c0 -14 2 -19 5 -12 2 6 2 18 0 25 -3 6 -5 1 -5 -13z"/>
<path d="M3620 3790 c0 -20 -4 -21 -179 -18 -99 2 -177 0 -174 -4 2 -5 85 -8
184 -8 l179 0 0 25 c0 14 -2 25 -5 25 -3 0 -5 -9 -5 -20z"/>
<path d="M3277 3603 c-12 -11 -8 -41 6 -45 6 -2 239 -3 517 -3 l505 0 3 28 3
27 -514 0 c-282 0 -517 -3 -520 -7z"/>
<path d="M3279 3347 c-6 -9 -7 -22 -4 -27 4 -6 196 -10 521 -10 510 0 514 0
514 20 0 11 -6 23 -12 25 -7 3 -237 6 -511 7 -469 3 -500 2 -508 -15z"/>
<path d="M6590 4342 c0 -5 7 -13 16 -16 10 -4 14 -1 12 6 -5 15 -28 23 -28 10z"/>
<path d="M6646 4315 c-3 -8 -1 -15 4 -15 6 0 10 7 10 15 0 8 -2 15 -4 15 -2 0
-6 -7 -10 -15z"/>
<path d="M6850 4206 c0 -2 7 -6 15 -10 8 -3 15 -1 15 4 0 6 -7 10 -15 10 -8 0
-15 -2 -15 -4z"/>
<path d="M6910 4184 c0 -8 5 -12 10 -9 6 3 10 10 10 16 0 5 -4 9 -10 9 -5 0
-10 -7 -10 -16z"/>
<path d="M6950 4152 c0 -5 7 -9 15 -9 8 0 15 4 15 9 0 4 -7 8 -15 8 -8 0 -15
-4 -15 -8z"/>
<path d="M7045 4121 c-6 -11 9 -23 19 -14 9 9 7 23 -3 23 -6 0 -12 -4 -16 -9z"/>
<path d="M7107 4093 c-12 -12 -7 -25 7 -20 8 3 17 1 20 -6 3 -8 5 -8 5 -1 1
15 -24 36 -32 27z"/>
<path d="M7157 4083 c-4 -3 -7 -15 -7 -25 0 -17 2 -18 15 -4 8 8 15 19 15 25
0 12 -13 15 -23 4z"/>
<path d="M8160 4341 c0 -6 4 -13 10 -16 6 -3 7 1 4 9 -7 18 -14 21 -14 7z"/>
<path d="M7985 4240 c-3 -5 -1 -10 4 -10 6 0 11 5 11 10 0 6 -2 10 -4 10 -3 0
-8 -4 -11 -10z"/>
<path d="M7820 4159 c0 -5 5 -7 10 -4 6 3 10 8 10 11 0 2 -4 4 -10 4 -5 0 -10
-5 -10 -11z"/>
<path d="M7740 4141 c0 -6 5 -13 10 -16 6 -3 10 1 10 9 0 9 -4 16 -10 16 -5 0
-10 -4 -10 -9z"/>
<path d="M7661 4105 c1 -19 18 -51 18 -35 0 8 -4 22 -9 30 -5 8 -9 11 -9 5z"/>
<path d="M7610 4070 c0 -5 5 -10 10 -10 6 0 10 -7 10 -16 0 -8 5 -12 10 -9 7
4 7 13 0 26 -11 20 -30 26 -30 9z"/>
<path d="M7530 4061 c0 -7 10 -22 21 -32 21 -18 23 -18 35 -1 20 26 17 35 -13
28 -17 -5 -29 -3 -34 6 -7 10 -9 10 -9 -1z"/>
<path d="M7494 4048 c-4 -7 -3 -8 4 -4 7 4 12 1 12 -8 0 -9 5 -16 10 -16 12 0
12 3 4 24 -7 19 -20 21 -30 4z"/>
<path d="M7492 4000 c0 -19 4 -27 12 -24 16 6 16 26 1 41 -9 8 -12 4 -13 -17z"/>
<path d="M7131 3871 c-8 -5 -9 -11 -3 -15 5 -3 12 1 16 9 6 17 6 18 -13 6z"/>
<path d="M2940 4279 c-11 -19 -10 -20 9 -9 22 11 29 30 11 30 -5 0 -14 -9 -20
-21z"/>
<path d="M1644 3986 c-164 -72 -197 -285 -61 -401 57 -49 134 -71 195 -55 103
26 163 83 188 181 29 111 -25 218 -136 268 -52 24 -139 27 -186 7z"/>
<path d="M2510 3437 c-46 -15 -106 -77 -120 -124 -23 -75 23 -172 100 -210
137 -70 298 42 276 191 -6 36 -17 57 -49 91 -59 60 -127 77 -207 52z"/>
<path d="M6096 2262 c-9 -32 -16 -61 -16 -65 0 -4 18 -7 39 -7 l40 0 -16 58
c-9 31 -19 61 -23 65 -4 4 -14 -18 -24 -51z"/>
<path d="M1569 2219 c-17 -32 -4 -118 21 -143 44 -45 85 34 59 115 -11 36 -19
45 -41 47 -19 2 -30 -3 -39 -19z"/>
<path d="M2592 2228 c-14 -14 -16 -96 -3 -131 12 -30 46 -44 66 -27 21 17 20
119 -1 148 -17 24 -43 29 -62 10z"/>
<path d="M7183 2223 c-21 -8 -18 -149 3 -157 42 -16 64 11 64 79 0 69 -24 96
-67 78z"/>
<path d="M3992 2129 c-33 -13 -27 -54 8 -54 19 0 26 6 28 24 5 31 -8 41 -36
30z"/>
<path d="M6901 2218 c-11 -30 -3 -38 32 -31 22 4 27 10 25 27 -4 31 -46 34
-57 4z"/>
<path d="M8618 2133 c-23 -6 -29 -28 -14 -49 19 -26 46 -11 46 26 0 16 -3 29
-7 29 -5 -1 -15 -3 -25 -6z"/>
<path d="M2160 1604 c-14 -35 -3 -109 21 -137 41 -50 83 33 58 114 -12 36 -19
45 -41 47 -23 3 -30 -2 -38 -24z"/>
<path d="M3230 1515 c-12 -15 -5 -55 10 -55 26 0 40 15 40 41 0 22 -5 29 -19
29 -10 0 -24 -7 -31 -15z"/>
<path d="M6746 1614 c-13 -35 -6 -122 12 -144 22 -27 57 -20 66 13 11 41 6
102 -10 125 -18 25 -59 29 -68 6z"/>
<path d="M7802 1518 c-17 -17 -15 -48 4 -55 19 -7 29 4 38 40 5 22 3 27 -12
27 -10 0 -23 -5 -30 -12z"/>
</g>
</svg>
