<?xml version="1.0" standalone="no"?>
<!DOCTYPE svg PUBLIC "-//W3C//DTD SVG 20010904//EN"
 "http://www.w3.org/TR/2001/REC-SVG-20010904/DTD/svg10.dtd">
<svg version="1.0" xmlns="http://www.w3.org/2000/svg"
 width="1024.000000pt" height="1024.000000pt" viewBox="0 0 1024.000000 1024.000000"
 preserveAspectRatio="xMidYMid meet">

<g transform="translate(0.000000,1024.000000) scale(0.100000,-0.100000)"
fill="#000000" stroke="none">
<path d="M2335 9390 c-380 -17 -695 -101 -915 -244 -128 -83 -254 -211 -335
-341 -52 -85 -85 -155 -63 -139 25 19 98 -4 98 -30 0 -18 36 -40 50 -31 13 8
13 45 -1 45 -5 0 -8 -4 -5 -9 4 -5 -2 -8 -11 -7 -28 4 -16 21 14 21 15 1 28 6
31 13 2 7 11 12 21 12 14 0 18 10 20 52 2 57 14 71 48 63 13 -3 33 0 45 6 47
25 58 29 72 29 7 0 19 7 26 15 7 8 23 15 37 15 33 0 123 -30 123 -42 0 -24 41
-50 84 -53 25 -1 46 2 46 7 0 5 7 3 15 -6 9 -8 22 -13 30 -10 10 4 12 0 8 -17
-4 -14 -2 -20 5 -16 5 4 12 4 15 0 2 -5 2 -3 1 4 -4 15 22 36 36 28 5 -3 10
-1 10 5 0 7 7 9 15 6 9 -3 18 1 21 9 4 8 9 13 13 10 4 -2 8 2 8 9 0 10 -12 9
-48 -5 -44 -17 -48 -17 -61 -2 -11 14 -11 16 1 8 11 -6 11 -3 -2 14 -16 23
-13 51 5 51 5 0 6 -6 2 -12 -6 -9 -3 -9 9 0 9 8 15 24 14 35 -1 13 3 21 11 20
6 -2 12 4 12 12 0 8 -8 15 -17 16 -10 1 -2 5 17 10 19 4 43 6 54 2 13 -3 16
-1 11 7 -4 7 4 6 22 -3 27 -15 29 -14 30 5 1 12 10 28 19 37 17 15 17 15 4 -2
-12 -16 -12 -20 0 -27 15 -10 33 -3 26 9 -3 4 1 8 9 8 8 0 12 -4 9 -8 -2 -4 0
-10 5 -13 12 -8 43 23 36 35 -4 5 -2 9 2 9 5 0 10 12 11 28 1 15 -2 23 -6 17
-11 -15 -29 -16 -29 0 0 7 6 11 12 9 7 -3 18 3 26 12 12 16 12 17 -2 12 -9 -4
-16 -1 -16 7 0 11 6 11 29 -1 27 -14 27 -16 13 -38 -14 -21 -14 -23 2 -23 10
0 24 4 31 10 8 6 17 5 27 -3 12 -10 15 -9 15 4 0 9 -7 27 -15 40 -14 21 -14
24 2 37 11 9 14 10 9 2 -4 -8 -2 -13 8 -13 8 0 18 5 21 10 4 7 12 7 18 2 18
-13 118 -14 133 -1 8 6 20 9 29 6 8 -4 17 -2 20 4 4 5 11 7 16 4 5 -3 6 2 2
11 -5 13 -3 15 8 10 8 -4 3 2 -11 13 -15 12 -19 21 -11 21 7 0 22 -10 32 -22
16 -18 23 -20 44 -10 27 12 32 27 13 38 -6 4 -8 3 -5 -2 3 -6 -3 -15 -13 -22
-16 -10 -20 -8 -25 8 -9 27 3 60 19 54 8 -3 23 8 36 25 14 21 30 31 46 31 14
0 23 -4 20 -9 -3 -5 5 -11 19 -13 20 -4 23 -3 14 8 -9 11 -8 14 4 14 8 0 17
-6 20 -12 4 -10 7 -10 18 0 18 16 48 17 31 0 -7 -7 -12 -16 -12 -21 0 -5 7 -1
16 7 8 9 20 14 25 10 5 -3 9 -2 8 3 -5 26 2 45 15 40 9 -4 13 0 12 11 -3 19
17 42 36 42 10 0 9 -3 -2 -10 -9 -6 -10 -10 -3 -10 6 0 15 5 18 10 11 18 38
12 31 -7 -5 -16 -4 -16 6 -3 27 31 129 52 143 30 5 -8 12 -7 22 2 9 7 18 12
20 11 8 -6 186 -2 180 3 -9 10 -675 13 -862 4z m-580 -560 c3 -5 1 -10 -4 -10
-6 0 -11 5 -11 10 0 6 2 10 4 10 3 0 8 -4 11 -10z"/>
<path d="M3297 9393 c-3 -5 46 -8 108 -8 62 0 117 3 121 8 4 4 -45 7 -109 7
-64 0 -118 -3 -120 -7z"/>
<path d="M3613 9393 c9 -2 25 -2 35 0 9 3 1 5 -18 5 -19 0 -27 -2 -17 -5z"/>
<path d="M6190 9392 c0 -4 21 -6 48 -4 75 5 82 10 15 11 -35 0 -63 -2 -63 -7z"/>
<path d="M6466 9391 c5 -5 58 -11 118 -13 66 -1 114 -7 120 -14 8 -9 18 -8 40
3 l29 15 -24 -34 c-20 -28 -20 -31 -3 -15 12 9 24 14 29 10 4 -5 5 -3 1 4 -3
6 -2 14 3 17 5 3 11 -1 15 -9 3 -8 11 -15 18 -15 10 0 10 2 -1 9 -11 7 -11 9
0 13 22 7 57 -3 63 -18 5 -12 -11 -19 -36 -15 -21 3 -5 -19 17 -25 26 -6 34
-29 13 -37 -7 -2 -1 -4 14 -4 15 0 26 3 23 7 -2 4 11 2 30 -4 44 -14 45 -34 2
-27 -5 1 -6 -3 -2 -9 3 -6 11 -8 16 -4 6 3 19 -3 30 -15 16 -17 17 -21 4 -21
-8 0 -15 -5 -15 -11 0 -13 42 -1 52 15 6 8 8 7 8 -1 0 -7 7 -13 16 -13 11 0
14 -6 9 -20 -11 -34 7 -46 21 -14 7 16 13 22 13 14 -1 -8 -1 -20 0 -26 1 -13
31 -15 31 -2 0 5 4 7 10 3 5 -3 6 -13 3 -21 -5 -14 -3 -15 17 -4 13 7 20 8 16
2 -4 -6 1 -10 11 -10 10 0 25 -1 33 -3 9 -2 14 2 12 9 -1 8 2 11 7 7 13 -7 3
-35 -13 -35 -7 0 -17 5 -23 11 -8 8 -13 7 -18 -3 -5 -7 -5 -10 0 -6 4 4 19 -2
34 -13 23 -18 26 -19 29 -5 2 9 8 14 13 10 5 -3 7 -10 4 -15 -4 -5 1 -16 9
-25 9 -8 16 -11 16 -5 0 5 -5 13 -10 16 -8 5 -7 11 0 20 7 8 9 19 6 24 -4 5
-3 12 2 15 4 2 13 -4 20 -15 7 -11 8 -19 2 -19 -5 0 -10 -7 -10 -15 0 -8 4
-15 10 -15 14 0 32 39 24 52 -5 7 -3 8 6 3 10 -6 12 -4 6 10 -6 16 -4 16 11 4
31 -22 64 -59 55 -59 -5 0 -9 -7 -9 -15 0 -8 5 -15 10 -15 6 0 7 -3 4 -6 -3
-4 -2 -15 4 -26 8 -14 14 -17 23 -9 10 8 17 7 26 -4 9 -11 16 -12 25 -5 9 8
15 8 20 0 3 -5 16 -10 28 -11 l22 0 -22 -11 c-30 -14 -29 -23 2 -23 14 0 25 3
25 8 0 4 9 2 20 -5 14 -9 23 -10 28 -3 4 6 23 12 42 13 35 3 70 26 70 47 0 36
121 102 162 89 10 -3 26 0 35 8 18 14 18 14 -3 -37 -3 -8 -2 -15 3 -15 16 0
73 31 73 40 0 22 103 28 128 8 9 -8 11 -7 6 6 -3 9 -1 16 5 16 6 0 10 3 9 8
-4 12 55 69 80 77 12 3 22 10 22 15 0 5 -6 7 -14 4 -8 -3 -17 -1 -21 5 -4 7 4
11 20 11 14 0 37 7 51 16 17 12 24 13 22 4 -2 -7 3 -15 10 -17 6 -3 12 2 12
11 0 20 20 17 41 -6 13 -14 19 -15 40 -4 13 7 30 11 36 9 6 -2 14 0 17 6 4 6
14 7 23 4 11 -4 14 -3 9 5 -5 8 -2 10 9 6 10 -4 13 -13 10 -25 -8 -25 2 -24
50 5 l40 25 -27 10 c-172 66 -405 107 -673 121 -256 13 -1442 13 -1429 1z"/>
<path d="M6813 9295 c0 -8 3 -13 5 -10 3 3 11 -3 19 -13 13 -15 13 -15 3 5
-13 28 -27 37 -27 18z"/>
<path d="M2750 9280 c0 -5 5 -10 11 -10 5 0 7 5 4 10 -3 6 -8 10 -11 10 -2 0
-4 -4 -4 -10z"/>
<path d="M8710 9190 c0 -5 7 -10 16 -10 8 0 12 5 9 10 -3 6 -10 10 -16 10 -5
0 -9 -4 -9 -10z"/>
<path d="M7350 9041 c0 -6 4 -13 10 -16 6 -3 7 1 4 9 -7 18 -14 21 -14 7z"/>
<path d="M4447 9013 c-22 -25 -53 -100 -60 -149 -6 -37 -2 -48 48 -125 30 -46
55 -86 55 -89 0 -15 41 -29 58 -20 62 35 191 90 210 90 13 0 34 -12 48 -27 22
-24 24 -25 21 -5 -9 59 -72 79 -133 41 -42 -25 -94 -41 -91 -27 1 5 -13 11
-32 13 -21 2 -43 13 -58 30 -27 28 -44 27 -23 -2 7 -10 -4 -1 -23 20 -19 21
-37 52 -40 70 -10 61 0 135 23 167 23 33 22 40 -3 13z"/>
<path d="M4737 9017 c-13 -33 -7 -61 21 -109 44 -75 97 -114 162 -121 30 -3
64 -8 75 -11 11 -2 24 -5 28 -5 4 -1 15 -17 23 -37 19 -44 38 -33 38 21 0 59
-30 79 -117 81 -60 1 -81 6 -119 28 -62 36 -78 56 -92 118 -9 39 -14 48 -19
35z m98 -165 c-3 -3 -11 0 -18 7 -9 10 -8 11 6 5 10 -3 15 -9 12 -12z"/>
<path d="M7361 8988 c5 -10 6 -18 1 -18 -5 0 -14 -12 -21 -27 -7 -16 -10 -25
-6 -22 3 4 23 3 43 -2 31 -6 34 -6 20 5 -13 10 -14 16 -6 24 14 14 -6 59 -27
59 -10 0 -11 -5 -4 -19z m17 -42 c-7 -8 -15 -12 -17 -11 -5 6 10 25 20 25 5 0
4 -6 -3 -14z"/>
<path d="M7296 8968 c-19 -18 -19 -18 12 -7 18 6 32 14 32 18 0 14 -25 8 -44
-11z"/>
<path d="M4304 8938 c-31 -38 -55 -88 -63 -137 -3 -19 -12 -36 -19 -39 -12 -4
-15 1 -28 53 -7 29 -7 28 -18 -20 -8 -34 -9 -52 -1 -57 10 -7 1 -12 -17 -9 -8
1 -12 -15 -9 -32 1 -5 -10 -37 -24 -72 -14 -36 -25 -84 -25 -109 0 -25 -4 -46
-10 -46 -5 0 -10 5 -10 10 0 6 -4 10 -9 10 -15 0 -3 -44 16 -57 9 -7 27 -13
38 -13 12 0 40 -13 62 -29 61 -44 111 -185 59 -165 -14 5 -13 2 0 -26 10 -18
13 -35 8 -40 -5 -5 -22 15 -39 48 -42 81 -88 122 -137 122 -24 0 -37 -4 -33
-10 3 -5 1 -10 -4 -10 -17 0 -41 68 -42 119 -1 43 -1 45 -12 20 -7 -15 -18
-24 -26 -21 -11 3 -12 -6 -6 -49 8 -55 26 -101 53 -132 11 -13 24 -16 47 -11
29 5 36 1 67 -38 20 -23 39 -54 43 -67 6 -21 5 -23 -13 -19 -20 6 -20 5 -5
-18 9 -14 34 -40 57 -59 37 -32 39 -35 17 -35 -16 0 -39 18 -74 55 -27 30 -58
55 -68 55 -11 0 -19 7 -19 15 0 9 -6 12 -17 8 -11 -4 -14 -3 -9 6 5 7 18 16
30 21 19 8 18 9 -9 9 -16 1 -45 10 -64 22 -27 16 -32 17 -28 5 11 -28 -2 -17
-20 17 -9 17 -19 51 -22 74 -4 30 -10 40 -18 35 -10 -6 -9 -19 1 -60 14 -51
12 -71 -2 -32 -4 11 -7 -48 -6 -132 2 -160 7 -186 56 -266 15 -24 22 -56 24
-110 5 -100 26 -179 73 -271 21 -42 39 -91 39 -110 1 -35 34 -81 60 -81 11 0
13 -7 7 -27 -4 -16 -8 -113 -8 -218 -2 -186 -1 -191 25 -248 15 -31 34 -60 43
-63 12 -5 14 -14 10 -35 -4 -18 -1 -41 9 -60 9 -18 16 -36 16 -41 0 -5 -20
-28 -45 -52 -25 -25 -45 -42 -45 -38 0 3 -13 -7 -29 -22 -19 -18 -27 -34 -24
-47 6 -22 -13 -49 -33 -49 -18 0 -54 58 -54 88 0 22 -14 30 -25 12 -6 -10 27
-189 45 -235 6 -16 20 -48 30 -70 10 -22 38 -85 60 -140 53 -126 100 -198 131
-201 36 -3 280 -70 392 -106 l97 -32 38 19 c20 10 41 18 46 16 5 -1 4 5 -4 14
-7 8 -18 15 -24 14 -25 -3 -37 2 -33 14 2 6 0 21 -5 32 -8 18 -8 19 5 3 8 -10
18 -14 22 -10 5 4 5 1 1 -5 -6 -11 6 -18 18 -10 2 1 18 -13 35 -30 17 -18 38
-33 46 -33 8 0 15 -4 15 -10 0 -5 7 -10 15 -10 8 0 15 5 15 10 0 7 6 7 19 0
24 -12 81 -13 81 -1 0 5 8 7 19 4 10 -2 25 3 35 12 9 9 16 13 16 8 0 -5 -5
-14 -11 -20 -6 -6 -8 -17 -4 -23 6 -9 10 -9 16 1 7 11 11 11 17 2 6 -9 14 -8
34 5 14 9 44 29 66 44 46 31 62 53 62 88 0 6 9 10 20 10 14 0 20 6 18 18 -2
11 4 18 20 20 12 2 22 10 22 19 0 20 50 82 120 147 30 28 99 95 152 149 53 55
102 96 107 92 6 -3 11 -1 11 4 0 6 4 11 8 11 4 0 9 -15 10 -32 1 -18 3 -42 6
-53 2 -11 5 -37 5 -57 1 -31 4 -36 19 -32 15 5 14 3 -2 -10 -23 -19 -16 -30
13 -21 11 3 19 14 19 23 -1 9 6 58 15 108 9 49 17 145 18 213 1 100 4 121 15
117 11 -4 11 -2 2 14 -8 13 -9 22 -1 32 24 29 93 226 92 261 0 12 -7 -2 -15
-31 -8 -30 -21 -63 -29 -75 -8 -12 -15 -31 -15 -42 -1 -20 -1 -20 -15 -1 -14
18 -15 17 -15 -25 0 -66 -42 -145 -87 -164 -47 -20 -50 -19 -26 8 31 34 83
132 83 155 0 12 -4 24 -10 27 -6 4 -8 -7 -5 -27 5 -30 5 -31 -5 -9 -6 14 -31
46 -55 72 -29 31 -45 57 -45 74 0 14 -4 25 -10 25 -9 0 -11 -6 -14 -42 -1 -7
-5 -16 -11 -20 -6 -5 -5 -8 3 -8 6 0 12 -5 12 -11 0 -5 -4 -7 -10 -4 -5 3 -10
1 -10 -4 0 -6 6 -11 14 -11 8 0 28 -13 45 -29 26 -25 31 -36 31 -78 0 -53 -11
-75 -74 -142 -40 -42 -40 -43 -13 -37 22 5 27 3 27 -13 0 -24 -10 -51 -19 -51
-4 0 -21 13 -39 29 -53 49 -43 117 24 156 24 14 45 30 46 35 4 28 1 33 -22 36
-53 8 -71 15 -104 45 -19 16 -39 29 -43 27 -4 -2 -16 13 -25 32 -17 32 -18 33
-18 10 0 -14 21 -60 46 -103 25 -42 48 -95 51 -116 7 -53 -21 -133 -64 -181
-38 -42 -67 -53 -56 -22 4 13 1 12 -18 -6 -23 -22 -24 -23 -7 -52 9 -17 15
-30 12 -30 -18 0 -43 23 -54 50 -7 16 -16 30 -21 30 -14 0 -10 23 11 63 11 20
22 51 24 68 5 50 20 55 52 16 30 -39 44 -39 44 -3 0 34 -35 73 -77 87 -21 6
-45 21 -54 33 -20 25 -16 35 6 16 9 -7 18 -10 21 -7 3 3 -10 16 -30 29 -19 13
-40 32 -45 43 -10 20 -10 20 -10 0 -1 -12 8 -38 19 -60 26 -50 25 -56 -4 -45
l-24 9 26 -53 c15 -28 30 -48 33 -43 3 5 9 1 13 -8 10 -28 7 -55 -8 -61 -8 -3
-16 -17 -19 -32 -3 -15 -12 -36 -20 -47 -14 -18 -16 -17 -27 24 -6 24 -24 57
-39 72 -29 28 -92 52 -117 42 -8 -3 -36 17 -69 51 -30 31 -52 48 -49 39 5 -15
3 -15 -10 2 -9 11 -22 38 -28 60 -10 35 -12 37 -16 15 -2 -13 4 -50 13 -81 12
-39 14 -62 8 -74 -8 -14 -18 -6 -61 52 -51 69 -122 134 -109 99 4 -10 7 -22 7
-26 0 -5 30 -42 68 -82 104 -112 133 -170 111 -225 -7 -16 -13 -23 -16 -15 -4
9 -8 10 -18 2 -7 -6 -17 -10 -21 -8 -5 1 -31 -5 -59 -14 -27 -9 -66 -20 -85
-24 l-35 -6 20 22 c11 12 35 38 54 56 23 24 32 41 28 54 -3 11 -1 23 4 26 5 3
9 -7 9 -21 0 -24 1 -25 16 -11 22 23 4 73 -47 128 -33 35 -39 39 -32 18 4 -14
8 -54 8 -90 0 -58 -2 -65 -20 -65 -11 0 -25 3 -32 8 -6 4 -14 3 -19 -4 -5 -8
-12 1 -20 27 -8 28 -12 33 -13 16 -1 -23 -27 -82 -36 -82 -3 0 -2 20 2 45 6
45 5 46 -54 103 -68 65 -79 91 -86 205 -5 69 -4 78 11 76 38 -3 42 2 16 25
-22 18 -28 32 -28 64 -1 33 -5 42 -22 46 -12 3 -38 24 -59 47 l-37 41 4 94 c1
52 1 88 -2 82 -2 -7 -11 -33 -20 -58 -11 -33 -26 -52 -58 -73 -44 -30 -55 -65
-23 -75 10 -3 12 0 8 12 -4 9 -3 15 2 11 5 -3 19 7 30 22 l21 28 -12 -30 c-6
-16 -18 -37 -25 -46 -7 -9 -10 -18 -7 -22 4 -3 10 -21 14 -39 l8 -33 7 31 7
32 28 -31 c23 -26 34 -31 64 -29 42 3 55 -15 38 -52 -7 -17 -7 -27 0 -34 15
-15 22 -139 11 -182 -10 -37 -63 -76 -71 -51 -3 9 -8 9 -20 -1 -14 -11 -15
-10 -8 7 14 33 18 117 8 165 -9 43 -10 40 -12 -40 -1 -71 -3 -81 -12 -60 -6
14 -22 47 -35 73 -13 27 -23 67 -23 90 0 31 -7 48 -27 71 -16 17 -20 24 -10
17 28 -22 20 5 -13 42 -58 67 -60 170 -4 215 23 18 34 36 34 52 0 37 -11 71
-21 64 -5 -2 -11 5 -13 18 -3 13 -7 32 -9 43 -3 11 -5 3 -6 -17 -1 -45 -10
-70 -22 -62 -5 3 -9 0 -9 -5 0 -6 7 -11 15 -11 38 0 37 -56 -2 -103 -21 -26
-23 -27 -23 -8 0 12 -4 21 -10 21 -5 0 -10 -7 -10 -15 0 -21 -9 -19 -31 8 -12
14 -17 16 -13 6 7 -22 -11 -33 -25 -15 -7 8 -21 38 -31 67 l-20 53 23 40 c18
34 28 41 55 42 33 2 34 1 27 -32 -6 -33 -5 -34 25 -34 30 0 42 21 19 36 -8 4
-9 25 -5 62 l7 56 -27 -24 -27 -25 6 100 c6 93 2 96 -17 13 -8 -35 -26 -37
-26 -3 0 18 -4 23 -15 19 -21 -9 -19 10 5 31 11 10 20 28 20 41 0 25 21 45 28
26 2 -7 8 -10 13 -6 5 3 10 0 10 -5 1 -6 3 -15 4 -21 1 -5 3 -20 4 -32 2 -22
2 -23 16 -4 14 19 15 19 15 -8 0 -17 4 -25 11 -21 6 4 16 -1 24 -11 13 -18 14
-17 20 8 10 38 28 24 19 -15 -6 -28 -5 -30 9 -18 14 11 17 9 23 -13 3 -14 11
-26 16 -26 5 0 8 -10 7 -22 -3 -35 9 -53 35 -54 21 -2 24 3 30 50 3 28 10 52
15 54 5 2 6 15 1 31 -4 15 -4 35 1 43 6 11 4 18 -6 22 -8 3 -15 17 -15 31 0
14 -4 25 -9 25 -5 0 -14 14 -21 31 -8 19 -18 28 -27 25 -8 -4 -17 4 -24 21 -9
24 -10 25 -23 8 -12 -17 -13 -17 -19 7 -4 13 -18 37 -32 54 -14 16 -25 34 -26
39 0 6 -2 24 -4 40 -5 50 16 124 38 131 11 3 23 1 27 -6 4 -6 17 -9 33 -5 20
5 28 2 37 -14 9 -19 19 -21 70 -19 33 1 60 6 60 10 0 4 -6 8 -13 8 -8 0 -31
16 -53 35 -27 25 -33 35 -19 31 92 -21 119 -14 74 18 -46 32 21 83 90 67 35
-8 110 -61 86 -61 -6 0 12 -14 40 -30 27 -16 54 -35 60 -43 6 -8 20 -17 32
-19 21 -3 21 -3 4 -39 -12 -25 -15 -42 -9 -53 10 -18 -8 -94 -26 -111 -24 -22
-56 -124 -60 -188 -2 -36 -8 -73 -15 -80 -9 -12 -7 -13 14 -9 21 3 25 0 25
-18 0 -19 4 -22 35 -18 32 4 35 2 35 -21 0 -19 3 -22 12 -13 17 17 28 15 28
-5 0 -13 3 -14 12 -5 19 19 31 14 25 -9 -6 -21 -5 -21 18 1 21 20 25 21 31 7
13 -34 -43 -85 -79 -71 -8 3 -20 -2 -27 -11 -20 -24 -30 -18 -31 18 0 32 0 32
-22 -16 -18 -39 -24 -46 -34 -36 -10 10 -16 9 -26 -6 -13 -17 -14 -17 -20 5
-3 12 -10 19 -16 15 -7 -3 -11 3 -12 17 0 17 -4 13 -15 -17 -20 -55 -31 -62
-39 -26 -4 17 -11 31 -16 31 -5 0 -9 8 -9 17 0 9 -2 14 -5 11 -10 -10 16 -101
32 -113 11 -9 13 -14 5 -19 -7 -4 -12 -14 -12 -23 0 -19 -52 -102 -64 -103 -5
0 -15 8 -22 18 -13 16 -13 16 -14 -3 -1 -18 -3 -17 -25 8 -13 15 -27 43 -31
63 -5 28 -9 33 -16 21 -5 -10 -3 -31 5 -56 8 -22 11 -45 6 -52 -10 -17 -2 -28
27 -39 33 -13 99 13 146 58 36 34 39 35 52 17 13 -18 14 -18 21 4 4 13 12 20
20 18 7 -3 17 -1 23 5 6 6 18 1 36 -17 17 -17 26 -21 26 -12 0 18 48 28 58 13
5 -9 12 -7 23 5 16 16 14 17 -28 22 -27 3 -54 13 -66 25 l-20 21 24 20 c37 32
83 39 230 38 133 -2 136 -3 174 -31 21 -16 40 -37 42 -46 3 -10 18 -21 36 -24
37 -8 128 -76 147 -111 9 -17 22 -25 40 -25 38 0 92 39 101 73 l7 28 -34 -31
c-39 -34 -73 -38 -97 -12 -19 21 -23 72 -6 89 5 5 7 22 3 37 -4 19 -13 26 -29
26 -13 0 -32 11 -43 25 -14 17 -22 21 -25 13 -6 -13 -12 -8 -45 39 -12 17 -13
17 -7 -2 4 -18 3 -17 -15 4 -22 25 -26 21 -10 -10 14 -24 2 -24 -30 1 -27 21
-45 26 -35 10 3 -5 4 -10 0 -10 -3 0 -15 15 -26 33 l-21 32 4 -32 c5 -33 0
-34 -36 -4 -11 9 -16 10 -12 4 4 -8 2 -13 -4 -13 -20 0 -68 59 -75 91 -6 25
-2 35 24 60 34 32 70 49 105 49 46 0 78 72 37 85 -11 3 -31 3 -45 -1 -15 -3
-26 -2 -26 4 0 6 -15 4 -37 -4 -45 -16 -96 -17 -141 -5 -35 10 -48 21 -74 63
-17 25 -16 29 8 90 26 63 26 64 14 185 -7 67 -10 129 -6 139 4 9 1 43 -5 75
-10 51 -9 62 5 85 17 25 17 25 -4 14 -11 -6 -30 -8 -43 -4 -12 4 -32 7 -44 5
-13 -1 -23 2 -23 8 0 6 -12 8 -30 4 -19 -3 -48 1 -76 12 -25 9 -57 15 -72 12
-15 -3 -35 -1 -44 4 -14 7 -16 6 -12 -5 5 -13 0 -14 -28 -6 -58 17 -106 11
-163 -19 -50 -27 -55 -28 -55 -11 0 10 4 21 9 24 5 3 12 22 16 42 3 20 16 49
27 65 19 25 19 30 7 46 -12 14 -12 16 0 8 11 -6 13 -4 7 10 -4 10 0 28 10 43
15 23 15 26 0 34 -14 8 -15 13 -5 24 6 8 8 14 3 14 -5 0 -4 4 2 8 6 4 14 18
18 32 6 19 5 22 -4 10 -9 -13 -12 -12 -22 5 -18 31 -68 74 -110 96 -94 48
-102 182 -19 303 37 53 35 60 -5 14z m-90 -234 c3 -9 6 -37 6 -63 0 -48 14
-70 52 -84 10 -3 31 -25 49 -49 28 -39 30 -48 27 -102 -4 -47 -9 -62 -29 -77
l-24 -18 -16 50 c-18 55 -54 100 -74 93 -7 -3 -16 -1 -20 5 -3 6 0 11 7 11 7
1 0 8 -17 17 -40 22 -45 30 -45 89 0 40 6 60 31 97 33 50 43 56 53 31z m61
-94 c3 -6 -1 -7 -9 -4 -18 7 -21 14 -7 14 6 0 13 -4 16 -10z m-165 -309 c0 -4
-11 -6 -25 -3 -14 2 -25 6 -25 8 0 2 11 4 25 4 14 0 25 -4 25 -9z m438 -139
c32 -9 25 -25 -18 -39 -66 -24 -97 -10 -60 27 20 20 37 23 78 12z m79 -78 c-3
-3 -12 -4 -19 -1 -8 3 -5 6 6 6 11 1 17 -2 13 -5z m-674 -59 c9 -19 13 -35 7
-35 -11 0 -40 40 -40 57 0 24 16 13 33 -22z m263 -110 c-22 -57 -86 -111 -86
-72 0 7 16 28 35 47 19 19 35 39 35 45 0 13 22 37 28 30 3 -2 -3 -25 -12 -50z
m611 29 c-3 -3 -12 -4 -19 -1 -8 3 -5 6 6 6 11 1 17 -2 13 -5z m-607 -91 c0
-5 -17 -19 -38 -32 l-37 -24 29 32 c29 30 46 39 46 24z m-14 -97 c-15 -39 -51
-74 -64 -62 -3 3 0 6 6 6 7 0 12 16 12 38 0 27 8 45 27 67 24 25 28 27 31 11
2 -10 -3 -37 -12 -60z m24 -41 c0 -19 -32 -85 -41 -85 -15 0 -14 45 1 72 16
30 40 38 40 13z m-9 -102 c-9 -16 -10 -16 -11 4 0 12 3 30 7 40 7 16 8 16 11
-4 2 -12 -1 -30 -7 -40z m688 23 c8 -9 10 -28 5 -50 -5 -31 -10 -36 -33 -36
-45 0 -56 13 -41 49 19 46 49 62 69 37z m-673 -54 c-17 -34 -44 -57 -33 -29 3
9 3 18 -1 20 -4 2 -1 2 6 1 7 -2 18 8 24 21 6 14 13 23 15 21 3 -2 -3 -18 -11
-34z m-26 -172 c0 -5 -4 -10 -10 -10 -5 0 -10 5 -10 10 0 6 5 10 10 10 6 0 10
-4 10 -10z m15 -70 c-16 -17 -30 -37 -31 -46 -4 -29 -14 -28 -14 2 1 21 9 35
33 51 44 29 45 28 12 -7z m879 -66 l28 -34 -26 -25 c-34 -32 -56 -31 -91 1
l-28 26 39 34 c21 18 41 33 44 33 3 0 18 -16 34 -35z m-810 -239 c7 -20 -11
-68 -24 -60 -9 6 -12 0 -14 -35 -1 -8 -13 -16 -28 -18 -14 -2 -32 -10 -38 -18
-30 -36 -41 5 -15 56 13 24 87 86 106 89 4 1 9 -6 13 -14z m6 -154 c0 -10 16
-33 35 -50 43 -37 58 -75 50 -118 -5 -30 -29 -53 -53 -53 -18 0 -62 77 -63
111 l-1 34 -8 -38 c-11 -60 -16 -51 -12 25 3 46 10 76 21 88 21 24 31 24 31 1z
m1407 -267 c-3 -3 -12 -4 -19 -1 -8 3 -5 6 6 6 11 1 17 -2 13 -5z m-1354 -20
c3 -3 1 -20 -5 -37 -11 -29 -12 -30 -19 -9 -12 33 4 65 24 46z m90 -57 c7 -18
-7 -40 -27 -43 -19 -3 -19 -3 -6 30 10 28 25 34 33 13z m121 -104 c-9 -35 -13
-43 -25 -43 -10 0 -12 30 -3 54 3 9 12 16 20 16 11 0 13 -7 8 -27z m-110 -19
c3 -8 2 -12 -4 -9 -6 3 -10 10 -10 16 0 14 7 11 14 -7z m840 -6 c15 -13 28
-38 32 -58 l5 -35 -21 40 c-11 22 -30 48 -41 58 -12 9 -16 17 -11 17 6 0 22
-10 36 -22z m-664 -3 c-7 -9 -15 -13 -17 -11 -7 7 7 26 19 26 6 0 6 -6 -2 -15z
m595 -26 c34 -10 65 -54 65 -92 0 -13 7 -30 15 -37 8 -7 15 -18 15 -25 0 -15
-28 -28 -42 -19 -6 4 -15 0 -20 -7 -7 -10 -11 -11 -14 -2 -4 8 -18 6 -49 -8
-33 -15 -49 -17 -69 -9 -31 11 -31 11 -6 52 l20 33 0 -32 c0 -28 4 -33 24 -33
13 0 34 8 46 18 31 25 19 61 -39 117 -35 35 -43 47 -32 54 13 9 31 7 86 -10z
m-527 -56 c-1 -23 -6 -33 -18 -33 -9 0 -21 -5 -28 -12 -22 -22 -14 47 9 76 26
32 39 21 37 -31z m-578 -13 c0 -5 -5 -10 -11 -10 -5 0 -7 5 -4 10 3 6 8 10 11
10 2 0 4 -4 4 -10z m45 -60 c-3 -4 6 -11 20 -14 23 -6 36 -36 16 -36 -5 0 -11
-10 -14 -22 -5 -17 -9 -19 -21 -9 -8 7 -13 23 -10 36 2 14 -2 25 -11 29 -8 3
-12 12 -9 20 3 8 12 12 20 9 8 -3 12 -9 9 -13z m1379 5 c-4 -8 -10 -15 -14
-15 -4 0 -13 7 -20 15 -11 13 -8 15 13 15 19 0 25 -4 21 -15z m-564 -95 c-20
-13 -33 -13 -25 0 3 6 14 10 23 10 15 0 15 -2 2 -10z m-745 -30 c-4 -12 -9
-19 -12 -17 -3 3 -2 15 2 27 4 12 9 19 12 17 3 -3 2 -15 -2 -27z m16 -42 c1
-7 1 -21 0 -30 -1 -10 2 -18 8 -18 6 0 7 -11 1 -28 -6 -22 -4 -29 6 -29 14 0
17 7 17 41 -1 18 1 17 17 -4 13 -17 19 -20 23 -9 4 9 6 7 6 -6 1 -11 10 -33
21 -50 11 -16 20 -38 20 -47 0 -18 -49 -58 -72 -58 -15 0 -49 33 -62 60 -4 8
2 4 13 -10 l20 -25 -4 25 c-3 14 -9 26 -15 28 -5 2 -10 15 -10 28 0 13 -3 24
-7 24 -12 0 -12 54 0 68 8 10 7 16 -4 23 -10 6 -11 9 -1 9 7 0 10 5 7 10 -3 6
-1 10 4 10 6 0 12 -6 12 -12z m134 -208 c3 -5 -1 -10 -10 -10 -9 0 -13 5 -10
10 3 6 8 10 10 10 2 0 7 -4 10 -10z"/>
<path d="M4160 8545 c0 -3 32 -36 70 -74 47 -45 70 -76 71 -92 0 -13 3 -18 6
-11 10 25 -18 68 -82 125 -36 32 -65 56 -65 52z"/>
<path d="M4620 8966 c0 -15 29 -74 39 -81 6 -3 2 13 -11 37 -24 48 -28 54 -28
44z"/>
<path d="M9020 8967 c0 -2 15 -16 33 -33 l32 -29 -29 33 c-28 30 -36 37 -36
29z"/>
<path d="M4780 8957 c-1 -32 64 -78 109 -76 9 0 -2 7 -24 15 -22 8 -50 27 -62
42 -12 15 -22 23 -23 19z"/>
<path d="M5150 8928 c0 -3 10 -28 23 -55 14 -30 28 -47 37 -46 8 2 36 -11 63
-27 44 -28 47 -33 47 -71 0 -33 6 -47 34 -75 23 -23 43 -34 63 -34 l28 1 -31
13 c-35 16 -72 58 -81 94 -3 14 1 39 11 59 28 58 2 85 -94 97 -35 5 -63 15
-77 28 -13 12 -23 19 -23 16z"/>
<path d="M5467 8856 c4 -29 0 -55 -11 -77 -24 -48 -13 -45 15 4 21 37 24 39
27 20 2 -13 8 -23 13 -23 6 0 7 6 3 13 -6 9 -4 9 8 -1 24 -19 31 1 14 42 -8
19 -28 41 -44 50 l-29 15 4 -43z"/>
<path d="M4960 8880 c8 -5 29 -10 47 -10 22 0 45 -11 70 -32 33 -29 36 -30 22
-8 -20 33 -75 60 -119 60 -26 0 -31 -3 -20 -10z"/>
<path d="M4430 8872 c0 -20 32 -92 41 -92 4 0 -1 21 -12 47 -22 52 -29 62 -29
45z"/>
<path d="M4520 8859 c0 -33 44 -84 75 -87 l30 -3 -33 20 c-18 12 -41 35 -52
53 -11 19 -20 26 -20 17z"/>
<path d="M1830 8830 c0 -6 7 -10 15 -10 8 0 15 2 15 4 0 2 -7 6 -15 10 -8 3
-15 1 -15 -4z"/>
<path d="M4271 8713 c5 -16 12 -34 15 -42 2 -8 7 -12 9 -9 6 5 -22 78 -30 78
-2 0 0 -12 6 -27z"/>
<path d="M5382 8720 c0 -14 2 -19 5 -12 2 6 2 18 0 25 -3 6 -5 1 -5 -13z"/>
<path d="M5106 8715 c-9 -26 -7 -32 5 -12 6 10 9 21 6 23 -2 3 -7 -2 -11 -11z"/>
<path d="M5132 8699 c-19 -17 -40 -28 -47 -25 -8 3 -19 -2 -25 -10 -10 -11 -8
-14 12 -14 28 0 72 31 88 61 14 25 11 24 -28 -12z"/>
<path d="M9188 8705 c-3 -16 -1 -25 7 -25 16 0 26 -25 19 -45 -4 -8 -1 -15 5
-15 6 0 10 -3 9 -7 -1 -5 4 -25 12 -45 15 -40 40 -59 40 -30 -1 21 -51 141
-72 171 l-16 22 -4 -26z"/>
<path d="M5652 8693 c-23 -33 -37 -73 -25 -73 11 0 58 89 51 96 -3 3 -15 -7
-26 -23z"/>
<path d="M5504 8662 c2 -41 9 -59 31 -82 22 -23 85 -57 85 -47 0 2 -9 21 -20
42 -13 26 -19 51 -15 70 l5 30 -11 -28 c-8 -19 -8 -36 0 -58 6 -19 7 -27 0
-24 -16 10 -57 80 -68 116 -10 32 -11 30 -7 -19z"/>
<path d="M4031 8633 c-1 -39 -4 -80 -7 -90 -5 -16 -4 -16 10 1 17 21 20 92 6
136 -6 18 -8 4 -9 -47z"/>
<path d="M4360 8682 c0 -7 17 -31 38 -55 22 -23 44 -51 50 -62 11 -19 11 -18
12 8 0 16 -9 34 -22 45 -12 9 -34 30 -50 47 -15 16 -28 24 -28 17z"/>
<path d="M5849 8574 c-36 -39 -48 -62 -53 -97 -4 -26 -3 -54 2 -64 8 -13 10
-8 10 21 0 29 11 54 47 106 26 38 46 72 44 77 -2 5 -25 -14 -50 -43z"/>
<path d="M4076 8534 c-4 -9 -4 -19 -1 -22 2 -3 7 3 11 12 4 9 4 19 1 22 -2 3
-7 -3 -11 -12z"/>
<path d="M5681 8514 c0 -11 3 -14 6 -6 3 7 2 16 -1 19 -3 4 -6 -2 -5 -13z"/>
<path d="M5690 8482 c0 -6 5 -14 10 -17 6 -4 8 -10 5 -15 -5 -7 50 -79 76
-100 9 -7 20 -78 19 -127 0 -23 5 -54 12 -70 6 -15 15 -50 19 -78 5 -34 7 -7
5 83 -1 100 -5 135 -15 142 -9 5 -11 15 -7 26 5 12 9 15 14 7 5 -8 21 -9 52
-3 25 5 48 9 52 10 4 0 12 10 19 22 10 19 9 20 -7 13 -48 -19 -57 -19 -50 3 4
11 2 23 -3 26 -6 4 -8 14 -5 24 4 11 -2 8 -15 -8 -39 -48 -51 -60 -61 -60 -6
0 -22 24 -35 53 -14 28 -25 46 -25 38 0 -10 -10 -5 -30 14 -16 16 -30 24 -30
17z"/>
<path d="M4020 8415 c0 -37 37 -66 82 -64 19 1 17 3 -13 16 -19 8 -43 26 -52
41 -14 23 -16 24 -17 7z"/>
<path d="M6056 8242 c-12 -35 -53 -64 -101 -69 -34 -4 -51 -13 -70 -35 -35
-42 -31 -53 11 -29 45 27 56 26 52 -1 -2 -14 -15 -29 -35 -38 -34 -16 -38 -33
-9 -38 24 -5 43 14 65 63 14 32 29 47 63 63 42 21 43 23 40 62 -5 44 -8 49
-16 22z"/>
<path d="M5874 8208 l-19 -23 23 19 c21 18 27 26 19 26 -2 0 -12 -10 -23 -22z"/>
<path d="M5355 8195 c-72 -26 -178 -34 -190 -15 -11 17 -24 1 -22 -26 1 -13 9
-29 17 -34 12 -7 12 -16 3 -51 -22 -81 15 -116 78 -74 47 31 56 32 28 4 -27
-27 -15 -37 36 -32 30 4 44 11 50 26 15 34 83 65 128 60 47 -6 102 -54 94 -83
-6 -22 0 -25 22 -11 10 6 22 5 35 -5 23 -16 40 -19 32 -5 -4 5 11 7 32 4 34
-5 43 -1 70 28 26 28 30 39 27 75 -2 24 -8 51 -14 61 -9 16 -10 16 -11 -6 0
-19 -3 -21 -15 -11 -12 10 -15 7 -21 -14 -8 -32 -40 -35 -77 -6 -14 11 -51 32
-81 46 -31 14 -56 30 -56 35 0 15 51 31 100 31 36 0 41 2 26 10 -12 7 -54 9
-113 5 -58 -4 -93 -3 -93 3 0 14 -6 13 -85 -15z m203 -117 c44 -27 35 -33 -13
-8 -22 11 -49 20 -62 20 -12 0 -25 5 -29 11 -11 18 65 1 104 -23z"/>
<path d="M9374 8081 c6 -62 4 -76 -10 -92 -13 -14 -20 -16 -25 -7 -6 9 -11 9
-23 -1 -9 -8 -35 -14 -59 -16 -23 -1 -52 -5 -65 -9 -19 -6 -23 -4 -20 10 2 14
-4 18 -32 20 -19 1 -27 0 -17 -3 9 -2 15 -9 11 -14 -3 -5 0 -8 7 -7 6 2 13 -2
16 -9 3 -9 -6 -10 -31 -6 -29 5 -36 3 -36 -11 0 -10 -4 -15 -9 -11 -5 3 -11
-2 -13 -12 -3 -14 -5 -15 -18 -2 -9 8 -22 15 -29 17 -12 3 -12 0 0 -14 9 -12
9 -15 2 -10 -8 4 -13 2 -13 -5 0 -6 8 -9 20 -6 11 3 20 1 20 -4 0 -5 7 -9 15
-9 8 0 15 5 15 10 0 6 9 1 19 -9 11 -11 45 -25 78 -31 32 -7 97 -23 146 -35
l87 -23 0 31 c-1 57 -30 320 -36 326 -4 3 -3 -27 0 -68z"/>
<path d="M6084 8109 c-19 -21 -9 -26 16 -6 9 6 5 2 -8 -11 -13 -13 -37 -25
-52 -29 -16 -3 -39 -16 -51 -29 -18 -20 -20 -26 -9 -39 9 -11 16 -13 24 -5 5
5 21 10 33 10 32 0 80 26 93 49 16 31 12 48 -6 23 -18 -26 -70 -55 -102 -57
-21 -1 -22 0 -6 12 10 7 24 13 31 13 14 0 93 67 93 79 0 15 -39 8 -56 -10z"/>
<path d="M847 8017 c-3 -26 -9 -181 -11 -345 l-5 -297 10 270 c5 149 12 286
17 305 4 19 5 53 2 75 l-5 40 -8 -48z"/>
<path d="M6153 8014 c-12 -13 -31 -24 -44 -24 -31 0 -89 -38 -100 -67 -5 -13
-9 -47 -9 -74 0 -43 -3 -51 -24 -59 -29 -11 -38 -24 -41 -61 -6 -103 -4 -96
-22 -74 -15 19 -15 19 -9 -5 13 -49 25 -144 19 -153 -3 -5 -12 1 -20 14 l-14
24 6 -25 c14 -51 28 -150 23 -156 -4 -3 -19 3 -34 13 l-28 18 24 -42 c21 -38
25 -41 36 -25 12 15 14 12 15 -23 1 -22 1 -45 0 -52 -1 -7 13 -5 38 8 41 19
68 69 58 106 -3 12 -5 8 -6 -9 -1 -31 -25 -58 -51 -58 -25 0 -30 20 -29 122 1
71 5 94 18 107 10 10 16 22 14 28 -7 20 17 64 40 72 27 11 37 29 37 72 0 23
-6 32 -26 39 -25 10 -29 38 -5 32 7 -1 21 8 31 20 l18 23 10 -26 c6 -14 14
-48 18 -75 l8 -49 7 55 c16 129 7 210 -23 210 -7 0 -25 -12 -40 -27 -37 -36
-36 -12 1 29 25 27 33 31 48 22 31 -19 43 -55 37 -111 -3 -29 -4 -53 -1 -53 3
0 19 27 36 60 23 43 31 73 31 110 0 27 -2 50 -5 50 -3 0 -14 -9 -26 -21 -30
-30 -35 -16 -8 20 28 38 22 49 -8 15z m21 -98 c-6 -15 -24 -23 -24 -11 0 8 24
34 28 30 1 -1 0 -10 -4 -19z"/>
<path d="M9045 7990 c-3 -5 -12 -7 -20 -3 -8 3 -15 0 -15 -7 0 -6 5 -8 10 -5
6 3 10 3 10 -2 0 -4 11 -8 24 -8 20 0 22 3 15 18 -11 19 -15 21 -24 7z"/>
<path d="M9197 7989 c7 -7 15 -10 18 -7 3 3 -2 9 -12 12 -14 6 -15 5 -6 -5z"/>
<path d="M8956 7955 c4 -8 10 -15 14 -15 4 0 10 7 14 15 4 10 -1 15 -14 15
-13 0 -18 -5 -14 -15z"/>
<path d="M5967 7860 c3 -11 7 -20 9 -20 2 0 4 9 4 20 0 11 -4 20 -9 20 -5 0
-7 -9 -4 -20z"/>
<path d="M8405 7831 c-49 -26 -108 -58 -130 -71 -22 -12 -92 -49 -155 -82
-275 -144 -299 -158 -292 -176 6 -15 7 -15 10 -1 3 15 77 59 100 59 6 0 13 6
15 13 4 9 8 8 16 -3 10 -14 15 -7 12 13 -1 4 7 11 16 14 10 4 39 19 66 35 26
15 47 23 47 18 0 -6 9 -1 20 10 26 26 120 73 120 60 0 -5 5 -10 11 -10 6 0 9
6 6 14 -3 8 1 17 9 20 9 4 12 2 8 -5 -4 -7 -1 -10 7 -7 8 3 14 11 14 19 0 8
12 15 28 17 15 2 27 7 27 12 0 5 7 7 15 4 9 -4 15 0 15 10 0 9 5 16 10 16 6 0
10 -11 10 -25 0 -18 -5 -25 -20 -25 -11 0 -20 -4 -20 -10 0 -5 3 -10 6 -10 11
0 113 61 119 71 9 13 -9 11 -23 -3 -9 -9 -12 -8 -12 5 0 9 -5 17 -11 17 -5 0
-9 -10 -7 -22 2 -11 -3 -23 -9 -25 -22 -8 -14 35 9 51 17 12 24 13 30 3 6 -9
8 -9 8 1 0 7 4 11 9 8 5 -4 11 -1 13 5 3 8 10 6 21 -5 15 -15 17 -15 17 -2 0
21 19 21 27 0 5 -13 7 -13 14 -2 6 8 12 9 17 3 4 -5 21 -11 37 -13 17 -2 31
-7 33 -12 2 -5 9 -7 16 -4 8 3 21 -2 30 -11 9 -9 16 -12 16 -6 0 25 20 9 21
-16 l0 -28 11 25 c9 21 12 22 15 8 4 -18 23 -25 23 -10 0 5 7 9 15 9 8 0 15
-6 15 -14 0 -9 8 -11 25 -7 20 5 25 2 25 -12 0 -14 3 -15 12 -6 16 16 28 15
28 -2 0 -8 -8 -16 -17 -19 -13 -3 -10 -7 15 -17 18 -7 32 -19 32 -28 0 -13 2
-14 9 -4 7 11 18 10 62 -3 30 -9 60 -19 66 -21 7 -2 10 -10 7 -19 -7 -17 11
-21 21 -5 7 11 45 13 69 4 9 -3 13 -10 11 -15 -3 -5 6 -11 20 -15 14 -3 25
-12 25 -19 0 -14 40 -30 105 -41 22 -4 46 -11 53 -17 9 -7 12 6 12 60 0 65 -1
69 -24 71 -13 1 -69 13 -123 28 -54 14 -177 46 -273 70 -96 25 -218 57 -270
71 -93 24 -210 52 -220 52 -3 1 -45 -21 -95 -48z m555 -96 c0 -8 5 -15 10 -15
6 0 10 5 10 10 0 6 5 10 10 10 6 0 10 -7 10 -15 0 -10 -10 -15 -28 -15 -34 0
-43 7 -35 26 7 19 23 18 23 -1z m75 -26 c-10 -15 -25 -10 -19 6 4 8 10 12 15
9 5 -3 7 -10 4 -15z m45 -8 c0 -14 -18 -23 -31 -15 -8 4 -7 9 2 15 18 11 29
11 29 0z m40 -12 c0 -6 7 -9 15 -5 10 4 15 -1 15 -14 0 -24 -15 -27 -24 -5 -3
8 -9 15 -13 14 -17 -3 -24 1 -18 11 8 13 25 13 25 -1z m84 -38 c-7 -7 -34 21
-28 31 3 5 12 1 19 -9 7 -10 12 -20 9 -22z m66 -1 c0 -5 -5 -10 -11 -10 -5 0
-7 5 -4 10 3 6 8 10 11 10 2 0 4 -4 4 -10z m34 -21 c-3 -5 -10 -7 -15 -3 -5 3
-7 10 -3 15 3 5 10 7 15 3 5 -3 7 -10 3 -15z m30 6 c3 -8 1 -15 -4 -15 -6 0
-10 7 -10 15 0 8 2 15 4 15 2 0 6 -7 10 -15z m41 -15 c3 -5 2 -10 -4 -10 -5 0
-13 5 -16 10 -3 6 -2 10 4 10 5 0 13 -4 16 -10z"/>
<path d="M5920 7850 c14 -10 27 -16 30 -13 6 6 -30 33 -44 33 -6 0 0 -9 14
-20z"/>
<path d="M8330 7747 c0 -10 8 -17 18 -17 9 0 13 4 7 8 -5 4 -13 11 -17 16 -5
5 -8 2 -8 -7z"/>
<path d="M5858 7720 c-12 -38 -10 -66 3 -53 6 6 9 26 7 44 -3 32 -3 33 -10 9z"/>
<path d="M9401 7714 c0 -11 3 -14 6 -6 3 7 2 16 -1 19 -3 4 -6 -2 -5 -13z"/>
<path d="M8770 7706 c0 -2 7 -7 16 -10 8 -3 12 -2 9 4 -6 10 -25 14 -25 6z"/>
<path d="M6091 7614 c0 -11 3 -14 6 -6 3 7 2 16 -1 19 -3 4 -6 -2 -5 -13z"/>
<path d="M5289 7595 c5 -11 22 -33 36 -50 14 -16 22 -21 16 -10 -5 11 -22 34
-36 50 -14 17 -22 21 -16 10z"/>
<path d="M5780 7580 c0 -11 5 -20 10 -20 6 0 10 9 10 20 0 11 -4 20 -10 20 -5
0 -10 -9 -10 -20z"/>
<path d="M9168 7593 c6 -2 18 -2 25 0 6 3 1 5 -13 5 -14 0 -19 -2 -12 -5z"/>
<path d="M6071 7555 c-7 -22 -25 -44 -42 -54 -32 -18 -39 -58 -16 -97 11 -21
13 -19 34 27 26 58 22 64 -7 12 -18 -32 -20 -34 -15 -11 3 15 19 49 36 76 17
28 29 58 27 68 -2 11 -8 4 -17 -21z"/>
<path d="M7655 7431 c-221 -118 -241 -131 -213 -131 15 0 30 5 33 10 4 6 11 8
16 4 5 -3 8 0 7 7 -2 6 3 14 10 16 6 3 12 0 12 -6 0 -6 5 -11 11 -11 5 0 8 4
5 9 -3 4 3 16 14 26 11 10 20 15 20 11 0 -4 7 -1 15 8 9 8 23 13 33 10 13 -5
14 -4 3 4 -11 8 -5 15 27 31 39 20 42 20 42 4 0 -14 4 -12 13 7 7 14 20 25 28
24 9 -1 16 5 16 12 0 8 -1 14 -1 14 -1 0 -41 -22 -91 -49z"/>
<path d="M9225 7420 c-93 -10 -251 -28 -350 -40 -186 -22 -419 -47 -920 -100
-445 -47 -555 -60 -460 -55 44 2 158 11 254 20 96 9 180 14 187 11 8 -3 16 -1
19 3 2 5 35 12 72 15 118 12 167 17 206 22 30 4 37 2 31 -8 -6 -10 -4 -10 9 1
9 7 23 11 32 8 8 -4 17 -2 20 3 7 12 101 13 108 3 2 -5 2 -2 1 5 -2 8 10 12
39 12 23 0 69 5 102 10 84 15 293 30 474 35 109 3 157 9 163 17 6 10 8 10 8 1
0 -7 5 -13 10 -13 6 0 10 7 10 15 0 8 5 15 10 15 6 0 10 -7 10 -15 0 -16 -18
-21 -106 -29 -88 -8 -129 -26 -46 -21 59 3 63 2 57 -16 -5 -14 -2 -20 7 -18 7
1 26 -1 42 -6 21 -6 37 -3 58 9 16 10 35 15 42 13 8 -3 23 3 35 14 21 20 21
20 33 -6 19 -42 28 -28 28 45 0 39 -3 69 -7 69 -5 -1 -84 -10 -178 -19z m105
-30 c0 -11 -4 -20 -9 -20 -5 0 -7 9 -4 20 3 11 7 20 9 20 2 0 4 -9 4 -20z
m-36 -5 c3 -8 1 -15 -4 -15 -6 0 -10 7 -10 15 0 8 2 15 4 15 2 0 6 -7 10 -15z"/>
<path d="M7601 7344 l-44 -24 31 0 c18 0 31 4 30 9 -2 5 6 17 17 25 28 22 17
18 -34 -10z"/>
<path d="M9018 7333 c7 -3 16 -2 19 1 4 3 -2 6 -13 5 -11 0 -14 -3 -6 -6z"/>
<path d="M8895 7320 c-42 -11 -1 -11 50 -1 34 7 35 9 10 9 -16 0 -43 -4 -60
-8z"/>
<path d="M8680 7299 c-28 -5 -22 -7 30 -8 36 0 72 4 80 9 17 11 -50 11 -110
-1z"/>
<path d="M8538 7283 c12 -2 32 -2 45 0 12 2 2 4 -23 4 -25 0 -35 -2 -22 -4z"/>
<path d="M8412 7273 c-18 -2 -30 -8 -27 -13 3 -5 11 -7 18 -5 7 2 32 6 56 9
24 3 46 8 49 11 6 5 -43 4 -96 -2z"/>
<path d="M8325 7260 c3 -5 8 -10 11 -10 2 0 4 5 4 10 0 6 -5 10 -11 10 -5 0
-7 -4 -4 -10z"/>
<path d="M8258 7253 c7 -3 16 -2 19 1 4 3 -2 6 -13 5 -11 0 -14 -3 -6 -6z"/>
<path d="M5850 7223 c0 -34 9 -46 28 -34 8 5 6 15 -8 36 l-20 30 0 -32z"/>
<path d="M8198 7243 c7 -3 16 -2 19 1 4 3 -2 6 -13 5 -11 0 -14 -3 -6 -6z"/>
<path d="M7968 7223 c12 -2 30 -2 40 0 9 3 -1 5 -23 4 -22 0 -30 -2 -17 -4z"/>
<path d="M7348 7213 c12 -2 32 -2 45 0 12 2 2 4 -23 4 -25 0 -35 -2 -22 -4z"/>
<path d="M9398 7190 c-2 -6 -48 -17 -103 -25 l-100 -14 103 6 102 6 0 -27 c0
-24 -3 -26 -22 -20 -38 12 -162 0 -185 -18 -14 -12 -26 6 -19 30 3 10 -3 23
-17 33 -19 13 -35 14 -127 3 -58 -7 -140 -13 -182 -13 -55 -1 -79 -5 -85 -15
-4 -8 -17 -16 -28 -19 -16 -4 -14 -5 7 -6 36 -1 44 -18 22 -42 -14 -16 -26
-19 -49 -15 -30 6 -30 6 -7 -9 12 -9 20 -21 17 -26 -4 -5 1 -12 9 -15 9 -3 16
-12 16 -19 0 -8 10 -16 23 -18 21 -4 21 -4 -3 -6 -14 -1 -32 -6 -40 -11 -12
-8 -10 -10 8 -10 50 0 52 -10 49 -267 l-2 -238 85 -12 c96 -14 170 -39 170
-57 0 -7 33 -30 73 -52 l72 -39 1 -66 c0 -37 6 -81 14 -98 7 -17 10 -34 8 -37
-11 -10 -39 107 -33 136 6 26 4 30 -14 30 -20 0 -22 4 -25 40 -1 12 -15 14
-71 12 -67 -3 -195 -38 -195 -54 0 -5 -15 -8 -32 -8 -32 1 -32 1 15 22 34 15
44 24 35 29 -18 12 -111 11 -143 -1 -24 -9 -26 -8 -20 12 5 18 4 20 -4 8 -6
-8 -8 -22 -6 -31 4 -13 -19 -23 -117 -52 -68 -20 -136 -39 -153 -42 -28 -5
-28 -5 5 9 19 7 81 28 137 45 56 17 104 35 107 40 7 11 -66 109 -112 148 -45
40 -111 61 -123 41 -7 -10 -9 -10 -9 0 0 8 -22 12 -77 12 -94 0 -146 -21 -190
-74 -31 -38 -146 -283 -146 -311 0 -8 -4 -15 -9 -15 -11 0 -11 0 7 50 18 52
18 60 1 38 -11 -15 -16 -16 -31 -4 -18 13 -18 15 3 52 61 111 112 216 112 232
0 10 5 23 12 30 9 9 8 12 -4 12 -9 0 -18 -5 -20 -11 -3 -8 -16 -10 -41 -5 -21
4 -35 11 -32 15 7 12 -78 23 -127 17 -24 -4 -74 -2 -113 3 l-70 8 70 3 c39 2
75 4 80 5 6 2 69 4 140 5 186 4 91 16 -195 25 -211 7 -320 2 -510 -23 -59 -8
-137 -49 -320 -166 -79 -51 -102 -61 -135 -60 -22 1 -51 -3 -65 -8 -24 -9 -24
-8 -7 9 11 12 34 18 68 19 40 2 61 9 95 34 24 17 44 34 44 38 0 3 -5 1 -12 -6
-7 -7 -19 -12 -27 -11 -11 0 -12 2 -3 6 6 2 12 9 12 14 0 6 -4 8 -9 5 -5 -4
-11 -1 -13 5 -2 7 -10 4 -18 -7 -9 -11 -10 -15 -2 -10 7 4 12 2 12 -5 0 -6 -8
-9 -20 -6 -11 3 -26 -1 -34 -8 -7 -8 -16 -12 -19 -9 -3 3 -15 3 -28 -1 -14 -5
-18 -10 -10 -15 17 -10 -37 -30 -69 -26 -14 2 -25 4 -25 6 0 8 -52 5 -57 -4
-6 -8 -11 -6 -19 4 -9 13 -10 12 -5 -2 4 -14 0 -18 -17 -18 -19 0 -18 -3 12
-23 19 -12 46 -30 60 -39 14 -10 42 -18 61 -18 26 0 31 -3 20 -10 -17 -10 -16
-11 25 -29 l30 -14 -85 -28 c-129 -44 -208 -79 -280 -123 -81 -51 -65 -56 78
-22 294 69 735 101 941 70 48 -8 33 -15 -134 -70 -77 -25 -145 -50 -152 -55
-7 -6 -33 -17 -59 -25 -40 -12 -45 -12 -40 1 5 13 -19 15 -169 15 -96 0 -178
1 -182 2 -5 1 -22 7 -39 13 -30 10 -181 5 -286 -10 -47 -7 -59 0 -37 22 7 7
-2 7 -27 -2 -33 -11 -39 -11 -42 1 -2 8 -9 12 -15 8 -7 -3 7 12 30 34 43 40
72 56 208 117 44 20 67 34 50 31 -16 -3 -82 -15 -145 -25 -228 -38 -271 -70
-285 -216 -4 -38 -14 -81 -22 -94 l-15 -23 -36 33 -36 34 27 -37 c15 -20 27
-40 27 -43 0 -8 -73 -1 -89 9 -6 4 -11 16 -11 28 0 17 -3 18 -15 8 -8 -6 -17
-21 -20 -31 -4 -11 -16 -31 -28 -44 -12 -13 -40 -46 -62 -74 -22 -27 -48 -53
-58 -56 -9 -4 -15 -11 -12 -16 3 -5 -6 -26 -20 -46 -14 -21 -25 -42 -25 -48 0
-12 88 82 142 153 42 55 71 72 41 25 -9 -16 -22 -35 -29 -43 -15 -19 -25 -63
-30 -125 -2 -27 -5 -65 -7 -82 -3 -24 0 -33 11 -33 8 0 12 -6 9 -15 -4 -8 -2
-17 3 -20 4 -3 7 -16 6 -30 -3 -22 16 -41 36 -37 9 2 21 -55 14 -67 -3 -5 1
-14 8 -20 10 -9 16 -9 21 -1 9 15 35 -7 35 -29 0 -16 13 -20 63 -24 9 -1 17
-9 17 -19 0 -10 3 -17 8 -17 19 3 33 -2 27 -11 -6 -9 12 -14 45 -12 8 0 18 -4
22 -11 5 -8 11 -7 22 2 24 20 216 2 216 -20 0 -5 -4 -9 -10 -9 -5 0 -10 -4
-10 -10 0 -6 50 -10 128 -11 70 -1 141 -4 157 -8 l30 -7 -32 -11 c-17 -6 -34
-9 -37 -6 -3 4 -6 2 -6 -4 0 -22 182 -59 357 -74 69 -5 128 -7 131 -4 3 3 -5
5 -18 5 -33 0 -15 17 53 50 38 19 57 36 70 63 13 28 25 39 47 44 23 4 30 11
30 29 0 13 -4 24 -10 24 -5 0 -10 3 -10 8 0 4 21 6 48 5 l47 -2 -37 10 c-27 8
-38 17 -38 30 0 11 -12 31 -27 45 -29 27 -26 42 6 24 12 -6 21 -7 21 -2 0 5
-11 14 -25 20 -32 15 -38 15 -30 2 3 -5 2 -10 -4 -10 -6 0 -8 14 -4 33 3 17 5
47 4 65 -1 19 2 38 5 43 3 6 7 58 7 117 l2 106 35 20 c32 19 51 21 240 21 203
0 205 0 256 -27 58 -30 65 -42 63 -101 -1 -27 -3 -33 -6 -16 l-4 26 -52 -18
c-28 -10 -83 -21 -122 -24 -38 -4 -73 -12 -77 -19 -6 -8 -8 -7 -8 2 0 6 -7 12
-15 12 -11 0 -15 -11 -15 -40 0 -39 1 -40 38 -41 29 -2 31 -3 10 -6 -25 -4
-27 -8 -25 -44 2 -37 3 -39 37 -39 52 0 169 27 196 45 13 9 24 24 24 35 0 22
10 26 27 9 13 -13 20 6 27 76 2 22 2 6 1 -35 -2 -41 -6 -83 -10 -92 -5 -13 -2
-18 10 -18 11 0 15 -6 11 -17 -21 -72 -22 -71 28 -63 58 9 64 14 33 35 -14 9
-28 24 -32 33 -4 11 3 8 22 -9 29 -28 79 -53 123 -63 24 -5 26 -3 22 29 -5 46
-18 53 -26 14 -7 -37 -26 -29 -26 12 0 25 -6 33 -34 44 -19 8 -38 20 -41 26
-5 7 -12 3 -22 -10 -19 -28 -33 -26 -33 4 0 14 5 25 10 25 6 0 10 11 10 25 0
45 40 60 160 60 90 0 122 -5 220 -34 63 -19 125 -34 137 -34 12 -1 21 -6 20
-11 -1 -6 6 -10 16 -10 10 1 16 0 13 -4 -3 -3 2 -10 10 -17 25 -18 3 -49 -48
-70 -48 -20 -226 -27 -231 -10 -2 6 -12 4 -22 -5 -14 -11 -19 -12 -22 -2 -7
20 -20 14 -27 -13 -9 -36 -29 -32 -24 5 3 18 0 31 -9 34 -9 4 -13 -5 -13 -29
0 -32 3 -35 43 -45 23 -6 55 -15 71 -20 42 -14 165 -11 210 5 37 13 66 11 66
-5 0 -4 16 -11 36 -15 48 -9 32 -23 -31 -26 -27 -2 -52 -6 -55 -10 -3 -5 -12
-4 -20 2 -13 8 -13 10 -1 18 8 5 -17 8 -68 7 l-81 -1 6 -32 c5 -26 2 -33 -16
-43 -37 -20 -82 -31 -140 -36 -30 -3 -66 -8 -80 -11 -14 -4 -34 -7 -45 -7 -16
-1 -21 -9 -23 -43 -2 -29 -8 -43 -18 -43 -10 0 -14 12 -14 40 0 22 -4 40 -10
40 -5 0 -10 -15 -10 -33 0 -41 -7 -49 -31 -37 -12 7 -20 7 -24 0 -3 -5 1 -10
9 -10 9 0 16 -4 16 -10 0 -13 -61 -13 -94 0 -30 11 -34 30 -7 30 14 0 18 5 14
21 -4 14 -8 17 -13 8 -12 -19 -100 25 -100 50 0 11 5 21 12 23 10 4 9 14 -1
45 -7 23 -10 46 -7 52 10 16 81 51 103 51 10 0 24 4 32 9 12 8 12 12 2 25 -8
9 -11 26 -7 41 7 29 6 29 -54 11 -25 -7 -73 -17 -107 -21 -53 -6 -63 -10 -63
-26 0 -24 -16 -25 -29 -1 -8 13 -10 8 -11 -27 0 -41 -1 -43 -25 -39 -14 3 -28
1 -31 -4 -4 -6 27 -9 84 -7 50 2 88 1 84 -3 -4 -4 -32 -8 -62 -10 l-55 -3 -3
-37 -3 -37 -52 4 -52 4 55 -10 c30 -5 67 -8 82 -6 15 2 25 0 22 -5 -3 -4 -14
-8 -24 -8 -14 0 -20 -9 -22 -37 l-3 -38 -75 1 c-41 0 -90 3 -107 7 -18 4 -33
3 -33 -2 0 -13 92 -21 239 -21 l133 0 -4 -25 c-3 -14 -1 -25 4 -25 5 0 6 -4 3
-10 -3 -5 0 -10 8 -10 8 0 26 -11 41 -25 l27 -25 205 5 c113 2 210 7 216 11 6
4 -1 13 -18 22 l-29 16 35 7 c52 12 99 13 158 5 29 -5 52 -4 52 1 0 10 -28 15
-77 16 -18 0 -30 4 -27 9 3 4 -4 8 -15 8 -11 0 -22 4 -25 8 -6 10 208 22 386
22 66 0 118 4 118 9 0 5 -5 22 -10 36 -11 28 1 67 14 46 4 -6 18 -11 32 -11
14 0 22 -4 19 -10 -3 -5 2 -10 12 -10 10 0 29 -9 43 -20 14 -11 34 -20 45 -21
11 -1 4 -5 -15 -9 -25 -5 -7 -8 65 -9 106 -3 155 -13 123 -26 -60 -24 28 -21
112 4 19 6 36 11 37 11 1 0 -5 -13 -13 -29 -15 -30 -55 -41 -153 -41 -62 0
-262 -31 -256 -40 2 -4 -89 -10 -203 -13 -114 -3 -234 -11 -267 -16 -117 -20
-365 -32 -740 -38 -433 -6 -648 5 -837 43 -103 21 -163 26 -366 31 -231 6
-242 5 -236 -12 5 -13 4 -16 -4 -11 -7 4 -12 2 -12 -4 0 -7 -6 -8 -17 -2 -13
8 -25 1 -55 -30 -29 -30 -42 -37 -51 -30 -9 8 -16 6 -25 -9 -7 -11 -17 -17
-22 -14 -6 3 -10 -3 -10 -13 0 -11 -7 -23 -16 -26 -8 -3 -12 -2 -9 4 11 17 -7
11 -21 -7 -13 -17 -14 -17 -8 -1 6 16 4 17 -21 4 -26 -14 -55 -12 -55 3 0 3
-25 5 -55 5 -31 -1 -58 2 -61 7 -9 15 -35 -3 -30 -20 5 -13 4 -13 -8 2 -7 9
-20 17 -29 17 -9 0 -19 5 -22 10 -7 12 -65 10 -65 -2 0 -4 -6 -5 -14 -2 -8 3
-17 1 -20 -5 -5 -7 -15 -7 -33 0 -15 6 -38 8 -50 4 -13 -3 -23 -2 -23 2 0 13
-62 50 -95 57 l-30 7 30 -20 c54 -35 74 -55 85 -84 17 -47 0 -51 -40 -12 -43
42 -102 60 -165 49 -49 -8 -70 -18 -113 -55 -18 -16 -37 -29 -41 -29 -5 0 -31
15 -57 33 -88 61 -156 72 -223 37 -21 -10 -48 -32 -59 -47 -11 -15 -23 -25
-26 -22 -12 11 15 64 52 103 l37 39 -39 -22 c-23 -13 -48 -20 -61 -17 -12 3
-25 3 -29 -1 -3 -3 -22 -6 -41 -6 -19 0 -38 3 -41 6 -9 8 -55 -2 -73 -17 -11
-8 -13 -8 -7 2 9 15 -16 16 -31 1 -8 -8 -13 -8 -18 0 -4 8 -11 6 -21 -4 -12
-11 -20 -12 -35 -4 -15 7 -29 7 -51 0 -26 -9 -35 -8 -50 6 -17 15 -19 15 -33
-3 -14 -18 -15 -18 -39 11 -14 17 -26 24 -27 18 -1 -7 -3 -17 -4 -23 -1 -5 -3
-16 -4 -22 -1 -8 -6 -6 -12 5 -5 9 -7 22 -3 28 4 7 0 9 -14 5 -20 -7 -38 16
-26 35 9 16 -14 10 -32 -8 -17 -17 -17 -17 -12 5 3 12 2 22 -4 22 -5 0 -6 5
-2 11 4 7 -4 20 -17 31 -13 11 -18 17 -11 13 11 -6 11 -3 1 13 -7 12 -15 19
-19 18 -3 -2 -79 -6 -170 -9 -102 -4 -154 -3 -137 3 16 5 34 13 40 18 7 5 39
14 72 21 70 15 103 30 67 31 -44 0 -13 16 72 35 49 11 86 25 86 32 0 6 11 25
25 41 14 17 25 37 25 46 0 9 8 20 18 23 20 8 48 44 44 57 -2 5 4 16 13 26 20
22 17 131 -2 138 -7 2 -13 -3 -13 -12 0 -26 -74 -92 -136 -121 -144 -66 -346
-124 -560 -160 -171 -28 -471 -52 -673 -54 -203 -2 -248 -10 -199 -38 19 -10
1 -12 -117 -7 -160 7 -328 20 -273 23 20 0 39 5 42 10 7 11 -25 17 -189 36
-149 17 -242 35 -405 76 -187 47 -263 80 -356 156 -78 64 -154 115 -294 198
-177 104 -225 160 -197 228 18 41 36 56 118 101 l67 37 30 -26 31 -26 -20 -20
c-13 -13 -18 -27 -14 -39 5 -16 3 -18 -11 -13 -12 4 -15 3 -10 -5 4 -7 4 -12
-1 -12 -4 -1 -18 -9 -31 -20 -25 -21 -26 -21 27 -76 24 -26 100 -63 184 -91
26 -8 47 -19 47 -23 0 -16 91 -70 118 -70 24 -1 25 -2 8 -11 -15 -9 -16 -13
-5 -20 10 -6 10 -9 2 -9 -7 0 -10 -7 -6 -15 4 -11 -4 -19 -26 -28 -17 -6 -31
-15 -31 -19 0 -15 40 -28 87 -28 27 0 57 -6 68 -13 31 -21 223 -94 290 -111
58 -15 187 -35 360 -55 44 -6 116 -15 160 -20 123 -16 382 -23 460 -13 70 9
70 9 -50 11 -132 2 -138 14 -13 26 76 7 154 -8 142 -27 -8 -13 131 -9 298 7
268 26 343 35 374 44 28 9 28 9 -12 10 -33 1 -43 6 -54 26 -7 14 -22 25 -32
25 -11 0 -28 5 -39 11 -22 11 -171 21 -165 10 3 -4 -3 -7 -12 -7 -9 0 -32 -4
-50 -8 -25 -6 -32 -4 -32 8 0 9 12 23 28 33 15 9 32 23 38 30 16 19 111 18
216 -1 84 -15 90 -15 140 4 29 11 64 20 78 20 l25 -1 -30 -25 c-16 -14 -50
-35 -75 -47 l-45 -21 30 -7 c17 -4 52 -7 78 -8 45 -1 50 1 60 28 8 22 20 31
59 41 26 8 48 17 48 20 0 9 -71 -3 -89 -15 -10 -5 -11 -2 -7 13 10 31 -40 66
-107 76 -9 1 -20 6 -24 10 -4 5 7 6 25 3 37 -7 41 4 11 34 -11 11 -18 27 -15
35 3 9 1 24 -4 35 -6 10 -7 19 -2 19 5 0 9 7 9 15 0 8 -4 15 -9 15 -4 0 -8 9
-8 20 0 21 -40 105 -72 152 -10 14 -18 30 -18 35 0 4 23 14 52 21 64 15 83 32
74 66 -5 20 -13 26 -34 26 -21 0 -24 -2 -12 -10 8 -5 11 -10 5 -10 -5 0 -21 9
-34 19 -19 14 -31 17 -48 10 -23 -8 -33 4 -13 16 18 11 11 25 -12 25 -20 0
-84 -37 -116 -68 -8 -7 -29 -24 -48 -38 -19 -15 -34 -32 -34 -40 0 -17 -39
-44 -55 -38 -7 3 -16 1 -20 -5 -4 -7 1 -8 12 -4 35 12 -1 -14 -72 -52 -38 -20
-78 -44 -87 -53 -12 -9 -18 -11 -18 -4 0 19 -12 14 -83 -32 -37 -24 -67 -40
-67 -35 0 5 5 9 10 9 21 0 9 19 -20 32 -31 14 -37 23 -20 33 6 4 8 11 4 16 -9
15 52 85 88 102 18 8 67 20 108 27 89 14 172 55 224 111 21 21 43 39 50 39 7
0 21 10 32 21 10 12 15 20 9 18 -5 -3 -31 -14 -57 -26 -31 -14 -55 -19 -72
-15 -44 12 -29 27 36 34 43 5 67 13 78 26 8 11 32 25 53 32 45 14 49 24 7 18
-29 -4 -30 -4 -30 38 0 24 5 46 10 49 21 13 9 23 -19 15 -38 -11 -71 -29 -71
-39 0 -4 16 -16 35 -27 19 -10 35 -22 35 -26 0 -11 -47 -21 -72 -15 -12 3 -30
2 -40 -4 -20 -11 -22 -6 -8 21 8 15 5 19 -18 26 -36 10 -54 6 -70 -17 -7 -11
-25 -26 -40 -33 -15 -8 -38 -26 -52 -40 -14 -15 -34 -35 -45 -47 -11 -11 -20
-23 -20 -27 0 -4 -13 -26 -29 -49 -17 -26 -33 -40 -42 -36 -8 3 -14 2 -14 -1
0 -4 10 -11 22 -16 15 -5 17 -9 7 -9 -8 -1 -26 -12 -38 -25 -13 -14 -30 -22
-38 -19 -8 3 -27 -4 -43 -15 -15 -12 -39 -23 -54 -24 -14 -2 -28 -7 -32 -11
-4 -4 -19 -7 -32 -7 -25 0 -25 0 -6 -21 18 -20 18 -20 -8 -14 -15 4 -29 2 -33
-4 -3 -6 -21 -17 -38 -25 -36 -15 -75 -45 -120 -93 -41 -44 -56 -42 -23 2 27
35 26 39 -6 36 -9 -1 -19 3 -23 9 -4 7 -11 5 -20 -4 -8 -8 -23 -13 -32 -11
-10 2 -33 4 -51 4 -19 1 -31 5 -27 11 4 6 -8 10 -29 10 -22 0 -36 5 -36 13 0
8 -3 8 -9 -2 -7 -10 -9 -7 -8 12 1 14 6 25 12 24 5 -1 8 10 7 25 -2 17 4 31
17 40 11 8 25 26 32 41 7 15 16 27 21 27 4 0 8 6 8 14 0 22 98 95 175 132 39
18 99 38 135 45 187 35 188 37 30 38 -160 1 -202 -7 -301 -60 -71 -38 -124
-87 -173 -161 -42 -62 -48 -55 -9 11 33 57 96 125 148 161 63 43 202 92 248
88 38 -4 39 -3 33 26 -8 41 -21 53 -88 87 -57 29 -136 98 -171 149 -16 24 -16
23 -2 -15 9 -22 23 -49 31 -60 76 -103 81 -116 35 -106 -20 4 -50 30 -94 82
-64 75 -143 129 -167 114 -5 -3 -10 -2 -10 3 0 5 -7 9 -15 9 -10 0 -14 -11
-13 -34 1 -18 5 -33 10 -33 5 0 2 -7 -6 -16 -12 -12 -13 -20 -6 -35 6 -10 7
-19 3 -19 -4 0 -2 -4 6 -9 7 -5 9 -11 4 -14 -5 -4 -32 11 -59 31 -74 55 -208
120 -299 143 -102 26 -269 28 -375 4 -41 -9 -83 -18 -92 -20 -9 -2 -26 -9 -38
-15 -11 -6 -26 -7 -33 -3 -15 10 -107 10 -107 1 0 -5 -7 -8 -15 -8 -8 0 -15
-4 -15 -9 0 -5 -7 -11 -15 -15 -25 -9 -17 19 20 67 20 26 31 48 25 52 -5 3
-10 2 -10 -3 0 -6 -8 -8 -19 -5 -11 3 -21 -2 -24 -12 -5 -12 -11 -14 -26 -5
-24 12 -34 13 -26 1 3 -5 1 -12 -4 -16 -9 -5 -57 83 -49 90 12 9 98 13 104 4
3 -6 14 -9 24 -6 25 6 50 -10 32 -21 -10 -7 -10 -11 3 -22 13 -11 20 -9 43 12
15 14 42 33 61 43 26 13 31 19 20 26 -8 5 -24 9 -37 9 -12 0 -42 10 -65 22
-23 11 -61 22 -84 22 -24 1 -38 3 -33 4 6 2 10 8 10 13 0 14 -38 11 -43 -3 -2
-7 -11 2 -21 20 -9 17 -20 32 -24 33 -4 0 -24 2 -44 4 -21 2 -38 0 -38 -5 0
-6 -7 -10 -15 -10 -11 0 -15 21 -18 103 -3 119 -10 -1133 -8 -1460 l1 -111 73
-12 c85 -14 383 -99 347 -99 -14 0 -43 4 -65 9 -22 4 -103 22 -180 38 -77 17
-148 33 -157 37 -16 6 -18 1 -18 -46 0 -30 -1 -625 -2 -1324 -2 -1356 -3
-1305 47 -1615 39 -247 134 -502 245 -660 132 -188 333 -334 575 -420 169 -59
330 -91 551 -110 180 -14 5581 -15 5749 -1 368 33 618 108 845 256 329 214
516 622 560 1220 6 86 10 696 10 1579 0 1242 -2 1437 -14 1433 -8 -3 -31 -9
-50 -13 -20 -3 -34 -10 -31 -14 3 -5 -4 -6 -15 -3 -11 3 -55 0 -98 -7 -57 -8
-82 -17 -90 -30 -14 -23 -15 -23 78 -50 41 -12 92 -32 112 -45 26 -17 38 -21
41 -12 3 7 6 4 6 -6 2 -50 -53 -87 -133 -87 -29 0 -44 -4 -43 -12 1 -39 -4
-48 -28 -48 -21 0 -25 5 -25 29 0 16 6 32 13 34 7 3 5 6 -5 6 -14 1 -18 -7
-18 -34 l0 -35 -47 5 c-96 9 -242 86 -229 121 19 50 222 301 234 289 3 -3 12
1 21 8 8 6 0 -9 -18 -35 -18 -25 -51 -61 -73 -78 -39 -32 -39 -32 -18 -47 18
-13 25 -13 58 1 l37 15 -45 1 c-54 0 -37 19 20 21 l35 1 -30 7 c-25 5 -27 8
-12 14 10 4 38 7 62 7 24 0 47 5 50 10 4 6 -13 10 -42 11 -42 0 -45 1 -23 10
14 6 49 8 80 4 30 -4 97 -7 147 -8 l93 -2 0 873 c0 479 -2 872 -4 872 -2 0 -6
-5 -8 -10z m-40 -89 c8 -5 12 -21 11 -37 -2 -16 0 -35 4 -42 6 -8 2 -12 -12
-12 -12 0 -21 -4 -21 -10 0 -5 7 -10 15 -10 13 0 15 -48 13 -382 -1 -258 -4
-337 -8 -243 -6 152 -8 138 -19 -180 l-7 -190 -2 168 c-1 109 -6 166 -12 162
-6 -4 -10 -67 -10 -155 0 -88 -4 -151 -10 -155 -6 -4 -11 41 -11 127 l-2 133
-8 -115 c-12 -162 -18 -175 -16 -33 1 66 -1 119 -5 116 -5 -2 -8 -37 -8 -76 0
-40 -5 -79 -10 -87 -14 -20 -3 876 11 901 7 14 6 19 -3 19 -9 0 -12 13 -10 44
3 33 9 46 25 54 27 13 77 15 95 3z m41 -228 c-1 -65 -5 -167 -9 -228 -6 -95
-7 -79 -8 118 -1 146 2 227 8 227 6 0 10 -45 9 -117z m-8294 -383 c3 -5 2 -10
-4 -10 -5 0 -13 5 -16 10 -3 6 -2 10 4 10 5 0 13 -4 16 -10z m6016 -88 c-40
-31 -141 -94 -141 -87 0 5 162 115 170 115 3 0 -11 -13 -29 -28z m-5516 -112
c50 -6 103 -15 118 -22 23 -9 31 -8 37 2 6 10 15 8 39 -9 17 -12 35 -19 41
-16 12 7 70 -25 70 -39 0 -5 3 -7 6 -3 11 10 87 -34 124 -72 32 -33 39 -36 84
-32 32 2 46 -1 42 -7 -4 -6 2 -15 12 -21 14 -8 22 -5 35 10 9 10 24 19 32 19
18 0 19 -5 3 -33 -7 -12 -13 -31 -15 -42 -1 -11 6 -3 18 18 19 37 49 50 49 22
0 -20 9 -19 34 2 12 10 15 11 9 3 -7 -8 -13 -23 -13 -34 0 -18 1 -19 20 -1 12
11 20 13 20 6 0 -14 -50 -60 -66 -61 -6 0 -16 10 -21 23 -11 22 -11 22 -18 -7
-5 -16 -19 -45 -32 -64 -12 -19 -23 -39 -23 -44 0 -5 -5 -6 -11 -3 -5 4 -8 14
-6 23 2 10 -3 30 -11 47 -8 16 -15 39 -16 49 -1 14 -12 22 -36 29 -19 5 -39
12 -45 16 -5 5 -25 11 -43 15 -19 3 -48 17 -64 31 -17 15 -37 24 -44 21 -8 -3
-14 -1 -14 4 0 6 -9 10 -19 10 -10 0 -21 7 -25 15 -3 8 -11 12 -19 9 -8 -3
-20 2 -27 11 -7 8 -23 15 -35 15 -13 0 -25 5 -27 11 -2 6 -23 13 -47 15 -23 2
-52 11 -64 19 -19 13 -23 13 -39 -2 -17 -15 -18 -15 -18 2 0 14 -6 16 -30 13
-16 -3 -30 -1 -30 4 0 4 -11 8 -24 8 -17 0 -23 -5 -21 -17 1 -10 0 -12 -2 -6
-5 16 -47 27 -73 20 -11 -3 -23 -1 -26 4 -3 5 -10 7 -15 4 -5 -4 -28 -6 -52
-7 -23 0 -51 -5 -62 -11 -11 -6 -27 -10 -37 -9 -9 2 -19 -2 -23 -8 -3 -5 -14
-10 -23 -10 -9 0 -42 -12 -72 -26 -73 -33 -43 -4 35 34 77 39 152 60 245 71
106 12 115 12 215 1z m7152 -67 c3 -10 15 -28 25 -39 l19 -22 -86 -31 c-47
-17 -89 -31 -92 -31 -3 0 -12 8 -19 18 -12 16 -13 15 -14 -6 0 -21 -3 -23 -31
-17 -21 5 -36 2 -48 -9 -21 -20 -131 -58 -131 -46 0 4 6 11 13 13 10 4 10 6 0
6 -7 1 -21 -7 -31 -17 -10 -10 -40 -25 -67 -34 l-50 -16 -16 37 -16 36 36 7
c20 4 55 7 79 7 52 1 80 15 92 45 6 17 23 27 67 39 32 9 96 30 143 46 99 35
118 37 127 14z m-394 -9 c10 -6 -17 -9 -73 -9 -74 0 -86 2 -77 14 12 15 121
11 150 -5z m-780 -131 c-13 -2 -33 -2 -45 0 -13 2 -3 4 22 4 25 0 35 -2 23 -4z
m100 -10 c-7 -2 -21 -2 -30 0 -10 3 -4 5 12 5 17 0 24 -2 18 -5z m883 -18
c-11 -8 -31 -15 -45 -14 -24 0 -23 2 9 14 46 18 59 18 36 0z m-616 -16 c-36
-4 -83 -12 -105 -17 -37 -8 -38 -10 -18 -18 20 -8 68 -82 59 -91 -2 -2 -29 -8
-60 -13 -32 -5 -72 -18 -90 -29 -29 -18 -37 -19 -77 -8 -24 7 -64 12 -89 11
-30 -1 -53 5 -69 18 -27 20 -43 19 -172 -13 -96 -25 -333 -33 -277 -10 18 7
74 24 123 36 50 13 146 40 215 60 75 22 157 39 205 42 44 3 89 10 99 16 31 15
112 25 221 24 98 0 98 0 35 -8z m1129 -61 c-5 -18 -9 -58 -10 -88 0 -40 -3
-50 -9 -35 -5 11 -9 35 -9 53 -1 18 -6 43 -12 54 -9 18 -8 24 7 35 32 23 44
17 33 -19z m70 -82 c-1 -33 -4 -48 -6 -32 l-5 28 -23 -22 -23 -21 25 50 c24
49 25 52 9 78 l-17 28 20 -24 c17 -18 21 -36 20 -85z m-6987 47 c14 -12 16
-25 11 -57 -8 -53 -9 -53 -32 -25 l-20 24 -1 -27 c0 -31 -15 -35 -44 -13 -27
21 -46 19 -46 -5 0 -11 18 -31 45 -50 33 -22 45 -38 45 -55 0 -32 -18 -32 -30
-1 -5 13 -14 27 -20 31 -11 7 -9 -8 7 -51 2 -6 -9 -11 -27 -12 -26 -1 -34 5
-48 34 -14 29 -14 38 -3 56 11 18 11 20 -1 15 -8 -3 -21 -1 -29 3 -8 6 -16 5
-20 -2 -5 -8 -31 -2 -83 20 -85 36 -122 42 -61 10 47 -24 105 -76 105 -94 0
-22 -19 -25 -51 -9 -17 9 -33 14 -36 11 -3 -2 8 -11 24 -20 16 -8 36 -22 43
-31 12 -15 11 -16 -16 -13 -42 6 -92 39 -105 70 -11 26 -36 41 -92 54 -24 6
-28 10 -22 32 3 13 16 33 28 42 30 25 118 43 164 34 21 -5 45 -7 55 -5 9 1 33
-7 54 -19 22 -11 43 -20 48 -20 14 0 86 79 86 95 0 12 5 12 27 4 16 -6 36 -17
45 -26z m5333 -63 c18 -29 -103 -157 -182 -192 -39 -17 -80 -22 -251 -30 -139
-7 -208 -6 -215 1 -11 11 88 63 202 107 84 32 95 31 87 -3 l-6 -28 17 30 c30
54 56 68 193 101 105 25 146 29 155 14z m1485 -68 c54 -26 70 -27 70 -6 0 8
-4 12 -10 9 -5 -3 -10 -1 -10 5 0 21 25 4 28 -18 4 -24 34 -45 59 -40 9 2 22
19 29 38 l12 35 -1 -45 c-2 -40 1 -45 21 -48 33 -5 27 -17 -23 -52 -25 -17
-45 -35 -45 -40 0 -5 12 -18 26 -29 32 -25 24 -41 -22 -41 -32 0 -34 2 -28 26
5 19 4 25 -5 20 -6 -4 -11 -17 -11 -29 0 -30 -29 -76 -104 -161 -34 -39 -81
-99 -103 -132 -60 -88 -84 -102 -42 -24 39 72 53 103 41 96 -4 -2 -25 -40 -47
-84 -38 -76 -57 -98 -75 -87 -4 3 -45 80 -90 172 -55 112 -80 174 -77 190 3
18 -3 30 -27 48 -36 27 -60 32 -100 21 -22 -5 -26 -10 -17 -19 30 -30 2 -49
-34 -23 -16 12 -17 16 -6 30 11 13 10 20 -7 43 -11 15 -29 37 -41 47 -26 23
-27 36 -3 36 9 0 58 20 107 45 l90 44 200 -2 c183 -3 204 -5 245 -25z m-6846
-12 c4 -5 7 -12 5 -17 -2 -5 -22 1 -44 15 l-40 23 35 -6 c19 -4 39 -11 44 -15z
m4423 10 c22 0 11 -10 -17 -15 -13 -3 -27 -10 -31 -16 -4 -6 -12 -8 -19 -4
-16 10 19 48 38 40 7 -3 21 -5 29 -5z m2793 -127 c13 3 20 0 20 -9 0 -8 5 -14
10 -14 6 0 10 -36 10 -89 0 -70 -3 -90 -15 -95 -8 -3 -15 -1 -15 5 0 6 -7 6
-19 -1 -31 -16 -43 -13 -32 8 7 14 5 22 -8 31 -18 13 -22 56 -8 79 5 8 3 20
-5 29 -9 12 -9 15 0 9 7 -4 12 -1 12 8 0 9 5 16 10 16 6 0 11 35 12 83 l2 82
3 -74 c4 -67 6 -73 23 -68z m-8167 110 c27 -4 37 -10 33 -20 -7 -18 35 -34 96
-37 43 -2 88 -26 88 -47 0 -4 -21 -9 -47 -11 -37 -4 -53 0 -69 14 -15 13 -32
18 -57 15 -49 -6 -117 25 -117 53 0 11 -5 20 -11 20 -5 0 -7 5 -4 10 7 11 34
13 88 3z m526 -22 c64 -30 51 -41 -41 -35 -88 6 -138 -5 -138 -30 0 -13 -54
-36 -86 -36 -18 0 -24 25 -13 63 16 59 35 66 159 59 49 -2 100 -11 119 -21z
m7588 -73 c-2 -13 -4 -3 -4 22 0 25 2 35 4 23 2 -13 2 -33 0 -45z m-7297 10
c25 -41 26 -61 2 -30 -12 16 -23 21 -36 16 -11 -4 -21 -2 -27 7 -15 25 -10 39
16 39 18 0 31 -10 45 -32z m5830 5 c0 -8 -47 -33 -62 -33 -16 0 -7 17 15 28
26 13 47 15 47 5z m-6097 -35 c25 -13 37 -23 28 -26 -8 -3 3 -11 25 -18 31
-11 51 -11 95 -3 50 10 62 9 100 -9 66 -30 192 -148 135 -126 -9 3 -17 -3 -21
-15 -4 -12 -15 -21 -26 -21 -16 0 -20 -6 -17 -27 3 -24 8 -29 43 -33 28 -4 41
-10 43 -23 5 -23 -45 -100 -58 -92 -6 4 -10 2 -10 -3 0 -13 -44 -25 -141 -38
-85 -12 -181 63 -194 150 -4 25 -11 43 -16 40 -28 -17 4 82 41 127 29 37 29
39 11 49 -11 5 -31 10 -45 10 -30 0 -33 8 -9 26 16 11 15 13 -10 19 -52 13
-247 -30 -361 -79 -28 -13 -37 -14 -34 -4 3 7 25 21 49 30 252 100 293 107
372 66z m410 7 c-3 -9 -8 -14 -10 -11 -3 3 -2 9 2 15 9 16 15 13 8 -4z m87
-97 c0 -13 -23 -5 -28 10 -2 7 2 10 12 6 9 -3 16 -11 16 -16z m-490 8 c0 -2
-19 -15 -42 -29 -24 -14 -56 -37 -72 -50 -17 -14 -33 -24 -36 -22 -4 3 -25 -9
-46 -25 -21 -16 -43 -30 -48 -30 -15 0 54 69 103 102 47 33 141 69 141 54z
m546 -24 c-9 -9 -37 8 -31 18 5 8 11 7 21 -1 8 -6 12 -14 10 -17z m5631 -4
c-3 -8 -6 -5 -6 6 -1 11 2 17 5 13 3 -3 4 -12 1 -19z m-5532 -18 c3 -6 -1 -7
-9 -4 -18 7 -21 14 -7 14 6 0 13 -4 16 -10z m3609 -16 c3 -8 2 -12 -4 -9 -6 3
-10 10 -10 16 0 14 7 11 14 -7z m-3789 -44 c3 -5 2 -10 -4 -10 -5 0 -13 5 -16
10 -3 6 -2 10 4 10 5 0 13 -4 16 -10z m5679 -10 c-19 -19 -131 -57 -140 -47
-2 2 22 11 54 20 33 9 65 23 72 32 7 8 17 15 23 15 6 0 2 -9 -9 -20z m636 -21
c15 -28 5 -23 -15 7 -9 15 -12 23 -6 20 6 -4 16 -16 21 -27z m770 11 c0 -5 -7
-10 -16 -10 -8 0 -12 5 -9 10 3 6 10 10 16 10 5 0 9 -4 9 -10z m-7820 -10
c-19 -13 -30 -13 -30 0 0 6 10 10 23 10 18 0 19 -2 7 -10z m6240 -30 c0 -5 -8
-10 -17 -10 -15 0 -16 2 -3 10 19 12 20 12 20 0z m-4117 -49 c16 -16 -10 -34
-38 -25 -51 15 -68 17 -61 6 8 -14 -8 -24 -28 -16 -19 7 -21 40 -3 48 21 9
117 0 130 -13z m5072 -66 c17 -36 29 -65 27 -65 -5 0 -36 37 -69 83 -22 32
-24 40 -13 47 18 11 17 13 55 -65z m-65 14 c0 -18 -18 -9 -23 12 -4 16 -3 18
9 8 8 -6 14 -15 14 -20z m-4390 1 c-6 -11 -25 -27 -43 -36 -31 -15 -31 -14 8
20 47 41 49 42 35 16z m4330 -46 c-12 -14 -40 -20 -40 -8 0 3 10 20 23 37 21
31 22 31 25 9 2 -13 -2 -30 -8 -38z m-5901 17 c11 -7 9 -10 -8 -16 -30 -9 -42
-36 -26 -59 8 -11 19 -15 27 -11 7 4 -1 -7 -19 -26 l-32 -33 -26 28 c-38 41
-60 103 -32 93 6 -2 11 -11 9 -21 -2 -9 2 -16 8 -16 5 0 10 5 10 12 0 18 41
58 59 58 9 0 22 -4 30 -9z m4576 -24 c64 -18 90 -54 61 -86 -11 -12 -47 -30
-82 -41 -58 -18 -178 -37 -198 -32 -5 2 -6 -4 -3 -13 4 -8 2 -15 -3 -15 -6 0
-10 8 -10 18 0 14 -2 15 -10 2 -5 -8 -10 -30 -10 -48 0 -30 -2 -32 -32 -31
-51 2 -180 41 -210 63 -21 15 -28 28 -28 52 0 18 6 37 13 41 6 4 12 19 12 33
0 20 9 29 44 46 30 14 40 23 30 28 -8 3 -3 4 11 2 14 -2 70 -1 125 3 109 7
212 -1 290 -22z m-4506 9 c10 -12 8 -13 -9 -9 -25 7 -37 23 -17 23 8 0 20 -6
26 -14z m105 -19 c-3 -9 -13 -17 -21 -17 -8 0 -12 3 -10 8 2 4 7 16 11 26 4
13 10 16 17 9 5 -5 7 -17 3 -26z m73 -23 c-3 -3 -12 -4 -19 -1 -8 3 -5 6 6 6
11 1 17 -2 13 -5z m-97 -23 c-15 -30 -30 -35 -17 -6 7 14 16 25 20 25 4 0 3
-9 -3 -19z m-336 -9 c2 -4 -22 -7 -54 -7 -32 0 -56 3 -54 7 3 5 27 8 54 8 27
0 51 -3 54 -8z m437 -15 c-10 -9 -11 -8 -5 6 3 10 9 15 12 12 3 -3 0 -11 -7
-18z m-701 -12 c0 -9 -9 -15 -25 -15 -29 0 -34 16 -7 23 30 8 32 7 32 -8z
m118 8 c-10 -2 -28 -2 -40 0 -13 2 -5 4 17 4 22 1 32 -1 23 -4z m6222 -19 c0
-9 -13 -21 -30 -27 -33 -13 -41 -28 -11 -20 11 3 29 -1 39 -9 16 -11 18 -17 9
-29 -15 -20 -44 -35 -84 -42 -26 -5 -33 -3 -33 9 0 11 6 15 20 11 22 -6 35 19
24 47 -7 18 -34 22 -34 5 0 -5 4 -7 10 -4 6 3 7 -1 4 -9 -7 -18 -24 -11 -24
10 0 24 -20 16 -21 -8 l0 -23 -11 23 c-18 37 -59 26 -72 -18 l-10 -35 -4 29
c-6 47 25 69 100 72 76 3 94 6 110 22 16 16 18 15 18 -4z m679 -31 c0 -5 -4
-17 -9 -28 -8 -18 -9 -17 -9 8 -1 15 4 27 9 27 6 0 10 -3 9 -7z m-1512 -9 c-3
-3 -12 -4 -19 -1 -8 3 -5 6 6 6 11 1 17 -2 13 -5z m1697 -30 c11 -28 7 -31
-45 -38 -72 -10 -86 7 -28 33 54 25 65 26 73 5z m-1744 -24 c0 -16 -4 -30 -10
-30 -5 0 -10 14 -10 30 0 17 5 30 10 30 6 0 10 -13 10 -30z m54 4 c8 -20 -1
-34 -20 -34 -15 0 -17 9 -8 34 8 20 20 20 28 0z m704 -33 c3 -9 -8 -11 -34 -9
-50 4 -57 26 -7 23 20 -2 39 -8 41 -14z m-7342 -59 c-16 -2 -32 0 -37 5 -5 5
7 7 29 4 34 -5 35 -6 8 -9z m109 -11 c34 -7 35 -9 10 -9 -16 0 -43 4 -60 8
-42 11 -1 11 50 1z m295 -21 c74 -10 162 -21 195 -24 33 -3 71 -8 85 -11 73
-15 194 -34 290 -44 51 -6 62 -9 33 -10 -23 0 -124 8 -225 18 -101 11 -221 22
-268 26 -47 4 -140 15 -207 26 -68 10 -126 19 -130 20 -14 2 41 15 67 16 14 1
86 -7 160 -17z m2115 -50 c-256 -53 -293 -55 -775 -53 -625 2 -674 2 -668 8 3
3 227 8 499 10 438 4 599 11 759 31 64 7 209 20 245 21 17 1 -10 -7 -60 -17z
m5402 14 c-3 -3 -12 -4 -19 -1 -8 3 -5 6 6 6 11 1 17 -2 13 -5z m-2914 -128
c4 -10 1 -13 -8 -9 -8 3 -12 9 -9 14 7 12 11 11 17 -5z m-1412 -78 l58 -12 -6
-47 c-13 -113 39 -212 183 -342 204 -186 226 -198 293 -159 17 9 34 25 37 34
5 18 82 88 93 85 3 -1 33 27 66 62 33 35 71 67 84 72 13 5 21 12 18 15 -3 4 6
30 20 58 22 42 27 66 28 136 l2 85 44 13 c24 7 58 9 74 6 39 -8 158 -68 174
-88 9 -11 19 -13 37 -5 38 14 70 11 122 -10 26 -11 60 -22 76 -26 67 -15 112
-104 82 -163 l-15 -30 42 -6 c114 -18 157 -52 157 -123 0 -18 5 -33 10 -33 6
0 28 -18 50 -40 27 -27 40 -49 40 -68 0 -36 -24 -70 -53 -74 -12 -2 -21 -8
-20 -15 4 -22 -34 -43 -87 -47 -34 -2 -56 -9 -62 -19 -20 -37 -101 -69 -165
-66 -7 0 -33 1 -58 2 -25 1 -45 5 -45 8 0 3 -21 5 -47 5 -41 -1 -51 -5 -65
-28 -18 -28 -44 -46 -75 -51 -10 -1 -22 -5 -28 -8 -5 -3 -37 -6 -70 -5 -33 1
-70 -2 -81 -6 -12 -4 -25 -4 -29 0 -3 3 -22 7 -42 9 -20 1 -40 6 -46 12 -5 5
-15 7 -22 4 -8 -2 -22 0 -33 6 -15 8 -21 7 -25 -2 -6 -16 -117 -13 -127 3 -5
8 -13 9 -21 4 -8 -4 -29 -9 -47 -9 -19 -1 -37 -8 -42 -15 -9 -15 -31 -4 -25
13 4 8 -7 13 -30 14 -19 1 -35 -2 -35 -6 0 -5 -11 -6 -25 -3 -19 3 -24 1 -20
-11 9 -21 -34 -38 -95 -38 -110 0 -166 4 -177 12 -6 6 -60 12 -120 15 -179 7
-256 18 -291 42 -25 18 -50 24 -129 28 -97 6 -144 16 -173 39 -8 7 -33 16 -55
20 -22 4 -48 15 -58 26 -10 10 -24 19 -32 19 -20 0 -55 40 -55 62 0 10 -7 29
-15 42 -14 21 -13 26 15 64 16 23 41 49 54 57 14 9 30 32 36 51 18 54 65 82
163 99 33 5 36 8 27 25 -17 31 -11 64 17 108 21 32 47 52 118 89 79 41 98 47
159 48 53 2 71 6 78 20 11 19 83 54 112 55 11 0 46 -5 77 -12z m2254 -21 c12
-9 30 -12 56 -7 36 7 39 5 49 -23 13 -39 12 -133 -4 -175 l-12 -34 -53 42
c-60 48 -90 104 -91 168 0 34 3 42 18 42 10 0 26 -6 37 -13z m-3698 -79 c-3
-8 -6 -5 -6 6 -1 11 2 17 5 13 3 -3 4 -12 1 -19z m153 13 c0 -38 -66 -126
-111 -152 -15 -8 -16 -4 -8 32 9 39 48 123 49 106 0 -5 10 -1 22 7 25 18 48
21 48 7z m3790 -8 c0 -4 20 -8 44 -8 51 0 60 -6 51 -33 -20 -64 -145 -141
-181 -111 -18 15 -18 69 1 117 13 33 20 38 50 40 19 2 35 -1 35 -5z m-3904
-39 c-4 -9 -9 -15 -11 -12 -3 3 -3 13 1 22 4 9 9 15 11 12 3 -3 3 -13 -1 -22z
m-178 4 c10 -10 15 -10 21 1 5 8 15 12 22 9 8 -3 18 -6 24 -6 27 -1 35 -116 9
-126 -45 -17 -164 54 -164 98 0 31 64 48 88 24z m129 -40 c-2 -13 -4 -5 -4 17
-1 22 1 32 4 23 2 -10 2 -28 0 -40z m3695 -108 c35 -71 31 -158 -11 -239 l-32
-63 -25 23 c-13 13 -36 47 -50 76 -36 73 -31 145 16 238 l34 67 23 -28 c13
-16 33 -49 45 -74z m-4212 69 c0 -5 -4 -9 -10 -9 -5 0 -10 -5 -10 -11 0 -5 4
-8 9 -4 5 3 16 -2 25 -10 14 -14 17 -14 35 2 11 9 18 20 15 24 -2 5 5 13 16
19 16 9 20 8 20 -4 0 -10 -6 -13 -17 -10 -15 5 -16 4 -3 -5 8 -5 26 -8 40 -5
l25 5 -25 -15 c-24 -15 -24 -16 -5 -21 23 -7 30 -42 13 -63 -9 -10 -8 -16 2
-22 16 -10 15 -11 -15 -29 -19 -11 -19 -12 3 -6 25 7 31 -12 7 -21 -8 -4 -15
-10 -15 -15 0 -5 10 -5 23 0 19 8 23 6 25 -12 0 -12 6 -23 12 -25 5 -2 7 -8 4
-14 -6 -9 26 -39 36 -33 3 2 5 -8 5 -21 0 -13 -3 -24 -7 -24 -5 0 -8 -4 -8
-10 0 -5 7 -10 15 -10 8 0 15 5 15 11 0 7 9 0 20 -14 11 -14 20 -30 20 -36 0
-5 7 -14 16 -19 11 -6 13 -11 5 -16 -16 -10 -14 -35 4 -52 8 -9 15 -24 15 -34
0 -11 7 -23 15 -28 9 -4 17 -22 19 -38 2 -16 4 -32 5 -37 0 -4 13 -4 27 -1 17
4 25 3 21 -3 -3 -5 8 -20 26 -33 18 -13 35 -29 40 -36 4 -7 13 -11 20 -8 11 4
57 -37 57 -51 0 -3 -50 -5 -112 -5 -61 0 -108 -3 -104 -7 4 -4 49 -6 101 -4
103 3 135 -3 135 -23 0 -36 -21 -37 -476 -36 -246 0 -458 3 -470 6 -23 6 -40
32 -28 43 3 3 119 6 257 6 139 0 230 3 202 7 -27 3 -131 7 -230 7 -99 1 -187
6 -195 11 -10 6 -11 10 -2 10 6 0 12 6 12 14 0 7 7 19 15 26 8 7 15 17 15 23
0 6 -7 1 -16 -11 -19 -28 -34 -29 -29 -1 2 11 -4 27 -15 37 -25 21 -25 32 0
32 11 0 20 -5 20 -12 0 -6 3 -8 6 -5 4 4 1 13 -5 21 -10 11 -8 16 7 20 10 4
25 18 32 31 11 21 11 29 1 49 -14 25 -7 51 10 41 5 -4 9 -14 9 -24 0 -10 7
-18 15 -18 8 0 15 6 15 13 0 8 7 11 18 8 9 -3 4 3 -13 12 -20 11 -25 19 -16
22 7 2 17 -1 21 -8 10 -17 40 27 33 48 -5 11 -3 13 7 7 10 -6 11 -2 6 18 -7
28 16 49 42 40 18 -7 14 28 -5 44 -16 13 -16 13 5 3 19 -9 22 -8 22 9 0 11 -8
25 -17 30 -10 6 -14 11 -10 11 12 0 51 -21 58 -33 4 -5 16 -1 27 9 16 13 18
20 10 25 -7 5 -10 10 -7 14 3 3 16 -4 29 -15 25 -22 45 -22 45 0 0 7 10 14 22
15 13 1 26 5 30 10 5 4 -3 4 -16 0 -17 -5 -22 -4 -19 6 7 21 -20 45 -35 30 -9
-9 -8 -14 3 -21 12 -8 10 -10 -8 -10 -19 0 -22 4 -18 23 3 12 3 16 0 10 -3 -7
-10 -13 -15 -13 -6 0 -7 5 -4 10 3 6 1 10 -5 10 -6 0 -8 5 -5 10 3 6 1 10 -4
10 -6 0 -11 -10 -11 -21 0 -18 -2 -19 -15 -9 -11 9 -15 10 -15 1 0 -8 -6 -7
-16 3 -8 9 -22 16 -30 16 -8 0 -14 5 -14 10 0 6 6 10 13 10 8 0 7 4 -3 10 -12
7 -8 10 15 10 l30 1 -25 15 -25 15 25 -7 c14 -3 29 -10 35 -15 17 -16 26 -9
15 11 -11 21 -2 25 40 21 13 -2 13 -1 0 8 -13 9 -13 11 3 11 9 0 17 4 17 9 0
5 10 7 21 4 18 -5 20 -3 14 16 -9 29 3 61 21 54 7 -3 14 -9 14 -14z m26 12
c-4 -5 -1 -12 4 -14 6 -3 5 -4 -2 -3 -15 3 -23 26 -8 26 6 0 9 -4 6 -9z m754
-196 c0 -72 -15 -110 -62 -162 l-20 -21 27 -54 c32 -64 51 -85 135 -151 115
-89 92 -84 -43 11 -76 53 -79 54 -93 34 -17 -24 -94 -52 -143 -52 -42 0 -139
43 -147 65 -3 8 -11 12 -16 9 -6 -4 -6 1 0 13 21 38 8 57 -41 67 -26 4 -47 11
-47 15 0 12 173 29 220 22 51 -9 113 -38 159 -76 l31 -27 -24 49 c-13 26 -39
79 -57 117 -59 122 -50 224 27 315 l28 34 33 -69 c28 -57 33 -80 33 -139z
m-840 162 c0 -12 -12 -21 -62 -45 -5 -2 -8 1 -8 7 0 6 6 11 13 11 8 0 22 9 32
20 21 24 25 25 25 7z m4386 -121 c-9 -31 -19 -63 -22 -73 -3 -10 6 -3 21 15
37 45 105 90 172 113 68 23 68 23 49 3 -21 -21 -20 -30 6 -48 16 -11 25 -13
35 -4 17 13 16 5 -1 -35 -18 -43 -75 -99 -122 -122 -44 -21 -137 -26 -156 -7
-7 7 -15 12 -18 12 -3 0 -28 -29 -54 -65 -26 -36 -50 -65 -52 -65 -6 0 0 11
48 82 23 34 38 69 38 87 0 16 4 32 10 36 5 3 19 37 32 76 26 81 37 77 14 -5z
m537 58 c-5 -14 -2 -16 21 -10 34 8 51 -1 36 -19 -9 -11 -7 -14 7 -14 51 -1
87 -16 78 -32 -4 -5 -2 -9 4 -9 14 0 3 -27 -15 -34 -23 -9 -43 4 -39 26 3 11
2 18 -2 14 -3 -3 -12 -1 -18 4 -8 7 -18 4 -30 -10 -10 -11 -13 -20 -7 -20 6 0
13 6 15 13 4 9 6 9 6 -1 1 -8 -8 -16 -19 -19 -16 -4 -18 -9 -9 -25 8 -16 8
-23 -2 -29 -17 -10 -32 -1 -25 17 3 8 1 14 -4 14 -6 0 -10 -7 -10 -16 0 -11
-6 -13 -19 -9 -11 3 -22 2 -25 -3 -3 -6 10 -13 29 -16 20 -4 33 -11 30 -17 -4
-5 -1 -9 4 -9 6 0 11 5 11 10 0 6 5 10 10 10 19 0 10 -32 -10 -37 -11 -3 -20
-9 -20 -13 0 -5 -7 -16 -16 -25 -13 -13 -14 -16 -3 -15 26 4 39 0 37 -11 -2
-6 4 -14 12 -16 12 -4 13 -3 1 5 -11 8 -10 12 5 19 11 5 29 8 42 7 12 -1 28
-2 36 -3 16 -1 16 -53 -1 -58 -6 -2 -14 5 -18 17 -8 25 -25 17 -18 -9 3 -10
-1 -30 -7 -42 -7 -13 -9 -21 -5 -17 4 4 16 -3 26 -16 18 -23 69 -33 69 -14 0
5 5 6 10 3 6 -3 10 -22 10 -41 0 -36 25 -49 33 -16 4 13 5 12 6 -5 0 -12 -5
-24 -11 -26 -10 -4 -10 -6 -1 -6 6 -1 19 9 27 21 11 15 16 18 16 7 0 -8 -8
-25 -17 -39 -15 -21 -15 -23 0 -17 12 4 14 2 10 -10 -4 -11 -2 -14 5 -9 8 5
10 2 6 -8 -8 -21 -21 -20 -33 1 -5 10 -13 14 -18 9 -4 -5 -2 -11 5 -13 20 -8
14 -26 -8 -20 -10 3 -24 -1 -30 -8 -6 -8 -18 -11 -26 -8 -10 4 -12 0 -8 -11 3
-9 10 -14 14 -11 8 5 50 -28 50 -39 0 -7 -704 -8 -712 0 -12 11 5 44 26 50 11
4 27 16 35 26 7 11 19 17 28 13 9 -3 24 2 34 11 10 9 23 13 28 9 7 -3 11 2 11
14 0 10 11 28 24 38 14 10 26 25 28 33 2 8 11 21 20 28 10 7 15 19 11 29 -4
10 -2 14 4 10 5 -3 15 10 21 29 10 33 9 35 -11 30 -12 -3 -16 -3 -9 0 6 3 12
18 12 34 0 29 21 55 34 42 4 -4 6 0 4 8 -2 9 3 14 11 12 9 -2 12 4 8 18 -3 11
0 23 6 27 12 8 16 9 52 12 18 1 19 3 3 14 -9 8 -15 22 -13 33 2 10 4 22 4 27
1 4 5 7 10 7 5 0 7 -9 4 -20 -3 -11 0 -20 6 -20 14 0 15 37 1 45 -5 3 -9 21
-7 40 1 18 6 31 10 28 5 -3 6 -11 4 -17 -3 -7 3 -18 14 -24 17 -11 18 -9 13
21 -3 17 -8 38 -10 45 -2 7 1 10 6 7 5 -3 18 -1 27 4 10 6 30 11 45 11 21 0
26 -4 21 -16z m-4452 -30 c28 -14 72 -46 97 -72 25 -26 43 -40 40 -31 -4 9 -9
38 -12 65 l-7 49 26 -64 c14 -35 25 -73 25 -85 0 -13 23 -56 50 -97 47 -69 29
-56 -33 24 -27 36 -27 36 -62 21 -71 -29 -151 -7 -218 60 -37 37 -85 113 -56
89 8 -6 24 -10 34 -8 11 2 24 4 28 4 5 1 7 9 6 19 -6 60 7 64 82 26z m3635
-132 c4 -19 4 -64 2 -100 -8 -107 -84 -236 -167 -285 l-31 -18 -15 35 c-21 50
-19 62 16 99 42 43 81 105 74 117 -3 5 -20 7 -37 3 -21 -4 -29 -3 -25 4 7 11
-20 28 -37 24 -5 -1 -6 5 -3 14 4 8 1 15 -5 15 -7 0 -6 5 2 15 7 8 19 15 27
15 7 0 16 -7 19 -15 9 -23 19 -18 36 18 8 17 35 56 58 86 l43 54 18 -24 c10
-13 21 -39 25 -57z m1011 57 c1 -12 -3 -19 -10 -16 -17 5 -21 37 -5 37 8 0 14
-9 15 -21z m-4154 -49 c51 -62 74 -116 54 -123 -12 -4 -3 -24 54 -127 22 -40
25 -118 7 -143 -12 -15 -17 -14 -53 11 -54 38 -109 114 -131 181 -31 93 -22
261 14 261 4 0 29 -27 55 -60z m4057 16 c0 -8 -5 -18 -11 -22 -14 -8 -33 11
-25 25 10 16 36 13 36 -3z m-5100 -18 c0 -13 -23 -5 -28 10 -2 7 2 10 12 6 9
-3 16 -11 16 -16z m3975 -58 c-3 -5 -11 -10 -16 -10 -6 0 -7 5 -4 10 3 6 11
10 16 10 6 0 7 -4 4 -10z m1138 -37 c-7 -2 -19 -2 -25 0 -7 3 -2 5 12 5 14 0
19 -2 13 -5z m100 0 c-7 -2 -21 -2 -30 0 -10 3 -4 5 12 5 17 0 24 -2 18 -5z
m-48 -23 c3 -5 -1 -10 -10 -10 -9 0 -13 5 -10 10 3 6 8 10 10 10 2 0 7 -4 10
-10z m-5275 -8 c0 -5 -9 -20 -21 -33 -17 -19 -22 -21 -29 -9 -13 20 -13 33 0
25 6 -3 7 1 4 9 -5 12 0 16 20 16 14 0 26 -4 26 -8z m4720 -29 c59 -6 74 -23
22 -23 -33 -1 -97 -28 -68 -29 19 -1 19 -2 1 -21 -18 -20 -18 -21 0 -14 12 5
16 4 12 -3 -4 -6 -2 -13 5 -15 18 -6 -68 -54 -121 -68 -54 -14 -102 -6 -162
27 l-46 26 -54 -39 c-30 -22 -72 -51 -94 -63 -121 -71 -143 -99 -34 -43 65 33
78 37 148 36 59 -1 89 -7 136 -28 33 -15 49 -25 35 -22 -14 3 -36 -2 -50 -9
-14 -8 -20 -14 -14 -15 6 0 11 -15 10 -32 -1 -29 -7 -35 -46 -50 -55 -21 -139
-23 -183 -4 -18 7 -44 26 -59 41 -31 31 -54 31 -163 -4 l-60 -19 55 -1 c56 -1
147 -37 199 -79 26 -21 17 -29 -34 -28 -16 1 -34 -4 -40 -11 -13 -17 -116 -19
-154 -4 -30 13 -47 56 -27 69 6 4 -7 10 -29 13 l-40 5 35 18 35 17 -35 -7
c-19 -3 -44 -12 -56 -19 -11 -7 -50 -19 -85 -26 -74 -14 -108 -28 -69 -29 14
0 43 -11 65 -25 38 -24 38 -25 10 -19 -16 4 -40 11 -53 15 -35 13 -52 11 -46
-5 7 -18 -38 -15 -60 3 -11 9 -27 9 -73 -3 -32 -9 -76 -18 -98 -22 -22 -3 -61
-17 -87 -30 -47 -24 -94 -32 -84 -15 21 33 279 131 346 131 38 0 137 24 320
77 163 47 368 183 439 290 28 41 31 44 27 20 -3 -16 -11 -36 -18 -45 -7 -9 5
-3 27 14 77 60 151 86 218 78 21 -2 65 -7 97 -11z m-4830 -62 c0 -5 -7 -12
-16 -15 -14 -5 -15 -4 -4 9 14 17 20 19 20 6z m5434 -15 c-3 -9 -10 -13 -15
-10 -5 3 -3 11 4 19 15 16 19 13 11 -9z m136 -7 c0 -6 -4 -7 -10 -4 -5 3 -10
11 -10 16 0 6 5 7 10 4 6 -3 10 -11 10 -16z m-222 -3 c-7 -8 -15 -12 -17 -11
-5 6 10 25 20 25 5 0 4 -6 -3 -14z m177 5 c3 -5 1 -13 -5 -16 -6 -4 -8 -16 -5
-28 6 -20 5 -20 -14 3 -12 14 -26 31 -31 38 -8 9 -4 12 19 12 16 0 32 -4 36
-9z m122 -18 c1 -19 -1 -22 -8 -12 -11 17 -12 39 -1 39 4 0 8 -12 9 -27z
m-5648 -2 c20 -13 21 -33 5 -49 -12 -11 -14 -9 -15 10 -1 13 -1 27 0 32 1 5
-5 6 -14 2 -9 -3 -13 -2 -10 4 8 12 16 12 34 1z m5461 3 c0 -10 -43 -45 -48
-39 -3 3 3 14 14 24 19 20 34 26 34 15z m160 -9 c0 -12 -19 -12 -23 0 -4 9 -1
12 9 8 7 -3 14 -7 14 -8z m-60 -27 c0 -6 -6 -5 -15 2 -8 7 -15 14 -15 16 0 2
7 1 15 -2 8 -4 15 -11 15 -16z m-80 2 c0 -5 -8 -10 -17 -10 -15 0 -16 2 -3 10
19 12 20 12 20 0z m183 -5 c-3 -9 -8 -14 -10 -11 -3 3 -2 9 2 15 9 16 15 13 8
-4z m-39 -4 c7 -10 -3 -41 -13 -41 -3 0 -7 11 -7 25 -2 25 10 33 20 16z
m-4126 -46 c60 -41 70 -57 14 -23 -60 36 -88 57 -77 57 6 1 34 -15 63 -34z
m2636 22 c-2 -7 -14 -19 -27 -26 -37 -24 -115 -92 -121 -107 -3 -7 27 14 66
46 50 42 75 57 82 50 17 -17 -17 -61 -84 -107 -34 -24 -65 -43 -70 -43 -14 0
-24 71 -13 89 19 31 127 111 150 111 14 0 21 -5 17 -13z m1381 3 c-3 -5 9 -7
30 -5 41 6 46 -7 9 -23 -14 -7 -23 -8 -19 -2 10 15 -6 12 -26 -6 -27 -24 -43
-8 -22 21 17 23 41 36 28 15z m-3999 -81 c26 -22 57 -47 70 -56 24 -15 33 -53
14 -53 -38 0 -160 99 -160 129 0 5 -3 17 -7 26 -5 15 -3 16 15 6 11 -6 42 -29
68 -52z m4109 21 c3 -6 -1 -7 -9 -4 -18 7 -21 14 -7 14 6 0 13 -4 16 -10z
m-4359 -29 c23 -11 59 -31 80 -45 32 -21 35 -26 17 -26 -11 0 -35 -13 -52 -29
-58 -54 -176 -65 -259 -22 -32 17 -94 61 -67 47 6 -2 17 4 24 15 12 20 10 20
-33 18 -25 -2 -48 0 -51 3 -6 5 122 54 165 62 43 8 132 -4 176 -23z m-1304
-27 c1 -35 -20 -74 -38 -67 -10 4 -12 8 -5 13 6 3 15 20 20 38 7 24 6 30 -4
26 -7 -3 -16 0 -20 5 -3 6 -11 9 -16 6 -5 -4 -9 -2 -9 4 0 14 43 19 58 6 7 -7
13 -20 14 -31z m5584 35 c3 -6 2 -15 -4 -21 -6 -6 -11 -2 -15 11 -5 22 7 29
19 10z m34 1 c0 -5 -5 -10 -11 -10 -5 0 -7 5 -4 10 3 6 8 10 11 10 2 0 4 -4 4
-10z m-4155 -56 c33 -17 87 -38 120 -48 33 -9 94 -28 135 -41 106 -34 150 -41
160 -24 7 10 12 10 23 1 7 -7 40 -21 73 -32 32 -11 46 -17 29 -14 -46 9 -117
13 -132 7 -8 -3 -11 -13 -8 -23 6 -19 -19 -45 -35 -35 -5 3 -10 1 -10 -5 0 -6
-5 -8 -11 -5 -6 4 -8 13 -5 21 4 10 -2 14 -19 14 -15 0 -25 -6 -25 -14 0 -8
-7 -16 -15 -20 -9 -3 -15 0 -15 9 0 22 55 55 92 55 51 1 15 15 -72 29 -41 7
-77 15 -80 20 -3 4 -34 18 -70 31 -36 12 -75 29 -88 37 -12 8 -28 11 -34 7 -6
-4 -8 -3 -4 4 4 6 -13 17 -43 27 -27 9 -57 25 -67 36 -17 19 -17 19 12 6 16
-7 56 -26 89 -43z m4229 35 c-9 -15 -34 -10 -28 5 3 8 12 12 20 9 8 -3 11 -9
8 -14z m-174 -19 c0 -5 8 -10 18 -10 14 0 15 2 2 10 -13 8 -12 10 3 10 21 0
22 -23 2 -40 -10 -9 -15 -9 -15 -1 0 21 -18 11 -24 -14 -4 -14 -11 -25 -16
-25 -13 0 -13 27 0 35 6 4 7 11 4 17 -5 7 -2 8 6 3 10 -6 12 -4 7 8 -3 10 -2
17 3 17 6 0 10 -4 10 -10z m100 -31 c0 -13 -18 -11 -24 4 -3 6 -3 -1 1 -18 5
-29 5 -29 -10 -10 -10 14 -12 24 -5 32 10 13 38 7 38 -8z m115 3 c18 -10 18
-11 3 -12 -10 0 -18 5 -18 11 0 5 -4 8 -9 4 -5 -3 -12 -1 -15 4 -8 12 14 8 39
-7z m-5820 -40 c-3 -3 -11 0 -18 7 -9 10 -8 11 6 5 10 -3 15 -9 12 -12z m5665
6 c0 -4 -7 -8 -15 -8 -8 0 -15 4 -15 8 0 5 7 9 15 9 8 0 15 -4 15 -9z m-4010
-33 c49 -25 39 -40 -32 -54 -39 -8 -40 -9 -11 -10 l31 -1 -30 -30 c-25 -26
-37 -30 -82 -30 -71 0 -121 17 -105 36 14 17 5 18 -22 4 -38 -21 -18 -2 37 35
97 64 159 78 214 50z m3958 6 c33 -1 45 -24 18 -34 -10 -4 -13 -1 -10 7 4 9
-3 14 -20 14 -14 0 -26 -4 -26 -9 0 -5 8 -9 18 -9 13 0 14 -2 4 -9 -16 -10
-741 -15 -766 -5 -9 3 -16 12 -16 18 0 35 18 37 395 32 203 -2 385 -5 403 -5z
m58 -38 c-11 -11 -17 4 -9 23 7 18 8 18 11 1 2 -10 1 -21 -2 -24z m150 0 c-8
-9 -37 18 -30 28 3 5 12 2 21 -6 8 -9 13 -19 9 -22z m-58 -145 c9 -9 12 -106
12 -376 l0 -364 42 34 c63 50 198 183 198 196 0 6 -12 12 -27 14 -16 2 -27 6
-25 11 1 4 2 21 2 37 l0 30 168 0 c93 0 171 -2 174 -5 2 -3 3 -18 0 -33 -3
-25 -11 -31 -55 -45 -55 -17 -200 -125 -236 -175 l-19 -27 109 -140 c138 -175
182 -221 233 -238 36 -12 41 -18 41 -43 l0 -29 -157 0 -157 0 -46 45 c-25 25
-72 79 -103 120 -31 41 -76 99 -99 128 l-43 53 0 -116 c0 -64 5 -125 10 -135
6 -11 26 -22 45 -26 30 -5 35 -10 35 -35 0 -38 -20 -41 -245 -37 l-180 3 -3
31 c-3 28 0 32 38 43 28 8 44 20 50 37 11 28 11 599 1 779 l-6 110 -45 16
c-39 14 -45 21 -45 45 0 27 3 28 100 50 55 13 118 29 140 38 50 18 77 20 93 4z
m-2450 -250 c1 -137 5 -248 7 -248 3 0 27 16 54 35 100 72 208 85 296 37 40
-22 55 -38 80 -86 l30 -60 3 -240 c2 -139 8 -246 14 -253 5 -6 23 -15 39 -18
25 -6 29 -11 29 -41 l0 -34 -123 0 c-68 0 -158 3 -200 6 -75 7 -77 8 -77 34 0
20 8 30 33 41 l32 14 3 223 2 223 -30 31 c-28 28 -35 30 -81 26 -28 -3 -62
-14 -77 -25 l-27 -20 -3 -218 c-3 -237 -1 -246 54 -259 20 -5 24 -13 24 -41
l0 -35 -187 0 c-218 0 -233 3 -233 37 0 19 8 28 39 40 22 9 44 26 50 40 17 36
15 839 -2 873 -8 16 -26 28 -50 34 -31 8 -37 14 -37 36 0 31 2 32 190 74 161
37 145 63 148 -226z m-1688 196 c56 -23 95 -87 85 -144 -13 -79 -98 -131 -178
-109 -50 13 -82 46 -97 96 -11 35 -10 46 8 87 17 37 30 51 64 66 53 24 67 24
118 4z m1178 -14 l82 -23 0 -164 0 -163 -38 0 -38 0 -23 73 c-44 135 -140 194
-302 185 -202 -12 -316 -142 -327 -372 -8 -170 35 -295 136 -396 69 -69 128
-91 245 -92 77 -1 225 35 301 74 l40 20 18 -22 c24 -30 23 -53 -6 -87 -29 -34
-153 -95 -246 -120 -92 -26 -313 -25 -390 1 -96 32 -193 89 -250 146 -204 205
-197 595 15 803 67 66 203 139 290 156 28 5 131 9 230 7 153 -2 192 -6 263
-26z m-2490 -137 l3 -153 -38 0 -38 0 -19 64 c-30 105 -39 110 -217 115 l-149
3 0 -181 0 -181 88 0 c48 0 97 3 110 6 27 8 52 52 52 93 0 24 5 32 24 37 14 3
33 4 43 2 17 -3 18 -17 18 -198 l0 -195 -37 -3 -36 -3 -11 53 c-18 83 -27 88
-148 88 l-103 0 0 -175 c0 -220 -9 -210 177 -200 74 5 139 13 155 21 35 18 63
59 81 119 14 49 15 50 55 53 30 2 42 -1 42 -10 0 -7 -7 -77 -17 -154 l-17
-142 -45 -6 c-25 -3 -221 -3 -436 -1 l-390 5 -3 29 c-3 26 0 29 42 40 78 19
76 6 76 436 0 209 -5 398 -10 420 -5 22 -18 46 -29 54 -12 7 -21 20 -21 27 0
9 -11 14 -30 14 -28 0 -30 2 -30 40 l0 40 428 -2 427 -3 3 -152z m6690 -225
c-1 -121 -4 -167 -7 -123 -6 75 -3 315 5 315 2 0 3 -87 2 -192z m-6250 -32 c2
-25 5 -46 8 -46 3 0 25 16 48 35 90 74 182 93 280 58 153 -55 240 -257 192
-443 -58 -222 -283 -359 -501 -304 l-25 6 0 -110 c0 -108 1 -111 26 -131 15
-12 41 -21 61 -21 33 0 34 -2 31 -32 l-3 -33 -228 -3 -228 -2 3 32 c2 26 8 33
35 40 64 16 63 11 63 450 l0 397 -22 15 c-12 9 -35 16 -51 16 -26 0 -28 3 -25
33 l3 32 145 41 c170 49 183 47 188 -30z m941 55 c18 -18 19 -33 14 -318 -4
-218 -3 -305 6 -321 6 -12 28 -26 51 -32 37 -10 40 -13 40 -45 l0 -35 -220 0
-220 0 0 34 c0 30 4 35 30 41 16 4 39 18 50 32 19 24 20 40 20 249 0 211 -1
225 -20 244 -11 11 -33 20 -50 20 -27 0 -30 3 -30 34 l0 34 133 31 c72 18 139
36 147 41 21 14 28 12 49 -9z m2746 -15 c57 -26 127 -97 150 -153 23 -54 32
-175 14 -190 -9 -8 -93 -14 -238 -19 l-223 -7 7 -36 c10 -57 48 -124 85 -149
75 -50 201 -54 293 -9 l48 24 20 -26 21 -26 -34 -28 c-112 -96 -188 -128 -302
-129 -195 -2 -333 103 -366 278 -41 215 63 410 253 475 79 28 208 25 272 -5z
m815 5 c79 -25 130 -71 130 -117 0 -71 -43 -114 -116 -114 -28 0 -42 7 -63 31
-96 115 -118 126 -177 90 -46 -28 -77 -99 -82 -190 -5 -89 7 -139 47 -203 64
-100 191 -123 335 -61 37 16 39 16 52 -2 23 -31 13 -47 -65 -102 -87 -63 -148
-83 -251 -83 -122 0 -218 42 -292 129 -109 128 -99 377 20 504 111 118 303
167 462 118z m1747 -273 c-2 -13 -4 -5 -4 17 -1 22 1 32 4 23 2 -10 2 -28 0
-40z m-6 -264 c-6 -113 -16 -213 -22 -222 -7 -13 -9 3 -5 58 24 326 31 403 34
387 2 -10 -1 -111 -7 -223z m-105 170 c-3 -8 0 -13 7 -11 8 1 13 -17 15 -53 3
-56 -12 -259 -24 -320 -7 -31 -8 -32 -21 -15 -12 18 -13 17 -11 -7 1 -15 6
-24 10 -22 15 9 8 -53 -17 -152 -28 -111 -101 -269 -165 -354 -70 -93 -182
-201 -202 -194 -10 3 -32 -3 -49 -13 -30 -18 -31 -17 -45 1 -8 11 -11 29 -8
40 16 56 62 148 103 206 24 36 67 98 94 137 28 40 52 71 54 69 3 -2 1 -20 -3
-41 -4 -25 -11 -35 -20 -31 -8 3 -14 1 -14 -3 0 -5 4 -11 10 -13 11 -3 -13
-157 -34 -220 -18 -49 -7 -48 36 5 50 61 57 77 51 127 -6 62 20 181 52 233 29
46 29 42 -10 -50 -24 -58 -36 -155 -21 -170 3 -3 7 -4 9 -2 57 95 129 293 146
400 14 89 19 169 11 164 -9 -6 -20 128 -19 219 2 60 4 51 13 -59 12 -146 26
-146 26 0 0 104 8 158 22 149 5 -3 7 -12 4 -20z m-7869 -61 c-2 -16 -4 -3 -4
27 0 30 2 43 4 28 2 -16 2 -40 0 -55z m-10 -125 c-2 -13 -4 -3 -4 22 0 25 2
35 4 23 2 -13 2 -33 0 -45z m-150 -110 c-3 -8 -6 -5 -6 6 -1 11 2 17 5 13 3
-3 4 -12 1 -19z m8113 -145 c0 -22 -2 -25 -10 -13 -13 20 -13 40 0 40 6 0 10
-12 10 -27z m-15 -91 c-20 -143 -119 -392 -203 -514 -141 -203 -395 -381 -664
-463 -49 -14 -92 -23 -98 -20 -5 3 -10 2 -10 -3 0 -5 -35 -16 -77 -25 -141
-30 -334 -47 -608 -55 -417 -13 -4662 -14 -4840 -2 -82 6 -184 13 -225 16
-147 10 -320 39 -445 76 -110 32 -226 79 -220 89 4 5 0 6 -7 4 -18 -7 -180 86
-260 151 -82 66 -180 174 -232 257 -22 34 -32 56 -23 48 9 -7 17 -10 17 -5 0
4 5 3 12 -4 8 -8 16 -8 23 -2 19 16 49 -23 37 -47 -8 -15 -7 -19 8 -19 10 0
16 5 13 11 -3 5 34 -28 83 -75 49 -47 126 -112 171 -144 45 -32 80 -63 76 -69
-3 -6 -1 -7 5 -3 6 3 42 -9 79 -28 143 -73 332 -133 473 -151 30 -3 91 -11
135 -16 116 -14 5350 -13 5475 1 275 31 434 76 620 175 199 107 368 259 486
437 60 91 134 256 165 370 17 61 27 82 33 71 4 -8 5 -36 1 -61z m-210 -29 c-9
-15 -13 -19 -10 -8 4 11 10 29 13 40 3 11 7 14 9 8 3 -7 -3 -24 -12 -40z
m-7614 -254 c5 -8 9 -18 9 -24 0 -5 -5 -3 -10 5 -6 10 -10 11 -10 3 0 -18 -27
-16 -34 2 -3 8 -1 15 5 15 6 0 8 4 5 9 -4 5 1 8 10 7 8 -1 20 -9 25 -17z m264
-143 c18 -34 41 -86 49 -116 14 -47 20 -56 41 -58 27 -2 28 -10 -14 96 -11 28
-17 52 -13 52 12 0 151 -130 163 -152 8 -14 8 -23 0 -31 -7 -7 -12 -5 -17 7
-4 11 -10 13 -18 7 -8 -7 -12 -2 -14 17 -1 21 0 24 8 12 8 -13 10 -12 10 3 0
16 -12 22 -35 17 -5 -1 -7 2 -2 6 12 12 -23 42 -43 37 -16 -4 -17 -8 -5 -36 7
-17 22 -34 34 -39 14 -5 21 -16 21 -33 0 -15 4 -23 10 -20 6 3 7 -1 4 -9 -6
-15 6 -21 31 -16 6 1 7 -1 3 -5 -4 -4 0 -14 8 -22 8 -8 11 -19 8 -25 -4 -7 -2
-8 4 -4 6 4 27 0 47 -8 35 -15 35 -15 35 10 0 14 -9 37 -20 51 -11 14 -20 34
-20 44 0 14 18 2 65 -44 66 -64 78 -93 50 -117 -8 -7 -26 -10 -40 -8 -13 3
-22 1 -19 -3 3 -5 3 -9 0 -9 -11 0 -162 62 -173 71 -7 7 -18 6 -30 -1 -13 -8
-26 -9 -46 -1 -36 14 -26 32 13 24 17 -3 30 -3 30 -1 0 3 -37 30 -83 60 -45
31 -91 67 -102 79 -17 21 -16 21 10 -2 41 -36 227 -157 262 -170 l28 -10 -31
33 c-17 18 -41 48 -53 66 -18 25 -29 32 -56 32 -19 0 -36 4 -39 9 -3 4 -18 11
-33 14 -43 10 -59 23 -46 39 10 12 17 47 14 76 -1 6 -11 12 -23 12 -17 0 -19
3 -10 9 10 6 9 10 -7 14 -12 3 -21 10 -21 16 0 9 5 9 21 0 13 -7 19 -7 15 -1
-3 6 -2 13 4 17 15 9 12 22 -5 22 -8 0 -12 -5 -8 -10 3 -5 -4 -4 -14 2 -11 6
-22 9 -24 8 -2 -1 7 8 21 20 25 22 25 22 3 23 -12 0 -24 -6 -26 -12 -3 -7 -5
-1 -4 15 1 15 5 27 10 27 4 0 5 6 2 13 -20 39 42 -46 70 -97z m6974 -73 c-52
-116 -73 -152 -117 -203 -24 -28 -39 -50 -32 -50 19 0 92 41 173 96 81 56 98
64 78 40 -12 -14 -84 -61 -198 -130 -66 -39 -222 -102 -200 -80 3 3 -3 14 -14
25 -27 27 -24 52 10 88 33 35 59 43 39 11 -16 -26 -10 -30 40 -23 26 4 42 11
42 19 0 16 19 51 38 72 15 17 15 23 0 20 -6 -2 -13 4 -15 14 -3 11 27 41 89
92 51 41 94 76 95 76 1 0 -12 -30 -28 -67z m-7126 15 c19 -24 38 -50 42 -58
12 -21 -53 40 -77 73 -31 44 -3 31 35 -15z m36 2 c11 -24 11 -24 -3 -6 -9 11
-16 24 -16 30 0 12 5 7 19 -24z m6861 -95 c0 -22 -44 -76 -143 -172 -62 -62
-117 -113 -120 -113 -16 0 -36 13 -31 21 9 15 -3 10 -17 -8 -12 -14 -12 -16 0
-8 11 6 13 4 7 -10 -5 -15 -4 -16 9 -5 12 10 15 10 15 -2 0 -10 -14 -18 -37
-22 -96 -16 -187 -27 -298 -37 -137 -11 -5051 -13 -5200 -1 -49 4 1098 8 2550
10 1509 2 2681 7 2735 12 52 5 98 10 102 10 4 0 4 16 1 34 -5 31 0 41 40 88
46 53 132 113 121 84 -6 -17 -52 -49 -73 -52 -36 -6 -33 -54 3 -53 20 0 20 1
1 9 -16 7 -17 9 -3 9 9 1 20 -3 23 -9 12 -19 26 -11 15 9 -15 29 -12 36 8 18
10 -10 22 -14 25 -10 12 11 8 21 -10 25 -11 2 2 11 32 22 28 10 70 38 95 62
56 53 150 109 150 89z m-6388 -54 c24 -10 60 -30 81 -44 20 -14 81 -43 134
-64 63 -24 109 -50 132 -73 20 -19 51 -39 70 -45 43 -13 55 -37 14 -29 -50 10
-66 9 -70 -3 -3 -7 2 -13 11 -13 9 0 16 -4 16 -8 0 -4 -29 -4 -65 2 -52 7 -63
12 -54 23 8 9 8 13 0 13 -21 0 -26 -2 -24 -11 2 -5 -6 -9 -18 -9 -23 0 -17 15
18 43 13 10 23 24 22 30 0 8 -2 8 -6 0 -2 -7 -11 -13 -19 -13 -9 0 -12 -5 -8
-11 4 -8 -1 -9 -17 -4 -19 5 -21 4 -9 -4 8 -6 11 -11 7 -11 -4 0 -23 12 -42
27 -24 19 -31 30 -22 36 7 5 2 5 -12 2 -19 -6 -23 -4 -18 9 4 9 3 15 -1 14 -4
-1 -44 35 -89 80 -45 45 -81 82 -79 82 3 0 24 -8 48 -19z m6307 -205 c-6 -6
-158 -46 -172 -45 -16 1 133 47 157 48 11 1 17 -1 15 -3z m-6232 -12 c-3 -3
-12 -4 -19 -1 -8 3 -5 6 6 6 11 1 17 -2 13 -5z m83 -18 c25 -8 36 -15 25 -15
-25 1 -106 27 -85 28 8 0 35 -6 60 -13z m298 -53 c-10 -2 -28 -2 -40 0 -13 2
-5 4 17 4 22 1 32 -1 23 -4z"/>
<path d="M9344 6605 c-3 -13 -2 -42 4 -62 10 -37 10 -36 11 25 1 65 -4 79 -15
37z"/>
<path d="M2175 6030 c3 -5 11 -10 16 -10 6 0 7 5 4 10 -3 6 -11 10 -16 10 -6
0 -7 -4 -4 -10z"/>
<path d="M7265 5890 l-40 -20 35 6 c19 4 50 12 70 20 l35 13 -30 0 c-16 0 -48
-8 -70 -19z"/>
<path d="M7286 5780 c-39 -44 -45 -64 -20 -74 42 -16 109 68 82 102 -16 18
-23 15 -62 -28z"/>
<path d="M8485 5710 c-3 -5 -1 -10 4 -10 6 0 11 5 11 10 0 6 -2 10 -4 10 -3 0
-8 -4 -11 -10z"/>
<path d="M8738 5572 c-2 -4 0 -41 3 -82 3 -41 6 -64 7 -50 1 14 8 49 15 77 13
48 12 52 -5 56 -10 3 -19 2 -20 -1z"/>
<path d="M8927 5538 c-3 -7 -12 -30 -21 -50 -24 -56 -11 -46 17 12 13 28 21
50 17 50 -4 0 -10 -6 -13 -12z"/>
<path d="M8752 5240 c0 -19 2 -27 5 -17 2 9 2 25 0 35 -3 9 -5 1 -5 -18z"/>
<path d="M1845 5590 c-4 -7 2 -9 19 -4 24 6 26 4 26 -25 0 -27 4 -31 25 -31
23 0 25 4 23 35 -2 34 -3 35 -44 35 -24 0 -46 -5 -49 -10z"/>
<path d="M2017 5547 c-3 -8 -2 -20 3 -27 11 -18 42 -4 38 17 -4 22 -34 29 -41
10z"/>
<path d="M1763 5528 c-15 -20 -25 -38 -20 -38 3 0 12 11 21 25 17 26 16 35 -1
13z"/>
<path d="M1887 5450 c6 -7 9 -19 6 -26 -4 -11 3 -14 26 -12 17 1 31 5 31 9 0
10 -23 26 -50 34 -20 6 -22 5 -13 -5z"/>
<path d="M1813 5433 c-15 -6 -17 -33 -3 -33 6 0 13 0 18 0 4 0 7 6 7 13 0 6 7
15 15 19 11 5 10 7 -5 7 -11 -1 -26 -3 -32 -6z"/>
<path d="M2001 5346 c-18 -22 4 -58 32 -54 28 4 35 38 11 55 -23 17 -29 16
-43 -1z"/>
<path d="M1862 5338 c-29 -29 2 -67 38 -48 19 10 20 14 7 33 -17 26 -29 31
-45 15z"/>
<path d="M2625 4430 c-3 -5 1 -10 10 -10 9 0 13 5 10 10 -3 6 -8 10 -10 10 -2
0 -7 -4 -10 -10z"/>
<path d="M2610 4350 c0 -5 5 -10 11 -10 5 0 7 5 4 10 -3 6 -8 10 -11 10 -2 0
-4 -4 -4 -10z"/>
<path d="M2455 4040 c-4 -6 -3 -16 3 -22 13 -13 23 4 13 21 -7 10 -10 10 -16
1z"/>
<path d="M2387 3970 c3 -11 9 -17 15 -14 5 3 4 12 -3 20 -16 19 -18 18 -12 -6z"/>
<path d="M2790 3752 c0 -8 200 -5 208 3 3 3 -43 5 -101 5 -59 0 -107 -3 -107
-8z"/>
<path d="M7495 4400 c-3 -5 0 -10 7 -10 18 0 48 -36 40 -46 -4 -5 1 -2 11 5
21 16 23 45 2 37 -8 -3 -21 1 -29 9 -17 18 -23 18 -31 5z"/>
<path d="M7490 4188 c0 -11 22 -10 40 2 11 8 9 9 -12 8 -16 -1 -28 -6 -28 -10z"/>
<path d="M7650 4120 c0 -5 5 -10 11 -10 5 0 7 5 4 10 -3 6 -8 10 -11 10 -2 0
-4 -4 -4 -10z"/>
<path d="M7515 4100 c4 -6 11 -8 16 -5 14 9 11 15 -7 15 -8 0 -12 -5 -9 -10z"/>
<path d="M7460 4059 c0 -5 5 -7 10 -4 6 3 10 8 10 11 0 2 -4 4 -10 4 -5 0 -10
-5 -10 -11z"/>
<path d="M7485 4019 c-4 -6 -5 -12 -2 -15 2 -3 7 2 10 11 7 17 1 20 -8 4z"/>
<path d="M7277 3978 c-7 -4 4 -8 26 -8 21 0 36 4 32 9 -6 11 -40 10 -58 -1z"/>
<path d="M7665 3900 c-3 -6 1 -7 9 -4 18 7 21 14 7 14 -6 0 -13 -4 -16 -10z"/>
<path d="M7696 3861 c-3 -5 -16 -7 -29 -5 l-22 5 23 -12 c19 -10 26 -10 40 4
9 10 11 17 5 17 -7 0 -14 -4 -17 -9z"/>
<path d="M7650 3790 c0 -6 7 -10 15 -10 8 0 15 2 15 4 0 2 -7 6 -15 10 -8 3
-15 1 -15 -4z"/>
<path d="M7095 3999 c-11 -17 1 -21 15 -4 8 9 8 15 2 15 -6 0 -14 -5 -17 -11z"/>
<path d="M6550 3656 c0 -2 9 -6 20 -9 11 -3 18 -1 14 4 -5 9 -34 13 -34 5z"/>
<path d="M3020 2989 c-60 -24 -60 -25 -60 -239 l0 -197 42 -28 c87 -58 170
-37 211 53 25 57 36 232 18 293 -29 96 -127 151 -211 118z"/>
<path d="M6426 3029 c-34 -27 -66 -89 -66 -129 l0 -30 88 0 c120 0 132 4 132
46 0 42 -24 102 -48 120 -26 20 -76 17 -106 -7z"/>
<path d="M7985 1360 c3 -5 8 -10 11 -10 2 0 4 5 4 10 0 6 -5 10 -11 10 -5 0
-7 -4 -4 -10z"/>
<path d="M2177 1457 c-3 -8 1 -14 8 -14 7 0 11 6 8 14 -3 7 -6 13 -8 13 -2 0
-5 -6 -8 -13z"/>
<path d="M5786 7122 c-8 -14 2 -40 32 -79 36 -49 64 -130 52 -153 -23 -43 -30
-69 -16 -64 9 3 19 -9 29 -35 27 -66 39 -62 61 19 5 19 2 16 -13 -10 l-20 -35
-1 38 c0 20 -4 37 -10 37 -5 0 -10 16 -10 36 0 27 4 35 14 31 17 -7 36 34 35
76 l-1 32 -11 -27 c-6 -16 -13 -28 -16 -27 -17 3 -95 103 -106 135 -7 20 -15
32 -19 26z"/>
<path d="M5935 7115 c4 -11 10 -37 13 -57 5 -41 17 -52 18 -15 0 12 4 38 8 57
5 24 4 30 -3 21 -8 -13 -12 -13 -27 0 -16 13 -17 12 -9 -6z"/>
<path d="M8360 7098 c-47 -4 -113 -9 -147 -11 -49 -2 -63 -6 -66 -19 -3 -10
-1 -18 4 -18 16 0 10 -23 -13 -47 l-22 -24 37 -33 c35 -31 41 -51 12 -40 -7 3
-16 1 -19 -4 -3 -5 2 -12 13 -15 10 -2 21 -17 24 -35 5 -26 10 -31 34 -29 26
2 28 -1 31 -42 l3 -44 -33 5 -33 6 0 -88 -1 -88 76 -11 c41 -7 131 -23 200
-36 69 -13 126 -22 127 -21 1 1 5 121 9 267 4 181 10 266 18 271 6 4 -1 8 -16
8 -16 0 -28 -4 -28 -10 0 -12 -10 -13 -27 -2 -7 4 -10 17 -6 30 4 16 13 22 37
23 23 1 18 4 -19 9 -61 10 -86 10 -195 -2z"/>
<path d="M8648 7103 c12 -2 32 -2 45 0 12 2 2 4 -23 4 -25 0 -35 -2 -22 -4z"/>
<path d="M4610 7076 c0 -9 5 -16 10 -16 6 0 10 4 10 9 0 6 -4 13 -10 16 -5 3
-10 -1 -10 -9z"/>
<path d="M5010 7060 c0 -5 9 -10 20 -10 11 0 20 5 20 10 0 6 -9 10 -20 10 -11
0 -20 -4 -20 -10z"/>
<path d="M5066 7061 c-6 -10 13 -16 38 -12 4 1 13 -3 20 -8 7 -6 20 -4 36 4
22 13 23 14 5 15 -11 0 -36 3 -56 6 -22 4 -39 2 -43 -5z"/>
<path d="M7800 7050 c-30 -5 -89 -9 -130 -9 -74 -2 -74 -2 -42 -16 17 -8 32
-16 32 -18 0 -2 -15 -2 -32 0 l-33 3 35 -14 35 -14 -32 -1 c-29 -1 -33 -5 -33
-27 0 -14 4 -23 8 -20 5 3 15 -4 23 -16 8 -11 20 -27 27 -34 11 -12 8 -14 -20
-14 l-33 0 30 -19 c31 -18 87 -111 99 -164 4 -17 2 -35 -4 -43 -7 -7 -8 -19
-4 -25 4 -8 3 -9 -4 -5 -7 4 -12 3 -12 -2 0 -6 53 -13 118 -16 64 -4 127 -9
140 -12 19 -4 22 0 23 28 1 18 4 90 7 161 4 70 4 127 0 127 -3 0 -4 18 -1 40
5 36 3 40 -16 40 -12 0 -30 5 -40 12 -16 9 -17 16 -9 31 19 36 -15 43 -132 27z
m3 -154 c12 -8 42 -17 67 -21 78 -11 81 -13 68 -41 l-12 -25 -12 23 c-9 17
-29 27 -75 38 -34 9 -64 21 -67 28 -5 16 4 15 31 -2z"/>
<path d="M5714 6967 c3 -10 6 -39 6 -63 0 -43 1 -44 28 -38 31 8 59 30 74 59
8 15 3 13 -19 -7 -35 -34 -66 -39 -37 -7 10 11 14 19 8 17 -6 -2 -23 11 -38
27 -18 20 -26 24 -22 12z"/>
<path d="M5669 6894 c-7 -8 -25 -22 -41 -30 -17 -9 -28 -23 -28 -35 0 -17 4
-16 33 13 38 38 62 68 54 68 -2 0 -10 -7 -18 -16z"/>
<path d="M5531 6834 c0 -11 3 -14 6 -6 3 7 2 16 -1 19 -3 4 -6 -2 -5 -13z"/>
<path d="M4799 6803 c-20 -51 -16 -134 9 -176 12 -21 19 -43 16 -49 -4 -7 -2
-8 4 -4 7 4 12 3 12 -2 0 -6 14 -15 30 -21 18 -6 30 -6 30 0 0 5 -4 9 -9 9 -5
0 -18 18 -29 40 -10 22 -22 37 -25 33 -11 -11 -37 64 -37 106 0 22 4 51 10 65
5 14 7 26 5 26 -3 0 -10 -12 -16 -27z"/>
<path d="M5250 6759 c-6 -23 -9 -52 -6 -65 8 -31 46 -71 75 -79 22 -7 20 -3
-12 30 -36 37 -42 54 -38 123 2 44 -6 40 -19 -9z"/>
<path d="M5441 6754 c0 -11 3 -14 6 -6 3 7 2 16 -1 19 -3 4 -6 -2 -5 -13z"/>
<path d="M8753 6720 c0 -30 2 -43 4 -27 2 15 2 39 0 55 -2 15 -4 2 -4 -28z"/>
<path d="M4701 6703 c-1 -47 16 -78 59 -102 47 -26 66 -28 23 -1 -37 22 -63
58 -73 103 l-8 32 -1 -32z"/>
<path d="M2558 6643 c6 -2 12 -20 12 -39 0 -29 4 -35 33 -44 25 -8 9 -9 -71
-5 -59 2 -100 0 -97 -5 10 -16 -12 -20 -31 -5 -15 11 -16 14 -4 15 13 0 13 1
0 10 -22 14 -40 12 -40 -6 0 -9 -5 -12 -11 -8 -8 5 -10 -18 -7 -82 7 -150 61
-235 184 -294 89 -42 162 -48 236 -20 161 60 235 164 254 353 l7 69 -59 -6
-59 -6 55 18 c53 18 54 20 30 29 -49 20 -170 33 -307 32 -76 0 -132 -3 -125
-6z"/>
<path d="M8151 6594 c0 -11 3 -14 6 -6 3 7 2 16 -1 19 -3 4 -6 -2 -5 -13z"/>
<path d="M8753 6505 c0 -38 2 -53 4 -32 2 20 2 52 0 70 -2 17 -4 1 -4 -38z"/>
<path d="M7130 6521 c-34 -12 -45 -21 -42 -33 3 -16 -8 -23 -30 -19 -5 0 -8
-8 -8 -19 0 -26 7 -25 59 9 24 16 61 37 83 47 34 15 37 19 22 25 -25 10 -31 9
-84 -10z"/>
<path d="M8722 6470 c0 -14 2 -19 5 -12 2 6 2 18 0 25 -3 6 -5 1 -5 -13z"/>
<path d="M4767 6439 c4 -13 8 -18 11 -10 2 7 -1 18 -6 23 -8 8 -9 4 -5 -13z"/>
<path d="M3021 6414 c0 -11 3 -14 6 -6 3 7 2 16 -1 19 -3 4 -6 -2 -5 -13z"/>
<path d="M8778 6413 c7 -3 16 -2 19 1 4 3 -2 6 -13 5 -11 0 -14 -3 -6 -6z"/>
<path d="M8828 6403 c7 -3 16 -2 19 1 4 3 -2 6 -13 5 -11 0 -14 -3 -6 -6z"/>
<path d="M8950 6386 c25 -7 53 -16 63 -21 9 -4 17 -4 17 -1 0 12 -68 36 -97
35 -23 0 -19 -3 17 -13z"/>
<path d="M2991 6337 c-33 -69 -95 -128 -174 -166 -52 -25 -67 -38 -76 -63 -6
-17 -11 -35 -11 -39 0 -11 37 -12 42 -1 6 15 141 88 213 116 69 26 109 46 90
45 -5 0 -19 -4 -30 -8 -12 -5 -25 -3 -33 6 -8 7 -17 11 -20 9 -14 -8 -6 50 12
97 25 64 17 67 -13 4z"/>
<path d="M6206 6381 c-3 -5 1 -12 10 -15 30 -12 13 -101 -40 -212 -26 -54 -56
-110 -66 -124 -11 -15 -25 -46 -34 -69 l-14 -42 36 42 c55 63 57 67 96 168 37
96 63 218 53 245 -7 17 -32 22 -41 7z"/>
<path d="M8859 6363 c19 -8 45 -12 59 -8 33 8 27 11 -38 18 l-55 5 34 -15z"/>
<path d="M1230 6339 c0 -5 5 -7 10 -4 6 3 10 8 10 11 0 2 -4 4 -10 4 -5 0 -10
-5 -10 -11z"/>
<path d="M8076 6245 c-9 -26 -7 -32 5 -12 6 10 9 21 6 23 -2 3 -7 -2 -11 -11z"/>
<path d="M2614 6114 c3 -9 6 -20 6 -25 0 -5 18 -9 40 -9 25 0 40 -5 40 -12 1
-11 30 47 30 58 0 2 -27 4 -61 4 -52 0 -60 -2 -55 -16z"/>
<path d="M3069 6094 c-15 -18 -4 -44 19 -44 20 0 42 18 42 36 0 17 -48 24 -61
8z"/>
<path d="M3275 6080 c3 -5 11 -10 16 -10 6 0 7 5 4 10 -3 6 -11 10 -16 10 -6
0 -7 -4 -4 -10z"/>
<path d="M3753 6044 c-15 -15 -18 -24 -10 -27 9 -3 9 -9 0 -26 -16 -25 -16
-34 -2 -26 17 11 6 -27 -15 -52 -16 -18 -21 -20 -32 -8 -17 17 -18 29 -2 19 7
-4 8 -3 4 5 -4 6 -11 9 -15 7 -4 -3 -24 9 -45 26 -20 16 -40 28 -43 24 -4 -3
-1 -6 5 -6 24 0 11 -28 -15 -33 -16 -3 -37 -13 -48 -22 -19 -15 -17 -15 30
-10 37 5 46 4 35 -4 -12 -9 -10 -11 10 -11 14 0 57 -9 95 -20 104 -29 99 -33
91 66 -4 47 -10 93 -14 103 -6 16 -9 16 -29 -5z"/>
<path d="M3520 5985 c-20 -24 -6 -28 15 -5 10 11 13 20 8 20 -6 0 -16 -7 -23
-15z"/>
<path d="M1047 5825 c-74 -51 -86 -115 -31 -173 l36 -37 -26 36 c-36 50 -36
106 2 141 15 14 38 32 52 41 13 10 20 17 15 17 -6 0 -27 -11 -48 -25z"/>
<path d="M3902 5841 c-11 -7 -10 -10 3 -15 29 -11 45 -7 38 10 -4 11 -8 12
-13 4 -5 -8 -9 -9 -11 -1 -2 6 -10 7 -17 2z"/>
<path d="M3977 5794 c-4 -4 -7 -16 -7 -26 0 -10 -6 -18 -12 -18 -10 0 -10 -2
0 -9 8 -4 13 -19 11 -32 -1 -13 1 -31 4 -39 3 -8 7 -22 10 -31 3 -9 15 -19 27
-22 20 -5 21 -4 7 11 -10 11 -17 40 -18 77 -2 66 -11 100 -22 89z"/>
<path d="M3655 5690 c-3 -5 1 -10 10 -10 9 0 13 5 10 10 -3 6 -8 10 -10 10 -2
0 -7 -4 -10 -10z"/>
<path d="M3720 5639 c0 -5 5 -7 10 -4 6 3 10 8 10 11 0 2 -4 4 -10 4 -5 0 -10
-5 -10 -11z"/>
<path d="M3596 5542 c-8 -13 11 -35 23 -28 6 4 11 11 11 16 0 11 -28 21 -34
12z"/>
<path d="M3980 5535 c0 -8 4 -15 10 -15 5 0 7 7 4 15 -4 8 -8 15 -10 15 -2 0
-4 -7 -4 -15z"/>
<path d="M4150 5547 c0 -2 15 -14 33 -27 20 -15 27 -17 18 -6 -13 16 -51 41
-51 33z"/>
<path d="M5745 5470 c-10 -11 -16 -22 -14 -24 2 -2 12 7 22 20 22 29 17 32 -8
4z"/>
<path d="M3977 5461 c-2 -10 -1 -25 4 -32 6 -10 9 -4 9 19 0 36 -5 42 -13 13z"/>
<path d="M1294 5405 c11 -8 22 -12 25 -9 6 6 -19 24 -34 24 -5 -1 -1 -7 9 -15z"/>
<path d="M3888 5386 c-50 -12 -73 -26 -42 -26 29 0 93 20 99 30 7 11 6 11 -57
-4z"/>
<path d="M3798 5353 c7 -3 16 -2 19 1 4 3 -2 6 -13 5 -11 0 -14 -3 -6 -6z"/>
<path d="M7568 5343 c6 -2 18 -2 25 0 6 3 1 5 -13 5 -14 0 -19 -2 -12 -5z"/>
<path d="M8905 5310 c-16 -16 -25 -30 -19 -30 12 1 70 60 58 60 -6 0 -23 -13
-39 -30z"/>
<path d="M7356 5265 c4 -8 13 -15 21 -15 13 0 13 3 3 15 -7 8 -16 15 -21 15
-5 0 -6 -7 -3 -15z"/>
<path d="M5565 5244 c-15 -16 -34 -42 -42 -58 -14 -28 -14 -28 6 -14 24 17 74
88 67 95 -3 3 -17 -8 -31 -23z"/>
<path d="M7405 5251 c3 -6 22 -11 42 -11 44 0 41 5 -10 14 -27 5 -37 4 -32 -3z"/>
<path d="M7498 5243 c7 -3 16 -2 19 1 4 3 -2 6 -13 5 -11 0 -14 -3 -6 -6z"/>
<path d="M7792 5120 c0 -14 2 -19 5 -12 2 6 2 18 0 25 -3 6 -5 1 -5 -13z"/>
<path d="M6378 5048 c-9 -5 -4 -8 15 -8 15 0 27 4 27 8 0 11 -25 11 -42 0z"/>
<path d="M8830 5050 c0 -5 5 -10 11 -10 5 0 7 5 4 10 -3 6 -8 10 -11 10 -2 0
-4 -4 -4 -10z"/>
<path d="M8878 5043 c7 -3 16 -2 19 1 4 3 -2 6 -13 5 -11 0 -14 -3 -6 -6z"/>
<path d="M7878 5013 c7 -3 16 -2 19 1 4 3 -2 6 -13 5 -11 0 -14 -3 -6 -6z"/>
<path d="M8838 4973 c6 -2 18 -2 25 0 6 3 1 5 -13 5 -14 0 -19 -2 -12 -5z"/>
<path d="M5025 4838 c11 -6 37 -24 58 -41 l38 -29 54 38 c53 36 69 57 26 35
-11 -6 -33 -13 -48 -15 -15 -2 -32 -5 -38 -7 -5 -1 -27 5 -49 14 -43 19 -72
23 -41 5z"/>
</g>
</svg>
