<?xml version="1.0" standalone="no"?>
<!DOCTYPE svg PUBLIC "-//W3C//DTD SVG 20010904//EN"
 "http://www.w3.org/TR/2001/REC-SVG-20010904/DTD/svg10.dtd">
<svg version="1.0" xmlns="http://www.w3.org/2000/svg"
 width="1024.000000pt" height="1024.000000pt" viewBox="0 0 1024.000000 1024.000000"
 preserveAspectRatio="xMidYMid meet">

<g transform="translate(0.000000,1024.000000) scale(0.100000,-0.100000)"
fill="#000000" stroke="none">
<path d="M0 6181 l0 -4059 156 -161 c86 -89 154 -161 152 -161 -6 0 -230 228
-276 280 l-31 35 -1 -1057 0 -1058 5120 0 5120 0 0 5120 0 5120 -5120 0 -5120
0 0 -4059z m8400 3812 c0 -27 -14 -37 -29 -20 -8 10 -7 21 2 40 13 28 27 18
27 -20z m-5406 -36 c28 -24 56 -46 63 -48 13 -4 261 -214 405 -342 72 -64 87
-82 77 -93 -9 -11 -15 -12 -28 -2 -122 94 -471 396 -471 408 0 5 -26 33 -57
64 -69 66 -62 74 11 13z m-74 -280 c41 -33 100 -80 130 -106 30 -25 57 -47 59
-48 2 -2 2 -6 -2 -9 -7 -7 -49 25 -193 146 -56 47 -155 127 -221 177 -65 51
-132 107 -149 124 -25 28 156 -110 376 -284z m5037 101 c-2 -35 -3 -7 -3 62 0
69 1 97 3 63 2 -35 2 -91 0 -125z m2019 95 c-11 -11 -19 6 -11 24 8 17 8 17
12 0 3 -10 2 -21 -1 -24z m-5726 -137 c-13 -13 -35 7 -25 24 5 8 11 8 21 -1
10 -8 12 -15 4 -23z m3565 -16 c-3 -5 -11 -10 -16 -10 -6 0 -7 5 -4 10 3 6 11
10 16 10 6 0 7 -4 4 -10z m825 -15 c0 -2 -13 -11 -30 -20 -38 -19 -40 -11 -2
9 31 17 32 18 32 11z m156 -10 c-11 -8 -28 -15 -38 -15 -10 0 -46 -14 -79 -31
-34 -17 -63 -28 -66 -25 -9 8 150 85 177 85 24 0 24 0 6 -14z m-7609 -1567
c-1 -288 -2 -53 -2 522 0 575 1 810 2 523 2 -288 2 -758 0 -1045z m8489 1526
c-3 -8 -2 -12 4 -9 12 8 12 3 1 -28 -10 -26 -45 -44 -276 -147 -71 -32 -159
-72 -194 -89 -36 -17 -65 -31 -66 -31 0 0 -2 21 -2 46 l-2 46 77 35 c42 19
151 66 242 104 91 39 172 74 180 79 24 14 43 12 36 -6z m-1091 -50 c-24 -18
-290 -154 -302 -154 -13 0 46 34 183 104 130 67 155 77 119 50z m-6963 -59
c51 -30 112 -66 136 -80 24 -14 40 -29 37 -35 -3 -5 -21 1 -39 13 -19 12 -47
30 -62 39 -16 10 -60 38 -99 63 -70 46 -114 56 -133 32 -8 -9 -12 -193 -14
-598 -1 -321 -5 -678 -8 -794 -3 -115 -4 150 -2 590 3 504 8 805 15 813 21 26
75 13 169 -43z m6247 22 c-2 -1 -15 -11 -29 -22 l-25 -20 19 23 c11 12 24 22
29 22 6 0 8 -1 6 -3z m-2791 -41 c-2 0 -30 -26 -62 -56 l-59 -55 54 62 c29 34
57 59 62 56 5 -3 7 -6 5 -7z m-2578 -57 l25 -21 -33 19 c-19 10 -39 24 -45 32
-10 12 -9 12 8 3 11 -6 31 -21 45 -33z m76 -50 c3 -6 -5 -3 -20 6 -14 10 -26
19 -26 22 0 7 39 -17 46 -28z m4150 -6 c-8 -15 -15 -22 -16 -15 0 17 20 55 27
49 2 -3 -2 -18 -11 -34z m-4693 -111 c117 -71 419 -254 672 -407 253 -153 513
-310 578 -349 169 -102 160 -76 152 -463 -4 -170 -9 -310 -11 -313 -3 -2 -4
141 -3 318 1 357 1 359 -63 381 l-32 11 32 -33 c18 -18 32 -43 32 -56 0 -22
-1 -23 -22 -9 -25 16 -69 88 -62 99 8 14 -237 179 -433 291 -27 15 -169 102
-318 193 -148 91 -377 229 -507 307 -207 124 -256 158 -233 158 3 0 101 -58
218 -128z m3002 66 c-32 -35 -62 -67 -67 -72 -4 -6 -8 -6 -8 -2 0 8 120 136
128 136 3 0 -21 -28 -53 -62z m-4417 -143 c152 -85 161 -92 162 -120 0 -59 -9
-58 -125 7 -61 33 -155 86 -210 116 -194 107 -201 114 -175 163 12 21 8 23
348 -166z m2122 79 c0 -3 -20 9 -45 26 -25 17 -45 33 -45 36 0 3 20 -9 45 -26
25 -17 45 -33 45 -36z m6183 -29 c-24 -46 -47 -86 -51 -89 -4 -2 -18 4 -31 15
l-23 19 41 70 c38 64 45 70 75 70 l33 0 -44 -85z m-2322 47 c-5 -10 -18 -25
-27 -33 -16 -12 -17 -12 -9 1 10 18 37 50 42 50 2 0 -1 -8 -6 -18z m967 2 c-3
-3 -52 -10 -108 -15 -248 -23 -693 -145 -890 -244 -47 -23 -114 -55 -150 -70
-106 -44 -466 -242 -457 -252 3 -2 72 29 154 70 135 68 195 93 216 89 4 -1 7
3 7 9 0 8 5 8 15 -1 12 -10 15 -10 15 3 0 18 35 40 52 35 6 -2 4 -10 -6 -20
-26 -27 -19 -29 22 -6 40 23 82 65 82 82 0 6 4 5 9 -2 7 -11 11 -11 22 0 12
12 61 15 124 8 20 -2 80 12 127 31 29 11 60 17 76 13 22 -5 24 -3 12 6 -12 10
-11 11 8 7 13 -3 83 8 155 24 240 54 397 72 652 73 254 1 280 -3 335 -57 67
-65 75 -98 74 -317 -1 -280 -42 -507 -146 -810 -94 -272 -218 -540 -373 -805
-102 -174 -119 -195 -155 -195 -37 0 -70 -52 -52 -81 13 -20 -12 -56 -149
-214 -121 -139 -132 -149 -167 -142 -20 4 -29 2 -29 -6 1 -7 -3 -30 -7 -52
-15 -70 -15 -71 -581 -595 -110 -101 -254 -236 -320 -300 -275 -263 -357 -340
-359 -340 -1 0 -54 -50 -117 -111 -63 -61 -117 -114 -122 -117 -4 -4 -58 -61
-120 -127 -61 -66 -145 -151 -184 -189 -40 -38 -73 -74 -73 -80 -1 -17 -320
-327 -320 -310 0 3 -30 -25 -67 -63 -38 -37 -100 -94 -140 -126 -46 -38 -70
-64 -66 -73 3 -8 0 -14 -5 -14 -6 0 -18 -7 -26 -16 -12 -11 -16 -12 -16 -2 0
7 -7 2 -16 -10 -8 -12 -22 -22 -29 -22 -8 0 -22 -11 -31 -25 -9 -13 -24 -27
-35 -30 -10 -4 -22 -17 -25 -29 -3 -13 -16 -29 -28 -36 -13 -6 -23 -17 -22
-24 0 -6 -3 -12 -8 -13 -5 -1 -13 -7 -17 -15 -7 -10 -9 -10 -9 0 0 19 -29 14
-42 -8 -7 -11 -18 -20 -25 -20 -7 0 -13 -4 -13 -9 0 -14 -60 -74 -67 -67 -3 3
-29 -15 -58 -42 -28 -26 -75 -66 -104 -90 -70 -59 -86 -84 -71 -112 17 -32 0
-44 -35 -26 -16 8 -32 13 -37 10 -4 -3 -8 -1 -8 5 0 5 5 13 10 16 5 3 10 13
10 22 0 14 -2 14 -17 1 -10 -8 -25 -19 -33 -23 -24 -13 35 50 163 174 65 63
123 124 129 135 11 20 10 20 -8 6 -43 -32 -63 -53 -59 -61 3 -4 1 -10 -4 -13
-5 -3 -12 1 -15 9 -5 13 -10 12 -30 -6 -14 -12 -23 -27 -19 -32 3 -6 1 -7 -4
-4 -16 10 -38 -9 -343 -282 -142 -128 -177 -161 -302 -281 -59 -57 -113 -107
-120 -112 -20 -12 -58 -9 -58 4 0 7 116 130 258 273 290 294 388 397 385 406
-1 4 7 15 17 24 38 34 20 37 -22 3 -50 -39 -97 -66 -79 -45 6 8 9 16 6 19 -8
8 176 178 187 172 11 -7 40 15 33 26 -8 14 102 120 146 140 24 11 40 20 34 20
-5 0 9 19 30 42 22 23 30 34 18 24 -38 -31 -26 -1 12 33 38 33 56 41 35 16
-11 -13 -10 -14 3 -9 9 3 15 14 14 25 -1 12 37 59 108 131 60 62 87 92 60 67
-28 -25 -72 -63 -100 -85 -27 -21 -87 -74 -133 -117 -46 -44 -86 -76 -90 -72
-3 3 -2 9 3 13 6 4 28 27 50 52 40 44 28 40 -30 -9 -26 -23 -25 -22 6 14 19
22 66 70 104 108 38 37 64 67 57 67 -7 0 -10 5 -7 10 4 6 11 7 17 4 7 -4 8 -2
4 5 -8 13 -14 10 -65 -34 -14 -11 -21 -14 -16 -5 5 8 -11 -3 -36 -25 -24 -22
-43 -43 -41 -48 1 -5 -1 -6 -6 -3 -5 3 -44 -27 -88 -67 -111 -101 -184 -160
-189 -155 -3 2 73 82 168 178 94 95 166 170 160 166 -7 -4 -13 -2 -13 4 0 12
-59 -28 -113 -77 -18 -15 -92 -82 -165 -148 -73 -66 -163 -146 -200 -178 -37
-31 -91 -83 -120 -114 -28 -31 -55 -53 -60 -49 -4 4 2 14 13 22 11 8 88 81
170 162 83 81 176 171 209 200 39 35 55 57 49 63 -13 13 -113 -62 -242 -180
-52 -47 -122 -111 -157 -141 -181 -158 -276 -244 -493 -445 -589 -547 -570
-509 52 105 242 239 448 444 456 454 40 50 129 136 139 136 7 0 12 5 12 11 0
6 36 50 81 97 103 112 114 124 124 142 9 15 -154 -130 -190 -170 -11 -12 -33
-32 -50 -43 -43 -30 32 49 271 284 222 220 351 335 362 325 3 -4 -36 -48 -88
-98 -52 -50 -75 -76 -51 -57 24 19 58 49 75 67 17 19 46 40 65 48 18 8 51 30
72 49 33 30 42 33 69 25 19 -5 28 -5 25 1 -9 14 15 11 70 -10 52 -20 115 -33
115 -24 0 3 -10 14 -22 25 l-23 20 25 -7 c62 -15 93 -18 87 -8 -11 18 33 23
67 8 66 -29 139 -45 226 -52 58 -4 90 -2 90 4 0 6 -60 30 -132 53 -126 41
-169 60 -138 60 7 0 25 14 40 30 18 20 33 28 44 24 21 -8 21 -40 -1 -53 -17
-10 -17 -12 1 -25 10 -8 40 -19 66 -25 59 -13 105 6 165 68 24 25 55 46 79 52
52 14 32 26 -51 31 -58 2 -62 1 -102 -35 -42 -38 -80 -47 -99 -24 -9 11 -2 42
9 37 6 -3 62 23 75 35 8 6 5 14 -10 26 -21 17 -21 17 7 12 43 -8 32 4 -20 22
-27 8 -61 27 -78 41 l-30 25 55 -24 c181 -80 355 -114 485 -96 92 12 106 19
134 58 l21 29 -113 0 c-143 0 -279 30 -333 73 -20 16 -34 29 -30 29 11 0 50
-22 57 -31 17 -27 108 5 109 38 0 6 -29 26 -65 44 -36 17 -64 34 -61 36 2 2
46 -14 97 -35 126 -54 208 -74 306 -76 70 -1 85 2 112 22 16 12 41 22 55 22
22 0 36 16 36 41 0 5 -25 9 -56 9 -151 0 -385 88 -581 218 -58 38 -72 55 -20
24 103 -61 212 -113 287 -137 47 -15 101 -33 120 -40 51 -19 135 -30 126 -17
-3 5 35 50 86 99 50 48 119 115 153 148 83 81 322 296 350 315 13 8 97 84 188
168 92 85 178 163 192 174 15 11 57 49 93 84 l67 62 -24 26 c-13 14 -45 33
-70 42 -62 23 -73 33 -65 57 5 16 -3 30 -37 60 l-44 39 45 -26 c92 -54 286
-146 320 -152 l35 -5 -29 24 c-16 14 -25 30 -22 36 12 19 67 43 87 38 39 -10
17 5 -59 41 -89 42 -205 112 -199 119 3 2 31 -10 63 -28 38 -21 54 -27 45 -15
-13 15 -11 20 13 43 24 22 31 24 52 14 30 -13 37 -14 29 -2 -7 12 29 33 39 24
13 -13 5 -43 -11 -43 -15 0 -16 -2 -3 -10 12 -8 11 -10 -7 -10 -13 0 -32 -9
-43 -20 -11 -11 -26 -17 -35 -14 -27 11 -16 -5 16 -21 21 -12 43 -14 75 -9 48
7 61 18 46 37 -6 7 -6 21 -1 35 10 27 37 28 103 6 59 -20 68 -13 21 19 -25 17
-32 26 -22 30 22 8 76 93 79 124 3 24 -1 28 -40 37 -46 12 -74 42 -52 56 8 5
-16 27 -71 63 -46 30 -97 69 -114 87 -22 23 -2 13 75 -38 111 -72 240 -145
278 -157 19 -6 22 -3 22 23 0 32 17 42 78 42 17 0 32 4 32 10 0 5 -32 25 -72
45 -67 34 -178 103 -178 110 0 7 114 -47 142 -67 14 -10 30 -18 35 -18 4 0 1
5 -7 11 -12 9 -11 9 5 4 41 -15 68 -18 61 -7 -4 6 5 34 19 61 14 28 25 55 25
61 0 6 28 59 63 118 93 157 146 254 202 369 27 56 51 101 53 99 2 -2 -6 -24
-17 -49 -22 -48 -28 -75 -10 -44 6 9 14 15 18 12 13 -8 34 23 96 140 67 128
91 189 72 183 -15 -5 -82 -128 -98 -180 -7 -21 -16 -38 -20 -38 -10 0 33 123
66 188 15 29 31 81 36 115 5 34 11 71 13 82 18 105 18 104 -3 50 -34 -91 -69
-162 -117 -242 -26 -43 -75 -136 -109 -208 -63 -130 -134 -251 -135 -228 0 25
34 100 76 163 25 38 55 106 74 164 17 54 48 138 69 185 21 47 47 109 57 136 9
28 21 55 26 61 4 6 19 41 33 78 14 36 40 97 59 134 19 37 40 97 47 132 6 36
19 78 27 95 21 42 28 205 9 205 -20 0 -32 -17 -47 -65 -25 -78 -100 -209 -169
-295 -46 -57 -13 37 50 142 29 47 39 73 34 88 -4 13 2 36 19 65 29 49 33 83
11 91 -23 9 -55 -2 -120 -42 -41 -25 -71 -37 -95 -36 -38 1 -281 -112 -333
-155 -15 -12 -46 -27 -67 -33 -22 -6 -55 -26 -75 -44 -20 -19 -42 -37 -50 -40
-8 -3 -48 -28 -90 -56 -41 -27 -77 -50 -81 -50 -4 0 -31 -16 -61 -36 -49 -32
-54 -39 -48 -63 4 -14 4 -23 0 -19 -11 11 -41 -24 -49 -54 -3 -16 -13 -28 -21
-28 -9 0 -12 6 -8 17 5 13 -1 12 -35 -7 -35 -20 -41 -27 -36 -47 4 -14 2 -23
-5 -23 -6 0 -11 9 -11 20 0 11 -4 20 -10 20 -5 0 -10 -4 -10 -9 0 -5 -16 -15
-35 -21 -33 -11 -39 -19 -36 -47 1 -7 -13 -10 -41 -8 -24 2 -37 2 -30 -1 14
-7 17 -64 2 -64 -5 0 -10 9 -10 19 0 22 -20 40 -21 19 0 -10 -2 -10 -6 -1 -7
18 -49 -12 -56 -38 -3 -13 -10 -18 -17 -14 -7 4 -14 -2 -17 -14 -3 -12 -16
-24 -32 -27 -47 -10 -51 -13 -51 -35 0 -12 14 -45 31 -72 28 -45 35 -63 38
-89 1 -4 25 -35 54 -70 28 -34 63 -77 77 -95 14 -18 56 -66 94 -108 38 -41 66
-78 63 -81 -6 -6 -253 265 -361 397 -168 204 -214 264 -258 336 l-48 77 1 -53
c1 -36 7 -58 19 -69 10 -10 21 -28 25 -42 4 -14 22 -43 40 -65 18 -22 45 -62
60 -88 26 -45 26 -49 10 -66 -13 -16 -15 -26 -7 -55 17 -59 154 -229 336 -415
134 -138 86 -104 -73 52 -63 61 -109 102 -102 89 6 -12 9 -22 5 -22 -3 0 -47
40 -97 88 -98 94 -130 117 -153 108 -17 -6 -11 -47 13 -84 7 -12 12 -26 9 -31
-5 -8 31 -68 74 -123 46 -59 10 -24 -56 54 -38 45 -104 122 -146 171 -43 48
-108 139 -145 202 -66 113 -92 142 -78 88 7 -29 138 -228 164 -251 9 -8 10
-11 4 -7 -7 3 -13 3 -13 0 0 -14 64 -141 97 -192 18 -29 37 -63 42 -75 11 -29
61 -96 170 -229 47 -56 79 -99 72 -94 -8 4 -90 83 -183 174 -167 164 -208 196
-208 165 0 -37 116 -203 229 -329 l36 -40 -43 40 c-147 135 -352 419 -496 688
-73 136 -80 145 -93 127 -9 -13 -11 -26 -5 -37 14 -28 22 -93 11 -94 -5 -1
-15 -2 -21 -3 -7 -1 -12 -10 -10 -21 5 -28 49 -125 57 -125 4 0 5 18 3 40 -4
45 -2 46 47 26 24 -11 36 -23 40 -43 3 -15 29 -72 56 -126 28 -54 48 -101 45
-105 -4 -3 -19 6 -34 20 -15 14 -38 29 -51 33 l-24 7 23 -38 c81 -134 267
-372 420 -539 30 -34 38 -45 16 -25 -21 19 -98 101 -172 181 -131 142 -160
167 -198 173 -10 1 -35 19 -57 39 -57 54 -61 51 -62 -40 0 -12 -4 -20 -8 -17
-19 12 -7 -16 32 -71 22 -31 38 -59 36 -62 -3 -2 -19 18 -36 44 -67 102 -80
109 -125 68 -15 -14 -33 -25 -41 -25 -8 0 -19 -9 -25 -21 -7 -11 -14 -18 -17
-15 -3 3 -1 11 5 18 7 9 6 19 -5 33 -9 12 -13 14 -11 5 3 -8 -1 -30 -9 -48
-10 -25 -11 -37 -2 -53 9 -17 8 -20 -2 -14 -9 6 -10 3 -5 -11 5 -14 4 -16 -4
-8 -6 6 -12 18 -13 25 -4 22 -17 39 -30 39 -7 0 -6 -4 3 -10 13 -8 13 -10 -2
-10 -9 0 -18 5 -20 12 -2 6 -10 8 -16 4 -18 -11 -15 -26 5 -26 13 0 14 -3 5
-12 -9 -9 -16 -8 -30 5 -23 21 -32 21 -32 0 0 -17 -95 -124 -103 -116 -3 2
-44 -42 -92 -99 -48 -57 -96 -110 -106 -119 -10 -9 -19 -23 -21 -30 -2 -7 -9
-20 -16 -28 -7 -7 -11 -20 -8 -28 3 -8 2 -11 -3 -8 -5 3 -12 1 -16 -5 -9 -15
-28 -12 -19 3 4 7 3 9 -2 4 -5 -5 -9 -12 -9 -15 0 -4 -4 -13 -8 -19 -6 -9 -2
-13 10 -13 20 0 -190 -210 -276 -275 -29 -22 -72 -57 -96 -77 -42 -38 -84 -50
-86 -25 0 8 -2 9 -5 0 -6 -13 30 -86 76 -160 34 -53 38 -72 13 -52 -16 12 -15
10 1 -16 32 -51 78 -106 84 -100 7 6 42 -25 42 -37 0 -5 -6 -6 -12 -2 -15 9
97 -113 126 -138 12 -10 16 -18 9 -18 -17 0 -221 221 -308 335 -184 239 -296
467 -326 663 l-13 82 -16 -29 c-8 -17 -19 -31 -25 -32 -5 -2 -18 -13 -29 -27
-16 -20 -18 -35 -13 -100 10 -131 78 -289 231 -537 68 -110 218 -306 305 -400
25 -27 6 -11 -44 35 -49 46 -100 97 -111 112 -35 46 -124 138 -135 138 -5 0
-19 11 -30 24 -22 26 -49 25 -49 -1 0 -13 -2 -13 -17 -2 -15 13 -15 12 0 -16
8 -16 23 -39 32 -50 9 -11 13 -14 9 -6 -5 9 -3 12 5 7 6 -4 9 -12 5 -17 -3 -6
12 -33 33 -62 72 -96 89 -127 41 -73 -80 91 -167 220 -237 356 -77 151 -112
242 -132 345 -11 58 -14 65 -19 40 -4 -23 -12 -31 -39 -39 l-34 -10 6 -70 c9
-105 73 -275 166 -444 67 -121 182 -275 344 -457 l80 -90 -87 85 c-89 86 -153
159 -248 283 -49 63 -55 67 -93 67 -34 0 -45 -6 -77 -41 -37 -40 -39 -41 -57
-25 -19 17 -20 17 -23 -5 -2 -17 -12 -6 -46 53 -43 76 -101 260 -102 323 -1
29 -1 29 -15 11 -15 -19 -15 -19 -16 5 -1 22 -1 22 -10 -6 -12 -38 5 -183 28
-248 16 -45 16 -49 0 -76 -9 -16 -17 -37 -17 -46 0 -14 -3 -15 -15 -5 -20 17
-45 -3 -45 -37 0 -25 55 -149 71 -159 12 -7 11 3 -6 60 -19 63 -20 59 11 95
36 44 46 39 42 -19 -1 -28 -1 -50 2 -50 3 0 15 -3 27 -6 15 -4 22 -1 25 13 3
16 8 14 36 -14 18 -17 32 -39 32 -47 0 -15 -5 -18 -40 -20 -8 -1 -19 -16 -24
-35 -5 -19 -19 -38 -33 -44 -27 -12 -29 -20 -8 -37 8 -7 15 -17 15 -22 0 -5 9
-21 19 -36 11 -15 23 -43 26 -62 l7 -35 -21 19 c-17 15 -23 16 -36 6 -8 -7
-21 -10 -29 -7 -8 3 -23 -5 -35 -17 -25 -26 -26 -36 -6 -36 17 0 10 -53 -12
-85 -17 -25 -17 -28 5 -53 14 -15 22 -18 36 -10 16 9 17 8 6 -12 -10 -20 -10
-21 8 -11 11 6 22 8 24 5 3 -2 11 4 19 13 13 17 13 17 -6 3 -19 -14 -19 -14
-6 2 7 10 17 15 23 12 5 -3 15 0 23 6 29 24 14 -5 -22 -44 -21 -23 -26 -30
-10 -16 34 30 64 33 89 8 15 -15 29 -18 62 -14 24 2 53 10 65 18 19 11 24 11
36 -6 13 -17 12 -22 -10 -48 -14 -16 -25 -33 -25 -38 0 -5 14 -24 30 -42 17
-18 30 -38 30 -45 0 -8 14 -13 39 -13 22 0 43 -5 47 -11 3 -6 -11 -28 -32 -50
-42 -43 -41 -63 2 -30 46 36 50 23 6 -22 -39 -40 -55 -66 -32 -52 32 20 -13
-48 -82 -123 -36 -39 -15 -32 34 11 125 111 148 128 148 110 0 -18 -168 -182
-299 -293 -30 -25 -88 -80 -131 -122 -42 -43 -80 -78 -84 -78 -4 0 15 26 43
58 28 31 45 59 39 61 -6 2 -15 -3 -19 -12 -5 -8 -20 -18 -34 -21 -14 -4 -25
-11 -25 -17 0 -6 -4 -8 -10 -4 -5 3 -6 13 -3 21 3 9 -19 -9 -51 -40 -31 -31
-63 -56 -71 -56 -8 0 -19 -9 -25 -20 -6 -11 -16 -20 -22 -20 -7 0 -22 -10 -35
-22 -17 -16 -23 -18 -23 -7 0 9 41 55 92 102 50 48 89 90 86 93 -3 3 -25 -14
-48 -38 -35 -35 -42 -39 -37 -20 l5 23 -31 -26 c-18 -14 -44 -34 -59 -43 -16
-9 -28 -20 -28 -24 0 -15 16 -7 53 27 45 41 53 44 32 11 -21 -32 -64 -59 -93
-61 -13 0 -26 -6 -30 -12 -4 -6 -23 -17 -42 -26 -31 -13 -73 -47 -230 -187
-25 -22 -59 -49 -75 -59 -30 -18 -155 -126 -166 -144 -4 -5 -12 -6 -19 -2 -9
5 -11 4 -6 -3 4 -7 2 -12 -4 -12 -6 0 -13 -8 -17 -17 -8 -25 -64 -83 -80 -83
-27 0 -11 28 53 90 37 36 64 59 60 53 -4 -7 -4 -13 -1 -13 7 0 35 26 35 33 0
3 36 40 80 82 44 43 77 82 74 87 -7 10 14 38 28 38 6 0 5 -7 -2 -15 -10 -12
-10 -15 0 -15 6 0 14 8 17 19 2 10 25 35 49 55 25 21 41 42 38 48 -4 6 -3 8 3
5 6 -4 16 -1 22 7 17 20 -27 30 -46 10 -8 -8 -20 -14 -26 -15 -51 -5 -87 -19
-87 -34 0 -7 -12 -15 -27 -18 -16 -3 -66 -41 -112 -84 -46 -43 -99 -89 -117
-103 -17 -14 -61 -50 -96 -81 -34 -30 -79 -65 -99 -77 -37 -23 -123 -110 -124
-127 -1 -5 -6 -9 -12 -8 -6 1 -25 -10 -43 -25 -17 -15 -41 -27 -54 -27 l-24
-1 25 33 c14 18 32 33 39 33 8 0 14 5 14 10 0 12 -22 -9 272 268 137 129 235
229 232 236 -3 7 14 30 38 52 24 21 42 42 40 47 -1 5 2 6 7 2 6 -3 39 29 75
71 52 60 63 79 53 89 -10 10 -18 8 -43 -14 -18 -14 -34 -34 -37 -44 -3 -11
-11 -15 -21 -11 -9 3 -13 10 -10 15 3 5 0 9 -5 9 -6 0 -11 -4 -11 -8 0 -4 -57
-59 -126 -122 -69 -63 -146 -134 -171 -158 -25 -24 -47 -41 -50 -38 -3 3 36
47 88 98 51 51 93 96 92 99 -1 4 5 6 15 5 12 -1 16 6 14 22 -1 16 2 22 10 19
13 -4 109 89 138 134 24 37 86 99 98 99 11 0 13 4 12 25 -1 9 30 65 36 65 3 0
2 -5 -2 -12 -4 -7 -3 -8 4 -4 7 4 12 14 12 22 0 9 7 14 17 12 18 -3 63 32 63
50 0 6 -6 13 -12 15 -7 3 -2 6 12 6 21 1 22 3 10 12 -12 9 -11 10 8 6 15 -4
22 0 22 10 0 8 -5 11 -12 7 -7 -4 -6 1 3 12 9 10 14 25 12 32 -3 7 4 12 16 12
22 0 37 16 20 22 -6 2 6 20 25 40 39 40 48 65 19 49 -26 -14 -315 -270 -332
-293 -7 -11 -20 -17 -28 -14 -9 4 -17 -1 -20 -14 -3 -11 -9 -18 -13 -15 -4 2
-22 -12 -41 -31 -19 -20 -43 -40 -54 -46 -31 -16 64 79 120 120 68 51 138 120
131 131 -3 5 2 15 12 22 16 13 16 13 2 -6 -14 -19 -14 -19 3 -6 9 8 15 16 12
19 -8 9 16 32 34 32 9 0 37 20 61 45 l45 46 -40 -6 c-22 -4 -44 -12 -50 -20
-5 -7 -16 -22 -23 -32 -9 -13 -24 -18 -44 -17 -39 3 -41 7 -18 32 27 29 6 28
-23 0 -50 -50 -123 -105 -139 -105 -17 0 -99 -49 -161 -97 -22 -16 -55 -40
-75 -54 -21 -13 -59 -40 -87 -60 l-50 -35 60 61 c33 34 55 62 50 62 -6 0 -70
-51 -144 -114 -73 -62 -148 -121 -165 -132 l-31 -18 34 40 c19 21 87 89 152
149 117 109 207 205 194 205 -4 0 -15 -8 -24 -18 -9 -9 -45 -41 -81 -71 -36
-29 -126 -110 -200 -180 -140 -132 -370 -332 -335 -291 18 21 388 371 509 482
46 42 49 46 26 45 -22 0 -74 -38 -155 -110 -11 -10 -41 -35 -66 -55 -25 -20
-124 -104 -221 -187 -97 -82 -209 -177 -249 -210 -40 -33 -87 -74 -104 -90
-16 -17 -55 -51 -85 -75 -62 -49 -107 -89 -234 -205 -101 -92 -123 -105 -137
-84 -7 11 25 45 129 144 75 71 281 272 457 446 176 174 351 345 389 380 39 35
99 95 135 134 37 38 80 82 96 99 17 16 30 32 30 37 0 4 3 10 6 14 4 3 5 15 2
25 -5 18 -10 16 -52 -17 -25 -20 -71 -60 -101 -88 -96 -89 -99 -83 -5 11 50
49 144 137 209 194 115 102 179 170 159 170 -6 0 -46 -33 -91 -72 -115 -104
-241 -212 -260 -222 -10 -5 12 17 48 50 36 32 122 114 191 181 105 103 126
129 126 153 0 34 6 37 -97 -50 -80 -67 -69 -55 152 184 120 128 174 193 165
198 -7 4 -15 0 -19 -10 -4 -11 -7 -12 -7 -3 -1 7 -38 -23 -83 -67 -46 -44
-119 -109 -164 -144 -44 -35 -87 -69 -95 -75 -7 -7 -39 -33 -69 -58 -30 -25
-61 -57 -68 -70 -13 -26 -28 -32 -34 -14 -2 6 -36 -19 -75 -55 -39 -36 -74
-66 -78 -66 -11 0 -203 -161 -308 -259 -54 -50 -101 -91 -104 -91 -3 0 3 12
12 28 l18 27 -24 -21 c-13 -11 -62 -54 -109 -95 -47 -41 -125 -108 -175 -149
-49 -41 -98 -80 -107 -88 -9 -8 -22 -12 -28 -10 -7 2 23 31 65 63 91 71 181
162 179 181 -1 8 2 12 6 9 9 -6 75 60 75 74 0 5 4 13 9 18 6 5 6 2 1 -7 -5 -8
101 94 236 226 134 132 311 305 393 383 82 79 162 162 176 184 15 23 73 86
128 139 165 159 117 154 -56 -6 -194 -177 -297 -272 -372 -343 -42 -40 -81
-73 -86 -73 -13 0 154 166 369 367 103 97 187 179 187 183 0 3 -29 14 -65 22
l-65 16 -40 -39 c-52 -50 -66 -51 -17 -1 39 40 39 52 0 52 -16 0 -51 -24 -101
-69 -42 -38 -132 -118 -198 -177 -67 -60 -209 -188 -315 -285 -107 -96 -255
-229 -329 -295 -74 -66 -160 -144 -190 -174 -31 -30 -98 -93 -150 -139 -52
-47 -97 -88 -100 -91 -3 -4 -43 -40 -90 -80 -47 -39 -90 -78 -95 -85 -6 -7
-33 -32 -61 -56 -28 -24 -89 -78 -135 -118 -46 -41 -3 4 96 100 99 96 234 224
299 285 66 60 145 133 175 163 31 30 80 72 109 94 28 22 52 43 52 47 0 4 16
18 34 31 34 24 222 198 376 347 115 112 142 138 325 305 94 85 187 169 207
185 l38 30 -43 11 c-23 6 -94 23 -157 37 -390 89 -923 215 -937 223 -6 3 -25
25 -42 48 l-31 43 0 742 c0 408 2 739 4 737 2 -2 6 -336 9 -742 l5 -737 23
-35 c13 -20 35 -38 49 -41 14 -3 52 -14 85 -24 33 -10 82 -18 108 -19 27 0 60
-7 75 -15 15 -7 68 -24 117 -36 196 -49 334 -81 425 -100 52 -11 141 -32 196
-45 56 -14 110 -25 119 -25 15 0 213 180 223 202 2 5 -6 8 -17 8 -12 0 -21 5
-21 10 0 6 7 10 15 10 8 0 15 5 15 11 0 5 -4 7 -10 4 -5 -3 -10 -2 -10 4 0 5
5 13 10 16 6 3 10 3 10 -2 0 -4 17 -8 38 -8 32 0 48 9 97 53 32 28 64 52 69
52 6 0 4 5 -4 10 -13 8 -12 11 5 25 17 14 17 16 3 11 -12 -3 -18 0 -18 9 0 18
2 18 34 4 23 -11 31 -7 93 48 37 32 88 74 113 93 l45 35 -30 -35 c-16 -20 -56
-58 -87 -85 -32 -28 -57 -56 -58 -62 0 -19 3 -17 52 30 25 23 82 77 126 119
l82 77 0 542 c0 298 2 540 6 537 3 -3 5 -234 5 -513 -1 -279 2 -517 5 -529 5
-20 13 -14 87 59 45 44 98 91 117 104 19 13 -20 -32 -87 -100 -117 -118 -123
-126 -123 -165 0 -22 3 -44 6 -47 4 -4 29 16 56 44 51 53 70 58 49 13 -14 -32
-9 -41 12 -19 9 8 20 15 26 15 6 0 8 8 4 18 -4 12 1 10 15 -7 12 -13 22 -21
22 -18 0 18 3 24 22 45 23 24 44 30 32 10 -5 -10 -4 -10 6 -1 13 12 20 31 22
61 1 6 8 12 15 12 8 0 11 5 7 12 -4 6 -3 8 3 5 5 -3 21 5 36 19 14 13 30 24
34 24 4 1 35 28 68 61 50 50 61 57 67 42 3 -10 7 -13 7 -6 1 7 27 29 59 49 56
37 437 407 437 425 0 5 5 10 10 11 6 2 21 18 33 37 19 28 22 39 13 58 -7 14
-7 23 -1 23 6 0 10 -4 10 -10 0 -22 40 -8 60 20 12 17 25 28 30 25 8 -5 25 13
25 27 0 13 77 88 84 84 11 -7 81 53 81 70 0 7 9 19 20 26 11 7 20 16 20 21 0
11 50 57 62 57 14 0 38 27 31 34 -3 3 2 8 11 12 11 4 15 13 10 26 -5 17 -3 18
14 9 15 -8 23 -8 28 1 5 7 3 8 -6 3 -8 -5 -11 -3 -8 6 3 8 12 13 20 11 9 -1
18 4 22 13 3 8 1 15 -4 15 -6 0 -10 -6 -10 -12 0 -9 -3 -8 -10 2 -7 11 -5 17
8 22 10 4 11 7 4 7 -8 1 -10 6 -6 14 5 8 2 7 -9 -2 -11 -8 -15 -21 -12 -32 5
-13 1 -19 -10 -19 -9 0 -13 5 -10 10 3 6 2 10 -3 10 -5 0 -35 -27 -65 -60 -31
-33 -59 -60 -63 -60 -4 0 -44 -31 -89 -70 -77 -65 -105 -84 -90 -60 3 5 8 18
10 28 2 10 18 34 37 53 45 48 87 98 99 121 7 14 6 18 -6 18 -8 0 -15 4 -15 9
0 5 8 7 18 4 12 -3 31 10 58 39 22 24 60 61 85 82 24 21 70 63 101 93 50 47
56 57 44 69 -18 17 -33 18 -39 2 -6 -17 -24 1 -28 27 -4 28 21 96 32 89 5 -3
7 -9 4 -14 -12 -20 8 -40 38 -36 21 2 37 -3 47 -15 14 -17 20 -14 90 39 41 31
107 90 147 130 46 47 76 71 84 66 8 -4 10 -3 5 4 -4 7 -4 12 1 13 32 3 49 11
73 36 16 16 44 38 64 48 45 24 57 49 21 43 -32 -7 -24 6 15 22 16 7 30 17 30
22 0 6 10 8 22 5 25 -7 62 10 178 83 47 29 171 95 275 147 105 51 206 102 225
112 19 11 58 26 85 34 28 9 102 34 165 57 227 80 617 174 795 190 106 9 180
11 173 4z m-3848 -32 c0 -15 -2 -15 -10 -2 -13 20 -13 33 0 25 6 -3 10 -14 10
-23z m1610 -22 c0 -5 -4 -10 -10 -10 -5 0 -10 5 -10 10 0 6 5 10 10 10 6 0 10
-4 10 -10z m0 -64 c0 -11 -19 -15 -25 -6 -3 5 1 10 9 10 9 0 16 -2 16 -4z
m1966 -7 c10 -17 -13 -36 -27 -22 -12 12 -4 33 11 33 5 0 12 -5 16 -11z
m-2438 -30 c2 -9 -5 -19 -14 -23 -21 -8 -50 17 -39 34 10 16 49 8 53 -11z
m1577 -39 c-3 -5 -11 -10 -16 -10 -6 0 -7 5 -4 10 3 6 11 10 16 10 6 0 7 -4 4
-10z m1720 -10 c3 -5 1 -10 -4 -10 -6 0 -11 5 -11 10 0 6 2 10 4 10 3 0 8 -4
11 -10z m-2835 -30 c0 -5 -4 -10 -9 -10 -6 0 -13 5 -16 10 -3 6 1 10 9 10 9 0
16 -4 16 -10z m-4263 -62 c-2 -13 -4 -5 -4 17 -1 22 1 32 4 23 2 -10 2 -28 0
-40z m4763 12 c0 -5 -8 -10 -17 -10 -15 0 -16 2 -3 10 19 12 20 12 20 0z
m-352 -23 c2 -11 -9 -21 -34 -32 -20 -8 -39 -14 -40 -12 -2 2 8 18 23 35 27
34 46 37 51 9z m2759 -54 c10 -52 8 -314 -3 -388 -7 -50 -10 -22 -15 165 -3
124 -9 233 -13 243 -6 12 -4 17 7 17 11 0 19 -13 24 -37z m323 17 c-10 -19
-40 -28 -40 -12 0 13 23 32 37 32 11 0 11 -5 3 -20z m-5319 -17 c13 -16 12
-17 -3 -4 -10 7 -18 15 -18 17 0 8 8 3 21 -13z m2424 7 c-3 -5 -10 -10 -16
-10 -5 0 -9 5 -9 10 0 6 7 10 16 10 8 0 12 -4 9 -10z m-2384 -37 c13 -16 12
-17 -3 -4 -10 7 -18 15 -18 17 0 8 8 3 21 -13z m5329 2 c0 -6 -142 -72 -172
-80 -13 -3 18 14 67 39 90 44 105 50 105 41z m-6720 -37 c22 -18 21 -18 -36
-18 -33 0 -69 -3 -81 -6 -21 -6 -21 -8 -9 -33 8 -14 35 -52 60 -85 43 -54 59
-96 36 -96 -5 0 -31 33 -57 73 -69 104 -67 101 -53 92 29 -18 2 16 -29 37 -35
23 -56 56 -30 46 8 -3 23 -2 34 3 36 15 141 6 165 -13z m6500 -18 c-14 -11
-34 -20 -45 -19 -19 0 -19 1 4 19 13 11 33 20 45 20 20 0 20 -1 -4 -20z
m-2720 6 c0 -3 -4 -8 -10 -11 -5 -3 -10 -1 -10 4 0 6 5 11 10 11 6 0 10 -2 10
-4z m-3560 -69 c-20 -77 -32 -107 -41 -102 -5 4 -9 2 -9 -4 0 -5 -3 -18 -6
-28 -5 -15 -4 -15 5 -3 15 21 14 15 -12 -64 -25 -74 -32 -83 -59 -63 -15 12
-13 22 22 123 21 60 44 130 50 156 12 46 13 47 35 32 19 -13 21 -20 15 -47z
m3220 59 c0 -3 -4 -8 -10 -11 -5 -3 -10 -1 -10 4 0 6 5 11 10 11 6 0 10 -2 10
-4z m-2150 -52 c0 -2 -13 2 -30 11 -16 9 -30 18 -30 21 0 2 14 -2 30 -11 17
-9 30 -18 30 -21z m1364 5 c-3 -5 -10 -7 -15 -3 -5 3 -7 10 -3 15 3 5 10 7 15
3 5 -3 7 -10 3 -15z m3254 -74 c-3 -3 -9 2 -12 12 -6 14 -5 15 5 6 7 -7 10
-15 7 -18z m-2118 -15 c-20 -13 -40 -13 -40 0 0 6 12 10 28 10 21 0 24 -2 12
-10z m3110 5 c0 -7 -75 -39 -110 -49 -14 -3 2 7 35 23 62 30 75 35 75 26z
m-3197 -12 c-7 -2 -19 -2 -25 0 -7 3 -2 5 12 5 14 0 19 -2 13 -5z m-3284 -108
c74 -97 89 -131 58 -132 -7 0 -41 -6 -76 -12 -70 -11 -91 -4 -91 31 0 17 7 19
60 17 33 -1 63 1 66 4 4 4 -19 38 -50 77 -54 66 -79 120 -57 120 5 0 46 -47
90 -105z m2204 88 c-7 -2 -19 -2 -25 0 -7 3 -2 5 12 5 14 0 19 -2 13 -5z
m3231 -38 c-4 -8 -10 -15 -15 -15 -4 0 -6 7 -3 15 4 8 10 15 15 15 4 0 6 -7 3
-15z m-72 -32 c20 -18 25 -53 7 -53 -6 0 -13 9 -16 20 -3 11 -14 20 -24 20
-19 0 -25 11 -12 23 11 11 25 8 45 -10z m-355 -35 c-3 -7 -5 -2 -5 12 0 14 2
19 5 13 2 -7 2 -19 0 -25z m1453 -3 c-7 -8 -16 -12 -21 -9 -13 8 -1 24 18 24
13 0 13 -3 3 -15z m-3506 -46 c9 -13 21 -19 30 -16 9 4 19 -1 25 -11 8 -15 2
-17 -46 -19 -30 -2 -59 0 -64 3 -10 6 20 64 33 64 4 0 14 -10 22 -21z m3775
-231 c-1 -189 -3 -222 -11 -173 -9 54 -2 405 8 405 2 0 3 -105 3 -232z m-8442
-170 c-1 -73 -3 -16 -3 127 0 143 2 203 3 133 2 -70 2 -187 0 -260z m3807 349
c6 -15 6 -30 2 -34 -10 -10 -36 26 -36 50 0 26 23 16 34 -16z m921 -67 c-3 -5
-22 -10 -41 -10 -19 0 -34 5 -34 10 0 6 18 10 41 10 24 0 38 -4 34 -10z
m-3629 -27 c-6 -6 -36 9 -36 18 0 5 9 4 20 -3 10 -7 18 -14 16 -15z m2774 17
c0 -5 -4 -10 -10 -10 -5 0 -10 5 -10 10 0 6 5 10 10 10 6 0 10 -4 10 -10z m98
-18 c3 -16 -2 -22 -17 -22 -24 0 -35 15 -27 36 9 23 40 13 44 -14z m767 -2
c-3 -5 -11 -10 -16 -10 -6 0 -7 5 -4 10 3 6 11 10 16 10 6 0 7 -4 4 -10z
m-2159 -46 c25 -15 43 -28 40 -31 -2 -2 -26 9 -52 26 -60 37 -50 41 12 5z
m1971 20 c-3 -3 -12 -4 -19 -1 -8 3 -5 6 6 6 11 1 17 -2 13 -5z m-1397 -28 c0
-3 -4 -8 -10 -11 -5 -3 -10 -1 -10 4 0 6 5 11 10 11 6 0 10 -2 10 -4z m961
-73 c13 -16 12 -17 -3 -4 -10 7 -18 15 -18 17 0 8 8 3 21 -13z m-2888 -24 c96
-48 97 -49 97 -146 0 -45 -2 -83 -5 -83 -3 0 -41 16 -84 36 -55 25 -81 42 -85
57 -10 38 -7 167 4 167 6 0 39 -14 73 -31z m2672 1 c10 -11 15 -23 12 -27 -8
-7 -47 25 -47 39 0 14 16 9 35 -12z m-103 -15 c0 -5 -5 -11 -11 -13 -6 -2 -11
4 -11 13 0 9 5 15 11 13 6 -2 11 -8 11 -13z m308 5 c0 -5 -7 -10 -15 -10 -8 0
-15 5 -15 10 0 6 7 10 15 10 8 0 15 -4 15 -10z m3720 6 c0 -3 -4 -8 -10 -11
-5 -3 -10 -1 -10 4 0 6 5 11 10 11 6 0 10 -2 10 -4z m-4863 -159 c-2 -23 -3
-1 -3 48 0 50 1 68 3 42 2 -26 2 -67 0 -90z m6360 21 c-2 -18 -4 -6 -4 27 0
33 2 48 4 33 2 -15 2 -42 0 -60z m-4877 63 c0 -6 -4 -13 -10 -16 -5 -3 -10 1
-10 9 0 9 5 16 10 16 6 0 10 -4 10 -9z m-540 -41 c0 -5 -2 -10 -4 -10 -3 0 -8
5 -11 10 -3 6 -1 10 4 10 6 0 11 -4 11 -10z m410 -42 c0 -5 -9 -3 -20 4 -11 7
-20 16 -20 20 0 5 9 3 20 -4 11 -7 20 -16 20 -20z m4830 -18 c20 -20 20 -33
20 -1904 l0 -1884 -34 -29 c-38 -34 -44 -35 -446 -53 -124 -6 -367 -19 -540
-30 -173 -10 -429 -24 -567 -31 -244 -12 -254 -12 -274 7 -49 44 -49 43 -49
540 0 257 3 465 6 461 4 -3 6 -213 7 -467 l0 -461 28 -38 c28 -39 28 -39 86
-35 32 2 211 13 398 24 739 43 842 50 885 55 25 3 135 10 245 15 186 9 201 11
218 31 16 20 17 124 17 1874 0 1109 -4 1863 -9 1878 -14 37 -33 38 -118 5
-146 -57 -362 -125 -365 -116 -2 6 -62 -10 -133 -35 -192 -67 -870 -290 -1022
-336 -73 -22 -142 -45 -153 -51 -12 -7 -20 -7 -20 -1 0 5 93 40 208 77 313
101 716 237 1322 448 118 41 227 75 243 75 15 1 36 -8 47 -19z m-5870 -20 c0
-5 -5 -10 -11 -10 -5 0 -7 5 -4 10 3 6 8 10 11 10 2 0 4 -4 4 -10z m-150 -10
c0 -5 -7 -10 -15 -10 -8 0 -15 5 -15 10 0 6 7 10 15 10 8 0 15 -4 15 -10z
m-1650 -51 c0 -15 -5 -31 -11 -34 -14 -9 -49 29 -49 53 0 27 9 32 36 20 17 -8
24 -19 24 -39z m2328 -81 c14 -14 16 -48 3 -48 -17 0 -40 30 -35 45 7 18 16
19 32 3z m2272 -14 c0 -8 -4 -12 -10 -9 -5 3 -10 13 -10 21 0 8 5 12 10 9 6
-3 10 -13 10 -21z m-5223 -6 c-3 -8 -6 -5 -6 6 -1 11 2 17 5 13 3 -3 4 -12 1
-19z m2808 13 c3 -5 1 -12 -5 -16 -5 -3 -10 1 -10 9 0 18 6 21 15 7z m330 -11
c3 -5 1 -10 -4 -10 -6 0 -11 5 -11 10 0 6 2 10 4 10 3 0 8 -4 11 -10z m-2748
-25 l28 -26 -37 18 c-21 10 -38 21 -38 26 0 14 19 7 47 -18z m4642 -42 c41
-57 41 -57 6 -18 -20 22 -41 48 -46 58 -19 34 -1 16 40 -40z m-1750 26 c-16
-10 -23 -4 -14 10 3 6 11 8 17 5 6 -4 5 -9 -3 -15z m3481 11 c0 -5 -4 -10 -10
-10 -5 0 -10 5 -10 10 0 6 5 10 10 10 6 0 10 -4 10 -10z m-6180 -81 c33 -31
39 -40 22 -34 -17 5 -23 3 -21 -7 5 -41 -20 -51 -57 -23 -16 12 -16 14 -3 15
25 0 32 61 7 68 -10 2 -18 8 -18 13 0 20 27 7 70 -32z m2208 24 c-10 -2 -26
-2 -35 0 -10 3 -2 5 17 5 19 0 27 -2 18 -5z m63 -53 c24 -21 55 -42 69 -45 14
-4 38 -24 54 -48 16 -23 22 -36 14 -29 -9 7 -20 11 -26 10 -9 -3 -162 137
-162 147 0 10 9 4 51 -35z m-291 27 c0 -2 -15 -16 -32 -33 l-33 -29 29 33 c28
30 36 37 36 29z m90 -11 c0 -8 -121 -98 -126 -94 -2 3 22 26 53 51 53 42 73
54 73 43z m-1979 -26 c5 0 8 -12 8 -27 -2 -24 -2 -25 -6 -5 -2 12 -11 22 -18
22 -8 0 -17 5 -21 12 -5 8 -2 9 10 5 10 -4 22 -7 27 -7z m-26 -30 c3 -5 1 -10
-4 -10 -6 0 -11 5 -11 10 0 6 2 10 4 10 3 0 8 -4 11 -10z m131 -16 c13 -3 24
-10 24 -16 0 -5 -4 -7 -9 -4 -5 4 -12 0 -14 -6 -4 -10 -8 -9 -17 2 -9 12 -10
10 -8 -10 2 -17 8 -24 20 -22 13 2 16 -2 12 -13 -6 -14 -9 -14 -28 -2 -25 17
-42 92 -19 82 8 -3 26 -8 39 -11z m-106 -24 c8 -5 11 -10 5 -10 -5 0 -17 5
-25 10 -8 5 -10 10 -5 10 6 0 17 -5 25 -10z m2392 -22 c-7 -7 -12 -8 -12 -2 0
14 12 26 19 19 2 -3 -1 -11 -7 -17z m-2254 -13 c-3 -3 -9 2 -12 12 -6 14 -5
15 5 6 7 -7 10 -15 7 -18z m70 -16 c2 -8 -3 -5 -12 6 l-15 20 -2 -20 c-1 -11
-1 -23 0 -27 0 -5 -3 -8 -7 -8 -5 0 -8 16 -8 35 1 31 2 33 20 21 11 -7 22 -19
24 -27z m1531 -8 c-13 -16 -46 -56 -73 -90 -53 -66 -102 -99 -120 -80 -8 7 -3
16 17 31 15 11 27 26 27 34 0 9 4 13 9 10 5 -3 41 23 81 59 79 71 96 81 59 36z
m-2036 3 c9 -4 17 -13 17 -21 0 -12 -3 -12 -16 1 -8 9 -19 14 -24 11 -4 -3
-11 2 -14 11 -4 10 -2 14 6 10 7 -3 21 -9 31 -12z m567 -4 c10 -6 11 -10 3
-10 -7 0 -13 -7 -13 -15 0 -8 -3 -15 -7 -15 -5 0 -8 11 -8 25 0 28 3 29 25 15z
m2098 -8 c2 -7 -2 -10 -12 -6 -9 3 -16 11 -16 16 0 13 23 5 28 -10z m-428 -37
c-7 -8 -18 -15 -26 -15 -7 0 -29 -13 -47 -30 -63 -55 -52 -31 13 31 48 46 66
57 68 45 2 -10 -2 -23 -8 -31z m-1730 25 c0 -5 -5 -10 -11 -10 -5 0 -7 5 -4
10 3 6 8 10 11 10 2 0 4 -4 4 -10z m-1138 -32 c-9 -9 -12 -7 -12 12 0 19 3 21
12 12 9 -9 9 -15 0 -24z m678 -7 c0 -28 -10 -31 -41 -15 -16 8 -29 12 -29 9 0
-4 -5 -3 -11 1 -8 4 -7 9 2 15 7 4 16 4 19 -1 3 -4 14 -10 25 -12 15 -2 19 2
17 16 -2 11 1 15 7 11 6 -3 11 -14 11 -24z m126 9 c33 -33 41 -45 46 -72 6
-30 -18 -50 -51 -41 -21 5 -30 33 -11 33 15 0 12 66 -3 79 -17 13 -27 5 -28
-23 0 -21 -1 -21 -8 -1 -9 21 3 45 23 45 7 0 21 -9 32 -20z m489 10 c3 -6 -1
-7 -9 -4 -18 7 -21 14 -7 14 6 0 13 -4 16 -10z m1945 -4 c0 -3 -4 -8 -10 -11
-5 -3 -10 -1 -10 4 0 6 5 11 10 11 6 0 10 -2 10 -4z m84 -11 c-7 -16 -24 -21
-24 -6 0 8 7 13 27 20 1 1 0 -6 -3 -14z m-1970 -11 c3 -9 2 -23 -3 -31 -6 -12
-9 -8 -13 16 -5 32 5 42 16 15z m-61 -14 c-3 -11 -7 -20 -9 -20 -2 0 -4 9 -4
20 0 11 4 20 9 20 5 0 7 -9 4 -20z m97 -12 c0 -19 -2 -20 -10 -8 -13 19 -13
30 0 30 6 0 10 -10 10 -22z m1882 -10 c-9 -9 -12 -7 -12 12 0 19 3 21 12 12 9
-9 9 -15 0 -24z m-1176 -6 c-4 -3 -14 2 -24 12 -16 18 -16 18 6 6 13 -6 21
-14 18 -18z m-666 -12 c0 -27 8 -35 33 -31 4 0 7 -3 7 -9 0 -14 -22 -12 -42 4
-19 14 -25 66 -8 66 6 0 10 -13 10 -30z m-502 8 c14 -14 16 -74 3 -82 -12 -8
-41 3 -41 15 0 6 9 5 20 -1 18 -10 20 -8 20 19 0 29 -15 49 -28 36 -3 -3 0
-10 8 -15 13 -8 13 -10 -1 -10 -10 0 -19 10 -21 25 -4 19 -1 25 11 25 10 0 22
-5 29 -12z m540 -16 c2 -7 -2 -10 -12 -6 -9 3 -16 11 -16 16 0 13 23 5 28 -10z
m972 3 c9 -11 10 -19 2 -27 -14 -14 -32 -1 -32 23 0 23 13 25 30 4z m614 -1
c9 -24 7 -28 -9 -14 -17 14 -20 30 -6 30 5 0 12 -7 15 -16z m96 6 c0 -5 -5
-10 -11 -10 -5 0 -7 5 -4 10 3 6 8 10 11 10 2 0 4 -4 4 -10z m-2126 -31 c27
-13 43 -56 27 -72 -27 -27 -87 39 -66 72 8 14 9 14 39 0z m520 5 c10 -4 16
-17 15 -38 l-1 -31 -7 30 c-7 33 -26 36 -25 5 0 -11 -3 -20 -8 -20 -4 0 -8 14
-8 30 0 31 6 35 34 24z m1666 -1 c0 -5 -46 -52 -103 -107 -56 -54 -132 -127
-168 -162 -37 -35 -72 -64 -79 -64 -18 0 116 142 215 227 50 43 96 86 103 95
13 18 32 24 32 11z m2450 -80 c0 -8 -9 0 -50 45 l-45 47 48 -45 c26 -24 47
-45 47 -47z m-4070 36 c0 -10 -4 -19 -10 -19 -5 0 -10 12 -10 26 0 14 4 23 10
19 6 -3 10 -15 10 -26z m1389 -102 c2 -15 -98 73 -121 106 -14 21 3 10 49 -33
39 -36 71 -69 72 -73z m-1850 82 c20 -36 9 -61 -21 -50 -17 6 -24 17 -26 45
-3 32 0 37 15 34 9 -2 24 -15 32 -29z m491 11 c-6 -12 -7 -20 -1 -20 5 0 12 6
14 13 3 7 6 6 6 -5 1 -20 -11 -29 -27 -19 -13 8 -5 51 10 51 5 0 4 -9 -2 -20z
m73 -37 c-6 -14 -8 -14 -14 3 -12 30 -10 37 5 24 8 -6 12 -19 9 -27z m-2214
-13 c55 -54 61 -83 25 -121 -15 -16 -36 -29 -46 -29 -18 0 -108 123 -108 147
0 17 40 43 66 43 12 0 40 -18 63 -40z m1691 15 c0 -14 -2 -25 -4 -25 -2 0 -6
11 -8 25 -3 14 -1 25 3 25 5 0 9 -11 9 -25z m487 -7 c-3 -8 -6 -5 -6 6 -1 11
2 17 5 13 3 -3 4 -12 1 -19z m112 -18 c0 -11 -2 -11 -6 -2 -4 10 -8 10 -21 0
-15 -12 -16 -11 -3 5 9 11 10 17 2 17 -6 0 -11 5 -11 10 0 6 8 5 20 -2 11 -7
20 -20 19 -28z m-568 21 c-9 -6 -11 -18 -7 -36 4 -17 3 -24 -4 -20 -5 3 -10
19 -10 36 0 21 5 29 18 29 13 0 14 -2 3 -9z m516 -23 c-3 -7 -5 -2 -5 12 0 14
2 19 5 13 2 -7 2 -19 0 -25z m-1082 12 c3 -5 0 -7 -9 -4 -10 4 -16 -3 -18 -23
l-3 -28 -6 33 c-5 26 -2 32 12 32 10 0 21 -4 24 -10z m1172 -32 c0 -20 -1 -24
-4 -10 -2 12 -9 22 -14 22 -6 0 -7 5 -4 10 12 19 21 10 22 -22z m4860 -15 c-3
-10 -5 -4 -5 12 0 17 2 24 5 18 2 -7 2 -21 0 -30z m-5367 -3 c0 -16 -2 -30 -4
-30 -2 0 -6 14 -8 30 -3 17 -1 30 4 30 4 0 8 -13 8 -30z m567 -1 c1 -22 1 -22
-4 -1 -6 30 -27 28 -21 -3 3 -13 1 -22 -3 -19 -5 3 -9 13 -9 23 0 39 34 39 37
0z m3653 -21 c0 -5 -13 1 -30 14 -16 12 -30 26 -30 30 0 5 14 -1 30 -14 17
-12 30 -26 30 -30z m-4690 7 c23 -19 35 -35 27 -35 -9 0 -17 -14 -21 -35 -7
-38 -13 -42 -39 -22 -14 10 -15 18 -6 51 9 33 8 41 -5 48 -9 5 -14 13 -11 19
9 13 9 13 55 -26z m1080 -10 c0 -5 -5 -3 -10 5 -5 8 -10 20 -10 25 0 6 5 3 10
-5 5 -8 10 -19 10 -25z m-520 -5 c0 -19 -5 -30 -14 -30 -16 0 -41 28 -33 37 4
3 9 -2 13 -11 3 -9 10 -16 15 -16 14 0 11 38 -3 43 -8 3 -6 6 5 6 12 1 17 -7
17 -29z m-721 -6 c3 -4 -2 -4 -12 -1 -10 4 -27 7 -38 7 -10 0 -19 4 -19 9 0
10 58 -3 69 -15z m1271 14 c0 -7 -5 -20 -10 -28 -8 -12 -10 -9 -10 13 0 15 5
27 10 27 6 0 10 -6 10 -12z m-490 -13 c11 -13 11 -18 1 -28 -10 -9 -12 -8 -9
7 1 10 -2 21 -9 23 -7 3 -9 -3 -6 -16 3 -12 1 -21 -6 -21 -6 0 -11 11 -11 25
0 28 21 33 40 10z m517 -15 c0 -16 -4 -27 -9 -24 -4 3 -8 16 -8 30 0 13 4 24
8 24 5 0 9 -13 9 -30z m-478 3 c0 -5 -4 -17 -9 -28 -8 -18 -9 -17 -9 8 -1 15
4 27 9 27 6 0 10 -3 9 -7z m534 -2 c4 -1 6 -16 6 -33 -1 -20 -3 -25 -6 -13
-10 48 -14 51 -29 31 -14 -19 -14 -19 -14 1 0 15 5 20 18 18 9 -2 20 -4 25 -4z
m-1099 -7 c10 -4 15 -17 15 -33 -2 -24 -2 -24 -6 -3 -3 17 -9 21 -24 17 -14
-5 -17 -3 -13 9 7 18 7 18 28 10z m616 -29 c0 -27 -25 -44 -40 -29 -15 15 0
54 21 54 14 0 19 -7 19 -25z m530 -17 c0 -10 -4 -18 -10 -18 -5 0 -10 15 -10
33 0 24 3 28 10 17 5 -8 10 -23 10 -32z m4604 -1071 c-1 -527 -4 -961 -8 -964
-3 -3 -5 464 -4 1038 1 574 4 1008 7 964 3 -44 5 -511 5 -1038z m-5100 1097
c16 -6 23 -64 8 -64 -5 0 -8 10 -7 23 3 31 -7 44 -16 21 -7 -17 -8 -17 -8 4
-1 24 0 25 23 16z m-117 -10 c-3 -3 -12 -4 -19 -1 -8 3 -5 6 6 6 11 1 17 -2
13 -5z m-413 -20 c34 -33 11 -80 -30 -62 -32 15 -35 78 -5 78 11 0 27 -7 35
-16z m585 -15 c-11 -21 -3 -43 12 -34 5 4 9 16 9 27 0 12 3 19 6 15 11 -11 -6
-57 -20 -57 -16 0 -26 21 -26 56 0 16 4 22 15 18 11 -5 12 -11 4 -25z m6055
-11 c-4 -24 -26 -126 -51 -228 -24 -102 -57 -248 -73 -325 -45 -211 -39 -197
-96 -212 -27 -6 -52 -9 -55 -5 -7 8 6 72 70 347 23 99 51 223 62 275 36 176
30 163 74 177 71 21 76 19 69 -29z m-1768 1 c3 -6 -5 -3 -20 6 -14 10 -26 19
-26 22 0 7 39 -17 46 -28z m198 22 c3 -5 -1 -14 -8 -20 -10 -8 -16 -9 -21 -1
-3 5 -1 10 5 10 6 0 8 5 5 10 -3 6 -2 10 4 10 5 0 12 -4 15 -9z m-5174 -23 c0
-11 -22 -10 -39 1 -10 7 -7 9 12 8 15 -1 27 -5 27 -9z m178 -4 c15 -10 22 -24
20 -37 -3 -25 -35 -35 -52 -17 -8 10 -5 11 18 6 24 -6 27 -4 22 9 -3 9 -6 22
-6 28 0 7 -4 6 -10 -3 -8 -12 -10 -12 -16 3 -3 9 -10 14 -15 11 -5 -3 -9 0 -9
5 0 16 22 13 48 -5z m442 6 c0 -5 -4 -10 -10 -10 -5 0 -10 5 -10 10 0 6 5 10
10 10 6 0 10 -4 10 -10z m130 -32 c0 -23 -3 -29 -9 -19 -8 12 -4 51 5 51 2 0
4 -15 4 -32z m33 9 c3 -8 1 -20 -4 -28 -6 -10 -9 -7 -9 14 0 29 5 35 13 14z
m29 -33 c-6 -35 -12 -29 -12 14 0 23 3 32 9 24 4 -7 6 -24 3 -38z m3284 14
l29 -33 -32 29 c-31 28 -38 36 -30 36 2 0 16 -15 33 -32z m2870 23 c8 -8 297
-117 362 -136 18 -5 22 -14 22 -44 0 -36 -6 -43 -97 -122 -54 -46 -137 -121
-185 -167 -78 -74 -91 -83 -120 -80 -30 3 -33 6 -36 40 -3 35 1 40 85 110 126
105 193 169 188 178 -3 5 -27 16 -53 25 -26 9 -88 32 -137 52 l-90 35 4 46 c4
63 29 90 57 63z m-6723 -15 c12 -10 15 -16 7 -21 -6 -4 -9 -13 -6 -21 3 -8 -1
-14 -10 -14 -11 0 -13 7 -8 26 4 17 2 29 -7 35 -8 5 -9 9 -4 9 6 -1 18 -7 28
-14z m1457 -7 c0 -6 -4 -7 -10 -4 -5 3 -10 11 -10 16 0 6 5 7 10 4 6 -3 10
-11 10 -16z m-830 -14 c9 -10 9 -15 1 -15 -6 0 -11 5 -11 10 0 17 -18 11 -23
-7 -4 -14 -5 -12 -6 5 -1 25 20 29 39 7z m37 -32 c1 -33 0 -35 -7 -13 -11 34
-12 50 -2 50 4 0 8 -17 9 -37z m-2396 -15 l-5 -33 -6 30 c-7 32 -3 48 9 41 4
-3 5 -20 2 -38z m2369 6 c0 -2 -7 -4 -15 -4 -8 0 -15 4 -15 10 0 5 7 7 15 4 8
-4 15 -8 15 -10z m4682 -16 c-9 -9 -12 -7 -12 12 0 19 3 21 12 12 9 -9 9 -15
0 -24z m-4585 -15 c-3 -10 -5 -4 -5 12 0 17 2 24 5 18 2 -7 2 -21 0 -30z
m-1103 11 c31 -12 13 -124 -19 -124 -17 0 -21 26 -4 32 6 2 12 19 12 38 1 27
-3 35 -16 34 -9 -1 -17 4 -17 12 0 15 18 18 44 8z m1137 -21 c-12 -20 -14 -14
-5 12 4 9 9 14 11 11 3 -2 0 -13 -6 -23z m38 -6 c0 -21 -1 -21 -9 -2 -12 28
-12 37 0 30 6 -3 10 -16 9 -28z m26 13 c3 -5 1 -10 -4 -10 -6 0 -11 5 -11 10
0 6 2 10 4 10 3 0 8 -4 11 -10z m-2138 -52 c-2 -13 -4 -5 -4 17 -1 22 1 32 4
23 2 -10 2 -28 0 -40z m130 30 c-3 -8 -6 -5 -6 6 -1 11 2 17 5 13 3 -3 4 -12
1 -19z m4668 2 c18 -20 15 -38 -4 -25 -15 9 -33 45 -23 45 5 0 17 -9 27 -20z
m-4005 -12 c0 -5 -9 -4 -20 2 -11 6 -20 12 -20 14 0 2 9 2 20 -1 11 -3 20 -9
20 -15z m1390 0 c0 -6 -6 -5 -15 2 -8 7 -15 14 -15 16 0 2 7 1 15 -2 8 -4 15
-11 15 -16z m6667 -80 c-2 -18 -4 -4 -4 32 0 36 2 50 4 33 2 -18 2 -48 0 -65z
m-7980 66 c-3 -3 -12 -4 -19 -1 -8 3 -5 6 6 6 11 1 17 -2 13 -5z m190 -24 c2
-22 2 -22 -6 -5 -4 11 -19 23 -32 27 -21 6 -21 7 6 5 24 -2 30 -7 32 -27z
m-22 -8 c-3 -3 -11 0 -18 7 -9 10 -8 11 6 5 10 -3 15 -9 12 -12z m6343 12 c17
-5 22 -14 22 -39 0 -29 -15 -47 -131 -155 l-131 -124 33 -17 c19 -9 80 -32
136 -50 l103 -34 0 -41 c0 -38 -2 -42 -38 -53 -37 -12 -43 -11 -158 39 -233
101 -214 90 -214 125 0 26 11 40 68 89 38 32 113 104 168 161 54 58 104 104
109 104 6 1 20 -2 33 -5z m-6239 -14 c10 -5 22 -17 25 -27 5 -13 0 -11 -20 7
-22 20 -26 21 -21 7 4 -10 7 -25 7 -33 0 -8 10 -15 23 -15 17 -1 18 -2 4 -6
-26 -7 -47 15 -47 48 0 32 3 34 29 19z m-94 -26 c8 3 15 1 15 -4 0 -17 -37
-11 -51 8 -13 15 -12 16 3 3 10 -7 25 -11 33 -7z m4090 -4 c10 -11 16 -20 13
-20 -3 0 -13 9 -23 20 -10 11 -16 20 -13 20 3 0 13 -9 23 -20z m-3885 -36 c0
-26 -4 -34 -17 -33 -11 0 -13 3 -5 6 14 6 16 49 2 58 -6 3 -10 -4 -11 -17 0
-13 -3 -17 -6 -10 -8 21 5 42 22 36 9 -4 15 -19 15 -40z m59 -12 c-2 -15 1
-34 6 -42 8 -13 7 -13 -8 -1 -19 15 -23 71 -6 71 6 0 9 -12 8 -28z m1241 -7
c-31 -32 -38 -25 -8 8 13 14 25 24 27 21 2 -2 -6 -15 -19 -29z m3490 19 c0
-11 -24 -50 -49 -79 -27 -31 -40 -40 -42 -27 0 4 -5 12 -10 18 -11 14 -1 46
12 38 5 -3 6 3 2 12 -5 13 -3 16 10 11 9 -3 17 -3 17 2 0 4 10 13 23 19 26 12
37 14 37 6z m-4690 -14 c0 -5 -2 -10 -4 -10 -3 0 -8 5 -11 10 -3 6 -1 10 4 10
6 0 11 -4 11 -10z m5267 -1063 c-1 -194 -2 -32 -2 358 0 391 1 549 2 352 2
-197 2 -517 0 -710z m-5985 1018 c3 -24 0 -35 -9 -35 -8 0 -13 13 -13 35 0 19
4 35 9 35 5 0 11 -16 13 -35z m785 -12 c-3 -10 -5 -2 -5 17 0 19 2 27 5 18 2
-10 2 -26 0 -35z m-734 30 c-7 -2 -19 -2 -25 0 -7 3 -2 5 12 5 14 0 19 -2 13
-5z m37 -43 c0 -40 -19 -55 -36 -28 -5 7 -2 9 9 5 13 -5 15 0 10 29 -4 22 -2
34 6 34 6 0 11 -17 11 -40z m747 32 c7 -4 10 -17 6 -30 -8 -32 -21 -27 -16 6
4 21 2 24 -6 12 -9 -13 -11 -13 -11 3 0 18 8 21 27 9z m-662 -22 c3 -5 1 -10
-4 -10 -6 0 -11 5 -11 10 0 6 2 10 4 10 3 0 8 -4 11 -10z m707 -16 c-3 -19 -1
-25 7 -20 6 4 11 2 11 -3 0 -25 -28 -8 -32 19 -3 19 0 30 7 30 8 0 10 -10 7
-26z m963 -12 c-10 -10 -16 -12 -13 -7 3 6 8 19 13 30 5 14 9 16 12 7 3 -8 -3
-21 -12 -30z m-1701 -15 c-7 -18 -34 -24 -34 -7 0 6 6 9 13 8 7 -2 11 5 9 17
-3 15 -1 17 7 9 7 -6 9 -18 5 -27z m174 -17 c7 -18 7 -30 1 -30 -5 0 -9 -5 -9
-11 0 -5 5 -7 10 -4 14 9 12 -7 -5 -28 -9 -13 -20 -17 -34 -12 -24 7 -28 35
-6 35 22 0 28 22 15 56 -11 28 -12 28 -26 10 -10 -15 -14 -16 -14 -5 0 48 51
40 68 -11z m662 34 c7 -7 5 -17 -4 -29 -13 -18 -14 -18 -9 9 4 17 2 27 -4 23
-5 -3 -15 -1 -23 4 -11 7 -10 8 8 6 12 -2 27 -8 32 -13z m-800 -9 c11 -13 10
-14 -4 -9 -9 3 -16 10 -16 15 0 13 6 11 20 -6z m847 -21 c3 -18 2 -18 -6 1 -9
21 -9 21 -24 -25 -3 -8 -6 -3 -6 11 -2 42 31 54 36 13z m-1530 -66 c-2 -18 -4
-6 -4 27 0 33 2 48 4 33 2 -15 2 -42 0 -60z m1575 36 c-7 -12 -9 -8 -10 18 -1
26 1 30 9 16 6 -11 6 -24 1 -34z m-895 20 c-3 -3 -12 -4 -19 -1 -8 3 -5 6 6 6
11 1 17 -2 13 -5z m952 -22 c-1 -15 -2 -15 -6 1 -2 9 -9 14 -15 11 -7 -4 -8
-2 -4 5 10 15 26 4 25 -17z m671 25 c0 -2 -9 -12 -20 -22 -24 -21 -27 -14 -4
9 15 15 24 20 24 13z m-1370 -26 c0 -4 -11 -6 -25 -3 -14 2 -25 6 -25 8 0 2
11 4 25 4 14 0 25 -4 25 -9z m610 -5 c-7 -7 -14 -6 -21 1 -9 9 -7 12 9 10 14
-1 18 -5 12 -11z m140 3 c12 -9 12 -10 -3 -5 -13 4 -20 0 -24 -14 -3 -11 -9
-20 -14 -20 -5 0 -3 11 3 25 13 28 17 29 38 14z m-2249 -224 c-7 -33 -9 -21
-10 72 -1 61 2 120 7 130 11 27 14 -155 3 -202z m1617 174 c1 -8 -4 -23 -12
-34 -14 -19 -15 -19 -35 -1 -23 21 -27 46 -9 64 14 14 51 -6 56 -29z m566 33
c3 -5 -1 -9 -9 -9 -8 0 -15 4 -15 9 0 4 4 8 9 8 6 0 12 -4 15 -8z m122 -4 c4
-6 3 -8 -4 -4 -5 3 -12 1 -14 -6 -3 -8 -7 -6 -11 5 -7 20 17 24 29 5z m-1869
-30 c-3 -8 -6 -5 -6 6 -1 11 2 17 5 13 3 -3 4 -12 1 -19z m1056 -19 c-5 -5
-17 -3 -29 6 -18 16 -18 16 4 10 17 -5 22 -2 23 12 1 17 2 17 6 -1 3 -10 1
-22 -4 -27z m1527 37 c0 -3 -4 -8 -10 -11 -5 -3 -10 -1 -10 4 0 6 5 11 10 11
6 0 10 -2 10 -4z m-1375 -45 c0 -16 -3 -27 -7 -24 -13 7 -7 53 6 53 1 0 1 -13
1 -29z m43 17 c20 -20 15 -58 -8 -58 -11 0 -20 4 -20 10 0 5 7 7 15 4 9 -4 15
0 15 9 0 20 -17 31 -23 15 -3 -7 -4 -3 -4 10 1 25 8 27 25 10z m629 -10 c-3
-8 -6 -5 -6 6 -1 11 2 17 5 13 3 -3 4 -12 1 -19z m30 -10 c-3 -8 -6 -5 -6 6
-1 11 2 17 5 13 3 -3 4 -12 1 -19z m605 0 c-7 -7 -12 -8 -12 -2 0 14 12 26 19
19 2 -3 -1 -11 -7 -17z m-1202 -29 c0 -16 -4 -29 -10 -29 -5 0 -10 16 -10 36
0 21 4 33 10 29 6 -3 10 -19 10 -36z m-1313 -46 c-2 -16 -4 -5 -4 22 0 28 2
40 4 28 2 -13 2 -35 0 -50z m1433 17 c0 -30 -21 -42 -35 -20 -3 6 1 7 9 4 11
-4 16 0 16 14 0 11 -8 23 -17 25 -14 4 -12 5 5 6 18 1 22 -4 22 -29z m4920 20
c0 -5 -4 -10 -10 -10 -5 0 -10 5 -10 10 0 6 5 10 10 10 6 0 10 -4 10 -10z
m-4880 -36 c0 -19 -4 -33 -8 -30 -8 5 -4 66 4 66 2 0 4 -16 4 -36z m-713 -11
c-7 -6 -46 10 -41 18 3 5 14 3 24 -3 11 -7 18 -13 17 -15z m913 0 c24 -6 36
-16 41 -33 4 -14 7 -19 8 -12 1 15 29 16 62 0 18 -8 26 -20 26 -38 0 -24 -5
-27 -34 -28 -23 -1 -37 5 -45 18 -10 15 -14 16 -22 5 -9 -12 -21 -11 -73 6
l-63 21 0 40 c0 40 0 40 33 35 17 -3 48 -9 67 -14z m-882 -28 c-3 -3 -9 2 -12
12 -6 14 -5 15 5 6 7 -7 10 -15 7 -18z m138 0 c4 -8 12 -15 19 -15 7 0 12 -8
10 -17 -14 -67 -16 -73 -35 -73 -29 0 -33 17 -11 42 23 24 26 34 11 43 -5 3
-10 0 -11 -7 0 -7 -4 -4 -8 7 -5 11 -7 23 -4 28 7 12 23 8 29 -8z m98 -50 c-4
-8 -10 -12 -15 -9 -14 8 -10 24 6 24 9 0 12 -6 9 -15z m36 -30 c0 -42 -15 -41
-16 2 -1 27 2 39 7 31 5 -7 9 -22 9 -33z m767 23 c-3 -8 -6 -5 -6 6 -1 11 2
17 5 13 3 -3 4 -12 1 -19z m52 -17 c-2 -23 -2 -24 -6 -3 -2 12 -9 22 -15 22
-6 0 -8 -11 -5 -25 3 -17 0 -24 -7 -22 -10 4 -11 25 -1 54 8 23 35 2 34 -26z
m43 1 c-7 -2 -12 -10 -12 -17 0 -7 5 -15 12 -17 9 -3 9 -6 0 -12 -7 -4 -14 2
-18 18 -7 29 3 49 19 39 8 -5 8 -8 -1 -11z m-766 -2 c8 0 14 -9 13 -22 0 -13
-3 -17 -6 -10 -2 6 -11 12 -18 12 -7 0 -16 6 -18 13 -3 6 -6 0 -6 -15 -1 -22
4 -28 19 -28 11 0 20 -5 20 -11 0 -6 -7 -8 -16 -5 -9 3 -20 6 -25 6 -5 0 -9
16 -9 36 0 29 3 35 16 30 9 -3 22 -6 30 -6z m2037 -67 c29 -48 54 -129 42
-141 -16 -16 -95 118 -110 187 l-7 34 23 -18 c13 -10 36 -38 52 -62z m-1246
30 c-3 -10 -5 -4 -5 12 0 17 2 24 5 18 2 -7 2 -21 0 -30z m28 28 c3 -5 1 -12
-5 -16 -5 -3 -10 1 -10 9 0 18 6 21 15 7z m-735 -16 c10 -13 11 -18 1 -28 -10
-9 -11 -8 -5 7 6 16 4 18 -14 14 -21 -6 -29 2 -15 15 10 11 19 8 33 -8z m-215
-5 c3 -5 1 -10 -4 -10 -6 0 -11 5 -11 10 0 6 2 10 4 10 3 0 8 -4 11 -10z
m4535 -29 c-6 -12 -7 -21 -1 -21 5 0 12 7 15 16 4 9 9 14 13 11 9 -10 -46 -77
-63 -77 -7 0 -14 -3 -14 -7 -1 -5 -20 -29 -44 -55 l-44 -47 -22 19 -22 19 43
51 c23 27 46 50 50 50 5 0 24 13 42 30 19 16 37 27 41 23 3 -3 6 0 6 7 0 7 3
11 6 8 3 -4 1 -16 -6 -27z m-4250 -12 c0 -20 4 -28 12 -23 7 4 8 3 4 -4 -13
-21 -24 -12 -28 23 -2 19 0 35 4 35 4 0 8 -14 8 -31z m670 21 c0 -5 -4 -10
-10 -10 -5 0 -10 5 -10 10 0 6 5 10 10 10 6 0 10 -4 10 -10z m-759 -28 c-7 -2
-18 1 -23 6 -8 8 -4 9 13 5 13 -4 18 -8 10 -11z m156 -4 c-3 -8 -6 -5 -6 6 -1
11 2 17 5 13 3 -3 4 -12 1 -19z m-1814 -487 l2 -490 66 -68 c36 -38 71 -77 78
-88 7 -11 -19 14 -59 55 -40 41 -78 84 -85 95 -9 14 -14 78 -16 225 -4 302 0
774 6 768 3 -3 7 -226 8 -497z m1707 489 c0 -5 -8 -10 -17 -10 -15 0 -16 2 -3
10 19 12 20 12 20 0z m156 -28 c2 -44 -13 -41 -18 3 -2 21 0 34 6 32 6 -2 11
-18 12 -35z m50 1 c-5 -17 -3 -29 6 -34 10 -7 8 -9 -5 -9 -20 0 -36 32 -19 38
7 2 12 10 12 18 0 8 3 14 6 14 3 0 3 -12 0 -27z m7374 17 c0 -5 -4 -10 -10
-10 -5 0 -10 5 -10 10 0 6 5 10 10 10 6 0 10 -4 10 -10z m-7328 -24 c6 4 9 1
6 -6 -9 -27 -28 -22 -27 7 1 17 3 21 6 10 2 -9 9 -14 15 -11z m38 -11 c0 -8
-4 -15 -10 -15 -5 0 -10 7 -10 15 0 8 5 15 10 15 6 0 10 -7 10 -15z m17 -32
c-3 -10 -5 -4 -5 12 0 17 2 24 5 18 2 -7 2 -21 0 -30z m98 13 c38 -16 41 -23
22 -50 -18 -24 -51 -11 -37 14 12 23 13 30 1 30 -5 0 -11 -9 -14 -20 -8 -33
-37 -25 -37 10 0 34 13 37 65 16z m-115 -22 c0 -2 -9 -4 -20 -4 -11 0 -20 4
-20 9 0 5 9 7 20 4 11 -3 20 -7 20 -9z m210 -17 c0 -18 -22 -47 -31 -42 -13 9
-11 26 2 23 6 -2 14 4 16 12 4 13 3 13 -7 0 -10 -13 -11 -13 -6 3 3 9 2 17 -3
17 -5 0 -11 -10 -14 -22 -4 -12 -9 -20 -12 -16 -3 3 -1 17 5 32 9 23 12 25 30
14 11 -7 20 -17 20 -21z m-1719 -14 c13 -16 12 -17 -3 -4 -17 13 -22 21 -14
21 2 0 10 -8 17 -17z m5839 -63 c0 -5 -5 -10 -11 -10 -5 0 -7 5 -4 10 3 6 8
10 11 10 2 0 4 -4 4 -10z m277 -167 c-2 -21 -4 -4 -4 37 0 41 2 58 4 38 2 -21
2 -55 0 -75z m-5856 70 c13 -16 12 -17 -3 -4 -10 7 -18 15 -18 17 0 8 8 3 21
-13z m-81 -73 c30 -43 18 -37 -16 7 -15 20 -23 33 -16 29 6 -3 21 -20 32 -36z
m8220 -20 c0 -5 -2 -10 -4 -10 -3 0 -8 5 -11 10 -3 6 -1 10 4 10 6 0 11 -4 11
-10z m-2340 -15 c0 -9 -7 -18 -16 -22 -18 -7 -39 11 -30 26 11 17 46 13 46 -4z
m2307 -32 c-3 -10 -5 -2 -5 17 0 19 2 27 5 18 2 -10 2 -26 0 -35z m-2203 28
c7 -10 -22 -37 -30 -28 -9 8 3 37 15 37 5 0 12 -4 15 -9z m2134 -19 c2 -12 -2
-22 -8 -22 -7 0 -9 8 -5 21 5 16 3 20 -6 17 -8 -3 -14 -16 -14 -29 0 -18 5
-23 20 -21 15 2 17 1 6 -7 -22 -15 -41 -1 -41 29 0 43 42 53 48 12z m-8208
-13 c0 -38 -24 -35 -28 4 -2 19 1 27 12 27 11 0 16 -10 16 -31z m8138 -6 c-2
-25 -8 -38 -17 -38 -8 0 -15 6 -17 13 -1 7 0 8 3 2 9 -19 23 -10 23 14 0 19
-5 24 -20 23 -22 -1 -36 -30 -24 -48 4 -8 3 -9 -4 -5 -7 4 -12 21 -12 38 0 25
3 29 20 25 11 -3 23 -1 26 4 13 21 25 6 22 -28z m-7983 -15 c16 -24 22 -38 14
-31 -15 12 -53 73 -46 73 2 0 17 -19 32 -42z m8092 20 c-3 -8 -6 -5 -6 6 -1
11 2 17 5 13 3 -3 4 -12 1 -19z m-191 0 c-3 -7 -7 -25 -10 -40 -4 -19 -13 -28
-26 -28 -16 0 -20 7 -20 35 0 19 4 35 8 35 5 0 7 -13 4 -30 -3 -18 0 -30 7
-30 6 0 11 10 11 23 0 13 5 28 12 35 15 15 18 15 14 0z m254 2 c0 -5 -5 -10
-11 -10 -5 0 -7 5 -4 10 3 6 8 10 11 10 2 0 4 -4 4 -10z m-330 -33 c0 -12 -4
-28 -9 -36 -5 -8 -8 1 -7 27 1 41 16 49 16 9z m-30 7 c0 -8 -4 -13 -9 -10 -5
3 -11 -3 -14 -14 -3 -11 -1 -20 4 -20 5 0 9 5 9 12 0 6 3 8 6 5 8 -8 -14 -37
-27 -37 -17 0 -9 59 9 69 22 13 22 14 22 -5z m-65 -3 c-3 -6 -19 -16 -35 -25
-17 -8 -28 -10 -25 -5 4 5 1 9 -4 9 -14 0 -14 -37 -1 -43 6 -3 5 -4 -2 -3 -14
3 -24 55 -11 57 42 4 54 7 60 12 10 10 25 8 18 -2z m-2994 -23 c0 -10 2 -10 6
0 2 6 9 12 14 12 20 0 -16 -45 -124 -158 -21 -22 -26 -31 -13 -26 16 6 17 4 8
-12 -16 -30 -102 -110 -102 -95 0 7 14 25 30 39 56 50 30 42 -36 -11 -41 -33
-73 -51 -86 -49 -14 3 -18 0 -13 -9 5 -7 4 -10 -2 -6 -6 4 -24 -3 -39 -15 -58
-45 -3 15 165 179 157 154 190 180 192 151z m3002 -5 c-15 -42 -54 -61 -52
-25 0 10 3 12 6 5 7 -20 19 -15 31 12 13 28 25 34 15 8z m-129 -7 c-10 -8 -21
-12 -24 -10 -5 6 21 24 34 24 6 0 1 -6 -10 -14z m-37 -11 c9 -24 -1 -27 -15
-5 -8 13 -8 20 -2 20 6 0 13 -7 17 -15z m-162 -62 c-3 -13 -13 -23 -23 -23
-14 0 -15 2 -2 10 13 8 13 11 -2 27 -17 16 -18 16 -18 -12 0 -23 -3 -27 -10
-15 -14 22 -13 27 17 55 l28 25 8 -22 c4 -13 5 -33 2 -45z m74 24 l-2 -22 -4
23 c-6 31 -24 28 -21 -4 2 -17 -3 -29 -12 -32 -12 -3 -12 -2 -3 8 8 9 9 19 2
32 -14 26 -3 41 22 28 11 -6 18 -20 18 -33z m43 16 c-4 -23 -2 -25 18 -20 16
4 20 3 12 -5 -17 -17 -42 -1 -42 27 0 14 4 25 9 25 4 0 6 -12 3 -27z m-6282
-29 c-25 -24 -45 -44 -45 -44 -1 0 -1 9 0 20 2 27 40 65 66 67 19 2 16 -4 -21
-43z m4483 14 c-16 -18 -42 -47 -58 -64 -39 -40 -163 -144 -173 -144 -12 0
242 237 257 239 1 1 -10 -14 -26 -31z m1888 9 c-10 -9 -11 -8 -5 6 3 10 9 15
12 12 3 -3 0 -11 -7 -18z m-293 -29 c2 -18 -4 -31 -20 -42 -46 -33 -78 -11
-55 38 20 43 70 46 75 4z m-194 -30 c15 -62 -9 -74 -188 -98 -101 -14 -110
-10 -100 50 4 19 8 37 10 39 7 7 228 50 249 48 14 -1 23 -13 29 -39z m106 27
c-7 -9 -15 -13 -19 -10 -3 3 1 10 9 15 21 14 24 12 10 -5z m-4680 -31 c0 -8
-4 -12 -10 -9 -5 3 -10 13 -10 21 0 8 5 12 10 9 6 -3 10 -13 10 -21z m-2880
-14 c0 -5 -7 -10 -15 -10 -8 0 -15 5 -15 10 0 6 7 10 15 10 8 0 15 -4 15 -10z
m1008 -50 c39 -52 19 -97 -22 -51 -20 22 -28 81 -11 81 6 0 21 -13 33 -30z
m6024 18 c11 -18 10 -38 -2 -38 -5 0 -7 7 -4 15 5 11 -1 15 -20 15 -22 0 -26
-4 -26 -31 0 -28 3 -31 25 -27 20 4 23 3 14 -8 -6 -8 -20 -14 -30 -14 -16 0
-19 8 -19 48 0 45 2 48 27 50 15 1 30 -4 35 -10z m1451 -9 c7 -25 -1 -49 -15
-49 -6 0 -6 6 1 14 9 11 10 20 1 35 -6 12 -7 21 -2 21 6 0 12 -9 15 -21z
m-7403 1 c0 -5 -4 -10 -10 -10 -5 0 -10 5 -10 10 0 6 5 10 10 10 6 0 10 -4 10
-10z m4370 7 c0 -2 -71 -70 -157 -151 l-158 -149 150 151 c131 131 165 162
165 149z m2997 -19 c-3 -8 -6 -5 -6 6 -1 11 2 17 5 13 3 -3 4 -12 1 -19z m-80
-24 c-4 -15 -5 -14 -6 4 0 13 -5 20 -11 17 -14 -9 -12 -42 3 -48 6 -2 8 -8 4
-13 -10 -11 -27 15 -27 43 0 22 19 36 33 23 5 -4 7 -16 4 -26z m47 29 c-5 -5
-12 -12 -16 -18 -4 -6 -8 -2 -8 8 0 9 7 17 17 17 9 0 12 -3 7 -7z m-104 -43
c0 -16 -4 -31 -9 -34 -5 -3 -8 12 -7 33 1 45 16 45 16 1z m-6890 27 c0 -2 -12
-14 -27 -28 l-28 -24 24 28 c23 25 31 32 31 24z m2025 -17 c10 -11 16 -20 13
-20 -3 0 -13 9 -23 20 -10 11 -16 20 -13 20 3 0 13 -9 23 -20z m4832 -6 c3
-18 2 -18 -5 1 -9 19 -9 19 -20 0 -9 -16 -11 -17 -12 -4 0 34 33 37 37 3z
m-61 4 c4 -7 4 -10 -1 -6 -12 11 -35 -11 -35 -32 0 -10 6 -21 13 -23 7 -3 5
-6 -5 -6 -35 -2 -17 73 19 79 1 0 5 -6 9 -12z m234 2 c0 -5 -5 -10 -11 -10 -5
0 -7 5 -4 10 3 6 8 10 11 10 2 0 4 -4 4 -10z m-5300 -14 c0 -3 -4 -8 -10 -11
-5 -3 -10 -1 -10 4 0 6 5 11 10 11 6 0 10 -2 10 -4z m4970 -25 c0 -29 -21 -57
-33 -44 -12 11 -7 61 6 66 23 10 27 7 27 -22z m30 0 c0 -17 -4 -32 -9 -36 -5
-3 -9 10 -8 30 2 42 17 47 17 6z m-7066 3 c3 -8 3 -27 0 -40 -6 -25 -7 -25
-21 -4 -8 11 -11 29 -8 40 8 24 21 26 29 4z m6974 -17 c3 -28 -1 -31 -55 -41
-32 -5 -33 -5 -33 30 0 31 3 36 19 31 10 -2 25 -1 32 4 21 13 34 5 37 -24z
m153 10 c-10 -9 -11 -8 -5 6 3 10 9 15 12 12 3 -3 0 -11 -7 -18z m59 3 c0 -5
-8 -10 -17 -10 -15 0 -16 2 -3 10 19 12 20 12 20 0z m-332 -25 c-3 -14 -1 -25
4 -25 5 0 6 -5 2 -11 -10 -17 -22 8 -16 37 2 13 7 24 9 24 3 0 3 -11 1 -25z
m-49 -22 c-2 -32 -3 -33 -6 -10 -5 32 -29 31 -27 -1 1 -12 -3 -19 -7 -16 -5 3
-9 16 -9 30 0 14 4 23 8 20 4 -2 14 -1 22 5 8 5 16 9 18 9 1 0 1 -17 1 -37z
m68 15 c-3 -8 -6 -5 -6 6 -1 11 2 17 5 13 3 -3 4 -12 1 -19z m-3947 -34 c0 -3
-13 4 -30 16 -16 12 -30 24 -30 26 0 3 14 -4 30 -16 17 -12 30 -24 30 -26z
m3707 21 c-13 -9 -14 -14 -6 -17 9 -3 8 -6 -3 -11 -9 -3 -22 1 -28 9 -10 11
-9 14 3 14 8 0 20 7 27 15 7 9 16 13 19 9 3 -3 -2 -12 -12 -19z m64 -50 c-3
-5 -8 6 -12 25 -4 19 -4 39 -1 45 8 12 20 -56 13 -70z m30 34 c-9 -22 -10 -22
-10 -3 -1 11 2 24 6 27 12 12 14 0 4 -24z m-153 -12 c4 -31 -12 -57 -35 -57
-15 0 -15 8 2 55 6 16 3 15 -14 -5 -24 -29 -28 -15 -5 18 21 30 48 24 52 -11z
m-4779 -34 c-21 -33 -21 -59 -3 -107 13 -34 -15 -8 -36 34 -26 51 -25 62 6
100 21 24 29 28 40 19 12 -10 11 -17 -7 -46z m4871 53 c0 -3 -4 -16 -10 -30
-9 -25 -43 -36 -54 -18 -3 5 5 8 17 8 15 -1 23 6 25 22 2 12 8 22 13 22 5 0 9
-2 9 -4z m-171 -63 c1 -7 -2 -13 -6 -13 -5 0 -9 17 -10 38 -1 32 0 33 7 12 4
-14 8 -31 9 -37z m-6279 -46 c-127 -123 -458 -431 -525 -487 -93 -79 -206
-170 -210 -170 -16 0 17 38 69 81 54 46 160 144 430 400 190 180 292 268 311
268 14 1 -6 -25 -75 -92z m1714 77 c7 -18 -1 -37 -13 -29 -5 2 -11 14 -14 25
-6 24 18 28 27 4z m4416 5 c0 -5 5 -7 10 -4 6 3 10 -1 10 -9 0 -9 -4 -16 -10
-16 -5 0 -7 -13 -4 -28 5 -26 3 -28 -43 -40 -26 -6 -69 -14 -95 -18 l-48 -6 0
51 c0 57 -4 55 105 70 33 5 63 9 68 10 4 0 7 -4 7 -10z m107 -21 c-3 -7 -5 -2
-5 12 0 14 2 19 5 13 2 -7 2 -19 0 -25z m-7538 -14 c26 -28 30 -39 20 -50 -6
-8 -17 -14 -24 -14 -19 0 -66 66 -59 84 10 25 29 19 63 -20z m6166 16 c3 -5 1
-10 -4 -10 -6 0 -11 5 -11 10 0 6 2 10 4 10 3 0 8 -4 11 -10z m1380 -30 c3 -5
1 -10 -4 -10 -6 0 -11 5 -11 10 0 6 2 10 4 10 3 0 8 -4 11 -10z m-368 -36 c-3
-3 -12 -4 -19 -1 -8 3 -5 6 6 6 11 1 17 -2 13 -5z m-140 -26 c-3 -8 -6 -5 -6
6 -1 11 2 17 5 13 3 -3 4 -12 1 -19z m1452 -22 c1 -6 -5 -1 -13 9 -8 11 -12
24 -8 29 5 9 20 -17 21 -38z m-72 3 l2 -24 -8 25 c-7 22 -9 23 -16 8 -4 -10
-4 -26 0 -35 5 -14 3 -15 -6 -6 -15 14 -3 66 14 60 7 -2 13 -14 14 -28z m33
27 c0 -3 -4 -8 -10 -11 -5 -3 -10 -1 -10 4 0 6 5 11 10 11 6 0 10 -2 10 -4z
m-144 -33 c-10 -10 -19 5 -10 18 6 11 8 11 12 0 2 -7 1 -15 -2 -18z m64 -2 c0
-16 -7 -34 -15 -41 -10 -9 -15 -9 -15 -1 0 6 5 11 10 11 6 0 10 11 10 25 0 14
-4 25 -10 25 -5 0 -10 -9 -10 -21 0 -11 -5 -17 -10 -14 -14 9 7 45 25 45 10 0
15 -10 15 -29z m-1876 -7 c9 -24 7 -34 -7 -34 -19 0 -36 20 -30 36 7 19 29 18
37 -2z m1786 5 c0 -5 -4 -7 -10 -4 -5 3 -10 -3 -10 -15 0 -12 5 -18 10 -15 6
3 10 1 10 -4 0 -25 -28 -8 -32 19 -4 24 -1 30 14 30 10 0 18 -5 18 -11z m-133
-31 c-2 -24 -9 -34 -30 -41 -27 -9 -55 1 -29 10 6 3 12 14 12 24 0 11 -4 17
-10 14 -5 -3 -10 -2 -10 4 0 9 20 16 57 20 8 1 12 -10 10 -31z m74 5 c-5 -18
-15 -29 -29 -31 -19 -3 -22 1 -22 27 0 28 3 31 29 31 27 0 29 -2 22 -27z
m-1214 11 c-3 -3 -12 -4 -19 -1 -8 3 -5 6 6 6 11 1 17 -2 13 -5z m1299 -31
c-11 -11 -17 4 -9 23 7 18 8 18 11 1 2 -10 1 -21 -2 -24z m-248 1 c4 -28 -20
-46 -55 -42 -22 2 -28 8 -28 28 0 16 6 26 18 28 13 3 17 -3 17 -22 0 -16 6
-26 14 -26 13 0 26 20 26 41 0 16 -18 10 -23 -8 -3 -13 -5 -12 -6 5 -1 30 33
26 37 -4z m-105 9 c-7 -2 -13 -11 -13 -19 0 -8 -4 -14 -10 -14 -5 0 -10 6 -10
14 0 14 15 24 35 24 6 0 4 -2 -2 -5z m-1499 -16 c18 -13 18 -15 1 -40 -20 -32
-19 -31 -39 -12 -12 13 -13 21 -4 40 13 29 17 30 42 12z m1446 -7 c0 -5 -7 -7
-15 -4 -10 4 -15 0 -15 -12 0 -9 -3 -15 -6 -11 -11 10 4 37 21 37 8 0 15 -4
15 -10z m-162 -37 c-2 -20 -9 -39 -17 -41 -10 -3 -11 -1 -5 9 5 8 9 24 9 36 1
21 -1 22 -22 8 -33 -22 -42 -18 -13 5 39 30 52 26 48 -17z m45 16 c-4 -13 -9
-17 -15 -11 -11 11 -3 32 12 32 4 0 6 -9 3 -21z m67 -5 c0 -14 -4 -23 -10 -19
-5 3 -10 15 -10 26 0 10 5 19 10 19 6 0 10 -12 10 -26z m-212 4 c27 -27 7 -78
-30 -78 -10 0 -18 5 -18 11 0 5 4 8 9 5 16 -10 41 5 41 25 0 24 -27 36 -43 20
-8 -8 -6 -11 8 -11 10 0 16 -3 12 -6 -3 -4 -13 -4 -22 0 -13 4 -14 10 -5 26
12 23 30 26 48 8z m256 -13 c-4 -8 -13 -15 -22 -15 -13 0 -12 3 4 15 24 18 25
18 18 0z m51 5 c-3 -5 -11 -10 -16 -10 -6 0 -7 5 -4 10 3 6 11 10 16 10 6 0 7
-4 4 -10z m-2927 -37 c-9 -10 -13 -24 -11 -31 3 -7 -1 -10 -9 -7 -9 4 -47 -28
-101 -84 -82 -85 -86 -92 -75 -116 7 -15 17 -24 25 -21 21 8 16 -4 -20 -48
-33 -40 -34 -44 -36 -146 -3 -131 -11 -146 -11 -21 0 53 -4 90 -9 87 -5 -3 -8
-14 -6 -24 1 -9 0 -11 -2 -4 -6 16 -8 16 -53 -14 -22 -15 -43 -24 -46 -21 -4
3 17 32 45 64 28 31 51 65 51 75 0 11 5 15 14 12 16 -6 36 24 36 55 0 27 -8
26 -37 -1 -15 -14 -23 -17 -23 -8 0 7 30 41 68 76 37 34 99 93 137 131 39 38
72 67 74 66 2 -2 -3 -11 -11 -20z m1280 22 c-6 -6 -7 -7 -187 -40 -125 -23
-154 -25 -138 -9 4 4 69 17 144 29 146 24 190 28 181 20z m1149 -48 c5 -33 3
-38 -23 -47 -15 -6 -62 -14 -104 -17 -75 -6 -77 -5 -83 18 -11 38 -8 48 15 60
28 15 171 38 181 29 4 -4 10 -23 14 -43z m127 37 c3 -9 2 -23 -4 -32 -8 -14
-9 -12 -10 11 0 15 -4 27 -10 27 -5 0 -10 -5 -10 -12 0 -6 -3 -9 -6 -5 -9 8 5
27 21 27 7 0 16 -7 19 -16z m211 -4 c-3 -5 -10 -10 -16 -10 -5 0 -9 5 -9 10 0
6 7 10 16 10 8 0 12 -4 9 -10z m-88 -6 c-3 -3 -12 -4 -19 -1 -8 3 -5 6 6 6 11
1 17 -2 13 -5z m-663 -43 c4 -5 -3 -7 -14 -4 -23 6 -26 13 -6 13 8 0 17 -4 20
-9z m-52 -32 c-4 -30 -3 -32 21 -27 15 3 24 1 21 -3 -3 -5 -16 -9 -30 -9 -20
0 -24 5 -24 28 0 24 7 42 15 42 1 0 -1 -14 -3 -31z m-1098 2 c5 -8 -15 -30
-41 -45 -9 -5 -10 0 -2 24 11 29 32 40 43 21z m-2827 -16 c9 -25 -2 -27 -22
-5 -17 18 -17 20 -1 20 9 0 19 -7 23 -15z m-3267 -30 c13 -14 21 -25 18 -25
-2 0 -15 11 -28 25 -13 14 -21 25 -18 25 2 0 15 -11 28 -25z m5247 -7 c-3 -7
-5 -2 -5 12 0 14 2 19 5 13 2 -7 2 -19 0 -25z m3183 -47 c0 -5 -6 -12 -12 -14
-10 -4 -10 -8 1 -15 20 -15 -42 -26 -348 -63 -98 -12 -104 -12 -117 6 -13 18
-14 18 -14 1 0 -12 -5 -16 -16 -12 -9 3 -20 6 -25 6 -6 0 -8 4 -4 9 3 6 -6 6
-24 1 -16 -4 -32 -6 -34 -3 -9 8 -97 -9 -91 -18 3 -5 -7 -10 -23 -10 -26 -2
-25 -2 7 -9 29 -6 31 -8 9 -9 -14 0 -39 -7 -55 -15 -16 -8 -90 -21 -164 -30
-74 -9 -156 -19 -182 -22 l-48 -6 0 46 c0 39 3 46 23 51 66 14 317 37 358 32
44 -5 139 6 406 47 85 14 224 28 331 35 12 0 22 -3 22 -8z m-8375 -11 c3 -5 1
-10 -4 -10 -6 0 -11 5 -11 10 0 6 2 10 4 10 3 0 8 -4 11 -10z m5065 -19 c0 -6
-4 -12 -8 -15 -5 -3 -9 1 -9 9 0 8 4 15 9 15 4 0 8 -4 8 -9z m940 -19 c0 -13
-12 -22 -22 -16 -10 6 -1 24 13 24 5 0 9 -4 9 -8z m797 -129 c-3 -10 -5 -4 -5
12 0 17 2 24 5 18 2 -7 2 -21 0 -30z m-1977 18 c0 -21 -584 -551 -608 -551
-22 0 70 93 228 230 67 58 177 156 246 218 69 61 127 112 130 112 2 0 4 -4 4
-9z m-3470 -25 c0 -2 -7 -9 -15 -16 -12 -10 -15 -10 -15 4 0 9 7 16 15 16 8 0
15 -2 15 -4z m3982 -145 c7 -9 -18 13 -55 49 -37 35 -67 67 -67 71 0 7 103
-95 122 -120z m1783 119 c3 -5 1 -10 -4 -10 -6 0 -11 5 -11 10 0 6 2 10 4 10
3 0 8 -4 11 -10z m-3440 -42 c20 -19 20 -19 -10 -12 -34 8 -55 22 -55 36 0 14
42 -1 65 -24z m2982 -60 c-2 -18 -4 -6 -4 27 0 33 2 48 4 33 2 -15 2 -42 0
-60z m-4436 9 c-8 -8 -11 -7 -11 4 0 20 13 34 18 19 3 -7 -1 -17 -7 -23z
m1219 -1 c0 -3 -4 -8 -10 -11 -5 -3 -10 -1 -10 4 0 6 5 11 10 11 6 0 10 -2 10
-4z m2858 -2 c-7 -6 -31 -10 -396 -59 -145 -20 -269 -34 -275 -32 -6 2 58 13
143 26 85 12 227 32 315 45 166 25 222 30 213 20z m-611 -10 c-3 -3 -12 -4
-19 -1 -8 3 -5 6 6 6 11 1 17 -2 13 -5z m-3517 -49 c0 -26 -14 -33 -25 -15 -9
14 1 40 15 40 5 0 10 -11 10 -25z m3110 0 c0 -9 -6 -12 -15 -9 -8 4 -15 10
-15 15 0 5 7 9 15 9 8 0 15 -7 15 -15z m139 -9 c9 -10 9 -16 1 -21 -12 -7 -40
11 -40 26 0 14 26 10 39 -5z m2931 -15 c0 -12 -20 -25 -27 -18 -7 7 6 27 18
27 5 0 9 -4 9 -9z m-2742 -33 c-2 -6 -10 -14 -16 -16 -7 -2 -10 2 -6 12 7 18
28 22 22 4z m-700 -403 l-33 -30 28 31 27 30 2 190 3 189 2 -190 3 -189 -32
-31z m2745 389 c39 -7 48 -21 20 -31 -10 -3 -25 -14 -33 -24 -12 -14 -46 -21
-168 -33 -84 -9 -172 -16 -197 -16 -45 0 -45 0 -45 35 0 42 -4 41 190 59 181
17 187 17 233 10z m-5943 -38 c0 -2 -8 -10 -17 -17 -16 -13 -17 -12 -4 4 13
16 21 21 21 13z m310 -35 c0 -6 -4 -13 -10 -16 -5 -3 -10 1 -10 9 0 9 5 16 10
16 6 0 10 -4 10 -9z m2600 -35 c0 -2 -8 -10 -17 -17 -16 -13 -17 -12 -4 4 13
16 21 21 21 13z m-2905 -46 c-3 -5 -11 -10 -16 -10 -6 0 -7 5 -4 10 3 6 11 10
16 10 6 0 7 -4 4 -10z m269 -15 c-4 -9 -15 -20 -26 -26 -19 -10 -19 -10 -3 15
19 28 38 35 29 11z m3176 5 c0 -5 -5 -10 -11 -10 -5 0 -7 5 -4 10 3 6 8 10 11
10 2 0 4 -4 4 -10z m-628 -27 c-11 -16 -40 -46 -63 -68 -35 -33 -32 -28 15 28
60 69 82 88 48 40z m1048 -12 c0 -23 -16 -36 -25 -21 -9 14 1 40 15 40 5 0 10
-9 10 -19z m-4930 -15 c0 -2 -8 -10 -17 -17 -16 -13 -17 -12 -4 4 13 16 21 21
21 13z m5668 -18 c-3 -7 -18 -14 -34 -16 -28 -3 -28 -3 -9 12 24 19 48 21 43
4z m-158 -18 c0 -5 -6 -10 -12 -11 -7 0 -31 -2 -52 -5 -24 -2 -36 0 -30 5 19
19 94 27 94 11z m-145 -20 c-3 -5 -12 -10 -18 -10 -7 0 -6 4 3 10 19 12 23 12
15 0z m-955 -10 c0 -5 -5 -10 -11 -10 -5 0 -7 5 -4 10 3 6 8 10 11 10 2 0 4
-4 4 -10z m-520 -25 c-7 -8 -17 -15 -23 -15 -5 0 -2 9 8 20 21 23 35 19 15 -5z
m-3806 9 c17 -7 23 -64 7 -64 -24 0 -41 14 -41 34 0 33 8 40 34 30z m1036 -25
c0 -20 -15 -26 -25 -9 -9 15 3 43 15 35 5 -3 10 -15 10 -26z m4560 21 c0 -5
-7 -10 -16 -10 -8 0 -12 5 -9 10 3 6 10 10 16 10 5 0 9 -4 9 -10z m-2170 -15
c-7 -8 -17 -15 -22 -15 -6 0 -5 7 2 15 7 8 17 15 22 15 6 0 5 -7 -2 -15z
m-1390 -5 c0 -5 -4 -10 -10 -10 -5 0 -10 5 -10 10 0 6 5 10 10 10 6 0 10 -4
10 -10z m1640 7 c0 -1 -44 -45 -97 -97 l-98 -95 95 98 c88 90 100 102 100 94z
m1015 -6 c3 -5 1 -12 -5 -16 -5 -3 -10 1 -10 9 0 18 6 21 15 7z m1232 -268
c-1 -49 -3 -9 -3 87 0 96 2 136 3 88 2 -49 2 -127 0 -175z m-5777 137 c-58
-55 -108 -100 -112 -100 -3 0 -4 9 -1 20 3 11 37 46 76 77 40 32 82 68 95 81
13 12 28 22 35 22 7 -1 -35 -46 -93 -100z m1910 82 c0 -12 -133 -142 -139
-137 -7 7 102 123 117 124 6 0 12 6 12 11 0 6 2 10 5 10 3 0 5 -4 5 -8z
m-2250 -29 c0 -9 3 -14 6 -10 3 3 19 1 35 -5 24 -8 28 -14 23 -32 -4 -11 -7
-34 -5 -51 l2 -29 -32 29 c-35 34 -58 82 -51 107 5 21 22 14 22 -9z m2005 -13
c-3 -5 -10 -10 -16 -10 -5 0 -9 5 -9 10 0 6 7 10 16 10 8 0 12 -4 9 -10z
m2815 0 c0 -5 -10 -10 -22 -9 -22 0 -22 1 -3 9 11 5 21 9 23 9 1 1 2 -3 2 -9z
m-1340 -20 c0 -5 -5 -10 -11 -10 -5 0 -7 5 -4 10 3 6 8 10 11 10 2 0 4 -4 4
-10z m117 -97 c-38 -35 -71 -63 -73 -60 -3 2 26 34 63 70 37 36 70 63 73 60 3
-2 -26 -34 -63 -70z m693 63 c0 -3 -4 -8 -10 -11 -5 -3 -10 -1 -10 4 0 6 5 11
10 11 6 0 10 -2 10 -4z m-889 -47 c-5 -13 -10 -20 -10 -16 -1 4 -11 3 -23 -4
-19 -9 -17 -5 7 19 35 34 39 34 26 1z m2236 -6 c-3 -10 -5 -4 -5 12 0 17 2 24
5 18 2 -7 2 -21 0 -30z m30 0 c-3 -10 -5 -4 -5 12 0 17 2 24 5 18 2 -7 2 -21
0 -30z m39 17 c0 -11 -4 -20 -8 -20 -4 0 -8 9 -8 20 0 11 4 20 8 20 4 0 8 -9
8 -20z m-4236 6 c0 -2 -8 -10 -17 -17 -16 -13 -17 -12 -4 4 13 16 21 21 21 13z
m4049 -24 c0 -14 -2 -13 -9 3 -5 11 -9 14 -9 7 -1 -7 -6 -10 -12 -6 -8 4 -7 9
2 15 17 10 29 2 28 -19z m61 18 c0 -5 -2 -10 -4 -10 -3 0 -8 5 -11 10 -3 6 -1
10 4 10 6 0 11 -4 11 -10z m30 -10 c0 -11 -2 -20 -4 -20 -2 0 -6 9 -9 20 -3
11 -1 20 4 20 5 0 9 -9 9 -20z m-4424 -5 c-23 -17 -36 -19 -36 -6 0 5 8 12 18
14 32 9 37 6 18 -8z m4174 5 c0 -5 -2 -10 -4 -10 -3 0 -8 5 -11 10 -3 6 -1 10
4 10 6 0 11 -4 11 -10z m60 -10 c0 -11 -2 -20 -4 -20 -2 0 -6 9 -9 20 -3 11
-1 20 4 20 5 0 9 -9 9 -20z m27 -2 c-3 -8 -6 -5 -6 6 -1 11 2 17 5 13 3 -3 4
-12 1 -19z m-70 -10 c-3 -8 -6 -5 -6 6 -1 11 2 17 5 13 3 -3 4 -12 1 -19z
m-3303 -20 c-27 -30 -83 -81 -103 -92 -13 -7 -13 -6 -4 4 6 7 9 20 6 29 -4 12
-3 13 4 3 8 -10 21 -3 59 32 53 49 68 58 38 24z m1449 -100 c-64 -62 -180
-178 -258 -257 -77 -79 -180 -176 -230 -216 -49 -40 -119 -102 -154 -137 -36
-34 -61 -56 -56 -48 5 8 -20 -14 -56 -50 -63 -63 -169 -156 -169 -148 0 3 21
27 48 54 26 27 54 59 63 69 9 11 95 96 192 188 168 161 175 169 170 200 -7 43
18 68 42 43 9 -9 20 -16 24 -16 10 0 111 79 111 87 0 3 -7 -1 -17 -8 -15 -13
-15 -12 -5 8 15 27 83 84 93 77 4 -2 11 1 15 7 5 8 3 9 -7 4 -8 -5 -3 4 10 18
18 20 27 24 33 15 7 -12 12 -4 9 14 0 5 3 7 7 5 8 -2 39 25 190 160 26 24 51
43 55 43 4 0 -45 -51 -110 -112z m-2313 98 c0 -3 -4 -8 -10 -11 -5 -3 -10 -1
-10 4 0 6 5 11 10 11 6 0 10 -2 10 -4z m-1402 -30 c3 -12 -1 -17 -10 -14 -7 3
-15 13 -16 22 -3 12 1 17 10 14 7 -3 15 -13 16 -22z m1362 -12 c0 -8 -5 -12
-10 -9 -6 4 -8 11 -5 16 9 14 15 11 15 -7z m40 -8 c0 -2 -8 -10 -17 -17 -16
-13 -17 -12 -4 4 13 16 21 21 21 13z m-160 -41 c-13 -14 -26 -23 -28 -20 -7 7
29 45 41 45 6 0 0 -11 -13 -25z m3528 -2 c-4 -22 -22 -20 -26 1 -2 10 3 16 13
16 10 0 15 -7 13 -17z m1189 -5 c-3 -8 -6 -5 -6 6 -1 11 2 17 5 13 3 -3 4 -12
1 -19z m-1457 -22 c0 -2 -8 -10 -17 -17 -16 -13 -17 -12 -4 4 13 16 21 21 21
13z m-2407 -40 c-10 -17 -73 -70 -73 -61 0 9 63 72 73 74 4 0 4 -5 0 -13z
m1227 -61 c0 -17 -63 -75 -82 -75 -27 0 -22 17 13 42 21 16 29 29 26 44 -3 18
-1 19 20 10 12 -6 23 -15 23 -21z m4035 25 c3 -5 -1 -10 -9 -10 -9 0 -16 5
-16 10 0 6 4 10 9 10 6 0 13 -4 16 -10z m-3285 -10 c0 -5 -4 -10 -10 -10 -5 0
-10 5 -10 10 0 6 5 10 10 10 6 0 10 -4 10 -10z m1403 3 c-7 -2 -21 -2 -30 0
-10 3 -4 5 12 5 17 0 24 -2 18 -5z m-83 -33 c0 -5 -4 -10 -10 -10 -5 0 -10 5
-10 10 0 6 5 10 10 10 6 0 10 -4 10 -10z m127 -77 c-3 -10 -5 -4 -5 12 0 17 2
24 5 18 2 -7 2 -21 0 -30z m30 -5 c-3 -7 -5 -2 -5 12 0 14 2 19 5 13 2 -7 2
-19 0 -25z m-4647 4 c0 -14 -11 -21 -26 -15 -8 3 -11 9 -8 14 7 11 34 12 34 1z
m2320 4 c0 -3 -4 -8 -10 -11 -5 -3 -10 -1 -10 4 0 6 5 11 10 11 6 0 10 -2 10
-4z m-2380 -26 c0 -5 -5 -10 -11 -10 -5 0 -7 5 -4 10 3 6 8 10 11 10 2 0 4 -4
4 -10z m5198 -29 c11 -6 10 -10 -3 -15 -14 -5 -16 -14 -12 -42 5 -29 4 -34 -8
-24 -9 8 -11 19 -5 41 5 17 5 29 -1 29 -5 0 -9 5 -9 10 0 12 20 13 38 1z
m-5786 -43 c-15 -15 -24 -6 -16 16 5 12 10 14 17 7 8 -8 8 -14 -1 -23z m4184
-15 c-10 -10 -19 5 -10 18 6 11 8 11 12 0 2 -7 1 -15 -2 -18z m-4301 7 c-3 -5
-11 -10 -16 -10 -6 0 -7 5 -4 10 3 6 11 10 16 10 6 0 7 -4 4 -10z m4150 -21
c4 -6 5 -12 2 -15 -7 -7 -37 7 -37 17 0 13 27 11 35 -2z m449 -10 c-3 -5 -10
-7 -15 -3 -5 3 -7 10 -3 15 3 5 10 7 15 3 5 -3 7 -10 3 -15z m-1206 -10 c2
-10 -4 -15 -15 -14 -18 1 -23 6 -23 26 0 16 34 6 38 -12z m-98 -4 c0 -16 -34
-38 -44 -28 -7 7 23 43 36 43 4 0 8 -7 8 -15z m2477 9 c-3 -3 -12 -4 -19 -1
-8 3 -5 6 6 6 11 1 17 -2 13 -5z m-4497 -10 c0 -15 -42 -64 -51 -59 -15 10
-10 43 9 54 19 12 42 14 42 5z m1380 2 c0 -3 -4 -8 -10 -11 -5 -3 -10 -1 -10
4 0 6 5 11 10 11 6 0 10 -2 10 -4z m3210 -16 c0 -5 -4 -10 -10 -10 -5 0 -10 5
-10 10 0 6 5 10 10 10 6 0 10 -4 10 -10z m1260 -32 c0 -12 -24 -10 -37 3 -6 6
-9 18 -6 26 5 11 9 11 24 -3 11 -9 19 -21 19 -26z m260 -433 c-5 -193 -6 -177
-6 125 0 190 2 289 5 220 3 -69 4 -224 1 -345z m-4042 431 c0 -22 -2 -23 -19
-8 -11 9 -19 20 -19 24 0 5 8 8 19 8 13 0 19 -7 19 -24z m3360 -10 c2 -10 -1
-23 -7 -29 -15 -15 -46 16 -37 38 8 21 40 15 44 -9z m-7921 -2 c5 -17 -46 -27
-63 -13 -8 6 -11 16 -8 21 8 12 67 6 71 -8z m8303 -12 c0 -16 -6 -37 -14 -48
-15 -19 -15 -19 -30 1 -21 28 -20 41 6 59 31 22 38 20 38 -12z m367 -159 c-2
-37 -3 -9 -3 62 0 72 1 102 3 68 2 -34 2 -93 0 -130z m1346 180 c9 -8 -12 -33
-27 -33 -20 0 -39 17 -32 29 8 12 49 15 59 4z m-2904 -40 c-1 -38 -1 -38 -9
-9 -8 27 -6 46 6 46 2 0 4 -17 3 -37z m-1844 1 c0 -16 -38 -73 -53 -79 -15 -5
-42 17 -42 35 0 22 49 60 72 57 13 -2 23 -8 23 -13z m-865 -33 c0 -35 -18 -55
-37 -40 -17 15 -16 24 3 54 19 30 34 24 34 -14z m416 2 c-7 -7 -26 7 -26 19 0
6 6 6 15 -2 9 -7 13 -15 11 -17z m1911 11 c9 -25 -12 -38 -31 -19 -9 9 -14 21
-11 26 10 14 35 10 42 -7z m893 -4 c0 -5 -9 -10 -20 -10 -11 0 -20 5 -20 10 0
6 9 10 20 10 11 0 20 -4 20 -10z m-4300 -128 c-68 -64 -154 -148 -190 -186
-36 -37 -83 -82 -105 -99 -39 -31 -39 -31 12 29 61 72 361 358 383 367 8 3 17
6 20 6 3 1 -51 -52 -120 -117z m3345 98 c3 -5 2 -10 -4 -10 -5 0 -13 5 -16 10
-3 6 -2 10 4 10 5 0 13 -4 16 -10z m-1890 -20 c3 -5 1 -10 -4 -10 -6 0 -11 5
-11 10 0 6 2 10 4 10 3 0 8 -4 11 -10z m2789 -5 c-4 -8 -11 -15 -16 -15 -6 0
-5 6 2 15 7 8 14 15 16 15 2 0 1 -7 -2 -15z m-5284 1 c0 -3 -4 -8 -10 -11 -5
-3 -10 -1 -10 4 0 6 5 11 10 11 6 0 10 -2 10 -4z m4404 -14 c3 -5 -8 -6 -25
-4 -16 2 -29 6 -29 8 0 8 49 4 54 -4z m-2386 -58 c0 -18 -6 -50 -14 -71 -12
-34 -13 -35 -14 -11 0 17 -8 31 -20 38 -18 10 -19 13 -6 25 8 8 20 28 27 44
15 35 27 24 27 -25z m1542 46 c0 -5 -4 -10 -9 -10 -6 0 -13 5 -16 10 -3 6 1
10 9 10 9 0 16 -4 16 -10z m1156 -45 c-27 -41 -74 -28 -62 19 7 29 34 37 58
17 15 -13 16 -18 4 -36z m-2151 -5 c0 -13 -5 -25 -12 -27 -13 -5 -27 32 -18
47 11 18 30 5 30 -20z m2215 20 c0 -5 -10 -10 -22 -9 -22 0 -22 1 -3 9 11 5
21 9 23 9 1 1 2 -3 2 -9z m-294 -42 l29 -33 -32 29 c-18 17 -33 31 -33 33 0 8
8 1 36 -29z m-1316 -4 c0 -8 -4 -12 -10 -9 -5 3 -10 13 -10 21 0 8 5 12 10 9
6 -3 10 -13 10 -21z m2390 1 c0 -8 -4 -15 -8 -15 -5 0 -9 7 -9 15 0 8 4 15 9
15 4 0 8 -7 8 -15z m-3470 -17 c0 -17 -3 -19 -9 -9 -5 7 -14 10 -20 7 -6 -4
-11 -3 -11 3 0 5 8 12 18 14 9 3 18 5 20 6 1 0 2 -9 2 -21z m2530 -23 c-7 -9
-15 -13 -17 -11 -7 7 7 26 19 26 6 0 6 -6 -2 -15z m-4519 -22 c13 -16 12 -17
-3 -4 -10 7 -18 15 -18 17 0 8 8 3 21 -13z m1169 3 c0 -3 -4 -8 -10 -11 -5 -3
-10 -1 -10 4 0 6 5 11 10 11 6 0 10 -2 10 -4z m3321 -8 c1 -7 1 -16 0 -20 0
-5 4 -8 9 -8 6 0 9 -19 9 -42 -2 -34 -3 -37 -6 -13 -6 42 -24 58 -21 18 2 -18
-1 -32 -7 -33 -14 0 -28 58 -21 87 7 24 35 32 37 11z m-5263 -21 c4 -18 -14
-22 -37 -8 -7 5 -10 14 -6 20 10 17 39 9 43 -12z m239 -7 c13 0 24 -48 13 -55
-5 -3 -22 -2 -39 1 -32 7 -36 18 -25 62 6 21 8 21 24 7 9 -8 21 -15 27 -15z
m3973 -10 c0 -11 -6 -20 -14 -20 -21 0 -31 21 -15 31 22 14 29 11 29 -11z
m312 5 c0 -5 -5 -11 -11 -13 -6 -2 -11 4 -11 13 0 9 5 15 11 13 6 -2 11 -8 11
-13z m1498 5 c0 -5 -5 -10 -11 -10 -5 0 -7 5 -4 10 3 6 8 10 11 10 2 0 4 -4 4
-10z m-7249 -36 c18 -19 55 -51 82 -71 57 -42 74 -68 56 -89 -19 -23 -31 -17
-107 54 -39 37 -87 79 -104 94 -28 23 -31 29 -18 38 28 18 56 10 91 -26z
m4749 26 c0 -5 -4 -10 -10 -10 -5 0 -10 5 -10 10 0 6 5 10 10 10 6 0 10 -4 10
-10z m4074 -11 c-10 -11 -28 -25 -39 -31 -12 -5 -7 3 13 21 37 35 55 42 26 10z
m451 6 c19 -15 19 -16 -4 -33 -13 -9 -37 -24 -53 -33 -16 -9 -78 -64 -139
-122 -75 -73 -115 -104 -125 -100 -12 4 25 46 137 154 85 82 156 148 159 148
3 0 14 -6 25 -14z m-8845 -99 c0 -6 -22 12 -50 39 -27 27 -50 54 -50 59 0 6
23 -12 50 -39 28 -27 50 -54 50 -59z m4713 53 c-7 -7 -19 -9 -28 -5 -13 5 -14
10 -4 27 10 20 12 20 27 5 12 -12 13 -19 5 -27z m-623 -3 c-13 -13 -35 7 -25
24 5 8 11 8 21 -1 10 -8 12 -15 4 -23z m417 18 c-3 -3 -12 -4 -19 -1 -8 3 -5
6 6 6 11 1 17 -2 13 -5z m1469 -48 c-6 -30 -36 -60 -36 -36 0 6 4 10 10 10 5
0 12 16 16 35 3 20 9 34 11 31 3 -3 2 -21 -1 -40z m-4798 16 c3 -9 -2 -13 -14
-10 -9 1 -19 9 -22 16 -3 9 2 13 14 10 9 -1 19 -9 22 -16z m3047 8 c3 -5 -1
-10 -9 -10 -9 0 -16 5 -16 10 0 6 4 10 9 10 6 0 13 -4 16 -10z m2001 -1 c8
-14 -18 -31 -30 -19 -9 9 0 30 14 30 5 0 12 -5 16 -11z m-2336 -34 c0 -8 -6
-15 -14 -15 -17 0 -28 14 -19 24 12 12 33 6 33 -9z m-3063 -37 c-3 -7 -5 -2
-5 12 0 14 2 19 5 13 2 -7 2 -19 0 -25z m273 12 c0 -5 -4 -10 -10 -10 -5 0
-10 5 -10 10 0 6 5 10 10 10 6 0 10 -4 10 -10z m6440 -22 c0 -18 -2 -20 -9 -8
-6 8 -7 18 -5 22 9 14 14 9 14 -14z m-2766 -14 c5 -14 4 -15 -9 -4 -17 14 -19
20 -6 20 5 0 12 -7 15 -16z m-4624 -97 c0 -14 -16 1 -61 56 l-43 52 52 -50
c29 -27 52 -53 52 -58z m6745 62 c-8 -12 -32 -12 -40 1 -11 18 5 31 26 20 11
-6 17 -15 14 -21z m-6063 -1 c-7 -7 -12 -8 -12 -2 0 14 12 26 19 19 2 -3 -1
-11 -7 -17z m5258 -28 c0 -21 -4 -42 -10 -45 -6 -4 -10 13 -10 45 0 32 4 49
10 45 6 -3 10 -24 10 -45z m884 32 c9 -14 -12 -35 -28 -29 -23 9 -20 37 3 37
11 0 22 -4 25 -8z m466 -7 c0 -8 -4 -15 -10 -15 -5 0 -10 7 -10 15 0 8 5 15
10 15 6 0 10 -7 10 -15z m-7526 -174 c-6 -6 -174 161 -174 174 0 5 40 -31 90
-80 49 -49 87 -91 84 -94z m2216 134 c-24 -25 -46 -45 -49 -45 -3 0 15 20 39
45 24 25 46 45 49 45 3 0 -15 -20 -39 -45z m5392 20 c4 -19 -2 -30 -28 -50
-37 -29 -46 -30 -109 -13 -29 8 -45 17 -44 28 0 10 2 11 6 3 6 -15 49 -17 58
-3 3 6 17 10 30 10 15 0 26 7 30 19 5 17 17 24 46 30 4 0 9 -10 11 -24z m678
10 c0 -8 -7 -15 -15 -15 -16 0 -20 12 -8 23 11 12 23 8 23 -8z m-4820 -10 c0
-8 -4 -15 -10 -15 -5 0 -10 7 -10 15 0 8 5 15 10 15 6 0 10 -7 10 -15z m3680
-2 c0 -10 -9 -13 -27 -11 -37 4 -39 23 -3 24 20 1 30 -4 30 -13z m70 -9 c0
-20 -4 -25 -16 -20 -9 3 -20 6 -25 6 -5 0 -9 9 -9 20 0 15 7 20 25 20 20 0 25
-5 25 -26z m-3700 6 c0 -5 -7 -10 -15 -10 -8 0 -15 5 -15 10 0 6 7 10 15 10 8
0 15 -4 15 -10z m1610 -21 c0 -5 -4 -9 -10 -9 -5 0 -10 7 -10 16 0 8 5 12 10
9 6 -3 10 -10 10 -16z m2157 -1 c-3 -8 -6 -5 -6 6 -1 11 2 17 5 13 3 -3 4 -12
1 -19z m130 -13 c0 -8 -4 -15 -9 -15 -4 0 -8 7 -8 15 0 8 4 15 8 15 5 0 9 -7
9 -15z m-6977 -20 c0 -14 -4 -25 -10 -25 -11 0 -14 33 -3 43 11 11 13 8 13
-18z m1228 -4 c-13 -15 -27 -26 -31 -24 -4 3 5 16 20 29 37 31 40 30 11 -5z
m-1358 -20 c0 -18 -18 -21 -30 -6 -10 13 -9 15 9 15 11 0 21 -4 21 -9z m8270
-9 c0 -15 -131 -122 -148 -121 -13 0 -11 3 5 9 11 5 47 34 80 64 61 59 63 61
63 48z m-2470 -12 c0 -5 -4 -10 -10 -10 -5 0 -10 5 -10 10 0 6 5 10 10 10 6 0
10 -4 10 -10z m-2860 -63 c0 -5 -7 -4 -15 3 -8 7 -15 20 -15 29 1 13 3 13 15
-3 8 -11 15 -24 15 -29z m-1285 24 c3 -5 1 -13 -5 -16 -15 -9 -43 3 -35 15 8
13 32 13 40 1z m3565 -10 c0 -10 -30 -24 -37 -17 -3 3 -2 9 2 15 8 13 35 15
35 2z m2654 -20 c3 -4 -6 -6 -19 -3 -14 2 -25 6 -25 8 0 8 39 4 44 -5z m-6277
-17 c-3 -3 -12 -4 -19 -1 -8 3 -5 6 6 6 11 1 17 -2 13 -5z m-1097 -124 c0 -5
-5 -10 -11 -10 -5 0 -7 5 -4 10 3 6 8 10 11 10 2 0 4 -4 4 -10z m3485 -15 c6
-2 -35 -3 -90 -3 -60 0 -86 3 -65 7 34 6 134 4 155 -4z m585 5 c-14 -4 -146
-7 -295 -7 l-270 1 215 6 c340 9 378 9 350 0z m1044 -136 c3 -9 6 -317 6 -685
l0 -669 -175 0 -175 0 0 685 0 685 169 0 c145 0 170 -2 175 -16z m-5134 -34
c0 -5 -4 -10 -10 -10 -5 0 -10 5 -10 10 0 6 5 10 10 10 6 0 10 -4 10 -10z
m3180 0 c0 -5 -4 -10 -10 -10 -5 0 -10 5 -10 10 0 6 5 10 10 10 6 0 10 -4 10
-10z m2260 -11 c0 -11 -4 -17 -10 -14 -5 3 -10 13 -10 21 0 8 5 14 10 14 6 0
10 -9 10 -21z m-5543 -291 c72 -156 169 -362 214 -458 l83 -176 71 151 c39 82
138 290 219 462 l148 312 197 -6 c108 -3 197 -7 199 -8 2 -2 -9 -22 -24 -46
-15 -24 -72 -135 -127 -248 -156 -322 -395 -817 -440 -913 l-40 -88 -202 0
-202 0 -127 265 c-140 292 -454 939 -485 997 -10 20 -17 39 -14 41 2 3 93 3
201 1 l197 -4 132 -282z m1491 280 c8 -8 12 -56 12 -150 l0 -138 -174 0 -173
0 -6 68 c-8 84 -9 180 -1 210 6 22 9 22 168 22 113 0 166 -4 174 -12z m1250 2
c94 -15 133 -30 188 -75 66 -55 96 -126 102 -244 8 -168 -35 -260 -140 -299
l-51 -19 37 -7 c48 -9 107 -63 137 -124 21 -41 24 -62 24 -167 0 -110 -2 -125
-27 -178 -46 -99 -130 -156 -258 -176 -39 -7 -274 -11 -592 -11 l-526 0 -1
646 c0 356 1 649 3 653 8 12 1022 13 1104 1z m2021 -647 l4 -653 -177 0 -176
0 0 655 0 654 173 -2 172 -2 4 -652z m2362 431 l-3 -144 196 0 196 0 0 -135 0
-135 -190 0 -190 0 0 -178 c0 -125 4 -182 12 -190 8 -8 66 -12 196 -12 l185 0
-7 -52 c-3 -29 -6 -95 -6 -146 l0 -93 -282 3 c-246 3 -288 5 -323 21 -50 23
-82 52 -106 99 -17 34 -19 61 -19 293 l0 255 -90 0 -90 0 0 53 c0 28 3 89 7
135 l6 82 83 0 84 0 0 123 0 123 128 12 c70 6 146 17 167 25 22 7 42 12 45 9
3 -2 3 -68 1 -148z m-842 -145 c184 -29 280 -136 289 -320 4 -80 2 -90 -23
-135 -16 -27 -39 -64 -52 -81 l-24 -33 -385 0 -384 0 0 -25 c0 -14 10 -36 23
-49 34 -34 108 -39 499 -30 l341 7 -6 -34 c-3 -19 -9 -80 -13 -137 l-7 -103
-451 3 c-449 3 -451 3 -510 27 -111 44 -188 141 -215 269 -27 131 -5 365 44
461 49 96 155 164 277 180 93 12 523 12 597 0z m-2814 -300 l0 -301 28 -24
c27 -23 33 -24 198 -24 107 0 184 5 209 12 l40 13 0 312 0 313 174 0 173 0 0
-470 0 -470 -457 0 c-505 0 -521 2 -602 63 -27 20 -54 55 -73 92 l-30 59 -3
363 -3 363 173 0 173 0 0 -301z m-1965 -184 l0 -455 -175 0 -175 0 0 455 0
455 175 0 175 0 0 -455z m-2650 44 c0 -3 -7 -12 -15 -19 -13 -11 -18 -10 -30
6 -12 16 -11 21 3 37 16 17 17 17 29 1 7 -10 13 -21 13 -25z m9444 0 c-13 -14
-21 -16 -28 -9 -8 8 -6 15 8 25 26 20 41 7 20 -16z m-9374 -120 c0 -18 -2 -20
-15 -9 -13 11 -13 15 -3 21 18 12 18 12 18 -12z m500 1 c0 -5 -7 -10 -16 -10
-8 0 -12 5 -9 10 3 6 10 10 16 10 5 0 9 -4 9 -10z m-499 -53 l23 -32 -23 20
c-13 11 -27 28 -33 39 -16 29 7 11 33 -27z m8779 9 c0 -3 -4 -8 -10 -11 -5 -3
-10 -1 -10 4 0 6 5 11 10 11 6 0 10 -2 10 -4z m-8603 -186 l56 -65 -82 80
c-45 44 -92 94 -104 110 -31 43 59 -43 130 -125z m9076 131 c-5 -19 -113 -131
-113 -117 0 8 108 136 115 136 2 0 1 -8 -2 -19z m-9433 -176 c19 -19 32 -35
29 -35 -3 0 -20 16 -39 35 -19 19 -32 35 -29 35 3 0 20 -16 39 -35z m490 0 c0
-8 -4 -15 -10 -15 -5 0 -10 7 -10 15 0 8 5 15 10 15 6 0 10 -7 10 -15z m34
-114 c-3 -3 -21 12 -42 34 l-37 38 42 -34 c23 -19 39 -36 37 -38z m8656 48
c-7 -11 -14 -18 -17 -15 -3 3 0 12 7 21 18 21 23 19 10 -6z m-217 -31 c-10
-11 -19 -15 -21 -8 -5 15 18 41 30 34 5 -3 1 -15 -9 -26z m347 -23 c-13 -14
-25 -23 -27 -21 -5 5 40 53 46 49 3 -2 -6 -14 -19 -28z m-8700 -103 c13 -13
13 -13 -5 -4 -11 6 -42 34 -70 63 l-50 53 55 -48 c30 -27 62 -56 70 -64z
m-265 78 c10 -11 16 -20 13 -20 -3 0 -13 9 -23 20 -10 11 -16 20 -13 20 3 0
13 -9 23 -20z m8725 -55 c-9 -23 -13 -25 -25 -15 -14 12 -13 16 7 37 26 28 33
19 18 -22z m-8770 -50 c30 -30 52 -55 49 -55 -2 0 -29 25 -59 55 -30 30 -52
55 -49 55 2 0 29 -25 59 -55z m784 40 c3 -8 1 -15 -3 -15 -5 0 -11 7 -15 15
-3 8 -1 15 3 15 5 0 11 -7 15 -15z m7826 -13 c0 -8 -53 -42 -66 -42 -4 0 5 13
21 30 25 26 45 31 45 12z m-8159 -7 c-1 -15 -24 -12 -29 3 -3 9 2 13 12 10 10
-1 17 -7 17 -13z m8423 -32 c-29 -40 -167 -180 -219 -223 -18 -15 -12 -5 15
24 25 27 53 59 62 70 37 47 162 176 166 172 2 -3 -9 -22 -24 -43z m-8644 -421
c0 -11 -56 -52 -72 -52 -4 0 -95 86 -203 192 l-196 191 38 39 37 38 198 -197
c109 -109 198 -204 198 -211z m9002 366 l33 -33 -178 -175 c-97 -96 -188 -179
-202 -184 -19 -8 -29 -5 -45 9 -11 10 -20 23 -20 28 0 10 359 383 372 386 3 0
21 -14 40 -31z m-8812 -206 c0 -9 -85 73 -148 141 -44 48 -31 38 41 -33 59
-57 107 -106 107 -108z m-250 101 l75 -78 -77 75 c-43 41 -78 76 -78 77 0 8
11 -3 80 -74z m8760 64 c0 -2 -19 -21 -42 -42 l-43 -40 40 43 c36 39 45 47 45
39z m-500 -21 c0 -2 -8 -10 -17 -17 -16 -13 -17 -12 -4 4 13 16 21 21 21 13z
m-3900 -67 c0 -5 -4 -9 -10 -9 -5 0 -10 7 -10 16 0 8 5 12 10 9 6 -3 10 -10
10 -16z m-2903 -5 c13 -4 20 -11 17 -16 -6 -10 -408 -9 -434 1 -8 3 64 8 160
11 96 3 189 7 205 8 17 1 40 -1 52 -4z m76 -11 c-7 -2 -21 -2 -30 0 -10 3 -4
5 12 5 17 0 24 -2 18 -5z m5610 0 c-13 -2 -35 -2 -50 0 -16 2 -5 4 22 4 28 0
40 -2 28 -4z m597 -3 c0 -12 -453 -12 -515 0 -24 5 74 8 238 9 182 1 277 -2
277 -9z m-6380 -60 c0 -5 -5 -10 -11 -10 -5 0 -7 5 -4 10 3 6 8 10 11 10 2 0
4 -4 4 -10z m7050 -34 c0 -2 -8 -10 -17 -17 -16 -13 -17 -12 -4 4 13 16 21 21
21 13z m-8050 -71 c19 -19 32 -35 29 -35 -3 0 -20 16 -39 35 -19 19 -32 35
-29 35 3 0 20 -16 39 -35z m2955 15 c10 -11 16 -20 13 -20 -3 0 -13 9 -23 20
-10 11 -16 20 -13 20 3 0 13 -9 23 -20z m-1543 -10 c-41 -25 -54 -25 -23 0 13
11 31 20 40 20 9 0 3 -8 -17 -20z m1443 2 c27 -8 24 -9 -34 -15 -35 -4 -348
-7 -696 -7 l-632 0 -44 -31 -44 -32 30 32 c47 51 70 58 173 53 70 -3 92 -1 92
8 0 10 112 12 563 7 309 -3 576 -10 592 -15z m3330 -2 c7 -11 -65 -12 -578
-10 -247 1 -322 -2 -335 -12 -12 -9 -12 -7 2 10 l19 22 443 0 c284 0 445 -4
449 -10z m78 -7 c-7 -2 -19 -2 -25 0 -7 3 -2 5 12 5 14 0 19 -2 13 -5z m-5416
-9 c-3 -3 -12 -4 -19 -1 -8 3 -5 6 6 6 11 1 17 -2 13 -5z m2214 -58 c24 -21
35 -34 24 -28 -11 6 -40 29 -65 52 -54 50 -21 31 41 -24z m-1761 50 c0 -2 -8
-10 -17 -17 -16 -13 -17 -12 -4 4 13 16 21 21 21 13z m6615 -46 c-27 -27 -54
-50 -59 -50 -9 0 93 99 104 100 2 0 -18 -22 -45 -50z m-6555 37 c0 -2 -15 -13
-32 -26 l-33 -22 28 25 c26 24 37 31 37 23z m1566 -18 c10 -12 33 -30 49 -40
17 -11 23 -19 15 -19 -17 1 -111 79 -94 80 6 0 19 -10 30 -21z m-1419 -27
c-10 -10 -38 -33 -65 -51 -46 -32 -46 -32 13 22 33 31 62 54 64 51 2 -2 -3
-12 -12 -22z m2467 -66 c582 -2 1060 -7 1063 -10 7 -7 -235 -8 -1369 -7 l-756
1 -34 34 c-65 66 -72 80 -17 33 l56 -47 1057 -4z m-3081 77 c-18 -2 -48 -2
-65 0 -18 2 -4 4 32 4 36 0 50 -2 33 -4z m164 1 c-3 -3 -12 -4 -19 -1 -8 3 -5
6 6 6 11 1 17 -2 13 -5z m-1077 -59 c30 -30 52 -55 49 -55 -2 0 -29 25 -59 55
-30 30 -52 55 -49 55 2 0 29 -25 59 -55z m1853 48 c-29 -2 -78 -2 -110 0 -32
2 -8 3 52 3 61 0 87 -1 58 -3z m204 0 c-20 -2 -52 -2 -70 0 -17 2 0 4 38 4 39
0 53 -2 32 -4z m196 0 c-18 -2 -48 -2 -65 0 -18 2 -4 4 32 4 36 0 50 -2 33 -4z
m285 0 c-32 -2 -84 -2 -115 0 -32 2 -6 3 57 3 63 0 89 -1 58 -3z m-908 -37 c0
-2 -12 -11 -27 -20 l-28 -17 24 20 c23 21 31 25 31 17z m418 -3 c-38 -2 -98
-2 -135 0 -38 2 -7 3 67 3 74 0 105 -1 68 -3z m445 0 c-51 -2 -136 -2 -190 0
-54 1 -12 3 92 3 105 0 149 -2 98 -3z m299 -19 c35 -25 54 -45 26 -28 -41 25
-80 54 -72 54 4 0 25 -12 46 -26z m268 16 c8 -5 11 -10 5 -10 -5 0 -17 5 -25
10 -8 5 -10 10 -5 10 6 0 17 -5 25 -10z m-1834 -39 c-5 -7 -177 -10 -529 -8
l-522 2 455 5 c250 3 488 6 529 8 48 2 71 0 67 -7z m4057 2 c-18 -2 -48 -2
-65 0 -18 2 -4 4 32 4 36 0 50 -2 33 -4z m-3873 -6 c0 -2 -10 -12 -22 -23
l-23 -19 19 23 c18 21 26 27 26 19z m393 -24 c-7 -2 -19 -2 -25 0 -7 3 -2 5
12 5 14 0 19 -2 13 -5z m365 0 c-10 -2 -28 -2 -40 0 -13 2 -5 4 17 4 22 1 32
-1 23 -4z m-498 -43 c-45 -33 -75 -52 -59 -36 19 19 96 75 103 75 5 1 -15 -17
-44 -39z m-85 10 c-10 -11 -38 -34 -63 -50 l-44 -29 -662 1 -661 1 669 9 670
8 50 40 c57 44 68 50 41 20z m-1469 -22 l29 -33 -32 29 c-31 28 -38 36 -30 36
2 0 16 -15 33 -32z m6365 5 c13 -16 12 -17 -3 -4 -17 13 -22 21 -14 21 2 0 10
-8 17 -17z m-3601 -73 c-14 -4 -146 -7 -295 -7 l-270 1 250 6 c138 3 270 6
295 7 36 1 40 -1 20 -7z m208 3 c-10 -2 -26 -2 -35 0 -10 3 -2 5 17 5 19 0 27
-2 18 -5z m135 0 c-18 -2 -48 -2 -65 0 -18 2 -4 4 32 4 36 0 50 -2 33 -4z
m130 0 c-7 -2 -21 -2 -30 0 -10 3 -4 5 12 5 17 0 24 -2 18 -5z m44 1 c-3 -3
-12 -4 -19 -1 -8 3 -5 6 6 6 11 1 17 -2 13 -5z m-1470 -10 c-3 -3 -12 -4 -19
-1 -8 3 -5 6 6 6 11 1 17 -2 13 -5z m276 -1 c-18 -2 -48 -2 -65 0 -18 2 -4 4
32 4 36 0 50 -2 33 -4z m165 -70 c-10 -2 -28 -2 -40 0 -13 2 -5 4 17 4 22 1
32 -1 23 -4z m215 0 c-35 -2 -91 -2 -125 0 -35 2 -7 3 62 3 69 0 97 -1 63 -3z
m232 -3 c-3 -5 -12 -10 -18 -10 -7 0 -6 4 3 10 19 12 23 12 15 0z m112 3 c-20
-2 -52 -2 -70 0 -17 2 0 4 38 4 39 0 53 -2 32 -4z m91 0 c-10 -2 -26 -2 -35 0
-10 3 -2 5 17 5 19 0 27 -2 18 -5z m-78 -43 c0 -5 -4 -10 -10 -10 -5 0 -10 5
-10 10 0 6 5 10 10 10 6 0 10 -4 10 -10z m860 -120 c0 -11 -7 -20 -15 -20 -8
0 -15 9 -15 20 0 11 7 20 15 20 8 0 15 -9 15 -20z"/>
<path d="M7790 9063 c-123 -12 -123 -18 0 -23 143 -6 162 -3 134 17 -17 12
-54 14 -134 6z"/>
<path d="M6300 8881 c0 -5 -18 -12 -40 -16 -22 -4 -40 -10 -40 -15 0 -4 20 -2
44 5 24 8 47 11 50 8 3 -4 6 -1 6 5 0 6 -4 14 -10 17 -5 3 -10 2 -10 -4z"/>
<path d="M5883 8698 c-27 -18 -56 -37 -65 -43 -8 -5 -28 -19 -44 -29 -16 -11
-59 -39 -96 -63 -64 -41 -83 -63 -57 -63 6 0 9 -9 6 -20 -6 -24 1 -25 24 -4 9
8 24 16 31 18 8 1 31 16 52 33 33 27 36 33 27 52 -10 18 -7 22 20 36 17 9 33
14 36 11 9 -9 43 14 43 29 0 8 13 21 28 29 26 14 61 46 49 46 -2 0 -27 -15
-54 -32z"/>
<path d="M7982 8578 c-6 -18 -13 -46 -17 -63 -3 -16 -9 -39 -12 -50 -5 -17 -4
-18 10 -7 8 7 20 42 27 79 12 71 8 94 -8 41z"/>
<path d="M5590 8490 c0 -5 -3 -9 -7 -9 -28 5 -35 -2 -29 -28 4 -16 3 -23 -1
-18 -13 17 -40 16 -54 -1 -11 -14 -12 -18 -1 -22 10 -3 9 -8 -4 -23 -9 -10
-12 -19 -6 -19 16 0 43 30 37 41 -6 9 8 13 33 10 6 -1 12 3 12 9 0 5 6 9 12 8
7 -2 14 7 16 20 2 12 8 22 13 22 6 0 7 5 4 10 -3 6 -10 10 -16 10 -5 0 -9 -4
-9 -10z"/>
<path d="M5476 8344 c-23 -23 -20 -30 4 -9 11 10 20 20 20 22 0 7 -9 2 -24
-13z"/>
<path d="M5040 8022 c-12 -17 -22 -34 -21 -39 2 -12 26 -10 26 2 1 6 7 21 14
33 19 35 6 38 -19 4z"/>
<path d="M4122 7017 c-15 -35 -15 -57 -2 -57 12 0 23 42 17 67 -3 15 -6 13
-15 -10z"/>
<path d="M4000 6695 c-7 -8 -16 -12 -21 -9 -11 6 -10 -70 0 -106 7 -22 9 -19
16 22 4 26 11 45 16 42 5 -3 9 11 9 30 0 40 -2 42 -20 21z"/>
<path d="M3355 6589 c-87 -74 -155 -141 -155 -155 0 -7 6 -14 14 -17 15 -6 16
-47 1 -48 -5 0 -12 10 -15 23 -5 20 -7 21 -13 6 -3 -10 -17 -18 -30 -18 -16 0
-39 -16 -68 -47 -42 -45 -42 -47 -21 -56 12 -6 22 -14 22 -19 0 -12 -38 -10
-42 3 -2 5 -11 7 -21 3 -13 -5 -15 -10 -6 -20 6 -7 8 -18 4 -24 -9 -14 -45
-13 -45 3 -1 6 -7 1 -15 -13 -8 -14 -14 -19 -15 -11 0 8 -18 -2 -45 -25 -24
-22 -59 -52 -77 -67 -21 -18 -26 -26 -14 -23 16 5 17 4 6 -8 -6 -9 -22 -14
-33 -13 -18 2 -21 -3 -20 -21 2 -13 -1 -21 -7 -17 -6 3 -10 2 -10 -3 0 -10 55
-28 118 -38 36 -6 47 -3 68 16 26 25 15 46 -16 30 -12 -6 -24 -2 -42 15 l-26
24 -29 -21 -28 -22 24 27 c14 15 30 27 36 27 7 0 20 9 30 20 10 11 23 20 28
20 6 0 0 -12 -14 -26 -19 -22 -20 -25 -4 -16 15 8 22 6 33 -6 9 -12 11 -12 6
-2 -6 11 -2 10 13 -2 11 -10 24 -18 29 -18 17 1 91 75 99 100 l7 25 -28 -25
c-19 -17 -24 -19 -14 -5 8 10 26 29 40 42 14 12 20 23 13 23 -8 0 -8 7 0 30
12 30 48 42 62 20 8 -13 25 -3 25 16 0 8 18 32 40 54 36 36 55 70 30 55 -5 -3
-10 -1 -10 4 0 6 16 11 36 11 19 0 33 4 30 9 -4 5 0 12 6 14 10 4 10 6 1 6
-23 2 -14 29 11 35 14 3 27 15 31 25 3 11 19 24 35 30 28 9 30 13 30 65 0 31
-1 56 -2 56 -2 -1 -30 -24 -63 -51z m-289 -376 c-10 -10 -19 5 -10 18 6 11 8
11 12 0 2 -7 1 -15 -2 -18z m-66 -105 c0 -9 3 -8 10 2 5 8 11 12 15 9 3 -3 -6
-18 -19 -34 -26 -30 -46 -27 -45 8 0 20 1 21 8 3 5 -14 10 -16 15 -8 4 7 4 17
1 22 -3 6 -1 10 4 10 6 0 11 -6 11 -12z"/>
<path d="M3468 6555 c-21 -18 -28 -33 -28 -61 l0 -37 35 36 c21 22 35 46 35
62 0 31 -7 31 -42 0z"/>
<path d="M3695 6520 c-16 -16 -26 -32 -24 -34 3 -3 17 10 32 29 34 43 30 45
-8 5z"/>
<path d="M6730 6480 c20 -13 43 -13 35 0 -3 6 -16 10 -28 10 -18 0 -19 -2 -7
-10z"/>
<path d="M3810 6391 c0 -11 4 -22 9 -25 11 -7 23 22 15 35 -9 16 -24 10 -24
-10z"/>
<path d="M3270 6379 c0 -5 5 -7 10 -4 6 3 10 8 10 11 0 2 -4 4 -10 4 -5 0 -10
-5 -10 -11z"/>
<path d="M3305 6379 c-12 -19 5 -23 22 -6 16 16 16 17 1 17 -9 0 -20 -5 -23
-11z"/>
<path d="M2875 6280 c-8 -13 -1 -24 14 -19 6 3 7 10 2 18 -6 10 -10 10 -16 1z"/>
<path d="M3110 6236 c0 -7 7 -13 15 -13 8 0 15 4 15 8 0 4 -7 9 -15 13 -9 3
-15 0 -15 -8z"/>
<path d="M3812 6192 c-31 -27 -41 -42 -37 -55 4 -9 10 -17 14 -17 9 0 101 94
101 103 0 18 -39 3 -78 -31z"/>
<path d="M3090 6178 c0 -8 7 -15 15 -15 18 0 15 19 -3 25 -7 2 -12 -3 -12 -10z"/>
<path d="M3623 6054 c-26 -41 -30 -105 -8 -127 8 -8 11 -17 8 -21 -4 -3 -2 -6
4 -6 6 0 23 18 38 40 l28 41 -17 54 c-9 30 -20 55 -24 55 -4 -1 -17 -17 -29
-36z"/>
<path d="M2900 6061 c0 -5 5 -13 10 -16 6 -3 10 -2 10 4 0 5 -4 13 -10 16 -5
3 -10 2 -10 -4z"/>
<path d="M3834 6000 c2 -19 10 -48 17 -65 12 -27 13 -28 16 -8 3 12 -5 41 -16
65 l-21 43 4 -35z"/>
<path d="M5348 5210 c-7 -11 -24 -20 -38 -21 -18 -1 -11 -5 23 -16 57 -17 119
-8 123 19 1 13 -9 21 -34 28 -51 14 -60 13 -74 -10z"/>
<path d="M2751 5186 c-9 -11 -9 -16 1 -22 7 -4 10 -4 6 1 -4 4 -3 14 3 22 6 7
9 13 6 13 -2 0 -10 -6 -16 -14z"/>
<path d="M2665 5110 c-18 -36 -19 -40 -2 -40 7 0 24 14 36 31 13 18 19 29 12
25 -6 -4 -11 -2 -11 3 0 21 -20 10 -35 -19z"/>
<path d="M5385 4974 c-19 -15 -22 -21 -9 -15 18 9 52 41 43 41 -2 0 -17 -12
-34 -26z"/>
<path d="M5274 4904 c-21 -15 -71 -42 -111 -61 -63 -30 -97 -53 -79 -53 28 0
236 120 236 136 0 7 -8 4 -46 -22z"/>
<path d="M4720 4850 c0 -5 8 -10 17 -10 15 0 14 -2 -3 -15 -19 -14 -19 -14 1
-13 11 0 34 4 50 8 27 6 28 8 10 14 -11 4 -28 12 -37 17 -23 12 -38 12 -38 -1z"/>
<path d="M4865 4810 c-3 -6 1 -7 9 -4 18 7 21 14 7 14 -6 0 -13 -4 -16 -10z"/>
<path d="M4631 4747 c-13 -21 -12 -21 5 -5 10 10 16 20 13 22 -3 3 -11 -5 -18
-17z"/>
<path d="M3064 4518 l-29 -33 33 29 c17 17 32 31 32 33 0 8 -8 1 -36 -29z"/>
<path d="M4399 4503 l-24 -28 28 24 c25 23 32 31 24 31 -2 0 -14 -12 -28 -27z"/>
<path d="M4221 4455 c-17 -19 -28 -35 -23 -35 12 0 67 59 60 65 -2 3 -19 -11
-37 -30z"/>
<path d="M4325 4432 c-12 -9 -27 -26 -35 -37 -8 -11 3 -4 23 14 33 32 42 41
35 41 -2 0 -12 -8 -23 -18z"/>
<path d="M3252 4340 c2 -8 -2 -14 -9 -13 -7 2 -10 -4 -6 -13 5 -14 7 -14 21 0
13 13 14 18 3 28 -10 11 -12 10 -9 -2z"/>
<path d="M4139 3833 l-24 -28 28 24 c25 23 32 31 24 31 -2 0 -14 -12 -28 -27z"/>
<path d="M3945 3584 c-44 -42 -75 -74 -69 -72 17 5 169 148 158 148 -5 0 -46
-34 -89 -76z"/>
<path d="M1997 7756 c-4 -15 -6 -31 -2 -34 10 -10 16 6 13 35 l-3 28 -8 -29z"/>
<path d="M1990 7517 c0 -16 4 -26 10 -22 6 3 10 1 10 -6 0 -7 2 -10 5 -7 3 3
-1 18 -10 34 l-15 29 0 -28z"/>
<path d="M2181 7448 c-1 -26 28 -55 42 -42 10 10 -6 45 -19 40 -7 -3 -15 3
-17 12 -3 10 -5 6 -6 -10z"/>
<path d="M2270 7405 c0 -24 5 -31 20 -32 25 -2 25 8 0 38 l-19 24 -1 -30z"/>
<path d="M1997 7283 c-4 -3 -7 -16 -6 -27 0 -19 1 -19 10 3 10 24 8 36 -4 24z"/>
<path d="M2690 7231 c0 -25 6 -27 13 -6 4 8 2 17 -3 20 -6 4 -10 -3 -10 -14z"/>
<path d="M2187 7200 c-4 -15 -2 -27 6 -32 20 -13 27 -9 27 13 0 11 -4 18 -9
14 -5 -3 -11 3 -13 12 -3 14 -5 13 -11 -7z"/>
<path d="M2180 6701 c0 -22 30 -37 41 -20 11 18 -1 39 -22 39 -12 0 -19 -7
-19 -19z"/>
<path d="M2805 6520 c-3 -5 -1 -10 4 -10 6 0 11 5 11 10 0 6 -2 10 -4 10 -3 0
-8 -4 -11 -10z"/>
<path d="M2686 6324 c-4 -9 -4 -19 -1 -22 2 -3 7 3 11 12 4 9 4 19 1 22 -2 3
-7 -3 -11 -12z"/>
<path d="M2736 6304 c-4 -9 -4 -19 -1 -22 2 -3 7 3 11 12 4 9 4 19 1 22 -2 3
-7 -3 -11 -12z"/>
<path d="M8737 5884 c-3 -5 1 -15 9 -22 16 -14 18 -5 5 17 -5 7 -11 9 -14 5z"/>
<path d="M2589 5873 c-13 -16 -12 -17 4 -4 9 7 17 15 17 17 0 8 -8 3 -21 -13z"/>
<path d="M8616 5834 c-9 -34 -4 -37 28 -23 34 16 35 49 2 49 -17 0 -26 -7 -30
-26z"/>
<path d="M9120 5668 c0 -12 3 -18 7 -14 11 10 12 36 2 36 -5 0 -9 -10 -9 -22z"/>
<path d="M9010 5654 c0 -14 4 -23 10 -19 6 3 10 15 10 26 0 10 -4 19 -10 19
-5 0 -10 -12 -10 -26z"/>
<path d="M9047 5660 c-3 -12 0 -20 8 -20 7 0 15 9 18 20 3 12 0 20 -8 20 -7 0
-15 -9 -18 -20z"/>
<path d="M8667 5593 c-4 -3 -7 -11 -7 -17 0 -6 5 -5 12 2 6 6 9 14 7 17 -3 3
-9 2 -12 -2z"/>
<path d="M9140 5420 c0 -11 5 -20 10 -20 6 0 10 9 10 20 0 11 -4 20 -10 20 -5
0 -10 -9 -10 -20z"/>
<path d="M9210 5430 c0 -11 7 -20 15 -20 8 0 15 9 15 20 0 11 -7 20 -15 20 -8
0 -15 -9 -15 -20z"/>
<path d="M9014 5409 c-3 -6 -1 -16 5 -22 8 -8 11 -5 11 11 0 24 -5 28 -16 11z"/>
<path d="M6751 1692 c-1 -14 -25 -42 -36 -42 -4 0 -16 -11 -27 -25 -11 -14
-24 -23 -29 -20 -5 4 -9 1 -9 -6 0 -7 -3 -9 -6 -6 -4 3 -16 2 -27 -4 -14 -8
-18 -8 -12 0 5 8 -1 10 -19 5 -18 -4 -26 -2 -26 7 0 9 -3 10 -8 4 -9 -13 -42
-16 -42 -4 0 5 -7 9 -15 9 -13 0 -15 -22 -15 -140 l0 -140 145 0 145 0 -1 138
c-1 114 -13 270 -18 224z"/>
<path d="M3550 1957 c0 -195 2 -356 4 -358 2 -2 148 -2 324 1 l320 5 26 24
c22 20 26 33 26 79 0 46 -4 58 -29 83 l-29 29 -286 0 -286 0 0 140 0 140 265
0 c333 0 355 7 355 110 0 33 -6 48 -29 71 l-29 29 -316 0 -316 0 0 -353z"/>
<path d="M4550 1584 c0 -12 -7 -15 -30 -12 -19 3 -31 0 -35 -10 -3 -9 -14 -13
-30 -10 -14 3 -25 1 -25 -4 0 -5 -4 -6 -10 -3 -5 3 -10 1 -10 -5 0 -6 -5 -8
-12 -3 -19 11 -39 13 -32 2 3 -5 -3 -10 -13 -10 -40 -3 -75 -17 -68 -28 2 -4
-2 -8 -10 -8 -8 0 -15 4 -15 9 0 5 -9 4 -20 -2 -11 -6 -20 -8 -20 -4 0 3 -6 2
-12 -3 -7 -5 -23 -8 -35 -7 -13 0 -23 -4 -23 -10 0 -6 -5 -3 -11 7 -9 16 -12
16 -32 2 -12 -8 -38 -15 -59 -15 -20 0 -39 -4 -43 -9 -3 -5 -43 -9 -88 -8 -75
1 -89 -2 -133 -28 -27 -16 -49 -27 -49 -24 0 2 -14 -6 -32 -19 -18 -13 -52
-26 -75 -31 l-43 -8 65 -7 c36 -4 198 -6 360 -4 270 4 301 6 360 26 76 25 133
68 160 122 20 39 38 120 26 120 -3 0 -6 -7 -6 -16z"/>
<path d="M6272 1673 c-1 -7 -14 -16 -29 -19 -16 -4 -41 -15 -58 -24 -30 -17
-138 -22 -161 -7 -13 8 -24 -86 -24 -210 l0 -83 145 0 145 0 -1 113 c-1 99
-13 262 -17 230z"/>
<path d="M8608 1855 c-1 -1 -32 -6 -68 -9 -36 -3 -87 -10 -115 -14 l-50 -7 0
-192 c0 -218 2 -226 86 -273 43 -25 47 -25 314 -28 l270 -3 2 115 1 116 -177
0 c-230 0 -221 -7 -221 171 0 115 -1 125 -19 126 -10 1 -21 0 -23 -2z m-125
-81 c12 -3 33 -7 47 -8 14 -2 31 -4 38 -4 7 -1 10 -6 7 -12 -3 -5 -1 -10 4
-10 6 0 11 -7 11 -15 0 -8 -7 -15 -15 -15 -8 0 -15 5 -15 11 0 8 -4 8 -12 1
-17 -13 -108 -22 -108 -10 0 5 -4 6 -10 3 -5 -3 -10 -1 -10 5 0 6 -4 8 -10 5
-6 -4 -10 6 -10 24 0 40 12 43 83 25z m157 -21 c-1 -24 -2 -26 -11 -10 -5 9
-7 22 -4 27 10 17 15 11 15 -17z"/>
<path d="M7360 1990 c-61 -9 -100 -43 -100 -86 l0 -24 269 0 c255 0 270 1 276
19 3 10 1 29 -4 43 -19 49 -32 53 -215 55 -94 1 -196 -2 -226 -7z"/>
<path d="M7888 1736 c-13 -10 -75 -13 -244 -14 -125 -1 -230 -4 -232 -7 -3 -3
131 -4 299 -3 295 3 304 4 307 23 3 17 1 18 -8 5 -9 -11 -13 -12 -17 -2 -6 16
-83 15 -105 -2z"/>
<path d="M7265 1552 c-2 -3 -22 -7 -42 -9 -72 -6 -113 -15 -113 -25 0 -5 -4
-7 -8 -4 -5 3 -30 6 -56 7 -27 2 -55 10 -64 18 -14 15 -15 14 -9 -2 4 -10 7
-22 7 -26 0 -15 65 -90 99 -115 18 -14 59 -33 90 -43 50 -16 99 -18 481 -18
l425 0 3 98 3 97 -368 0 c-279 1 -377 4 -405 14 -21 7 -40 11 -43 8z"/>
<path d="M5802 1603 c-2 -15 -7 -21 -17 -17 -9 4 -26 -6 -44 -24 -21 -23 -31
-28 -40 -19 -8 8 -11 8 -11 -1 0 -7 -9 -12 -19 -12 -11 0 -26 -9 -34 -20 -8
-11 -17 -17 -20 -13 -4 3 -7 1 -7 -6 0 -7 -5 -9 -10 -6 -6 4 -10 3 -9 -2 3
-19 -2 -30 -16 -30 -8 0 -12 4 -10 8 3 4 -21 7 -53 8 -53 0 -107 6 -107 11 0
1 -18 4 -40 6 -22 2 -45 6 -51 8 -7 3 -22 -3 -35 -12 -17 -12 -24 -13 -27 -3
-3 8 -8 9 -15 2 -7 -5 -23 -11 -37 -13 -14 -1 -28 -7 -32 -12 -4 -6 -12 -5
-21 3 -9 7 -18 8 -21 3 -11 -19 -56 -20 -66 -2 -5 10 -6 20 -3 24 11 10 -3 7
-33 -9 -26 -13 -30 -13 -41 2 -12 15 -13 14 -13 -9 0 -23 -4 -26 -30 -24 -23
2 -27 -1 -18 -11 6 -7 7 -13 2 -14 -5 0 -18 -2 -29 -4 -10 -2 -25 1 -32 7 -9
7 -13 7 -13 -2 0 -7 -8 -10 -20 -7 -11 3 -20 0 -20 -6 0 -6 -3 -7 -7 -3 -5 4
-8 12 -8 18 0 6 -8 12 -19 14 -30 4 26 -48 82 -77 46 -23 53 -24 297 -24 242
0 252 1 298 23 31 16 47 30 47 43 0 10 5 19 11 19 10 0 9 -27 -2 -70 -3 -13
19 -15 154 -18 l157 -3 -1 78 c-2 83 -15 233 -17 196z"/>
<path d="M5078 1553 c7 -3 16 -2 19 1 4 3 -2 6 -13 5 -11 0 -14 -3 -6 -6z"/>
<path d="M4740 1471 c0 -6 4 -13 10 -16 6 -3 7 1 4 9 -7 18 -14 21 -14 7z"/>
</g>
</svg>
