<?xml version="1.0" standalone="no"?>
<!DOCTYPE svg PUBLIC "-//W3C//DTD SVG 20010904//EN"
 "http://www.w3.org/TR/2001/REC-SVG-20010904/DTD/svg10.dtd">
<svg version="1.0" xmlns="http://www.w3.org/2000/svg"
 width="1024.000000pt" height="1024.000000pt" viewBox="0 0 1024.000000 1024.000000"
 preserveAspectRatio="xMidYMid meet">

<g transform="translate(0.000000,1024.000000) scale(0.100000,-0.100000)"
fill="#000000" stroke="none">
<path d="M0 5120 l0 -5120 5120 0 5120 0 0 5120 0 5120 -5120 0 -5120 0 0
-5120z m5395 4150 c473 -30 922 -146 1330 -344 338 -164 547 -321 825 -621 36
-38 131 -133 211 -210 524 -504 857 -1188 943 -1935 9 -74 16 -157 16 -185 0
-55 8 -95 20 -95 4 0 12 18 19 40 18 61 61 52 61 -13 0 -12 5 -40 12 -62 l11
-40 8 35 c5 19 15 117 23 218 9 101 18 188 21 193 4 5 12 9 20 9 18 0 21 -25
34 -240 19 -337 43 -251 61 220 11 282 13 300 28 300 10 0 16 -59 37 -425 9
-137 19 -266 23 -285 8 -34 9 -34 17 -10 4 14 13 113 19 220 10 169 13 195 28
198 19 4 21 -7 38 -208 12 -140 29 -232 41 -224 4 2 11 26 15 52 15 101 45
124 64 50 30 -115 43 -137 60 -94 15 41 70 29 70 -15 0 -26 19 -33 39 -15 14
13 23 14 49 5 39 -13 42 -42 10 -70 -30 -24 -36 -24 -57 3 -21 26 -37 18 -46
-21 -3 -16 -13 -35 -22 -42 -15 -14 -25 -6 -54 41 -13 21 -24 1 -39 -71 -12
-58 -30 -86 -48 -75 -5 3 -14 37 -21 76 -22 123 -37 102 -52 -70 -14 -171 -26
-271 -33 -278 -18 -18 -30 30 -37 160 -22 381 -47 344 -69 -102 -12 -252 -18
-320 -30 -320 -14 0 -19 51 -30 295 -14 309 -17 342 -35 342 -19 0 -23 -26
-30 -187 -7 -144 -11 -170 -26 -170 -18 0 -29 53 -43 201 -7 83 -16 152 -18
155 -11 11 -38 -29 -38 -56 0 -16 -7 -36 -16 -45 -15 -15 -18 -15 -34 0 -16
15 -18 14 -24 -10 -4 -14 -11 -23 -16 -20 -4 3 -12 -21 -15 -52 -40 -351 -105
-605 -227 -887 -110 -255 -241 -463 -385 -612 -48 -50 -77 -78 -64 -62 23 26
24 28 5 30 -71 5 -101 3 -119 -11 -13 -10 -11 -5 6 14 148 170 190 223 245
307 211 320 340 681 398 1115 2 13 -2 19 -9 17 -6 -3 -24 0 -39 6 -21 8 -26
13 -18 23 14 16 4 32 -25 41 -24 8 -26 0 -38 -107 -8 -70 -26 -72 -39 -4 -7
35 -14 47 -27 47 -10 0 -20 -4 -23 -8 -2 -4 -10 -57 -16 -118 -11 -104 -21
-136 -37 -121 -4 4 -9 34 -11 66 -4 53 0 68 36 144 53 109 92 243 127 432 l28
150 45 33 c24 18 51 31 59 28 11 -5 13 0 9 22 -2 15 -8 59 -11 97 -10 110 -52
347 -82 456 -14 54 -27 98 -29 97 -1 -2 5 -73 13 -158 16 -167 12 -369 -8
-480 -17 -88 -23 -59 -10 42 28 207 1 529 -58 684 -16 42 -102 144 -122 144
-3 0 -9 -82 -13 -182 -4 -101 -9 -212 -11 -248 -4 -60 -4 -62 6 -27 l11 38 48
-50 c87 -91 97 -173 44 -342 -26 -84 -34 -91 -106 -106 -23 -5 -28 -2 -28 15
0 27 -17 37 -24 15 -3 -10 -16 -99 -30 -198 -14 -99 -45 -295 -70 -435 -50
-282 -43 -265 -137 -318 -39 -23 -41 -23 -34 -3 9 28 53 305 70 441 17 132 33
250 41 299 l5 34 -36 -22 c-27 -16 -53 -21 -105 -21 l-68 0 -10 -52 c-9 -50
-9 -48 -6 27 2 44 4 88 4 98 0 17 8 18 74 16 41 -2 77 -1 81 2 3 3 -5 14 -17
25 -12 10 -18 14 -15 8 4 -7 0 -15 -9 -18 -8 -3 -12 -2 -9 4 3 6 0 10 -7 10
-8 1 -7 5 5 14 12 9 14 16 8 21 -6 3 -11 1 -11 -4 0 -6 -9 -11 -20 -11 -12 0
-20 7 -20 16 0 26 -25 9 -31 -22 -11 -50 -10 56 1 159 6 51 22 193 35 317 14
124 34 299 45 390 27 230 36 380 22 380 -6 0 -16 -8 -21 -17 -6 -10 -11 -14
-11 -9 0 6 12 23 28 39 18 20 21 28 10 24 -10 -3 -23 0 -30 7 -16 16 -58 39
-76 42 -8 1 -21 6 -30 10 -9 4 -24 6 -34 5 -9 -1 -19 3 -23 10 -6 8 -9 8 -15
0 -5 -9 -18 -8 -50 3 l-42 14 7 -61 c3 -34 4 -59 0 -55 -10 10 -65 241 -59
250 3 4 57 8 120 8 l114 0 0 27 c0 43 -146 379 -241 554 -51 93 -57 110 -52
146 3 22 1 43 -3 45 -8 5 -96 -9 -181 -27 -25 -6 -33 -4 -33 6 0 8 -10 25 -21
39 -17 20 -19 21 -14 5 19 -52 13 -76 -26 -102 -21 -14 -43 -23 -49 -21 -14 4
-238 211 -239 220 -2 18 63 65 117 86 92 35 93 40 38 122 -84 123 -212 214
-481 345 -472 228 -1029 345 -1577 332 -650 -15 -1231 -170 -1734 -463 -114
-66 -209 -152 -270 -244 -25 -37 -26 -42 -11 -58 9 -10 39 -26 67 -36 54 -20
110 -60 110 -80 0 -10 -172 -185 -212 -215 -14 -10 -20 -9 -36 6 -11 10 -32
26 -47 37 -23 15 -26 23 -21 49 6 29 5 30 -8 12 -21 -28 -20 -36 12 -63 l27
-23 -50 24 c-42 21 -172 57 -203 57 -15 0 -24 -50 -12 -65 8 -9 0 -29 -29 -77
-56 -92 -174 -331 -211 -425 -17 -44 -42 -93 -55 -107 -18 -19 -25 -38 -25
-67 l0 -39 120 0 c88 0 122 -3 126 -13 5 -15 -62 -247 -76 -261 -6 -6 -5 7 3
29 19 55 30 115 20 115 -5 0 -19 -7 -31 -16 -12 -8 -22 -12 -22 -8 0 3 -6 2
-12 -3 -12 -10 -28 -13 -70 -14 -10 0 -18 -4 -18 -8 0 -5 -10 -8 -23 -7 -12 1
-41 -13 -64 -32 -36 -29 -41 -37 -32 -53 9 -18 8 -19 -9 -8 -17 11 -27 7 -70
-25 -28 -20 -64 -52 -81 -71 -17 -20 -33 -35 -36 -34 -40 6 -45 -126 -15 -386
12 -104 23 -192 26 -194 2 -2 4 1 4 7 0 18 18 14 24 -5 3 -10 3 18 1 62 -9
163 -14 309 -9 285 8 -37 20 -45 39 -26 9 9 21 13 27 10 6 -4 8 -2 5 3 -11 17
21 39 35 25 7 -7 15 -12 18 -12 3 0 5 55 4 123 -1 67 0 100 2 72 5 -53 40
-398 54 -525 5 -41 20 -190 35 -330 17 -160 32 -262 41 -274 7 -11 11 -30 8
-43 -4 -12 2 -77 11 -143 10 -67 15 -123 12 -126 -2 -3 -10 32 -16 78 -7 46
-16 99 -21 119 l-10 35 -60 1 c-33 1 -60 -3 -60 -8 0 -5 -4 -9 -10 -9 -5 0
-10 9 -10 19 0 12 -11 23 -30 30 -31 10 -31 10 -26 -22 3 -18 13 -84 21 -147
34 -250 89 -548 107 -582 12 -25 -1 -23 -56 8 -58 32 -71 51 -90 134 -21 93
-83 430 -96 525 -23 173 -42 280 -51 290 -5 5 -9 -3 -9 -22 0 -26 -4 -31 -20
-30 -11 1 -20 5 -20 10 0 4 -4 5 -10 2 -15 -9 -89 74 -100 114 -6 20 -13 81
-17 137 -6 98 -5 101 20 126 15 15 35 29 46 33 10 3 22 12 24 20 4 8 14 11 27
8 l22 -6 -7 177 c-4 97 -10 201 -14 231 l-6 56 -63 -58 c-59 -55 -63 -62 -83
-138 -33 -135 -47 -333 -33 -471 12 -115 16 -195 8 -164 -3 8 -8 51 -13 95
l-8 80 -2 -85 c-1 -74 10 -169 48 -415 31 -206 121 -429 205 -510 22 -21 33
-33 24 -26 -12 9 -18 10 -18 2 0 -6 6 -12 13 -12 21 -2 31 -5 50 -13 26 -12 3
-26 -43 -26 l-35 -1 25 -14 c25 -14 25 -14 -16 -15 -23 0 -46 -6 -52 -12 -12
-15 -21 -59 -29 -147 -5 -55 -3 -66 12 -78 17 -12 17 -13 2 -13 -13 0 -16 -6
-12 -22 19 -88 24 -119 25 -163 0 -28 6 -57 12 -63 10 -10 10 -15 -1 -21 -10
-7 0 -35 48 -128 119 -233 231 -390 423 -589 l99 -103 -48 -26 c-52 -28 -49
-27 72 18 219 82 513 177 540 175 27 -3 35 -12 75 -89 25 -47 53 -99 64 -115
18 -28 18 -28 -17 5 l-35 33 -68 -21 c-37 -11 -74 -21 -83 -21 -9 0 -27 -6
-41 -13 -14 -7 -50 -21 -80 -32 -30 -10 -70 -24 -88 -32 -18 -8 -37 -11 -42
-8 -6 3 -10 1 -10 -4 0 -6 -8 -11 -18 -11 -10 0 -22 -4 -28 -10 -5 -5 -24 -10
-42 -12 -17 -1 -32 -5 -32 -9 0 -4 -15 -10 -32 -13 -18 -3 -46 -13 -61 -21
-22 -11 -33 -12 -55 -3 -32 14 -122 97 -122 114 0 6 12 16 27 23 l27 12 -82
75 c-176 162 -365 422 -485 668 -54 108 -71 135 -91 140 -18 4 -23 11 -19 22
3 9 2 19 -3 23 -10 7 -49 75 -92 161 -15 30 -29 57 -32 60 -3 3 -11 27 -18 54
-7 27 -21 61 -31 75 -10 14 -29 46 -41 71 -12 25 -28 48 -34 52 -8 6 -8 8 0 8
8 0 7 14 -1 48 -22 83 -63 152 -66 110 -1 -23 -18 26 -19 57 -2 31 -4 28 -14
-17 -7 -31 -40 -39 -50 -13 -8 22 -33 8 -40 -23 -24 -98 -26 -116 -14 -124 10
-6 10 -8 1 -8 -7 0 -14 -27 -19 -70 -4 -46 -11 -70 -19 -70 -19 0 -22 15 -35
166 -14 173 -19 206 -29 199 -11 -6 -23 23 -15 36 3 5 10 7 15 4 5 -4 9 9 8
27 0 27 -2 29 -9 13 -8 -21 -8 -21 -23 25 -3 8 -6 -3 -6 -26 -3 -135 -22 -197
-52 -167 -6 6 -16 69 -24 141 -8 79 -20 143 -31 164 l-17 33 -12 -35 c-8 -23
-19 -36 -33 -38 -17 -3 -22 4 -29 35 l-7 38 -7 -35 c-5 -24 -5 -18 -3 18 5 60
-10 74 -53 51 -27 -14 -36 -8 -69 47 -11 19 -12 19 -44 0 -31 -18 -34 -18 -45
-2 -7 9 -19 16 -27 16 -18 0 -38 20 -38 37 0 17 39 33 104 44 28 5 57 17 68
29 10 11 31 20 47 20 32 0 56 23 72 67 13 38 35 49 51 24 17 -27 47 -15 52 23
3 17 10 81 16 141 13 133 16 145 40 145 24 0 30 -19 30 -91 0 -33 4 -59 10
-59 6 0 10 5 10 12 0 6 7 19 16 29 11 12 19 63 29 190 8 96 15 182 15 192 0 9
6 17 14 17 16 0 22 -46 31 -240 8 -149 11 -166 31 -149 8 6 14 8 15 3 1 -22
18 34 18 64 1 39 27 54 47 27 8 -10 15 -39 15 -64 1 -49 16 -119 18 -87 1 15
4 16 15 7 10 -9 16 -9 21 -1 11 18 35 143 34 175 -1 17 11 77 26 135 15 58 28
115 29 128 1 12 4 22 8 22 5 0 7 3 6 8 -1 7 5 27 27 77 7 17 21 57 30 90 10
33 24 74 31 90 7 17 16 47 19 67 3 22 15 45 29 55 24 19 56 73 56 94 0 17 48
117 60 124 6 3 7 -1 4 -12 -3 -10 28 45 68 122 40 77 81 151 89 165 201 316
294 435 534 677 99 100 234 238 300 306 184 189 309 282 585 433 304 168 721
306 1110 368 338 54 553 66 865 46z m134 -135 c67 -9 153 -23 190 -30 65 -13
64 -13 -61 -7 -99 4 -128 2 -128 -8 0 -7 -7 -10 -15 -6 -13 4 -14 2 -5 -15 10
-18 9 -19 -15 -13 -39 10 -579 10 -655 1 -52 -7 -63 -6 -52 4 26 27 24 27 -93
33 -44 2 -118 -2 -165 -10 -157 -25 -158 -25 -132 -14 45 19 293 56 557 84 86
9 456 -3 574 -19z m-762 -81 c-3 -3 -12 -4 -19 -1 -8 3 -5 6 6 6 11 1 17 -2
13 -5z m-80 -10 c-3 -3 -12 -4 -19 -1 -8 3 -5 6 6 6 11 1 17 -2 13 -5z m-1377
-119 c0 -8 -4 -15 -9 -15 -13 0 -22 16 -14 24 11 11 23 6 23 -9z m3153 -69
c-10 -14 -22 -26 -26 -26 -5 0 1 14 13 31 12 16 24 28 27 25 3 -2 -3 -16 -14
-30z m-2656 7 c22 -30 34 -53 26 -53 -4 0 -21 16 -36 35 -15 19 -23 35 -16 35
6 0 18 -8 26 -17z m-2299 -30 c-2 -10 -10 -18 -18 -18 -8 0 -16 8 -18 18 -2
12 3 17 18 17 15 0 20 -5 18 -17z m4982 -3 c0 -5 -5 -10 -11 -10 -5 0 -7 5 -4
10 3 6 8 10 11 10 2 0 4 -4 4 -10z m-965 -94 c312 -48 577 -133 795 -257 41
-23 102 -56 135 -72 72 -35 217 -134 337 -229 116 -92 262 -247 370 -392 l88
-119 0 39 c0 29 3 35 10 24 5 -8 10 -36 10 -61 0 -29 11 -70 29 -111 66 -145
75 -249 36 -433 l-22 -110 -1 80 c0 115 -49 257 -121 350 -17 22 -38 49 -46
59 -8 11 -46 52 -85 92 l-71 73 -25 -57 c-14 -31 -42 -97 -61 -147 -58 -151
-145 -349 -159 -365 -30 -31 -12 20 76 223 82 190 171 441 169 477 0 11 -2 11
-6 3 -6 -16 -30 -17 -35 -2 -2 6 -16 -22 -32 -63 -15 -40 -32 -77 -36 -81 -4
-5 -22 18 -41 50 -18 32 -40 65 -48 73 -10 9 -15 28 -13 49 5 49 -5 81 -23 75
-8 -4 -15 -1 -15 6 0 6 -4 9 -8 6 -4 -2 -9 4 -9 15 -1 11 3 17 8 13 6 -3 -22
25 -61 62 -40 38 -83 79 -96 92 -13 13 -24 26 -24 30 0 4 -27 25 -60 47 -33
22 -60 47 -60 55 -1 22 -36 -48 -76 -152 -19 -49 -34 -91 -34 -93 0 -1 9 -5
20 -8 11 -3 20 -10 20 -17 0 -6 -4 -8 -10 -5 -23 14 -8 -4 16 -20 15 -9 23
-12 20 -6 -4 6 -2 11 4 11 7 0 10 -7 6 -15 -3 -9 4 -25 16 -37 14 -14 18 -23
10 -26 -7 -2 -12 -8 -12 -13 0 -6 4 -7 10 -4 5 3 15 -3 22 -15 7 -11 19 -20
26 -20 9 0 8 -7 -4 -25 -15 -23 -15 -25 0 -25 9 0 17 -6 17 -12 2 -26 -3 -53
-14 -68 -9 -12 -8 -13 2 -3 20 18 40 5 35 -23 -3 -15 1 -27 10 -30 20 -8 28
-45 13 -63 -10 -12 -9 -14 6 -8 12 5 17 1 17 -12 0 -10 7 -21 15 -25 8 -3 15
-10 15 -16 0 -5 -7 -10 -15 -10 -18 0 -20 -17 -4 -22 10 -3 13 -28 20 -153 0
-5 -2 -22 -4 -37 -2 -15 -1 -27 2 -26 20 2 22 -4 7 -21 -14 -15 -15 -24 -7
-39 8 -15 8 -21 -2 -25 -8 -3 -7 -10 7 -26 11 -11 17 -23 15 -25 -10 -9 -555
-135 -1044 -242 -344 -76 -398 -85 -460 -81 -79 6 -453 89 -880 195 -66 16
-192 46 -280 66 -248 57 -231 51 -249 96 -8 22 -13 46 -10 54 3 8 7 32 8 53 2
21 6 46 11 57 5 12 3 21 -5 26 -11 7 -10 12 3 25 21 20 22 39 3 32 -10 -4 -13
-1 -9 9 3 7 11 14 19 14 8 0 14 7 14 15 0 8 -5 15 -12 15 -9 0 -9 3 -1 11 6 6
9 18 6 25 -3 8 1 14 10 14 20 0 32 37 18 54 -8 10 -5 19 14 39 18 18 22 27 13
30 -8 4 -5 8 9 12 19 6 21 11 12 26 -7 15 -7 19 3 17 7 -2 12 3 10 11 -1 7 5
19 15 27 11 8 14 17 8 21 -12 9 -16 45 -5 38 11 -7 33 22 25 35 -3 5 1 10 10
10 9 0 13 5 10 10 -8 13 14 42 26 34 5 -3 9 1 9 9 0 8 9 22 19 31 18 16 20 16
35 -6 9 -12 16 -19 16 -14 0 12 -98 252 -123 301 -17 35 -21 37 -27 20 -5 -11
-36 -48 -69 -83 -35 -35 -59 -68 -55 -74 4 -7 3 -8 -4 -4 -6 4 -18 -6 -27 -24
-9 -17 -20 -28 -25 -25 -6 4 -10 1 -10 -4 0 -6 -8 -19 -17 -29 -33 -34 -55
-80 -31 -66 7 4 8 3 4 -5 -4 -6 -11 -9 -15 -7 -9 6 -64 -112 -80 -171 -6 -23
-18 -49 -26 -57 -8 -8 -15 -19 -15 -25 0 -5 -9 -13 -20 -16 -12 -4 -20 -15
-20 -28 -1 -21 -1 -21 -15 3 -8 14 -27 59 -42 100 -23 62 -28 70 -33 50 -6
-24 -6 -24 -17 -5 -6 11 -15 16 -19 12 -16 -15 92 -301 211 -561 34 -76 38
-95 16 -82 -12 8 -26 37 -138 301 -47 110 -87 203 -89 206 -5 9 -68 -44 -140
-119 -51 -53 -65 -75 -87 -140 -38 -112 -41 -130 -63 -367 -2 -27 -9 -52 -14
-53 -6 -2 -8 -7 -6 -10 2 -4 1 -36 -3 -72 -6 -64 -7 -60 -44 165 -20 127 -37
250 -37 275 0 64 44 210 91 304 88 174 324 442 549 623 123 98 250 183 276
183 12 0 27 7 34 15 17 21 155 95 260 141 232 100 436 153 735 189 143 18 550
13 690 -9z m-3095 -97 c0 -39 -1 -40 -32 -37 -30 3 -33 6 -36 41 -3 36 -3 37
32 37 35 0 36 -1 36 -41z m5892 -281 c7 -7 19 -13 26 -14 38 -3 43 -5 37 -14
-3 -5 -28 -10 -56 -10 -46 0 -49 2 -49 25 0 27 20 33 42 13z m-6814 -35 c2 -8
-5 -13 -17 -13 -12 0 -21 6 -21 16 0 18 31 15 38 -3z m6549 -55 c-3 -8 -6 -5
-6 6 -1 11 2 17 5 13 3 -3 4 -12 1 -19z m868 -93 c0 -25 -40 -33 -49 -10 -9
24 2 37 27 33 14 -2 22 -10 22 -23z m-7661 -65 c-6 -6 -15 -6 -24 0 -13 9 -13
11 0 20 18 11 39 -5 24 -20z m1578 -112 c-16 -29 -53 -93 -82 -143 -29 -49
-62 -107 -74 -128 -33 -61 -30 -26 4 57 30 72 123 230 158 269 28 32 25 0 -6
-55z m4640 -49 c61 -102 135 -265 125 -275 -2 -2 -28 42 -57 98 -30 57 -78
143 -107 193 -29 49 -53 93 -53 98 0 27 32 -12 92 -114z m-5749 -8 c3 -28 3
-66 0 -86 l-6 -36 -76 3 -76 3 -3 50 c-2 27 -1 65 3 82 l6 33 73 0 73 0 6 -49z
m314 33 c-3 -3 -12 -4 -19 -1 -8 3 -5 6 6 6 11 1 17 -2 13 -5z m-750 -60 c-9
-9 -28 6 -21 18 4 6 10 6 17 -1 6 -6 8 -13 4 -17z m7411 -18 c2 -3 7 -34 9
-71 l6 -65 -74 6 c-101 8 -102 8 -97 47 11 80 30 97 100 91 28 -2 53 -6 56 -8z
m-492 -127 c17 -19 17 -23 3 -47 -26 -48 -89 -33 -89 22 0 47 52 62 86 25z
m-5248 -52 c2 -36 0 -47 -12 -47 -22 0 -25 11 -19 58 8 56 27 49 31 -11z
m5640 -183 c24 -17 30 -62 10 -82 -29 -29 -98 -1 -98 39 0 16 43 59 59 59 4 0
17 -7 29 -16z m-4868 -4 c0 -5 -4 -10 -10 -10 -5 0 -10 5 -10 10 0 6 5 10 10
10 6 0 10 -4 10 -10z m5280 -30 c0 -11 -7 -20 -15 -20 -8 0 -15 2 -15 4 0 2
-3 11 -6 20 -4 12 0 16 15 16 14 0 21 -6 21 -20z m-7685 -50 c10 -8 14 -7 18
2 3 7 6 -6 6 -29 l1 -43 -65 0 c-56 0 -64 2 -58 17 4 9 2 14 -3 11 -5 -4 -10
5 -10 18 -1 13 2 21 7 18 5 -3 9 -1 9 5 0 21 70 22 95 1z m393 -96 c26 -18 28
-50 5 -76 -33 -36 -93 -13 -93 37 0 23 32 55 55 55 6 0 21 -7 33 -16z m-822
-153 c-10 -16 -36 -13 -43 5 -8 22 18 37 36 20 7 -8 10 -19 7 -25z m8033 -40
c6 -37 5 -54 -5 -61 -8 -7 -14 -8 -18 -1 -4 6 -13 8 -21 4 -11 -4 -15 2 -15
21 0 15 6 29 14 32 8 3 17 19 20 36 8 41 15 32 25 -31z m-7575 -20 c15 -16 15
-19 1 -31 -21 -18 -61 16 -44 37 15 17 23 17 43 -6z m903 -33 c-3 -8 -6 -5 -6
6 -1 11 2 17 5 13 3 -3 4 -12 1 -19z m7193 -27 c0 -11 -5 -23 -11 -27 -15 -9
-33 12 -26 30 9 23 37 20 37 -3z m-5909 -27 c-74 -20 -245 -104 -306 -151 -59
-46 -110 -125 -126 -200 -14 -62 -27 -79 -21 -27 4 35 -13 48 -21 17 -4 -14
-5 -13 -6 4 -2 41 41 136 82 180 44 48 65 62 104 69 13 3 73 29 131 58 129 65
127 64 177 65 l40 0 -54 -15z m-2331 -58 c0 -31 -35 -45 -57 -23 -23 23 -9 47
27 47 25 0 30 -4 30 -24z m2815 4 c25 -11 -1 -11 -35 0 -20 6 -21 8 -5 8 11 0
29 -3 40 -8z m3031 -139 c56 -61 66 -48 12 15 -40 46 -33 46 20 -1 13 -11 34
-40 47 -65 28 -56 63 -236 70 -355 4 -87 4 -85 -20 60 -13 83 -29 168 -36 190
-10 34 -13 37 -20 20 l-8 -20 0 20 c-2 36 -59 121 -113 170 -31 27 -40 40 -23
29 17 -10 49 -38 71 -63z m-848 14 c-18 -18 -1033 -235 -1100 -235 -57 0 -694
137 -684 147 2 2 142 -23 310 -56 168 -34 327 -61 354 -61 62 0 152 16 552 99
441 92 580 118 568 106z m2702 -41 c11 -12 10 -18 -3 -31 -22 -23 -52 0 -36
28 12 23 22 24 39 3z m-6735 -43 c-3 -6 -11 -8 -17 -5 -6 4 -5 9 3 15 16 10
23 4 14 -10z m-752 -25 c7 -16 -1 -26 -20 -26 -7 0 -13 9 -13 20 0 23 25 27
33 6z m1406 -189 c1 -24 -3 -36 -10 -32 -6 4 -7 19 -4 35 3 16 2 45 -4 66 -6
20 -7 42 -3 48 7 12 20 -57 21 -117z m4588 101 c-3 -8 -6 -5 -6 6 -1 11 2 17
5 13 3 -3 4 -12 1 -19z m1443 -2 c0 -3 -4 -8 -10 -11 -5 -3 -10 -1 -10 4 0 6
5 11 10 11 6 0 10 -2 10 -4z m-6256 -146 c9 -69 18 -172 21 -230 l4 -105 -15
75 c-9 41 -17 76 -19 78 -2 2 -15 -4 -29 -13 -14 -9 -29 -14 -35 -11 -5 3 -11
-1 -15 -9 -4 -11 -11 -12 -28 -6 -16 6 -27 4 -37 -6 -11 -12 -15 -13 -22 -1
-7 10 -11 7 -16 -11 -11 -42 -33 53 -32 139 1 41 3 67 6 58 3 -13 9 -15 28 -8
12 5 26 6 29 3 3 -4 6 0 6 8 0 10 10 15 28 14 15 -1 32 3 39 8 7 5 20 4 31 -2
26 -14 32 2 32 86 0 37 2 64 4 62 2 -2 11 -60 20 -129z m4855 104 c2 -2 -6 -4
-18 -4 -18 0 -21 -4 -16 -22 4 -13 13 -33 21 -45 14 -22 13 -23 -11 -23 -43 0
-27 -19 30 -35 50 -15 62 -27 53 -52 -2 -3 -27 -5 -56 -4 -42 2 -57 -1 -67
-16 -11 -15 -13 -9 -9 42 2 33 7 80 10 105 4 25 6 51 5 58 -1 9 6 11 26 6 15
-4 30 -8 32 -10z m194 -121 c4 -3 9 2 13 11 7 18 34 22 34 5 0 -6 7 -8 17 -5
9 4 19 2 23 -4 4 -6 25 -12 48 -13 23 -1 42 -5 42 -10 0 -4 5 -5 11 -1 9 5 10
-14 5 -72 -8 -83 -23 -164 -25 -129 -1 19 -7 21 -67 18 -43 -2 -72 1 -82 9
-13 11 -14 11 -7 -1 6 -11 3 -13 -18 -7 -24 6 -27 3 -33 -31 -3 -21 -10 -51
-14 -68 l-8 -30 -1 30 c-1 27 16 187 36 360 l7 60 7 -58 c3 -32 9 -60 12 -64z
m-5093 17 c0 -5 -5 -10 -11 -10 -5 0 -7 5 -4 10 3 6 8 10 11 10 2 0 4 -4 4
-10z m280 -37 l0 -38 -62 -3 c-34 -1 -58 1 -54 5 4 5 13 8 19 8 6 0 16 9 22
20 6 11 17 21 25 23 8 2 19 8 25 13 17 17 25 9 25 -28z m3485 -40 c8 -79 25
-196 29 -200 2 -2 6 19 9 47 12 96 30 91 47 -13 6 -39 14 -81 17 -92 6 -19 6
-19 16 3 15 32 25 27 38 -18 9 -31 17 -40 34 -40 13 0 28 -7 35 -15 7 -8 34
-18 62 -21 74 -10 102 -45 51 -65 -16 -6 -36 -15 -45 -20 -10 -5 -24 -9 -32
-9 -7 0 -19 -7 -26 -15 -7 -8 -23 -15 -35 -15 -16 0 -26 -9 -35 -30 -14 -35
-17 -36 -41 -14 -19 17 -17 21 -34 -108 -10 -79 -30 -60 -42 40 -5 48 -8 53
-14 30 -4 -15 -10 -75 -14 -133 -4 -58 -11 -107 -15 -110 -4 -3 -13 54 -20
125 -7 72 -16 130 -21 130 -5 0 -9 -10 -9 -22 0 -33 -11 -68 -21 -68 -4 0 -11
21 -14 48 -10 74 -19 88 -59 95 -64 10 -104 -2 -127 -40 -17 -27 -24 -31 -35
-22 -8 7 -17 10 -19 7 -4 -4 -35 -160 -35 -175 0 -2 -4 -3 -9 -3 -5 0 -13 29
-16 65 -4 36 -11 63 -15 60 -4 -3 -11 -35 -14 -72 -15 -159 -18 -183 -26 -183
-4 0 -11 44 -15 98 -4 53 -10 113 -15 132 l-7 35 -7 -30 c-15 -60 -19 -60 -39
8 -19 63 -37 82 -52 56 -5 -7 -13 -5 -24 5 -13 12 -28 13 -80 6 -35 -5 -71
-16 -80 -24 -10 -9 -29 -16 -43 -16 -14 0 -31 -7 -38 -15 -9 -11 -22 -14 -41
-10 -22 5 -31 2 -41 -14 -14 -22 -43 -28 -53 -10 -11 17 -28 4 -40 -31 -15
-43 -30 -48 -48 -14 -8 15 -17 22 -20 17 -5 -9 -17 -76 -49 -288 -20 -135 -32
-102 -43 120 -3 66 -10 124 -14 128 -5 5 -12 -24 -16 -65 -8 -81 -20 -122 -34
-114 -5 3 -14 43 -20 88 -17 119 -20 128 -35 128 -8 0 -16 -10 -18 -22 -4 -33
-20 -28 -40 11 -25 50 -34 56 -47 32 -16 -30 -36 -26 -51 9 -13 32 -28 38 -48
18 -9 -9 -18 -6 -37 12 -22 20 -29 22 -45 12 -16 -10 -21 -9 -29 7 -15 28 -51
39 -143 45 -27 1 -51 -1 -54 -6 -3 -5 -19 -6 -35 -3 -27 6 -30 3 -49 -39 -19
-45 -40 -61 -40 -31 0 8 -4 15 -9 15 -10 0 -17 -35 -26 -120 -12 -116 -17
-140 -24 -136 -4 3 -11 47 -15 98 -8 111 -15 146 -27 126 -5 -7 -9 -30 -9 -50
0 -40 -15 -59 -24 -31 -3 10 -10 47 -16 83 -15 88 -18 96 -32 82 -19 -19 -33
-14 -45 18 -7 19 -18 30 -30 30 -11 0 -27 6 -38 13 -11 9 -30 12 -49 8 -24 -5
-36 -16 -53 -51 -20 -41 -23 -43 -29 -22 -3 12 -10 22 -14 22 -14 0 -19 -28
-30 -149 -5 -63 -11 -116 -14 -118 -6 -6 -14 56 -22 165 -6 96 -24 128 -24 45
0 -112 -31 -124 -43 -17 -10 91 -15 105 -28 82 -14 -25 -28 -22 -39 7 -6 15
-17 25 -30 25 -12 0 -25 10 -31 24 -8 16 -17 22 -30 19 -11 -3 -21 1 -25 11
-3 9 -14 16 -25 16 -27 0 -69 21 -69 35 0 19 22 32 65 39 22 3 47 7 56 8 8 2
23 11 33 20 9 9 22 15 30 12 8 -3 17 10 25 36 13 43 41 56 41 18 0 -15 3 -19
10 -12 6 6 13 42 17 80 11 126 39 136 50 18 7 -69 7 -69 20 75 12 137 17 161
28 149 3 -2 10 -74 15 -158 6 -84 14 -158 17 -164 9 -13 20 25 23 74 1 27 5
19 15 -35 24 -128 45 -152 126 -139 31 5 43 13 55 36 11 21 20 27 34 23 16 -5
19 3 29 67 18 109 21 120 34 115 7 -2 13 -21 15 -43 6 -72 19 -55 30 40 7 52
12 109 12 125 0 32 14 42 23 18 3 -8 8 -61 13 -118 4 -57 10 -115 14 -129 6
-21 8 -18 14 23 9 57 23 61 32 10 27 -155 28 -158 56 -161 14 -2 32 -10 38
-18 7 -8 25 -14 41 -14 15 0 31 -4 34 -10 3 -5 19 -7 35 -3 17 3 36 0 44 -6 8
-7 25 -9 40 -5 15 4 32 1 41 -6 9 -7 26 -10 41 -6 15 4 32 2 40 -5 12 -10 19
-8 38 10 17 16 30 20 53 15 26 -5 31 -2 43 25 14 34 31 39 50 16 21 -25 29 -6
40 95 6 52 13 103 16 113 14 44 44 0 44 -65 0 -24 4 -49 9 -56 13 -21 19 16
27 168 7 135 16 183 27 144 3 -10 13 -84 22 -164 26 -230 34 -262 59 -227 18
24 23 22 42 -15 21 -42 33 -49 55 -35 14 9 22 8 36 -5 26 -23 110 -19 128 6
13 17 17 17 31 5 13 -11 18 -11 21 -1 3 6 13 12 23 12 10 0 20 -6 23 -12 4
-10 7 -10 18 0 7 6 25 12 41 12 17 0 31 7 38 21 9 15 18 19 36 15 28 -7 32 3
42 110 7 73 20 84 38 32 l11 -33 6 40 c4 22 7 67 8 100 1 77 12 153 21 139 4
-5 12 -59 18 -120 13 -120 26 -150 36 -86 11 69 29 50 46 -49 9 -50 19 -93 22
-96 3 -3 12 0 20 6 15 13 19 9 41 -34 14 -26 86 -33 105 -10 7 8 18 15 25 15
15 0 21 23 34 128 5 41 12 77 16 80 10 11 25 -21 25 -56 0 -20 4 -31 10 -27 6
3 10 28 10 54 0 87 13 231 21 231 4 0 10 -30 14 -67z m2995 53 c0 -3 -4 -8
-10 -11 -5 -3 -10 -1 -10 4 0 6 5 11 10 11 6 0 10 -2 10 -4z m-4770 -176 c0
-5 -5 -10 -11 -10 -5 0 -7 5 -4 10 3 6 8 10 11 10 2 0 4 -4 4 -10z m-1050 -30
c0 -5 -4 -10 -10 -10 -5 0 -10 5 -10 10 0 6 5 10 10 10 6 0 10 -4 10 -10z
m-2507 -45 c1 -5 -6 -11 -15 -13 -11 -2 -18 3 -18 13 0 17 30 18 33 0z m80
-212 c-7 -2 -21 -2 -30 0 -10 3 -4 5 12 5 17 0 24 -2 18 -5z m724 -60 c-3 -10
-5 -2 -5 17 0 19 2 27 5 18 2 -10 2 -26 0 -35z m5414 -173 c-39 -112 -248
-323 -471 -477 l-45 -31 -33 -158 c-18 -88 -51 -225 -74 -306 -36 -132 -43
-148 -62 -147 -15 0 -17 2 -6 7 8 4 16 16 18 27 2 11 14 67 28 125 14 57 24
114 21 127 -2 12 -1 20 3 18 8 -5 33 106 25 113 -2 3 0 12 4 21 5 9 12 49 15
90 4 40 12 83 17 94 6 11 8 36 5 57 -5 35 -3 39 34 64 83 55 288 226 353 295
37 39 67 67 67 61 0 -6 5 -8 10 -5 18 11 10 -11 -21 -58 -17 -26 -71 -85 -120
-131 -50 -47 -89 -87 -87 -89 5 -7 -34 -47 -45 -47 -6 0 -2 10 9 23 15 17 12
17 -11 -4 -17 -14 -56 -45 -87 -68 -32 -23 -58 -49 -58 -57 0 -8 5 -12 10 -9
6 4 8 10 5 15 -7 11 38 42 56 38 7 -2 13 3 14 11 0 8 6 16 14 19 9 3 11 0 5
-9 -9 -17 -13 -19 115 82 105 83 228 218 268 296 30 56 42 63 24 13z m-4181
-14 c0 -40 199 -241 355 -358 93 -70 122 -85 89 -45 l-19 22 22 -19 c13 -10
20 -22 17 -27 -2 -4 5 -13 17 -19 18 -10 20 -9 17 6 -1 9 -52 54 -111 100
-139 105 -255 211 -291 263 -22 31 -27 47 -21 68 l7 28 16 -24 c60 -84 192
-202 360 -321 l91 -65 1 -45 c0 -25 9 -85 20 -134 23 -101 26 -140 10 -116
-26 40 38 -223 105 -430 61 -186 111 -297 153 -342 14 -16 22 -28 18 -28 -16
0 -217 116 -316 184 -137 92 -271 224 -306 299 -25 57 -64 180 -64 206 0 7 22
-20 49 -61 65 -101 169 -212 271 -293 25 -19 51 -40 58 -46 6 -5 39 -23 72
-38 33 -16 67 -34 75 -41 8 -7 15 -10 15 -6 0 3 -22 75 -49 159 -54 166 -136
483 -147 567 -7 52 -7 52 -103 123 -187 139 -305 250 -367 344 -18 28 -37 53
-42 55 -5 1 -12 16 -16 31 -4 19 -3 26 4 22 5 -3 10 -12 10 -19z m-2383 -68
c-2 -13 -4 -5 -4 17 -1 22 1 32 4 23 2 -10 2 -28 0 -40z m7170 -70 c-3 -8 -6
-5 -6 6 -1 11 2 17 5 13 3 -3 4 -12 1 -19z m-827 -82 c0 -8 -91 -78 -96 -73
-3 2 17 21 43 40 49 37 53 40 53 33z m-4553 -83 c-3 -10 -5 -2 -5 17 0 19 2
27 5 18 2 -10 2 -26 0 -35z m-1442 6 c0 -15 -7 -25 -17 -27 -13 -3 -18 3 -18
21 0 13 3 27 7 31 13 12 28 -1 28 -25z m1452 -51 c-3 -8 -6 -5 -6 6 -1 11 2
17 5 13 3 -3 4 -12 1 -19z m4393 8 c0 -2 -8 -10 -17 -17 -16 -13 -17 -12 -4 4
13 16 21 21 21 13z m-3055 -145 c284 -114 592 -216 1005 -333 237 -67 307 -71
490 -30 235 53 894 262 1164 369 111 45 140 53 147 42 5 -8 9 -19 9 -25 0 -10
-299 -134 -408 -169 -59 -19 -65 -32 -8 -17 21 6 34 7 31 1 -4 -5 -2 -9 4 -9
5 0 13 4 16 10 10 16 45 32 45 21 0 -5 -18 -22 -40 -38 -26 -18 -39 -34 -36
-45 2 -9 -4 -28 -14 -43 -10 -16 -16 -35 -13 -44 4 -12 2 -13 -4 -3 -6 7 -17
10 -27 6 -13 -5 -16 -13 -11 -32 6 -24 5 -24 -24 7 -17 18 -31 29 -31 24 0 -6
9 -18 20 -28 11 -10 20 -23 20 -29 0 -6 -5 -4 -10 4 -7 10 -12 12 -17 4 -5 -6
-18 -14 -31 -18 -12 -4 -20 -12 -17 -17 4 -5 1 -9 -4 -9 -6 0 -11 5 -11 11 0
5 -4 7 -10 4 -5 -3 -10 -1 -10 4 0 6 -5 11 -10 11 -6 0 -5 -8 2 -20 7 -11 19
-20 26 -20 7 0 10 -5 7 -11 -4 -6 -13 -8 -21 -5 -8 3 -13 2 -13 -2 5 -28 -3
-33 -20 -14 -23 27 -34 28 -26 2 4 -12 2 -20 -5 -20 -7 0 -10 -8 -7 -20 3 -13
0 -20 -9 -20 -8 0 -24 -9 -36 -20 l-22 -20 35 -1 34 -1 -30 -8 c-16 -5 -83
-21 -149 -35 l-118 -27 -72 -65 c-80 -74 -100 -105 -116 -181 -9 -39 -15 -52
-26 -48 -8 3 -14 1 -14 -4 0 -15 -20 -12 -37 5 -20 20 -28 12 -14 -14 14 -26
-7 -41 -24 -17 -11 14 -14 14 -25 2 -6 -9 -9 -20 -5 -25 3 -7 0 -8 -10 -5 -11
4 -14 13 -9 28 6 21 6 21 -9 1 -11 -15 -13 -25 -5 -40 9 -18 8 -17 -11 3 -25
25 -43 29 -35 7 4 -8 1 -15 -4 -15 -6 0 -14 10 -18 22 -6 20 -8 20 -19 5 -9
-12 -14 -14 -23 -5 -9 9 -12 9 -12 0 0 -11 12 -16 32 -14 3 1 9 -5 12 -13 7
-20 -12 -29 -29 -15 -8 7 -15 9 -15 4 0 -5 -4 -3 -9 4 -7 11 -9 10 -14 -3 -4
-9 -3 -14 2 -11 5 3 14 -1 21 -10 10 -11 10 -18 2 -26 -9 -9 -12 -8 -12 5 0 9
-4 17 -9 17 -17 0 -42 -32 -37 -46 3 -8 -1 -14 -9 -14 -13 0 -15 42 -15 292 0
160 -2 289 -4 287 -3 -2 -6 -30 -7 -61 -1 -32 -6 -63 -11 -70 -6 -10 -8 -10
-8 2 0 13 -1 13 -10 0 -8 -12 -10 -10 -10 9 0 24 0 24 -14 5 -15 -19 -15 -19
-29 1 -9 11 -13 23 -11 27 3 4 -1 5 -9 2 -8 -3 -21 1 -28 9 -33 33 -57 39 -86
20 -24 -16 -26 -16 -21 -2 5 13 2 16 -12 12 -14 -4 -23 2 -31 21 -10 22 -17
25 -43 20 -16 -3 -35 -9 -42 -15 -16 -13 -26 15 -11 31 9 9 9 11 -3 10 -25 -4
-40 0 -39 8 3 19 -2 32 -12 32 -8 0 -8 -5 1 -15 9 -10 9 -15 1 -15 -6 0 -11 5
-11 11 0 5 -5 7 -11 3 -8 -5 -8 -1 0 14 14 26 14 35 0 26 -7 -4 -7 1 1 16 11
20 10 21 -11 9 -19 -9 -24 -9 -34 5 -7 9 -18 16 -26 16 -10 0 -10 -3 -1 -12
17 -17 15 -33 -2 -19 -7 6 -22 8 -32 4 -18 -7 -18 -6 -1 11 9 9 17 23 17 29 0
9 -2 9 -8 0 -5 -8 -12 -9 -22 -2 -13 8 -13 10 0 20 12 8 9 9 -10 3 -14 -4 -28
-12 -32 -18 -5 -7 -8 -6 -8 5 0 8 6 21 13 28 10 11 8 12 -9 3 -11 -6 -26 -7
-33 -3 -10 7 -8 12 9 24 21 15 20 16 -37 32 -197 57 -763 268 -763 285 0 5 3
15 6 24 6 16 -3 19 149 -43z m-1308 -53 c-3 -7 -5 -2 -5 12 0 14 2 19 5 13 2
-7 2 -19 0 -25z m4113 28 c0 -3 -65 -37 -145 -76 -84 -41 -151 -80 -159 -93
-7 -12 -42 -100 -77 -194 l-64 -173 -37 0 c-34 0 -320 -57 -400 -80 -53 -15
-94 -53 -114 -105 -33 -88 -5 -258 58 -349 l22 -31 -26 23 c-46 41 -80 135
-86 232 -8 141 33 217 132 244 78 22 398 85 420 83 19 -2 19 -1 132 309 8 23
25 51 37 62 12 11 85 49 162 86 148 70 145 68 145 62z m-4103 -68 c-3 -8 -6
-5 -6 6 -1 11 2 17 5 13 3 -3 4 -12 1 -19z m5050 -24 c-3 -3 -12 -4 -19 -1 -8
3 -5 6 6 6 11 1 17 -2 13 -5z m88 -8 c19 -8 35 -20 35 -27 0 -8 -4 -8 -15 1
-8 7 -32 18 -52 26 -21 7 -30 13 -20 14 10 0 33 -7 52 -14z m-5096 -126 c16
-63 33 -123 36 -132 10 -26 -28 -23 -93 7 -95 44 -112 61 -112 108 0 23 4 37
8 31 4 -6 32 -14 62 -18 30 -4 61 -13 69 -19 14 -12 14 0 -5 127 -7 49 3 20
35 -104z m5981 84 c0 -17 -22 -14 -28 4 -2 7 3 12 12 12 9 0 16 -7 16 -16z
m-4530 -79 c15 -33 46 -109 68 -170 88 -240 113 -305 156 -419 25 -66 44 -121
42 -123 -6 -7 -108 252 -237 601 -33 88 -67 169 -76 180 -17 20 -17 20 1 6 11
-8 32 -42 46 -75z m-90 54 c22 -12 38 -24 35 -29 -2 -4 11 -54 30 -110 19 -57
33 -105 31 -107 -1 -2 -22 46 -44 105 -36 92 -48 113 -79 135 -45 32 -30 35
27 6z m4777 -21 c-3 -8 -6 -5 -6 6 -1 11 2 17 5 13 3 -3 4 -12 1 -19z m-7681
-23 c12 -48 -13 -73 -61 -61 -20 5 -25 13 -25 40 0 41 5 46 46 46 27 0 35 -5
40 -25z m5344 18 c0 -5 -9 -30 -20 -58 -12 -27 -18 -39 -15 -25 3 14 8 40 12
58 3 17 10 32 14 32 5 0 9 -3 9 -7z m1208 -26 c-40 -77 -236 -225 -385 -293
-190 -87 -743 -217 -743 -176 0 13 -12 10 225 56 422 82 673 195 841 379 57
63 86 79 62 34z m-513 -82 c-8 -38 -21 -92 -29 -120 -11 -36 -12 -51 -4 -56
20 -13 -326 -106 -356 -96 -5 2 17 9 49 15 108 22 205 54 205 69 0 18 47 110
60 118 6 3 17 21 26 38 31 65 55 109 59 106 1 -2 -3 -35 -10 -74z m855 40 c0
-35 -2 -37 -95 -82 -53 -25 -98 -44 -100 -41 -3 3 0 18 6 34 6 16 13 24 16 17
7 -20 153 57 159 84 9 33 14 28 14 -12z m-3497 9 c7 -8 -3 -34 -13 -34 -5 0
-8 9 -7 20 1 20 8 25 20 14z m42 -14 c-3 -5 -11 -10 -16 -10 -6 0 -7 5 -4 10
3 6 11 10 16 10 6 0 7 -4 4 -10z m-766 -60 c0 -9 -4 -8 -9 5 -5 11 -9 27 -9
35 0 9 4 8 9 -5 5 -11 9 -27 9 -35z m3621 -20 c-52 -40 -256 -138 -266 -127
-2 2 26 16 64 30 37 15 101 47 142 71 82 49 99 56 60 26z m-4323 -127 c15 -11
15 -13 1 -13 -23 0 -38 23 -44 67 l-4 38 15 -40 c8 -22 23 -46 32 -52z m1080
-87 c-4 -11 -48 110 -46 128 0 6 11 -18 25 -53 14 -35 23 -69 21 -75z m1943
108 c0 -8 -4 -12 -10 -9 -5 3 -10 10 -10 16 0 5 5 9 10 9 6 0 10 -7 10 -16z
m-1337 -17 c3 -8 -1 -14 -8 -14 -7 0 -11 6 -8 14 3 7 6 13 8 13 2 0 5 -6 8
-13z m3635 -29 c7 -7 12 -31 12 -54 0 -37 2 -42 20 -37 15 4 20 0 20 -16 0
-11 -6 -21 -13 -21 -7 0 -20 -9 -30 -20 -18 -22 -27 -23 -104 -14 l-53 7 0 78
0 78 43 4 c84 7 93 7 105 -5z m-3368 -58 c8 -5 11 -12 7 -17 -5 -4 -11 -3 -15
3 -4 6 -14 14 -22 17 -13 5 -13 5 0 6 8 0 22 -3 30 -9z m1373 3 c-13 -2 -35
-2 -50 0 -16 2 -5 4 22 4 28 0 40 -2 28 -4z m3042 -23 c0 -20 -6 -26 -26 -28
-19 -2 -28 2 -31 15 -8 30 2 44 31 41 20 -2 26 -8 26 -28z m-3230 10 c-3 -5
-14 -10 -23 -9 -14 0 -13 2 3 9 27 11 27 11 20 0z m-1125 -31 c11 -19 10 -20
-9 -9 -12 6 -21 15 -21 20 0 18 19 11 30 -11z m1633 14 c-7 -2 -19 -2 -25 0
-7 3 -2 5 12 5 14 0 19 -2 13 -5z m-628 -13 c-28 -12 -37 -12 -30 0 3 6 16 10
28 9 21 0 21 -1 2 -9z m2895 -26 c0 -26 -17 -33 -26 -9 -8 20 3 48 16 40 5 -3
10 -17 10 -31z m-2382 19 c-10 -2 -26 -2 -35 0 -10 3 -2 5 17 5 19 0 27 -2 18
-5z m-608 -13 c-14 -4 -36 -8 -50 -8 l-25 0 25 8 c14 4 36 8 50 8 l25 0 -25
-8z m538 3 c-10 -2 -26 -2 -35 0 -10 3 -2 5 17 5 19 0 27 -2 18 -5z m-4967
-46 c-8 -8 -11 -7 -11 4 0 20 13 34 18 19 3 -7 -1 -17 -7 -23z m4299 23 c12
-8 10 -10 -11 -10 -14 0 -36 -11 -49 -25 -13 -14 -31 -25 -39 -25 -11 0 -3 12
21 35 39 37 53 41 78 25z m47 4 c-3 -3 -12 -4 -19 -1 -8 3 -5 6 6 6 11 1 17
-2 13 -5z m573 -41 c0 -9 -3 -14 -6 -11 -3 4 -35 -2 -70 -12 -62 -17 -65 -17
-74 1 -14 25 -13 28 8 23 9 -2 42 2 72 9 61 15 70 14 70 -10z m-170 -33 c0 -3
-28 -12 -62 -19 -35 -8 -71 -18 -80 -23 -12 -6 -20 -3 -27 11 -9 17 -6 19 37
25 26 4 63 13 82 19 32 12 49 7 50 -13z m-484 -25 c63 -63 96 -232 59 -308
-21 -44 -38 -51 -76 -31 -22 11 -40 35 -62 82 -29 60 -32 76 -32 160 0 81 3
95 19 108 30 21 64 17 92 -11z m292 -16 c2 -13 -13 -19 -75 -30 -101 -17 -94
-18 -105 10 -7 19 -6 22 4 13 10 -7 32 -5 78 8 74 22 94 21 98 -1z m-4620 -13
c3 -13 -1 -17 -14 -14 -11 2 -20 11 -22 22 -3 13 1 17 14 14 11 -2 20 -11 22
-22z m917 -17 c-8 -12 -45 -7 -45 7 0 7 10 9 25 6 14 -2 22 -8 20 -13z m-630
-20 c10 -30 -10 -47 -25 -20 -11 21 -6 41 10 41 5 0 12 -9 15 -21z m6395 -14
c0 -32 -2 -35 -30 -35 -26 0 -30 4 -30 28 0 35 6 42 37 42 20 0 23 -5 23 -35z
m-6030 -15 c0 -13 -1 -13 -10 0 -5 8 -10 22 -10 30 0 13 1 13 10 0 5 -8 10
-22 10 -30z m3770 30 c0 -5 -7 -10 -16 -10 -8 0 -12 5 -9 10 3 6 10 10 16 10
5 0 9 -4 9 -10z m810 -14 c0 -4 -178 -115 -217 -135 -19 -9 -22 -9 -17 3 3 8
13 17 22 20 27 10 61 32 85 54 12 11 45 29 72 40 28 11 51 20 53 21 1 1 2 -1
2 -3z m-4107 -26 c3 -3 7 -41 8 -85 l4 -80 -87 -3 -88 -3 0 92 0 91 79 -3 c44
-2 82 -6 84 -9z m3948 -37 c-12 -20 -14 -14 -5 12 4 9 9 14 11 11 3 -2 0 -13
-6 -23z m-3235 -3 c22 0 24 -4 24 -55 l0 -55 -55 0 -55 0 0 61 0 62 31 -7 c17
-3 42 -6 55 -6z m799 -100 c33 -18 71 -39 85 -46 14 -8 34 -14 45 -14 45 -1
64 -14 90 -61 14 -27 21 -49 16 -49 -12 0 -185 77 -271 120 -50 25 -57 33 -72
79 l-16 50 32 -23 c17 -13 58 -38 91 -56z m315 -125 c4 2 37 -11 73 -30 37
-19 68 -34 70 -34 9 2 57 -22 57 -29 0 -4 20 -14 44 -21 25 -7 47 -19 50 -28
3 -8 10 -11 16 -8 5 3 10 2 10 -4 0 -5 10 -12 23 -16 12 -3 31 -10 42 -15 43
-20 167 -59 222 -71 32 -6 53 -14 47 -16 -36 -13 -602 159 -643 195 -16 15
-102 210 -101 230 1 4 19 -30 42 -75 23 -45 44 -80 48 -78z m-2680 95 c0 -5
-7 -10 -15 -10 -8 0 -15 5 -15 10 0 6 7 10 15 10 8 0 15 -4 15 -10z m6130 -38
c-6 -2 -18 -1 -26 2 -14 5 -14 9 -3 22 12 14 14 14 26 -2 9 -13 10 -20 3 -22z
m-3857 -17 c-1 -5 -28 -24 -59 -42 -32 -18 -91 -60 -132 -95 -87 -74 -191
-148 -208 -148 -17 0 -25 27 -15 53 10 24 104 117 139 136 35 19 28 -7 -15
-53 -39 -40 -31 -40 25 1 17 13 39 38 48 55 25 49 225 135 217 93z m2467 -21
c39 -15 79 -37 88 -49 25 -32 145 -135 157 -135 5 0 -14 24 -43 53 -29 29 -52
56 -52 60 0 19 49 -9 97 -56 55 -53 84 -110 65 -129 -15 -15 -134 59 -229 142
-44 37 -97 77 -118 88 -22 11 -49 27 -60 36 -20 15 -20 15 2 16 12 0 54 -12
93 -26z m1068 0 c18 -5 22 -13 22 -45 l0 -39 -45 0 -45 0 0 39 c0 38 4 42 40
50 3 0 15 -2 28 -5z m-1653 -15 c19 0 19 -1 1 -8 -24 -9 -66 -2 -66 11 0 6 10
8 23 4 12 -3 31 -6 42 -7z m-4391 -21 c3 -13 6 -48 6 -79 l0 -56 -37 -7 c-21
-3 -59 -6 -85 -6 l-48 0 0 85 0 85 79 0 c73 0 79 -2 85 -22z m2126 -106 c-63
-61 -72 -88 -50 -146 5 -15 6 -26 1 -26 -5 0 -30 -9 -56 -20 -42 -18 -45 -21
-34 -41 21 -40 -11 -10 -42 39 -28 44 -36 91 -23 127 4 9 25 25 48 37 46 24
197 88 208 88 4 0 -20 -26 -52 -58z m3155 28 c22 -10 69 -30 105 -45 82 -34
90 -41 90 -75 0 -30 -57 -149 -90 -190 -19 -22 -18 -19 3 25 13 28 28 61 32
74 6 20 4 23 -9 18 -10 -4 -31 0 -47 9 -23 12 -34 13 -44 4 -12 -10 -13 -7 -7
17 14 53 3 82 -54 138 -54 55 -52 57 21 25z m-4755 -40 c24 -24 25 -38 3 -62
-33 -37 -83 -17 -83 34 0 45 46 62 80 28z m4663 -79 c43 -23 76 -45 74 -48 -6
-5 -146 72 -162 89 -15 16 1 9 88 -41z m1735 12 c5 -10 7 -24 5 -30 -6 -18
-42 -16 -49 2 -15 38 26 63 44 28z m-4708 -7 c0 -7 -102 -67 -107 -63 -2 3 20
18 49 35 58 34 58 34 58 28z m1737 -32 c-3 -3 -12 -4 -19 -1 -8 3 -5 6 6 6 11
1 17 -2 13 -5z m-40 -10 c-3 -3 -12 -4 -19 -1 -8 3 -5 6 6 6 11 1 17 -2 13 -5z
m2013 -56 c245 -80 510 -187 510 -206 0 -11 -79 -85 -114 -107 -21 -12 -31
-14 -34 -7 -2 7 -18 12 -35 12 -18 0 -57 9 -87 21 -110 42 -132 49 -156 51
-13 1 -24 6 -24 10 0 4 -3 7 -7 6 -5 0 -15 1 -23 4 -79 28 -211 68 -217 66 -8
-3 -64 16 -94 32 -13 7 -34 -15 -100 -102 -46 -61 -97 -126 -113 -145 -27 -31
-27 -33 -7 -33 12 0 21 6 21 13 0 9 2 9 8 -1 5 -7 16 -10 25 -6 11 4 17 1 18
-7 0 -8 5 -3 10 10 9 23 10 24 24 5 9 -12 14 -14 15 -6 0 8 5 10 13 5 6 -4 24
-8 40 -9 25 -2 32 6 27 31 -1 6 12 -5 29 -24 17 -19 31 -30 31 -24 0 5 7 10
15 10 8 0 15 -4 15 -9 0 -4 12 -8 26 -8 15 0 34 -8 43 -17 9 -10 23 -19 31
-21 9 -1 4 7 -10 19 -22 18 -22 20 -5 16 11 -3 29 -8 39 -13 14 -5 17 -4 12 4
-12 20 5 13 26 -10 11 -13 16 -16 12 -8 -5 12 -4 13 6 3 8 -7 25 -9 43 -6 22
4 28 3 23 -6 -4 -6 -11 -9 -16 -6 -4 3 -11 -2 -14 -11 -5 -12 -2 -15 11 -9 10
4 41 14 68 22 28 8 63 22 79 30 16 8 25 10 21 3 -12 -20 -341 -160 -377 -160
-7 0 -20 -5 -28 -10 -11 -7 -2 -8 28 -4 35 6 41 4 37 -9 -4 -8 -1 -18 6 -23 8
-4 10 -3 5 4 -4 7 -3 12 2 12 14 0 22 -27 16 -47 -5 -14 -4 -15 4 -4 9 13 53
7 51 -7 -3 -20 2 -32 11 -27 6 4 8 10 5 15 -3 5 0 12 6 16 7 4 9 3 5 -4 -3 -5
0 -12 6 -15 19 -6 3 -19 -26 -21 -14 0 -26 -4 -26 -9 0 -4 -6 -6 -12 -5 -7 2
-12 -3 -10 -9 4 -22 -28 -14 -37 9 -6 16 -10 18 -16 8 -5 -9 -4 -15 3 -18 13
-4 17 -42 5 -42 -16 0 -32 16 -41 39 l-8 23 -18 -28 c-10 -16 -13 -24 -6 -17
10 9 18 8 35 -5 20 -15 21 -18 6 -30 -23 -19 72 29 164 82 48 28 68 36 50 21
-65 -55 -250 -153 -264 -140 -3 3 0 9 6 13 20 12 -2 35 -26 27 -13 -4 -21 -2
-21 5 0 6 5 8 13 4 7 -5 7 -1 -3 12 -8 10 -16 21 -17 23 -1 2 -9 -2 -18 -9
-11 -9 -15 -9 -15 -1 0 9 -5 9 -20 1 -11 -6 -18 -15 -15 -21 4 -5 10 -7 14 -5
4 3 13 0 21 -5 11 -6 4 -8 -21 -6 -24 1 -35 6 -32 15 8 19 -7 14 -26 -10 -16
-19 -18 -20 -24 -3 -5 12 -3 16 7 12 8 -3 17 1 20 10 9 23 -1 28 -19 9 -20
-20 -19 -20 -56 -1 -16 9 -35 13 -41 9 -7 -5 -9 -2 -6 7 4 9 -1 15 -11 16 -9
1 -29 7 -46 13 -24 9 -27 13 -15 21 16 11 -18 8 -170 -15 -47 -7 -87 -11 -89
-9 -2 1 70 78 160 170 91 93 188 196 216 229 70 86 158 222 200 311 l36 75 41
-6 c22 -4 110 -30 196 -58z m-2053 46 c-3 -3 -12 -4 -19 -1 -8 3 -5 6 6 6 11
1 17 -2 13 -5z m-54 -11 c-7 -2 -19 -2 -25 0 -7 3 -2 5 12 5 14 0 19 -2 13 -5z
m3440 -118 c9 -31 17 -62 17 -70 0 -18 -30 -19 -65 -3 -20 9 -25 18 -25 50 0
35 7 43 33 39 4 0 7 8 7 19 0 37 16 20 33 -35z m-6363 -190 c27 -29 29 -26
-30 -55 -25 -13 -65 -36 -89 -53 -25 -17 -51 -30 -60 -30 -8 0 -27 -12 -43
-27 -18 -18 -39 -27 -64 -28 -20 -1 -44 -7 -53 -14 -9 -7 2 7 24 31 64 68 249
201 281 201 6 0 21 -11 34 -25z m1225 -220 c33 -33 127 -121 207 -194 81 -74
145 -137 143 -140 -3 -2 -40 23 -82 56 -71 55 -84 60 -143 67 -283 32 -601
112 -810 204 -92 40 -199 97 -145 77 93 -36 178 -65 187 -65 7 0 7 5 -1 14 -9
10 -7 13 6 13 35 0 44 3 38 13 -3 6 2 10 12 10 10 0 30 8 43 17 14 10 27 17
30 16 3 -1 4 6 2 15 -2 15 -1 15 7 2 6 -8 11 -11 11 -6 0 5 8 2 17 -5 15 -12
16 -12 10 3 -4 12 -2 15 9 11 7 -3 14 -9 14 -14 0 -6 9 -5 20 1 11 6 20 8 20
5 0 -4 7 0 15 9 8 8 15 20 15 27 0 8 3 9 13 0 8 -6 17 -8 21 -4 13 13 35 11
29 -3 -4 -11 5 -13 41 -10 25 2 47 0 49 -3 2 -3 2 0 0 8 -2 8 2 18 9 23 18 11
30 10 23 -1 -3 -6 3 -9 14 -8 21 1 19 5 -17 57 -9 14 17 -11 58 -55 41 -44
102 -107 135 -140z m-245 135 c0 -5 -7 -10 -15 -10 -8 0 -15 5 -15 10 0 6 7
10 15 10 8 0 15 -4 15 -10z m-173 -15 c0 -8 -4 -15 -9 -15 -10 0 -11 14 -1 23
9 10 10 9 10 -8z m3448 5 c-4 -6 -70 -69 -148 -140 l-141 -129 -18 30 c-10 16
-25 32 -33 35 -22 9 -103 -22 -175 -66 -36 -22 -78 -40 -94 -40 -28 0 -28 0
-24 -55 4 -53 4 -54 -14 -38 -10 9 -18 24 -18 34 0 16 -9 14 -72 -16 -73 -35
-98 -42 -98 -27 0 5 -18 27 -41 49 -52 52 -59 53 -534 53 -213 1 -377 5 -385
10 -11 7 -8 10 15 11 46 1 67 7 75 20 4 6 12 9 18 5 6 -3 13 -3 16 2 2 4 -6 9
-18 10 -13 1 -34 6 -47 11 -17 7 -7 8 36 3 33 -4 148 -7 255 -6 214 1 304 13
458 63 48 16 89 27 91 25 4 -4 -107 -54 -120 -54 -4 0 -11 -5 -15 -12 -4 -6
-3 -8 4 -4 6 3 18 -1 26 -10 9 -8 16 -13 16 -9 0 4 7 0 15 -9 8 -8 15 -19 15
-24 0 -5 10 -13 23 -19 17 -8 26 -7 37 5 14 15 15 15 18 -1 4 -20 18 -23 57
-12 43 13 54 18 49 26 -3 5 7 4 22 -1 20 -8 29 -8 34 1 6 8 9 8 14 0 4 -6 13
-11 19 -11 7 0 6 4 -3 11 -12 9 -12 10 4 5 11 -4 22 -3 25 2 3 5 38 26 76 47
39 21 85 50 102 63 18 13 59 39 90 58 l58 34 -35 -30 c-19 -16 -97 -71 -172
-121 -125 -83 -155 -109 -129 -109 5 0 14 7 21 15 6 8 45 33 87 55 41 23 117
70 170 106 52 36 93 58 90 49 -7 -17 10 -20 32 -6 8 5 24 6 35 1 12 -4 31 -4
43 1 18 7 21 5 16 -8 -5 -12 -3 -14 8 -8 29 17 125 93 143 114 20 22 32 28 21
11z m-1442 -22 c-13 -6 -23 -17 -23 -24 0 -7 -9 -12 -20 -11 -11 1 -20 5 -20
11 0 5 -8 15 -17 22 -16 12 -10 13 42 13 50 0 56 -2 38 -11z m-1257 -114 c13
3 24 1 24 -4 0 -5 21 -8 48 -5 27 2 46 8 44 14 -1 6 22 -4 50 -23 139 -89 272
-166 280 -164 6 2 -21 23 -58 48 -38 24 -99 62 -135 86 -37 23 -70 47 -73 53
-7 10 96 -51 214 -128 30 -20 65 -36 78 -37 31 -1 54 -24 26 -25 -15 -1 -14
-3 6 -8 21 -6 18 -9 -24 -15 -41 -6 -51 -4 -70 12 -32 30 -189 122 -208 122
-24 0 -60 -50 -55 -77 5 -25 -3 -23 -48 18 -16 15 -78 69 -137 119 -126 107
-150 135 -53 62 49 -37 74 -51 91 -48z m3368 -88 c-10 -8 -21 -12 -24 -10 -5
6 21 24 34 24 6 0 1 -6 -10 -14z m16 -36 c0 -5 -7 -7 -15 -4 -8 4 -15 8 -15
10 0 2 7 4 15 4 8 0 15 -4 15 -10z m-1602 -18 c2 -7 -2 -10 -12 -6 -9 3 -16
11 -16 16 0 13 23 5 28 -10z m-1068 -38 c-25 -7 -49 -13 -55 -13 -18 1 59 27
80 28 11 0 0 -7 -25 -15z m-153 -20 c-3 -3 -12 -4 -19 -1 -8 3 -5 6 6 6 11 1
17 -2 13 -5z m3454 -5 c14 -7 18 -16 14 -30 -4 -11 -2 -19 5 -19 7 0 8 -6 1
-18 -15 -28 -56 -26 -76 4 -15 23 -15 27 0 50 17 27 27 29 56 13z m-3006 -9
c-168 -13 -306 -18 -301 -12 11 10 134 19 266 19 l135 0 -100 -7z m535 0 c14
-5 -70 -8 -197 -9 -138 -1 -224 3 -228 9 -7 12 387 12 425 0z m187 0 c26 0 43
-8 69 -34 41 -41 43 -55 7 -48 -16 3 -22 7 -15 10 27 9 -10 32 -53 32 -26 0
-48 6 -55 15 -7 8 -22 15 -34 16 -20 0 -21 1 -1 9 11 5 26 7 33 4 8 -2 29 -4
49 -4z m-2027 -10 c0 -5 -5 -10 -11 -10 -5 0 -7 5 -4 10 3 6 8 10 11 10 2 0 4
-4 4 -10z m-912 -94 c90 -23 157 -66 199 -128 38 -58 53 -123 53 -231 -1 -240
-81 -399 -235 -471 -33 -16 -62 -30 -63 -31 -4 -4 121 -238 204 -383 30 -52
54 -95 54 -98 0 -2 -92 -4 -204 -4 l-203 0 -50 108 c-28 59 -72 155 -98 215
l-48 107 -112 0 -112 0 -18 -215 -18 -215 -173 0 c-172 0 -174 0 -174 22 0 12
11 154 25 317 23 287 57 726 71 921 4 52 9 99 11 103 3 5 188 7 411 5 353 -3
417 -6 480 -22z m3917 -7 c10 -10 -8 -157 -28 -217 l-12 -37 -140 -2 c-77 -2
-146 1 -154 6 -19 12 -40 249 -24 259 16 10 346 2 358 -9z m-2205 5 c0 -3 18
-99 40 -212 119 -606 141 -718 143 -726 2 -5 40 83 85 195 45 112 131 326 191
474 l109 270 186 3 c102 1 186 0 186 -2 0 -3 -44 -105 -99 -228 -173 -391
-348 -788 -418 -953 l-69 -160 -206 -3 -206 -2 -21 87 c-11 49 -40 178 -65
288 -25 110 -72 315 -105 455 -33 140 -71 308 -86 374 -15 65 -29 125 -32 132
-4 12 27 14 181 14 102 0 186 -3 186 -6z m-720 -334 c115 -15 168 -37 220 -89
38 -38 50 -59 65 -115 17 -64 18 -81 6 -240 -17 -236 -27 -304 -52 -370 -37
-100 -109 -162 -226 -194 -75 -20 -380 -22 -468 -3 -166 37 -245 132 -245 294
0 85 28 393 41 452 34 150 123 228 296 259 92 17 258 19 363 6z m2238 -24 c36
-12 69 -32 102 -64 83 -80 93 -152 65 -447 -27 -272 -56 -351 -153 -414 -77
-49 -143 -61 -344 -61 -236 0 -303 15 -376 84 -76 71 -87 131 -68 391 17 224
27 287 63 362 38 83 95 124 216 158 75 21 420 15 495 -9z m1607 13 c8 -9 -11
-117 -35 -199 l-19 -65 -220 0 c-193 0 -222 -2 -237 -17 -13 -13 -20 -51 -30
-160 -7 -79 -15 -168 -18 -199 -9 -96 -15 -93 249 -97 l226 -3 -6 -102 c-9
-156 0 -143 -106 -150 -145 -11 -403 -8 -461 4 -133 28 -198 99 -214 232 -4
30 -1 131 5 224 22 313 39 381 117 453 86 79 142 90 476 87 146 -1 269 -5 273
-8z m754 1 c106 -18 174 -61 214 -135 19 -35 22 -56 22 -170 0 -145 -13 -186
-74 -238 -61 -51 -115 -60 -363 -61 l-228 -1 0 -62 c0 -53 3 -64 21 -73 14 -8
110 -10 302 -8 l282 3 3 -32 c7 -66 -57 -149 -148 -192 -55 -26 -57 -26 -300
-26 l-245 0 -67 33 c-143 70 -166 150 -138 487 17 217 42 301 110 378 32 37
124 83 192 96 62 13 342 13 417 1z m-1713 -13 c2 -1 -10 -147 -27 -323 -16
-175 -35 -395 -42 -489 l-12 -170 -153 -3 -152 -3 0 48 c0 27 4 95 10 153 13
141 60 739 60 767 0 16 7 23 28 25 32 5 283 0 288 -5z m-4989 -684 c-3 -10 -5
-2 -5 17 0 19 2 27 5 18 2 -10 2 -26 0 -35z m-10 -120 c-3 -10 -5 -2 -5 17 0
19 2 27 5 18 2 -10 2 -26 0 -35z m19 -270 c11 -15 36 -38 54 -50 32 -22 42
-23 249 -24 119 -1 230 -5 246 -10 17 -4 -75 -7 -220 -6 -241 3 -252 4 -287
25 -57 36 -78 90 -76 198 l1 89 6 -97 c5 -76 10 -103 27 -125z m1794 -78 c17
-9 60 -15 130 -16 101 -2 103 -2 40 -9 -36 -4 -281 -5 -545 -1 l-480 6 397 5
c299 4 400 8 410 18 15 15 17 15 48 -3z m-943 -21 c-3 -3 -12 -4 -19 -1 -8 3
-5 6 6 6 11 1 17 -2 13 -5z m4578 -4 c4 -6 -10 -10 -35 -10 -25 0 -39 4 -35
10 3 6 19 10 35 10 16 0 32 -4 35 -10z"/>
<path d="M7170 8386 c0 -2 8 -10 18 -17 15 -13 16 -12 3 4 -13 16 -21 21 -21
13z"/>
<path d="M7250 8305 c13 -14 26 -25 28 -25 3 0 -5 11 -18 25 -13 14 -26 25
-28 25 -3 0 5 -11 18 -25z"/>
<path d="M7677 7959 c66 -128 133 -287 154 -364 9 -31 14 -35 43 -35 30 0 35
-4 54 -47 32 -78 84 -245 87 -286 2 -34 14 -47 116 -140 63 -56 134 -118 159
-136 25 -19 65 -53 89 -75 52 -50 52 -46 -21 128 -150 361 -356 670 -670 1005
l-80 86 69 -136z m638 -899 c3 -6 -4 -10 -17 -10 -18 0 -20 2 -8 10 19 12 18
12 25 0z"/>
<path d="M2536 7953 c-79 -90 -85 -99 -66 -107 31 -14 25 -38 -9 -34 -35 3
-66 -19 -51 -37 8 -10 8 -15 -1 -20 -6 -4 -14 -2 -18 4 -9 14 -22 0 -80 -83
-22 -32 -38 -63 -35 -68 3 -4 0 -7 -7 -6 -6 2 -14 -3 -16 -10 -3 -7 0 -11 5
-10 6 2 12 -1 13 -7 2 -5 -8 -11 -23 -13 -14 -2 -29 -10 -32 -18 -4 -9 -2 -12
5 -8 6 3 3 -7 -6 -22 -45 -79 -65 -108 -65 -94 -1 9 -6 5 -14 -10 -8 -14 -12
-28 -10 -31 2 -4 -3 -12 -11 -19 -8 -7 -15 -18 -15 -26 0 -23 -23 -64 -35 -64
-12 0 -75 -126 -75 -150 0 -7 7 -21 16 -31 22 -24 10 -54 -29 -70 -44 -18 -56
-36 -43 -64 l11 -23 39 31 c22 17 87 75 144 129 l105 98 23 88 c12 48 38 130
57 182 31 86 37 95 64 101 44 9 49 14 62 64 12 49 111 275 161 369 17 31 29
56 27 56 -3 0 -43 -44 -91 -97z m15 -26 c-8 -8 -11 -7 -11 4 0 20 13 34 18 19
3 -7 -1 -17 -7 -23z"/>
<path d="M7992 7153 c1 -4 -1 -52 -6 -106 -6 -76 -4 -102 6 -115 9 -12 10 -14
1 -8 -10 5 -13 -4 -13 -36 0 -28 3 -38 9 -29 11 17 53 -3 45 -22 -2 -7 4 -13
16 -14 12 -1 18 2 14 9 -4 7 -2 8 5 4 9 -6 9 -11 1 -21 -7 -9 -6 -16 5 -25 12
-10 17 -8 25 11 8 18 9 9 5 -41 -10 -145 -14 -344 -6 -320 5 14 9 18 10 11 1
-9 4 -11 10 -5 15 15 44 308 45 448 1 113 -1 130 -17 140 -10 6 -41 33 -70 59
-52 49 -89 75 -85 60z"/>
<path d="M8066 6757 c3 -10 9 -15 12 -12 3 3 0 11 -7 18 -10 9 -11 8 -5 -6z"/>
<path d="M8032 6013 c-12 -75 -20 -138 -18 -140 2 -2 14 1 28 6 23 8 26 17 32
84 7 75 -1 187 -13 187 -4 0 -17 -62 -29 -137z"/>
<path d="M2176 6112 c-15 -17 -15 -30 -5 -118 6 -54 13 -101 15 -104 3 -2 16
-6 29 -7 22 -3 24 -1 20 24 -3 15 -12 71 -21 123 -8 52 -17 96 -18 97 -2 2
-10 -5 -20 -15z"/>
<path d="M1180 6080 c0 -5 5 -10 10 -10 6 0 10 5 10 10 0 6 -4 10 -10 10 -5 0
-10 -4 -10 -10z"/>
<path d="M2358 5883 c7 -3 16 -2 19 1 4 3 -2 6 -13 5 -11 0 -14 -3 -6 -6z"/>
<path d="M4818 9073 c7 -3 16 -2 19 1 4 3 -2 6 -13 5 -11 0 -14 -3 -6 -6z"/>
<path d="M4898 8675 c-2 -2 -26 -6 -53 -9 -28 -4 -66 -8 -85 -11 -40 -6 -142
-36 -150 -44 -3 -3 -16 -7 -30 -9 -66 -7 -78 -10 -111 -26 -18 -10 -46 -20
-62 -22 -15 -2 -46 -12 -70 -23 -23 -10 -76 -31 -117 -45 -41 -15 -79 -31 -85
-35 -5 -5 -59 -34 -120 -65 -60 -31 -118 -62 -128 -69 -14 -10 -20 -9 -28 3
-22 31 6 -43 167 -445 130 -325 169 -415 191 -432 41 -34 205 -86 553 -177
340 -88 341 -88 575 -30 459 115 649 174 692 217 25 25 67 120 202 459 94 235
171 429 171 432 0 3 -7 3 -15 0 -8 -3 -25 6 -40 20 -14 14 -32 23 -40 20 -9
-4 -15 0 -15 8 0 11 -85 58 -106 58 -3 0 -39 16 -82 36 -42 20 -112 47 -157
61 -44 13 -87 27 -95 31 -8 3 -22 7 -30 8 -8 2 -46 13 -85 24 -38 12 -81 24
-95 26 -14 3 -35 10 -47 16 -13 6 -26 9 -29 5 -4 -3 -16 -1 -28 5 -24 13 -468
20 -553 9 -28 -4 -60 -4 -71 0 -11 4 -22 6 -24 4z m285 -707 c17 13 67 21 73
11 2 -4 25 -6 50 -5 36 3 44 1 40 -11 -4 -11 -1 -13 14 -8 12 4 20 2 20 -5 0
-7 7 -9 16 -6 12 5 15 2 10 -10 -4 -12 -2 -15 9 -10 8 3 15 2 15 -3 0 -4 11
-13 25 -19 15 -7 22 -17 19 -25 -3 -8 8 -24 25 -38 20 -16 27 -27 20 -35 -14
-17 8 -59 37 -73 20 -9 23 -15 18 -41 -7 -31 9 -43 20 -15 3 8 13 15 23 15 15
0 16 -2 3 -10 -8 -5 -15 -20 -15 -33 -1 -14 -10 -38 -20 -54 -12 -17 -19 -43
-17 -66 1 -34 -2 -39 -28 -49 -19 -6 -30 -17 -30 -29 0 -21 -25 -26 -33 -6 -4
7 -6 6 -6 -5 -1 -25 -23 -27 -43 -4 -11 13 -17 16 -18 8 0 -7 6 -20 14 -28 13
-12 27 -12 108 7 51 12 131 31 178 44 110 29 150 38 150 31 0 -14 -371 -122
-589 -172 l-154 -34 -181 44 c-207 51 -287 75 -301 89 -7 7 -3 7 10 3 38 -14
320 -75 360 -78 22 -2 43 -7 47 -13 4 -5 6 0 5 13 -1 21 -17 32 -17 12 0 -5
-6 -10 -14 -10 -8 0 -17 15 -20 35 -4 19 -11 35 -16 35 -5 0 -14 10 -21 21 -8
15 -8 19 0 15 6 -4 11 -2 11 3 0 6 -8 11 -17 11 -9 0 -25 8 -35 17 -18 16 -18
17 8 40 15 13 24 26 21 30 -4 3 -15 -1 -25 -10 -13 -12 -19 -13 -19 -5 0 7 -4
22 -9 32 -6 15 -4 18 7 12 8 -4 4 1 -8 12 -27 23 -29 38 -8 46 9 3 15 0 15 -9
0 -9 6 -12 15 -9 13 5 13 8 0 21 -16 15 -54 9 -67 -11 -4 -6 -9 -8 -12 -5 -3
3 6 18 19 33 14 16 25 26 25 22 0 -4 5 -4 10 -1 18 11 0 26 -19 15 -15 -7 -20
-4 -30 16 -14 31 -14 37 -1 29 6 -4 7 1 3 11 -5 13 -3 16 10 11 22 -8 22 12 0
29 -17 13 -17 13 1 14 12 0 16 5 12 15 -3 8 0 15 5 15 7 0 9 -9 6 -21 -4 -15
-1 -19 11 -17 11 2 17 13 16 28 -1 15 9 33 22 45 13 11 24 27 24 34 0 8 6 11
15 7 24 -9 44 4 40 25 -3 13 0 19 8 16 7 -3 11 -10 10 -16 -5 -19 13 -12 39
14 15 15 32 23 41 19 9 -3 24 -1 34 5 14 7 19 6 21 -5 3 -10 8 -12 15 -6z
m-123 2 c0 -5 -2 -10 -4 -10 -3 0 -8 5 -11 10 -3 6 -1 10 4 10 6 0 11 -4 11
-10z m-545 -140 c10 -11 15 -26 12 -34 -5 -13 -88 -56 -109 -56 -9 0 -42 69
-36 76 2 1 16 9 31 17 39 20 82 19 102 -3z m1042 -66 c-3 -3 -12 -4 -19 -1 -8
3 -5 6 6 6 11 1 17 -2 13 -5z m-707 -71 c0 -5 -4 -14 -9 -21 -6 -10 -10 -9
-14 7 -3 14 0 21 9 21 8 0 14 -3 14 -7z m1120 -148 c-13 -14 -28 -25 -33 -25
-5 0 4 13 19 30 16 16 30 27 33 25 2 -3 -6 -16 -19 -30z m-434 -102 c-10 -10
-19 5 -10 18 6 11 8 11 12 0 2 -7 1 -15 -2 -18z m-576 -43 c-24 -15 -36 -11
-14 4 10 8 21 12 24 10 2 -3 -2 -9 -10 -14z"/>
<path d="M4947 7860 c-3 -11 -1 -20 4 -20 5 0 9 2 9 4 0 2 3 11 6 20 3 9 2 16
-4 16 -5 0 -12 -9 -15 -20z"/>
<path d="M5467 7829 c7 -9 10 -19 6 -23 -4 -4 1 -4 10 0 10 3 17 7 15 8 -2 1
-12 8 -23 16 -18 14 -19 13 -8 -1z"/>
<path d="M5525 7690 c-3 -5 1 -10 10 -10 9 0 13 5 10 10 -3 6 -8 10 -10 10 -2
0 -7 -4 -10 -10z"/>
<path d="M5528 7642 c-12 -15 -11 -16 4 -3 15 11 19 11 24 -2 3 -9 2 -21 -2
-28 -4 -7 -2 -10 7 -7 22 7 22 32 0 45 -16 10 -22 9 -33 -5z"/>
<path d="M5530 7518 c0 -16 5 -28 10 -28 13 0 13 20 0 40 -8 12 -10 9 -10 -12z"/>
<path d="M4935 7501 c-6 -11 9 -23 19 -14 9 9 7 23 -3 23 -6 0 -12 -4 -16 -9z"/>
<path d="M5010 7435 c0 -11 30 -37 39 -33 5 2 -2 11 -15 21 -13 10 -24 15 -24
12z"/>
<path d="M5385 7399 c-10 -15 3 -25 16 -12 7 7 7 13 1 17 -6 3 -14 1 -17 -5z"/>
<path d="M5325 7380 l-20 -9 20 0 c11 0 27 4 35 9 13 9 13 10 0 9 -8 0 -24 -4
-35 -9z"/>
<path d="M3876 8175 c14 -33 33 -75 41 -94 8 -18 16 -31 18 -29 7 7 -45 132
-66 158 -16 20 -14 12 7 -35z"/>
<path d="M6346 8145 c-9 -26 -7 -32 5 -12 6 10 9 21 6 23 -2 3 -7 -2 -11 -11z"/>
<path d="M6390 7879 c0 -5 5 -7 10 -4 6 3 10 8 10 11 0 2 -4 4 -10 4 -5 0 -10
-5 -10 -11z"/>
<path d="M6191 5114 c0 -11 3 -14 6 -6 3 7 2 16 -1 19 -3 4 -6 -2 -5 -13z"/>
<path d="M6154 5059 c-4 -7 -3 -9 4 -5 5 3 13 0 15 -6 4 -9 6 -10 6 -1 1 17
-16 25 -25 12z"/>
<path d="M4578 4983 c7 -3 16 -2 19 1 4 3 -2 6 -13 5 -11 0 -14 -3 -6 -6z"/>
<path d="M6068 4973 c-19 -5 -24 -18 -10 -27 4 -2 13 4 20 15 7 10 11 18 10
18 -2 -1 -11 -3 -20 -6z"/>
<path d="M4758 4933 c7 -3 16 -2 19 1 4 3 -2 6 -13 5 -11 0 -14 -3 -6 -6z"/>
<path d="M4695 4853 c-3 -10 -3 -14 1 -11 3 4 14 -3 24 -14 l17 -22 12 22 c9
18 9 21 -2 16 -8 -3 -21 2 -30 10 -13 14 -16 14 -22 -1z"/>
<path d="M4905 4790 c-3 -5 -1 -10 4 -10 6 0 11 5 11 10 0 6 -2 10 -4 10 -3 0
-8 -4 -11 -10z"/>
<path d="M6960 3230 c-13 -9 -13 -10 0 -10 8 0 22 5 30 10 13 9 13 10 0 10 -8
0 -22 -5 -30 -10z"/>
<path d="M6838 3203 c6 -2 18 -2 25 0 6 3 1 5 -13 5 -14 0 -19 -2 -12 -5z"/>
<path d="M7200 3196 c0 -9 5 -16 10 -16 6 0 10 4 10 9 0 6 -4 13 -10 16 -5 3
-10 -1 -10 -9z"/>
<path d="M7255 3200 c3 -5 1 -10 -6 -10 -10 0 -10 -3 -2 -11 6 -6 16 -8 22 -5
12 8 4 36 -11 36 -5 0 -6 -4 -3 -10z"/>
<path d="M2108 2604 c-8 -99 -14 -181 -12 -183 2 -2 82 -5 176 -5 150 -1 178
2 211 18 56 28 79 80 85 191 4 86 3 93 -21 120 l-25 29 -199 4 -199 4 -16
-178z"/>
<path d="M4259 2194 c-13 -16 -10 -33 36 -229 13 -55 29 -129 36 -163 12 -64
12 -64 42 -58 16 3 103 6 194 6 l164 0 36 78 c47 100 133 314 133 328 0 18
-203 34 -247 20 -12 -4 -36 -32 -54 -64 l-33 -57 -12 50 c-22 95 -17 91 -152
94 -50 1 -100 4 -111 6 -11 2 -25 -3 -32 -11z"/>
<path d="M3354 2440 c-12 -4 -24 -15 -27 -22 -2 -8 -13 -105 -23 -217 -13
-146 -15 -207 -8 -219 10 -14 32 -17 146 -20 187 -4 173 -20 195 241 13 150
14 213 7 225 -10 14 -31 17 -140 19 -71 1 -138 -2 -150 -7z"/>
<path d="M5486 2447 c-20 -15 -40 -143 -52 -342 -8 -140 -11 -137 140 -143
149 -6 172 4 181 83 16 121 31 361 25 385 -6 25 -7 25 -141 28 -100 2 -139 -1
-153 -11z"/>
<path d="M5182 2167 c-27 -12 -32 -34 -32 -157 0 -137 20 -181 101 -222 68
-34 103 -38 329 -38 192 -1 199 0 271 21 123 36 176 126 192 327 5 67 0 70
-126 73 -75 2 -100 0 -111 -11 -7 -8 -19 -51 -25 -95 -17 -118 -20 -120 -190
-120 -180 0 -184 3 -180 122 2 46 -1 87 -6 92 -13 13 -198 19 -223 8z"/>
<path d="M6691 2166 c-16 -7 -20 -23 -26 -110 -9 -137 15 -220 78 -261 35 -22
161 -34 419 -38 l226 -3 6 29 c3 16 6 60 6 98 l0 69 -209 0 c-263 0 -257 -3
-253 124 2 64 -1 88 -10 91 -26 8 -218 10 -237 1z"/>
<path d="M7934 2474 c-39 -9 -56 -39 -61 -109 l-6 -65 150 0 c104 0 154 4 165
13 23 18 33 116 14 142 -13 18 -27 20 -128 22 -62 0 -123 -1 -134 -3z"/>
<path d="M7588 2172 c-23 -4 -28 -33 -28 -152 0 -149 33 -209 135 -248 85 -33
415 -43 543 -16 94 19 135 43 167 98 29 50 32 81 8 90 -10 4 -137 4 -284 0
-265 -7 -266 -7 -288 15 -19 19 -21 31 -19 94 l3 72 250 5 c166 3 257 9 270
17 16 9 17 13 5 17 -16 6 -736 13 -762 8z"/>
<path d="M6249 2181 c-22 -18 -30 -73 -53 -353 l-7 -78 130 0 c127 0 131 1
135 23 3 12 12 105 21 207 19 217 21 210 -84 211 -36 0 -78 2 -93 4 -16 2 -37
-4 -49 -14z"/>
</g>
</svg>
